<svg width="335" height="228" viewBox="0 0 335 228" fill="none" xmlns="http://www.w3.org/2000/svg">
<g clip-path="url(#clip0_324_9030)">
<rect width="335" height="228" rx="24" fill="#F4F4F4"/>
<path d="M59.4941 70.675V73H23.9441V71.2L46.4441 48.55C49.4941 45.5 51.5441 42.9 52.5941 40.75C53.6941 38.55 54.2441 36.3 54.2441 34C54.2441 30.45 53.0191 27.65 50.5691 25.6C48.1691 23.55 44.7191 22.525 40.2191 22.525C36.7191 22.525 33.6691 23.05 31.0691 24.1C28.5191 25.1 26.3191 26.675 24.4691 28.825L22.7441 27.175C26.7941 22.525 32.6441 20.2 40.2941 20.2C45.3441 20.2 49.3441 21.425 52.2941 23.875C55.2441 26.325 56.7191 29.65 56.7191 33.85C56.7191 36.5 56.1191 39.05 54.9191 41.5C53.7191 43.95 51.4941 46.8 48.2441 50.05L27.7691 70.675H59.4941ZM107.891 57.85H96.4913V73H94.0163V57.85H63.8663V56.05L92.8913 20.5H95.8163L67.1663 55.6H94.0163V42.25H96.4913V55.6H107.891V57.85Z" fill="#2B714F"/>
<line x1="149.855" y1="125.154" x2="229.365" y2="125.154" stroke="#2B714F" stroke-width="0.927115"/>
<line x1="189.146" y1="165.373" x2="189.146" y2="85.8621" stroke="#2B714F" stroke-width="0.927115"/>
<line x1="189.752" y1="125.451" x2="195.556" y2="140.54" stroke="#2B714F" stroke-width="0.927115"/>
<line y1="-0.463558" x2="16.1672" y2="-0.463558" transform="matrix(-0.358979 0.933346 0.933346 0.358979 189.32 125.617)" stroke="#2B714F" stroke-width="0.927115"/>
<line x1="189.067" y1="125.364" x2="172.817" y2="141.614" stroke="#2B714F" stroke-width="0.927115"/>
<line y1="-0.463558" x2="22.9814" y2="-0.463558" transform="matrix(0.707107 0.707107 0.707107 -0.707107 189.9 125.036)" stroke="#2B714F" stroke-width="0.927115"/>
<path d="M229.288 85.6497H149.855V165.083H229.288V85.6497Z" stroke="#2B714F" stroke-width="0.927115" stroke-miterlimit="10"/>
<path d="M189.923 125.023C189.649 125.152 189.385 124.827 189.568 124.586L199.162 111.869C201.033 109.39 204.847 109.71 206.278 112.462C207.386 114.593 206.502 117.21 204.331 118.233L189.923 125.023Z" stroke="#2B714F" stroke-width="0.927115" stroke-miterlimit="10"/>
<path d="M188.977 125.023C189.252 125.152 189.515 124.827 189.333 124.586L179.739 111.869C177.868 109.39 174.053 109.71 172.622 112.462C171.514 114.593 172.399 117.21 174.57 118.233L188.977 125.023Z" stroke="#2B714F" stroke-width="0.927115" stroke-miterlimit="10"/>
<line x1="119.031" y1="165.148" x2="313" y2="165.148" stroke="#2B714F" stroke-width="0.927115"/>
<line x1="119.031" y1="214.671" x2="313" y2="214.671" stroke="#2B714F" stroke-width="0.927115"/>
<line x1="166.955" y1="165.612" x2="166.955" y2="215.136" stroke="#2B714F" stroke-width="0.927115"/>
<line x1="263.939" y1="165.612" x2="263.939" y2="215.136" stroke="#2B714F" stroke-width="0.927115"/>
<path d="M119.547 116.603C49.9037 116.603 49.9037 214.62 119.547 214.62" stroke="#2B714F" stroke-width="0.927115"/>
<rect x="229.453" y="58.7221" width="66.1367" height="106.375" stroke="#2B714F" stroke-width="0.927115"/>
<path d="M263.353 58.1151C262.972 58.2946 262.606 57.8437 262.859 57.5076L276.189 39.8405C278.788 36.3953 284.088 36.8402 286.076 40.6636C287.616 43.6242 286.387 47.26 283.37 48.6815L263.353 58.1151Z" stroke="#2B714F" stroke-width="0.927115" stroke-miterlimit="10"/>
<path d="M262.04 58.1151C262.42 58.2946 262.787 57.8437 262.533 57.5076L249.204 39.8405C246.604 36.3953 241.304 36.8402 239.317 40.6636C237.777 43.6242 239.006 47.26 242.022 48.6815L262.04 58.1151Z" stroke="#2B714F" stroke-width="0.927115" stroke-miterlimit="10"/>
<line x1="262.036" y1="58.4633" x2="239.458" y2="81.0407" stroke="#2B714F" stroke-width="0.927115"/>
<line y1="-0.463558" x2="31.9293" y2="-0.463558" transform="matrix(0.707107 0.707107 0.707107 -0.707107 263.322 58.1355)" stroke="#2B714F" stroke-width="0.927115"/>
<path d="M40.242 97.956H41.478V100.836H40.362V99H33.45L33.438 100.836H32.322L32.334 97.956H32.742C33.894 97.884 34.17 95.856 34.254 93.3L34.338 90.6H40.242V97.956ZM35.31 93.408C35.238 95.46 35.034 97.308 34.314 97.956H39.054V91.644H35.37L35.31 93.408ZM44.3185 97.956H49.2145V99H43.1185V90.6H49.0465V91.644H44.3185V94.224H48.5305V95.244H44.3185V97.956ZM56.751 99L54.027 95.304H52.275V99H51.099V90.6H52.275V94.248H54.051L56.691 90.6H57.975L54.975 94.668L58.119 99H56.751ZM65.6158 99L64.6918 96.9H60.2278L59.3038 99H58.0678L61.8718 90.6H63.0598L66.8758 99H65.6158ZM60.6478 95.94H64.2718L62.4598 91.824L60.6478 95.94ZM68.3256 99V90.6H74.6616V91.62H69.5136V94.02H72.1296C74.1336 94.02 75.1896 94.872 75.1896 96.444C75.1896 98.088 74.0256 99 71.9256 99H68.3256ZM69.5136 98.052H71.8776C73.2576 98.052 73.9896 97.512 73.9896 96.492C73.9896 95.46 73.2816 94.968 71.8776 94.968H69.5136V98.052ZM80.3789 90.6C82.5629 90.6 83.8829 91.704 83.8829 93.528C83.8829 95.352 82.5629 96.456 80.3789 96.456H78.3029V99H77.1029V90.6H80.3789ZM80.3429 95.412C81.8789 95.412 82.6829 94.728 82.6829 93.528C82.6829 92.328 81.8789 91.644 80.3429 91.644H78.3029V95.412H80.3429ZM88.1486 90.6H91.5206V99H90.3446V96.552H88.0286C87.9206 96.552 87.8126 96.552 87.7046 96.54L86.0246 99H84.7526L86.6126 96.336C85.4246 95.94 84.7526 94.98 84.7526 93.624C84.7526 91.704 86.0846 90.6 88.1486 90.6ZM85.9646 93.612C85.9646 94.848 86.6966 95.544 88.1246 95.544H90.3446V91.644H88.1966C86.7686 91.644 85.9646 92.316 85.9646 93.612Z" fill="#2B714F"/>
</g>
<defs>
<clipPath id="clip0_324_9030">
<rect width="335" height="228" rx="24" fill="white"/>
</clipPath>
</defs>
</svg>
