<svg width="244" height="204" viewBox="0 0 244 204" fill="none" xmlns="http://www.w3.org/2000/svg">
<g clip-path="url(#clip0_436_13723)">
<rect width="244" height="204" rx="24" fill="#378861"/>
<path d="M178.064 21V70H175.754V23.17H163.434V21H178.064ZM223.962 21V22.68L202.402 70H199.812L221.232 23.17H191.762V32.83H189.452V21H223.962Z" fill="white"/>
<path d="M172.242 87.956H173.478V90.836H172.362V89H165.45L165.438 90.836H164.322L164.334 87.956H164.742C165.894 87.884 166.17 85.856 166.254 83.3L166.338 80.6H172.242V87.956ZM167.31 83.408C167.238 85.46 167.034 87.308 166.314 87.956H171.054V81.644H167.37L167.31 83.408ZM176.319 87.956H181.215V89H175.119V80.6H181.047V81.644H176.319V84.224H180.531V85.244H176.319V87.956ZM188.751 89L186.027 85.304H184.275V89H183.099V80.6H184.275V84.248H186.051L188.691 80.6H189.975L186.975 84.668L190.119 89H188.751ZM197.616 89L196.692 86.9H192.228L191.304 89H190.068L193.872 80.6H195.06L198.876 89H197.616ZM192.648 85.94H196.272L194.46 81.824L192.648 85.94ZM200.326 89V80.6H206.662V81.62H201.514V84.02H204.13C206.134 84.02 207.19 84.872 207.19 86.444C207.19 88.088 206.026 89 203.926 89H200.326ZM201.514 88.052H203.878C205.258 88.052 205.99 87.512 205.99 86.492C205.99 85.46 205.282 84.968 203.878 84.968H201.514V88.052ZM212.379 80.6C214.563 80.6 215.883 81.704 215.883 83.528C215.883 85.352 214.563 86.456 212.379 86.456H210.303V89H209.103V80.6H212.379ZM212.343 85.412C213.879 85.412 214.683 84.728 214.683 83.528C214.683 82.328 213.879 81.644 212.343 81.644H210.303V85.412H212.343ZM220.149 80.6H223.521V89H222.345V86.552H220.029C219.921 86.552 219.813 86.552 219.705 86.54L218.025 89H216.753L218.613 86.336C217.425 85.94 216.753 84.98 216.753 83.624C216.753 81.704 218.085 80.6 220.149 80.6ZM217.965 83.612C217.965 84.848 218.697 85.544 220.125 85.544H222.345V81.644H220.197C218.769 81.644 217.965 82.316 217.965 83.612Z" fill="white"/>
<path d="M125.999 69.0926V134.963" stroke="white" stroke-miterlimit="10"/>
<path d="M159 102.094H93.1573" stroke="white" stroke-miterlimit="10"/>
<path d="M145.667 82.4258L106.437 121.683" stroke="white" stroke-miterlimit="10"/>
<path d="M145.667 121.762L106.437 82.5317" stroke="white" stroke-miterlimit="10"/>
<rect x="107.167" y="87.1807" width="5.76852" height="5.76852" transform="rotate(-45 107.167 87.1807)" fill="#378861"/>
<rect x="136.833" y="87.1807" width="5.76852" height="5.76852" transform="rotate(-45 136.833 87.1807)" fill="#378861"/>
<rect x="136.833" y="116.847" width="5.76852" height="5.76852" transform="rotate(-45 136.833 116.847)" fill="#378861"/>
<rect x="106.343" y="116.023" width="5.76852" height="5.76852" transform="rotate(-45 106.343 116.023)" fill="#378861"/>
<path d="M125.708 150.278L126.894 153.909C127.233 154.949 128.047 155.758 129.081 156.097L132.713 157.282L129.081 158.468C128.041 158.807 127.233 159.621 126.894 160.655L125.708 164.287L124.523 160.655C124.184 159.616 123.37 158.807 122.335 158.468L118.704 157.282L122.335 156.097C123.375 155.758 124.184 154.944 124.523 153.909L125.708 150.278Z" stroke="white" stroke-miterlimit="10"/>
<path d="M125.708 39.0001L126.894 42.6317C127.233 43.6716 128.047 44.4799 129.081 44.8193L132.713 46.0047L129.081 47.1901C128.041 47.5296 127.233 48.3432 126.894 49.3777L125.708 53.0093L124.523 49.3777C124.184 48.3378 123.37 47.5296 122.335 47.1901L118.704 46.0047L122.335 44.8193C123.375 44.4799 124.184 43.6662 124.523 42.6317L125.708 39.0001Z" stroke="white" stroke-miterlimit="10"/>
<path d="M68.0046 94.6392L69.19 98.2708C69.5295 99.3108 70.3431 100.119 71.3776 100.458L75.0093 101.644L71.3776 102.829C70.3377 103.169 69.5295 103.982 69.19 105.017L68.0046 108.648L66.8193 105.017C66.4798 103.977 65.6662 103.169 64.6316 102.829L61 101.644L64.6316 100.458C65.6715 100.119 66.4798 99.3054 66.8193 98.2708L68.0046 94.6392Z" stroke="white" stroke-miterlimit="10"/>
<path d="M90.6713 104.528C89.0783 104.528 87.787 103.237 87.787 101.644C87.787 100.051 89.0783 98.7593 90.6713 98.7593C92.2642 98.7593 93.5555 100.051 93.5555 101.644C93.5555 103.237 92.2642 104.528 90.6713 104.528Z" stroke="white" stroke-miterlimit="10"/>
<path d="M125.708 140.621C124.115 140.621 122.824 139.329 122.824 137.736C122.824 136.143 124.115 134.852 125.708 134.852C127.301 134.852 128.593 136.143 128.593 137.736C128.593 139.329 127.301 140.621 125.708 140.621Z" stroke="white" stroke-miterlimit="10"/>
<path d="M125.884 68.7686C124.291 68.7686 123 67.4773 123 65.8843C123 64.2914 124.291 63.0001 125.884 63.0001C127.477 63.0001 128.769 64.2914 128.769 65.8843C128.769 67.4773 127.477 68.7686 125.884 68.7686Z" stroke="white" stroke-miterlimit="10"/>
<path d="M161.884 104.769C160.291 104.769 159 103.477 159 101.884C159 100.291 160.291 99.0001 161.884 99.0001C163.477 99.0001 164.769 100.291 164.769 101.884C164.769 103.477 163.477 104.769 161.884 104.769Z" stroke="white" stroke-miterlimit="10"/>
<path d="M195.566 183.369L223.592 183.347L223.562 146.279L201.282 146.297L201.288 154.723L194.039 154.729C188.229 154.734 183.507 150.02 183.503 144.209C183.498 138.399 188.212 133.677 194.022 133.672L211.351 133.659L211.381 170.157L197.882 170.168C184.317 170.179 173.304 159.192 173.293 145.619C173.282 132.054 184.269 121.041 197.842 121.03L223.541 121.009" stroke="white" stroke-miterlimit="10"/>
<path d="M48.0253 183.36L20 183.338L20.0298 146.27L42.3099 146.287L42.3031 154.714L49.5524 154.72C55.3629 154.724 60.0843 150.01 60.089 144.2C60.0937 138.389 55.3799 133.668 49.5693 133.663L32.2403 133.649L32.2109 170.148L45.7098 170.158C59.2741 170.169 70.2875 159.183 70.2984 145.609C70.3093 132.045 59.323 121.032 45.7494 121.021L20.0502 121" stroke="white" stroke-miterlimit="10"/>
<path d="M48.0253 21.0178L20 21.0403L20.0298 58.1084L42.3099 58.0905L42.3031 49.6642L49.5524 49.6583C55.3629 49.6536 60.0843 54.3675 60.089 60.178C60.0937 65.9886 55.3799 70.71 49.5693 70.7147L32.2403 70.7287L32.2109 34.2303L45.7098 34.2194C59.2741 34.2085 70.2875 45.195 70.2984 58.7686C70.3093 72.3328 59.323 83.3463 45.7494 83.3572L20.0502 83.3779" stroke="white" stroke-miterlimit="10"/>
<line x1="20.5" y1="83" x2="20.5" y2="121" stroke="white"/>
<line x1="223.5" y1="97.5" x2="223.5" y2="121.5" stroke="white"/>
<circle cx="147.5" cy="21" r="1.5" fill="white"/>
<circle cx="223.5" cy="96.5" r="1.5" fill="white"/>
<line x1="209" y1="183.3" x2="31" y2="183.3" stroke="white"/>
<line x1="147" y1="21" x2="41" y2="21" stroke="white"/>
</g>
<defs>
<clipPath id="clip0_436_13723">
<rect width="244" height="204" rx="24" fill="white"/>
</clipPath>
</defs>
</svg>
