<svg width="375" height="664" viewBox="0 0 375 664" fill="none" xmlns="http://www.w3.org/2000/svg">
<g id="51">
<g id="popup-december-20__decor--8 anim-rotate">
<g id="Frame 2087323974">
<g clip-path="url(#clip0_449_15255)">
<circle id="Ellipse 28" cx="302.623" cy="199.731" r="46.1315" stroke="white" stroke-width="1.1677"/>
<path id="Vector" d="M266.657 171.015C269.965 168.121 271.46 176.036 273.81 176.036C276.159 176.036 278.509 171.015 280.858 171.015C283.208 171.015 285.557 176.036 287.907 176.036C290.256 176.036 292.606 171.015 294.956 171.015C297.305 171.015 299.655 176.036 302.004 176.036C304.354 176.036 306.703 171.015 309.053 171.015C311.402 171.015 313.752 176.036 316.101 176.036C318.451 176.036 320.8 171.015 323.15 171.015C325.5 171.015 327.849 176.036 330.199 176.036C332.548 176.036 334.898 171.015 337.247 171.015C339.597 171.015 341.946 176.036 344.296 176.036C346.645 176.036 348.995 171.015 351.344 171.015C353.694 171.015 356.043 176.036 358.393 176.036C360.743 176.036 363.092 171.015 365.442 171.015C367.791 171.015 369.183 172.669 370.837 173.909" stroke="white" stroke-width="1.1677" stroke-linecap="round" stroke-linejoin="round"/>
<path id="Vector_2" d="M263.349 223.105C266.656 220.211 268.152 228.126 270.501 228.126C272.851 228.126 275.2 223.105 277.55 223.105C279.899 223.105 282.249 228.126 284.598 228.126C286.948 228.126 289.297 223.105 291.647 223.105C293.996 223.105 296.346 228.126 298.696 228.126C301.045 228.126 303.395 223.105 305.744 223.105C308.094 223.105 310.443 228.126 312.793 228.126C315.142 228.126 317.492 223.105 319.841 223.105C322.191 223.105 324.54 228.126 326.89 228.126C329.24 228.126 331.589 223.105 333.939 223.105C336.288 223.105 338.638 228.126 340.987 228.126C343.337 228.126 345.686 223.105 348.036 223.105C350.385 223.105 352.735 228.126 355.084 228.126C357.434 228.126 359.784 223.105 362.133 223.105C364.483 223.105 365.874 224.759 367.528 225.999" stroke="white" stroke-width="1.1677" stroke-linecap="round" stroke-linejoin="round"/>
</g>
</g>
<path id="Vector_3" d="M303.059 144.795L303.059 0" stroke="white" stroke-width="1.5" stroke-miterlimit="10"/>
<path id="Vector_4" d="M299.776 144.748H306.263C309.033 144.748 311.271 146.881 311.271 149.521L311.305 153.812C304.728 153.146 301.049 152.956 294.769 153.843V149.521C294.769 146.881 297.007 144.748 299.776 144.748Z" stroke="white" stroke-width="1.5" stroke-miterlimit="10"/>
</g>
<g id="popup-december-20__decor--7 anim-rotate">
<g id="Frame 2087323954">
<g clip-path="url(#clip1_449_15255)">
<g id="Group 1344">
<path id="Vector_5" d="M123.379 189.125C124.093 189.125 124.672 188.545 124.672 187.831C124.672 187.116 124.093 186.537 123.379 186.537C122.664 186.537 122.085 187.116 122.085 187.831C122.085 188.545 122.664 189.125 123.379 189.125Z" fill="white"/>
<path id="Vector_6" d="M129.268 189.264C129.983 189.264 130.562 188.685 130.562 187.97C130.562 187.256 129.983 186.676 129.268 186.676C128.554 186.676 127.975 187.256 127.975 187.97C127.975 188.685 128.554 189.264 129.268 189.264Z" fill="white"/>
<path id="Vector_7" d="M110.965 196.286C111.969 196.286 112.782 195.473 112.782 194.469C112.782 193.465 111.969 192.651 110.965 192.651C109.961 192.651 109.147 193.465 109.147 194.469C109.147 195.473 109.961 196.286 110.965 196.286Z" fill="white"/>
<path id="Vector_8" d="M156.823 201.531C157.55 201.531 158.14 200.941 158.14 200.214C158.14 199.487 157.55 198.897 156.823 198.897C156.095 198.897 155.506 199.487 155.506 200.214C155.506 200.941 156.095 201.531 156.823 201.531Z" fill="white"/>
<path id="Vector_9" d="M135.708 207.167C136.767 207.167 137.625 206.309 137.625 205.25C137.625 204.191 136.767 203.332 135.708 203.332C134.649 203.332 133.79 204.191 133.79 205.25C133.79 206.309 134.649 207.167 135.708 207.167Z" fill="white"/>
<path id="Vector_10" d="M141.776 209.817C142.503 209.817 143.093 209.228 143.093 208.5C143.093 207.773 142.503 207.184 141.776 207.184C141.049 207.184 140.459 207.773 140.459 208.5C140.459 209.228 141.049 209.817 141.776 209.817Z" fill="white"/>
<path id="Vector_11" d="M159.271 212.704C159.994 212.704 160.58 212.118 160.58 211.395C160.58 210.672 159.994 210.085 159.271 210.085C158.548 210.085 157.962 210.672 157.962 211.395C157.962 212.118 158.548 212.704 159.271 212.704Z" fill="white"/>
<path id="Vector_12" d="M127.63 214.138C128.689 214.138 129.548 213.279 129.548 212.22C129.548 211.161 128.689 210.303 127.63 210.303C126.571 210.303 125.713 211.161 125.713 212.22C125.713 213.279 126.571 214.138 127.63 214.138Z" fill="white"/>
<path id="Vector_13" d="M166.397 218.68C167.124 218.68 167.714 218.091 167.714 217.363C167.714 216.636 167.124 216.046 166.397 216.046C165.67 216.046 165.08 216.636 165.08 217.363C165.08 218.091 165.67 218.68 166.397 218.68Z" fill="white"/>
<path id="Vector_14" d="M153.25 219.205C153.978 219.205 154.567 218.615 154.567 217.888C154.567 217.16 153.978 216.571 153.25 216.571C152.523 216.571 151.934 217.16 151.934 217.888C151.934 218.615 152.523 219.205 153.25 219.205Z" fill="white"/>
<path id="Vector_15" d="M158.086 220.905C159.146 220.905 160.004 220.046 160.004 218.987C160.004 217.928 159.146 217.07 158.086 217.07C157.027 217.07 156.169 217.928 156.169 218.987C156.169 220.046 157.027 220.905 158.086 220.905Z" fill="white"/>
<path id="Vector_16" d="M128.823 222.508C129.55 222.508 130.14 221.918 130.14 221.191C130.14 220.464 129.55 219.874 128.823 219.874C128.095 219.874 127.506 220.464 127.506 221.191C127.506 221.918 128.095 222.508 128.823 222.508Z" fill="white"/>
<path id="Vector_17" d="M170.238 222.893C170.969 222.893 171.562 222.3 171.562 221.569C171.562 220.837 170.969 220.244 170.238 220.244C169.506 220.244 168.913 220.837 168.913 221.569C168.913 222.3 169.506 222.893 170.238 222.893Z" fill="white"/>
<path id="Vector_18" d="M114.922 223.109C115.658 223.109 116.254 222.513 116.254 221.777C116.254 221.041 115.658 220.445 114.922 220.445C114.186 220.445 113.59 221.041 113.59 221.777C113.59 222.513 114.186 223.109 114.922 223.109Z" fill="white"/>
<path id="Vector_19" d="M138.443 224.664C139.502 224.664 140.36 223.806 140.36 222.747C140.36 221.688 139.502 220.829 138.443 220.829C137.384 220.829 136.525 221.688 136.525 222.747C136.525 223.806 137.384 224.664 138.443 224.664Z" fill="white"/>
<path id="Vector_20" d="M202.984 224.294C203.707 224.294 204.293 223.707 204.293 222.984C204.293 222.261 203.707 221.675 202.984 221.675C202.261 221.675 201.675 222.261 201.675 222.984C201.675 223.707 202.261 224.294 202.984 224.294Z" fill="white"/>
<path id="Vector_21" d="M188.928 227.02C189.651 227.02 190.237 226.434 190.237 225.711C190.237 224.987 189.651 224.401 188.928 224.401C188.205 224.401 187.619 224.987 187.619 225.711C187.619 226.434 188.205 227.02 188.928 227.02Z" fill="white"/>
<path id="Vector_22" d="M155.268 227.374C156.004 227.374 156.6 226.778 156.6 226.042C156.6 225.306 156.004 224.71 155.268 224.71C154.532 224.71 153.936 225.306 153.936 226.042C153.936 226.778 154.532 227.374 155.268 227.374Z" fill="white"/>
<path id="Vector_23" d="M170.276 232.241C171.339 232.241 172.201 231.379 172.201 230.316C172.201 229.253 171.339 228.391 170.276 228.391C169.213 228.391 168.351 229.253 168.351 230.316C168.351 231.379 169.213 232.241 170.276 232.241Z" fill="white"/>
<path id="Vector_24" d="M201.883 233.074C202.619 233.074 203.215 232.478 203.215 231.742C203.215 231.006 202.619 230.41 201.883 230.41C201.147 230.41 200.551 231.006 200.551 231.742C200.551 232.478 201.147 233.074 201.883 233.074Z" fill="white"/>
<path id="Vector_25" d="M179.541 237.609C180.269 237.609 180.858 237.019 180.858 236.292C180.858 235.565 180.269 234.975 179.541 234.975C178.814 234.975 178.225 235.565 178.225 236.292C178.225 237.019 178.814 237.609 179.541 237.609Z" fill="white"/>
<path id="Vector_26" d="M156.145 237.864C156.876 237.864 157.469 237.271 157.469 236.539C157.469 235.808 156.876 235.215 156.145 235.215C155.413 235.215 154.82 235.808 154.82 236.539C154.82 237.271 155.413 237.864 156.145 237.864Z" fill="white"/>
<path id="Vector_27" d="M116.255 241.282C116.987 241.282 117.58 240.689 117.58 239.958C117.58 239.226 116.987 238.633 116.255 238.633C115.524 238.633 114.931 239.226 114.931 239.958C114.931 240.689 115.524 241.282 116.255 241.282Z" fill="white"/>
<path id="Vector_28" d="M180.304 251.078C181.359 251.078 182.214 250.223 182.214 249.168C182.214 248.113 181.359 247.258 180.304 247.258C179.25 247.258 178.395 248.113 178.395 249.168C178.395 250.223 179.25 251.078 180.304 251.078Z" fill="white"/>
<path id="Vector_29" d="M190.622 257.27C192.145 257.27 193.379 256.035 193.379 254.513C193.379 252.99 192.145 251.756 190.622 251.756C189.1 251.756 187.865 252.99 187.865 254.513C187.865 256.035 189.1 257.27 190.622 257.27Z" fill="white"/>
<path id="Vector_30" d="M195.997 259.072C196.72 259.072 197.306 258.486 197.306 257.763C197.306 257.04 196.72 256.454 195.997 256.454C195.274 256.454 194.688 257.04 194.688 257.763C194.688 258.486 195.274 259.072 195.997 259.072Z" fill="white"/>
<path id="Vector_31" d="M133.86 260.443C134.919 260.443 135.777 259.584 135.777 258.525C135.777 257.466 134.919 256.608 133.86 256.608C132.801 256.608 131.942 257.466 131.942 258.525C131.942 259.584 132.801 260.443 133.86 260.443Z" fill="white"/>
<path id="Vector_32" d="M153.234 266.373C154.761 266.373 155.999 265.135 155.999 263.608C155.999 262.082 154.761 260.844 153.234 260.844C151.707 260.844 150.47 262.082 150.47 263.608C150.47 265.135 151.707 266.373 153.234 266.373Z" fill="white"/>
<path id="Vector_33" d="M164.616 275.198C165.671 275.198 166.526 274.343 166.526 273.288C166.526 272.233 165.671 271.378 164.616 271.378C163.561 271.378 162.706 272.233 162.706 273.288C162.706 274.343 163.561 275.198 164.616 275.198Z" fill="white"/>
<path id="Vector_34" d="M137.086 282.367C137.818 282.367 138.411 281.774 138.411 281.043C138.411 280.311 137.818 279.718 137.086 279.718C136.355 279.718 135.762 280.311 135.762 281.043C135.762 281.774 136.355 282.367 137.086 282.367Z" fill="white"/>
</g>
</g>
<rect x="111.141" y="189.319" width="91.9307" height="91.9307" rx="45.9654" stroke="white" stroke-width="1.5"/>
</g>
<path id="Vector_35" d="M157.682 180.41L157.682 0" stroke="white" stroke-width="1.5" stroke-miterlimit="10"/>
<path id="Vector_36" d="M154.258 180.301H160.746C163.515 180.301 165.753 182.435 165.753 185.075L165.787 189.366C159.21 188.699 155.531 188.51 149.251 189.396V185.075C149.251 182.435 151.489 180.301 154.258 180.301Z" stroke="white" stroke-width="1.5" stroke-miterlimit="10"/>
</g>
<g id="popup-december-20__decor--6 anim-rotate">
<path id="Vector_37" d="M220.164 77.4778L220.164 0.583496" stroke="white" stroke-width="1.5" stroke-miterlimit="10"/>
<g id="Group 1364">
<path id="Vector_38" d="M212.466 87.2192C201.808 94.6568 183.371 110.101 183.371 127.942C183.371 153.037 219.846 173.39 219.846 173.39C219.846 173.39 256.322 153.037 256.322 127.942C256.322 110.244 238.179 94.9044 227.484 87.3996" stroke="white" stroke-width="1.5" stroke-miterlimit="10"/>
<path id="Vector_39" d="M217.076 77.4775H223.252C225.889 77.4775 228.019 79.8052 228.019 82.6852V87.3994H212.31V82.6852C212.31 79.8052 214.44 77.4775 217.076 77.4775Z" stroke="white" stroke-width="1.5" stroke-miterlimit="10"/>
</g>
<g id="Group 1225">
<path id="Vector_40" d="M220.965 111.377V145.153" stroke="white" stroke-width="1.5" stroke-miterlimit="10"/>
<path id="Vector_41" d="M204.042 128.299H237.804" stroke="white" stroke-width="1.5" stroke-miterlimit="10"/>
<path id="Vector_42" d="M210.878 118.214L230.994 138.344" stroke="white" stroke-width="1.5" stroke-miterlimit="10"/>
<path id="Vector_43" d="M210.878 138.385L230.994 118.269" stroke="white" stroke-width="1.5" stroke-miterlimit="10"/>
</g>
</g>
<path id="popup-december-20__decor--5 anim-scale" d="M312 302L315.554 312.888C316.571 316.005 319.011 318.429 322.112 319.446L333 323L322.112 326.554C318.995 327.572 316.571 330.011 315.554 333.112L312 344L308.446 333.112C307.429 329.995 304.989 327.572 301.888 326.554L291 323L301.888 319.446C305.005 318.429 307.429 315.989 308.446 312.888L312 302Z" stroke="white" stroke-width="1.5" stroke-miterlimit="10"/>
<path id="popup-december-20__decor--4 anim-scale" d="M97 38L100.554 48.8877C101.571 52.0054 104.011 54.4285 107.112 55.4462L118 59L107.112 62.554C103.995 63.5717 101.571 66.0108 100.554 69.1123L97 80L93.4462 69.1123C92.4285 65.9946 89.9892 63.5717 86.8877 62.554L76 59L86.8877 55.4462C90.0054 54.4285 92.4285 51.9892 93.4462 48.8877L97 38Z" stroke="white" stroke-width="1.5" stroke-miterlimit="10"/>
<path id="popup-december-20__decor--3 anim-scale" d="M40 97L42.0307 103.222C42.6123 105.003 44.0062 106.388 45.7785 106.969L52 109L45.7785 111.031C43.9969 111.612 42.6123 113.006 42.0307 114.778L40 121L37.9693 114.778C37.3877 112.997 35.9938 111.612 34.2215 111.031L28 109L34.2215 106.969C36.0031 106.388 37.3877 104.994 37.9693 103.222L40 97Z" stroke="white" stroke-width="1.5" stroke-miterlimit="10"/>
<path id="popup-december-20__decor--2 anim-scale" d="M84 152L86.0307 158.222C86.6123 160.003 88.0062 161.388 89.7785 161.969L96 164L89.7785 166.031C87.9969 166.612 86.6123 168.006 86.0307 169.778L84 176L81.9693 169.778C81.3877 167.997 79.9938 166.612 78.2215 166.031L72 164L78.2215 161.969C80.0031 161.388 81.3877 159.994 81.9693 158.222L84 152Z" stroke="white" stroke-width="1.5" stroke-miterlimit="10"/>
<path id="popup-december-20__decor--1 anim-scale" d="M32 259L34.0307 265.222C34.6123 267.003 36.0062 268.388 37.7785 268.969L44 271L37.7785 273.031C35.9969 273.612 34.6123 275.006 34.0307 276.778L32 283L29.9693 276.778C29.3877 274.997 27.9938 273.612 26.2215 273.031L20 271L26.2215 268.969C28.0031 268.388 29.3877 266.994 29.9693 265.222L32 259Z" stroke="white" stroke-width="1.5" stroke-miterlimit="10"/>
</g>
<defs>
<clipPath id="clip0_449_15255">
<rect x="255.908" y="153.016" width="93.4307" height="93.4307" rx="46.7154" fill="white"/>
</clipPath>
<clipPath id="clip1_449_15255">
<rect x="110.391" y="188.569" width="93.4307" height="93.4307" rx="46.7154" fill="white"/>
</clipPath>
</defs>
</svg>
