<svg width="1085" height="600" viewBox="0 0 1085 600" fill="none" xmlns="http://www.w3.org/2000/svg">
<g clip-path="url(#clip0_422_9564)">
<rect width="1085" height="600" rx="21.188" fill="#F4F4F4"/>
<path d="M679.1 232.415L724.988 190.606" stroke="#2B714F" stroke-width="2" stroke-linecap="round"/>
<path d="M1025.83 142.492L910.744 56.8814C910.037 56.3554 909.072 56.3431 908.351 56.8509L786.879 142.492" stroke="#2B714F" stroke-width="2" stroke-linecap="round"/>
<path d="M907.919 363.604C908.286 363.339 908.781 363.341 909.145 363.609L1133.41 528.83C1134.22 529.425 1133.8 530.707 1132.79 530.707H680.295C679.287 530.707 678.869 529.416 679.686 528.825L907.919 363.604Z" stroke="#2B714F" stroke-width="2"/>
<path d="M679.1 232.414V530.178" stroke="#2B714F" stroke-width="2" stroke-linecap="round"/>
<path d="M883.047 381.296L680.119 232.414" stroke="#2B714F" stroke-width="2" stroke-linecap="round"/>
<path d="M933.013 381.296L1132.88 232.414" stroke="#2B714F" stroke-width="2" stroke-linecap="round"/>
<path d="M726.008 265.046V144.717C726.008 143.591 726.921 142.678 728.047 142.678H1085.97C1087.1 142.678 1088.01 143.591 1088.01 144.717V265.046" stroke="#2B714F" stroke-width="2" stroke-linecap="round"/>
<path d="M800.187 238.533V319.875" stroke="#2B714F" stroke-width="2" stroke-linecap="round"/>
<path d="M800.072 237.781H1003.27C1004.39 237.781 1005.31 238.694 1005.31 239.82V328.671" stroke="#2B714F" stroke-width="2" stroke-linecap="round"/>
<path d="M907.534 237.232C906.781 237.586 906.057 236.695 906.558 236.031L932.906 201.108C938.045 194.298 948.522 195.177 952.451 202.735C955.495 208.587 953.065 215.774 947.102 218.584L907.534 237.232Z" stroke="#2B714F" stroke-width="2" stroke-miterlimit="10"/>
<path d="M904.936 237.232C905.688 237.586 906.413 236.695 905.912 236.031L879.563 201.108C874.425 194.298 863.948 195.177 860.019 202.735C856.975 208.587 859.405 215.774 865.368 218.584L904.936 237.232Z" stroke="#2B714F" stroke-width="2" stroke-miterlimit="10"/>
<line x1="904.989" y1="237.981" x2="860.36" y2="282.61" stroke="#2B714F" stroke-width="2"/>
<line y1="-1" x2="63.1151" y2="-1" transform="matrix(0.707107 0.707107 0.707107 -0.707107 907.471 237.274)" stroke="#2B714F" stroke-width="2"/>
<path d="M441.884 527L443.726 532.643C444.253 534.259 445.518 535.515 447.125 536.042L452.768 537.884L447.125 539.726C445.509 540.253 444.253 541.518 443.726 543.125L441.884 548.768L440.042 543.125C439.515 541.509 438.25 540.253 436.643 539.726L431 537.884L436.643 536.042C438.259 535.515 439.515 534.25 440.042 532.643L441.884 527Z" stroke="#2B714F" stroke-width="2" stroke-miterlimit="10"/>
<path d="M474.884 81L476.726 86.6429C477.253 88.2588 478.518 89.5147 480.125 90.0422L485.768 91.884L480.125 93.726C478.509 94.2535 477.253 95.5176 476.726 97.1251L474.884 102.768L473.042 97.1251C472.515 95.5093 471.25 94.2535 469.643 93.726L464 91.884L469.643 90.0422C471.259 89.5147 472.515 88.2504 473.042 86.6429L474.884 81Z" stroke="#2B714F" stroke-width="2" stroke-miterlimit="10"/>
<path d="M618 125L622.061 137.443C623.225 141.006 626.012 143.775 629.557 144.939L642 149L629.557 153.062C625.994 154.225 623.225 157.012 622.061 160.557L618 173L613.939 160.557C612.775 156.994 609.988 154.225 606.443 153.062L594 149L606.443 144.939C610.006 143.775 612.775 140.988 613.939 137.443L618 125Z" stroke="#2B714F" stroke-width="2" stroke-miterlimit="10"/>
<path d="M528 379L530.369 386.258C531.048 388.337 532.674 389.952 534.742 390.631L542 393L534.742 395.369C532.663 396.048 531.048 397.674 530.369 399.742L528 407L525.631 399.742C524.952 397.663 523.326 396.048 521.258 395.369L514 393L521.258 390.631C523.337 389.952 524.952 388.326 525.631 386.258L528 379Z" stroke="#2B714F" stroke-width="2" stroke-miterlimit="10"/>
<path d="M772.884 54L774.726 59.6429C775.253 61.2588 776.518 62.5147 778.125 63.0422L783.768 64.884L778.125 66.726C776.509 67.2535 775.253 68.5176 774.726 70.1251L772.884 75.7681L771.042 70.1251C770.515 68.5093 769.25 67.2535 767.643 66.726L762 64.884L767.643 63.0422C769.259 62.5147 770.515 61.2504 771.042 59.6429L772.884 54Z" stroke="#2B714F" stroke-width="2" stroke-miterlimit="10"/>
<path d="M582.384 461L586.341 473.124C587.474 476.595 590.191 479.294 593.644 480.427L605.768 484.384L593.644 488.341C590.173 489.475 587.474 492.191 586.341 495.644L582.384 507.768L578.427 495.644C577.294 492.173 574.577 489.475 571.124 488.341L559 484.384L571.124 480.427C574.595 479.294 577.294 476.577 578.427 473.124L582.384 461Z" stroke="#2B714F" stroke-width="2" stroke-miterlimit="10"/>
<path d="M637.884 30L639.726 35.6429C640.253 37.2588 641.518 38.5147 643.125 39.0422L648.768 40.884L643.125 42.726C641.509 43.2535 640.253 44.5176 639.726 46.1251L637.884 51.7681L636.042 46.1251C635.515 44.5093 634.25 43.2535 632.643 42.726L627 40.884L632.643 39.0422C634.259 38.5147 635.515 37.2504 636.042 35.6429L637.884 30Z" stroke="#2B714F" stroke-width="2" stroke-miterlimit="10"/>
</g>
<defs>
<clipPath id="clip0_422_9564">
<rect width="1085" height="600" rx="21.188" fill="white"/>
</clipPath>
</defs>
</svg>
