<svg width="297" height="275" viewBox="0 0 297 275" fill="none" xmlns="http://www.w3.org/2000/svg">
<rect width="297" height="275" rx="24" fill="#378861"/>
<path d="M239.945 254.37L276.065 254.341L276.026 206.568L247.311 206.591L247.32 217.451L237.977 217.458C230.489 217.464 224.404 211.389 224.398 203.9C224.392 196.412 230.467 190.327 237.955 190.32L260.289 190.302L260.327 237.342L242.93 237.356C225.448 237.37 211.254 223.211 211.24 205.717C211.226 188.235 225.385 174.041 242.879 174.027L276 174" stroke="white" stroke-miterlimit="10"/>
<path d="M239.945 22.1296L276.065 22.1587L276.026 69.9324L247.311 69.9093L247.32 59.0494L237.977 59.0419C230.489 59.0358 224.404 65.111 224.398 72.5998C224.392 80.0885 230.467 86.1735 237.955 86.1795L260.289 86.1975L260.327 39.1581L242.93 39.1441C225.448 39.13 211.254 53.2894 211.24 70.7832C211.226 88.2649 225.385 102.459 242.879 102.473L276 102.5" stroke="white" stroke-miterlimit="10"/>
<path d="M57.1193 254.37L21 254.341L21.0384 206.568L49.7532 206.591L49.7445 217.451L59.0874 217.458C66.5761 217.464 72.6611 211.389 72.6671 203.9C72.6732 196.412 66.5979 190.327 59.1092 190.321L36.7754 190.303L36.7375 237.342L54.1351 237.356C71.6168 237.37 85.811 223.211 85.825 205.717C85.8391 188.235 71.6798 174.041 54.1861 174.027L21 174.027" stroke="white" stroke-miterlimit="10"/>
<line x1="240" y1="254.4" x2="57" y2="254.4" stroke="white"/>
<line x1="254" y1="22.0996" x2="123" y2="22.0996" stroke="white"/>
<circle cx="122.5" cy="22.0996" r="1.5" fill="white"/>
<line x1="276.5" y1="102" x2="276.5" y2="174.5" stroke="white"/>
<line x1="20.5" y1="102" x2="20.5" y2="174.5" stroke="white"/>
<circle cx="20.5" cy="102.5" r="1.5" fill="white"/>
<path d="M148.853 98V177.932" stroke="white" stroke-miterlimit="10"/>
<path d="M188.899 138.046H109" stroke="white" stroke-miterlimit="10"/>
<path d="M172.719 114.179L125.115 161.817" stroke="white" stroke-miterlimit="10"/>
<path d="M172.719 161.913L125.115 114.308" stroke="white" stroke-miterlimit="10"/>
<path d="M243.5 129L244.938 133.407C245.35 134.669 246.338 135.65 247.593 136.062L252 137.5L247.593 138.939C246.331 139.35 245.35 140.338 244.938 141.593L243.5 146L242.062 141.593C241.65 140.331 240.662 139.35 239.407 138.939L235 137.5L239.407 136.062C240.669 135.65 241.65 134.662 242.062 133.407L243.5 129Z" stroke="white" stroke-miterlimit="10"/>
<path d="M148.5 222L149.938 226.407C150.35 227.669 151.338 228.65 152.593 229.062L157 230.5L152.593 231.939C151.331 232.35 150.35 233.338 149.938 234.593L148.5 239L147.062 234.593C146.65 233.331 145.662 232.35 144.407 231.939L140 230.5L144.407 229.062C145.669 228.65 146.65 227.662 147.062 226.407L148.5 222Z" stroke="white" stroke-miterlimit="10"/>
<path d="M148.5 36L149.938 40.4069C150.35 41.6688 151.338 42.6496 152.593 43.0616L157 44.5L152.593 45.9385C151.331 46.3504 150.35 47.3377 149.938 48.5931L148.5 53L147.062 48.5931C146.65 47.3312 145.662 46.3504 144.407 45.9385L140 44.5L144.407 43.0616C145.669 42.6496 146.65 41.6623 147.062 40.4069L148.5 36Z" stroke="white" stroke-miterlimit="10"/>
<path d="M44.5 129L45.9384 133.407C46.3504 134.669 47.3377 135.65 48.5931 136.062L53 137.5L48.5931 138.939C47.3312 139.35 46.3504 140.338 45.9384 141.593L44.5 146L43.0616 141.593C42.6496 140.331 41.6623 139.35 40.4069 138.939L36 137.5L40.4069 136.062C41.6688 135.65 42.6496 134.662 43.0616 133.407L44.5 129Z" stroke="white" stroke-miterlimit="10"/>
<path d="M80.5 141C78.567 141 77 139.433 77 137.5C77 135.567 78.567 134 80.5 134C82.433 134 84 135.567 84 137.5C84 139.433 82.433 141 80.5 141Z" stroke="white" stroke-miterlimit="10"/>
<path d="M148.5 203C146.567 203 145 201.433 145 199.5C145 197.567 146.567 196 148.5 196C150.433 196 152 197.567 152 199.5C152 201.433 150.433 203 148.5 203Z" stroke="white" stroke-miterlimit="10"/>
<path d="M148.5 79.0001C146.567 79.0001 145 77.433 145 75.5C145 73.567 146.567 72 148.5 72C150.433 72 152 73.567 152 75.5C152 77.433 150.433 79.0001 148.5 79.0001Z" stroke="white" stroke-miterlimit="10"/>
<path d="M211.5 141C209.567 141 208 139.433 208 137.5C208 135.567 209.567 134 211.5 134C213.433 134 215 135.567 215 137.5C215 139.433 213.433 141 211.5 141Z" stroke="white" stroke-miterlimit="10"/>
<path d="M63.1257 75.675V78H27.5757V76.2L50.0757 53.55C53.1257 50.5 55.1757 47.9 56.2257 45.75C57.3257 43.55 57.8757 41.3 57.8757 39C57.8757 35.45 56.6507 32.65 54.2007 30.6C51.8007 28.55 48.3507 27.525 43.8507 27.525C40.3507 27.525 37.3007 28.05 34.7007 29.1C32.1507 30.1 29.9507 31.675 28.1007 33.825L26.3757 32.175C30.4257 27.525 36.2757 25.2 43.9257 25.2C48.9757 25.2 52.9757 26.425 55.9257 28.875C58.8757 31.325 60.3507 34.65 60.3507 38.85C60.3507 41.5 59.7507 44.05 58.5507 46.5C57.3507 48.95 55.1257 51.8 51.8757 55.05L31.4007 75.675H63.1257ZM85.072 48.675C91.072 48.675 95.622 50 98.722 52.65C101.872 55.3 103.447 58.9 103.447 63.45C103.447 67.9 101.897 71.5 98.797 74.25C95.747 76.95 91.397 78.3 85.747 78.3C81.897 78.3 78.322 77.65 75.022 76.35C71.722 75 69.222 73.225 67.522 71.025L68.872 69.225C70.472 71.225 72.747 72.85 75.697 74.1C78.697 75.35 82.022 75.975 85.672 75.975C90.622 75.975 94.397 74.85 96.997 72.6C99.647 70.35 100.972 67.3 100.972 63.45C100.972 59.5 99.622 56.425 96.922 54.225C94.222 52.025 90.172 50.925 84.772 50.925H81.847V49.125L98.197 27.825H69.247V25.5H101.497V27.3L85.072 48.675Z" fill="white"/>
<path d="M42.242 101.956H43.478V104.836H42.362V103H35.45L35.438 104.836H34.322L34.334 101.956H34.742C35.894 101.884 36.17 99.856 36.254 97.3L36.338 94.6H42.242V101.956ZM37.31 97.408C37.238 99.46 37.034 101.308 36.314 101.956H41.054V95.644H37.37L37.31 97.408ZM46.3185 101.956H51.2145V103H45.1185V94.6H51.0465V95.644H46.3185V98.224H50.5305V99.244H46.3185V101.956ZM58.751 103L56.027 99.304H54.275V103H53.099V94.6H54.275V98.248H56.051L58.691 94.6H59.975L56.975 98.668L60.119 103H58.751ZM67.6158 103L66.6918 100.9H62.2278L61.3038 103H60.0678L63.8718 94.6H65.0598L68.8758 103H67.6158ZM62.6478 99.94H66.2718L64.4598 95.824L62.6478 99.94ZM70.3256 103V94.6H76.6616V95.62H71.5136V98.02H74.1296C76.1336 98.02 77.1896 98.872 77.1896 100.444C77.1896 102.088 76.0256 103 73.9256 103H70.3256ZM71.5136 102.052H73.8776C75.2576 102.052 75.9896 101.512 75.9896 100.492C75.9896 99.46 75.2816 98.968 73.8776 98.968H71.5136V102.052ZM82.3789 94.6C84.5629 94.6 85.8829 95.704 85.8829 97.528C85.8829 99.352 84.5629 100.456 82.3789 100.456H80.3029V103H79.1029V94.6H82.3789ZM82.3429 99.412C83.8789 99.412 84.6829 98.728 84.6829 97.528C84.6829 96.328 83.8789 95.644 82.3429 95.644H80.3029V99.412H82.3429ZM90.1486 94.6H93.5206V103H92.3446V100.552H90.0286C89.9206 100.552 89.8126 100.552 89.7046 100.54L88.0246 103H86.7526L88.6126 100.336C87.4246 99.94 86.7526 98.98 86.7526 97.624C86.7526 95.704 88.0846 94.6 90.1486 94.6ZM87.9646 97.612C87.9646 98.848 88.6966 99.544 90.1246 99.544H92.3446V95.644H90.1966C88.7686 95.644 87.9646 96.316 87.9646 97.612Z" fill="white"/>
</svg>
