<svg width="1085" height="600" viewBox="0 0 1085 600" fill="none" xmlns="http://www.w3.org/2000/svg">
<g id="2035">
<path id="anim-scale popup-december-24__decor--6" d="M646 42L649.554 52.8877C650.571 56.0054 653.011 58.4285 656.112 59.4462L667 63L656.112 66.554C652.995 67.5717 650.571 70.0108 649.554 73.1123L646 84L642.446 73.1123C641.429 69.9946 638.989 67.5717 635.888 66.554L625 63L635.888 59.4462C639.005 58.4285 641.429 55.9892 642.446 52.8877L646 42Z" stroke="white" stroke-width="2" stroke-miterlimit="10"/>
<path id="anim-scale popup-december-24__decor--5" d="M864 64L868.908 79.0354C870.313 83.3407 873.682 86.687 877.965 88.0924L893 93L877.965 97.9079C873.659 99.3132 870.313 102.682 868.908 106.965L864 122L859.092 106.965C857.687 102.659 854.318 99.3132 850.035 97.9079L835 93L850.035 88.0924C854.341 86.687 857.687 83.3184 859.092 79.0354L864 64Z" stroke="white" stroke-width="2" stroke-miterlimit="10"/>
<path id="anim-scale popup-december-24__decor--4" d="M579 98L581.031 104.222C581.612 106.003 583.006 107.388 584.778 107.969L591 110L584.778 112.031C582.997 112.612 581.612 114.006 581.031 115.778L579 122L576.969 115.778C576.388 113.997 574.994 112.612 573.222 112.031L567 110L573.222 107.969C575.003 107.388 576.388 105.994 576.969 104.222L579 98Z" stroke="white" stroke-width="2" stroke-miterlimit="10"/>
<path id="anim-scale popup-december-24__decor--3" d="M1012 118L1014.03 124.222C1014.61 126.003 1016.01 127.388 1017.78 127.969L1024 130L1017.78 132.031C1016 132.612 1014.61 134.006 1014.03 135.778L1012 142L1009.97 135.778C1009.39 133.997 1007.99 132.612 1006.22 132.031L1000 130L1006.22 127.969C1008 127.388 1009.39 125.994 1009.97 124.222L1012 118Z" stroke="white" stroke-width="2" stroke-miterlimit="10"/>
<path id="anim-scale popup-december-24__decor--2" d="M716 177L719.554 187.888C720.571 191.005 723.011 193.429 726.112 194.446L737 198L726.112 201.554C722.995 202.572 720.571 205.011 719.554 208.112L716 219L712.446 208.112C711.429 204.995 708.989 202.572 705.888 201.554L695 198L705.888 194.446C709.005 193.429 711.429 190.989 712.446 187.888L716 177Z" stroke="white" stroke-width="2" stroke-miterlimit="10"/>
<path id="anim-scale popup-december-24__decor--1" d="M406 60L408.031 66.2215C408.612 68.0031 410.006 69.3877 411.778 69.9693L418 72L411.778 74.0308C409.997 74.6124 408.612 76.0062 408.031 77.7785L406 84L403.969 77.7785C403.388 75.9969 401.994 74.6124 400.222 74.0308L394 72L400.222 69.9693C402.003 69.3877 403.388 67.9938 403.969 66.2215L406 60Z" stroke="white" stroke-width="2" stroke-miterlimit="10"/>
</g>
</svg>
