<svg width="375" height="664" viewBox="0 0 375 664" fill="none" xmlns="http://www.w3.org/2000/svg">
<line x1="141.37" y1="522.31" x2="243.835" y2="522.31" stroke="white" stroke-width="1.5"/>
<line x1="191.851" y1="574.292" x2="191.851" y2="471.828" stroke="white" stroke-width="1.5"/>
<line x1="192.929" y1="522.79" x2="200.408" y2="542.236" stroke="white" stroke-width="1.5"/>
<line y1="-0.75" x2="20.8345" y2="-0.75" transform="matrix(-0.358979 0.933346 0.933346 0.358979 192.229 523.06)" stroke="white" stroke-width="1.5"/>
<line x1="192.011" y1="522.84" x2="171.069" y2="543.782" stroke="white" stroke-width="1.5"/>
<line y1="-0.75" x2="29.616" y2="-0.75" transform="matrix(0.707107 0.707107 0.707107 -0.707107 192.976 522.31)" stroke="white" stroke-width="1.5"/>
<path d="M243.735 471.554H141.37V573.918H243.735V471.554Z" stroke="white" stroke-width="1.5" stroke-miterlimit="10"/>
<path d="M193.006 522.293C192.652 522.46 192.312 522.041 192.548 521.73L204.911 505.343C207.322 502.147 212.238 502.56 214.082 506.106C215.51 508.852 214.37 512.224 211.572 513.543L193.006 522.293Z" stroke="white" stroke-width="1.5" stroke-miterlimit="10"/>
<path d="M191.787 522.293C192.141 522.46 192.481 522.041 192.245 521.73L179.882 505.343C177.471 502.147 172.554 502.56 170.711 506.106C169.283 508.852 170.423 512.224 173.221 513.543L191.787 522.293Z" stroke="white" stroke-width="1.5" stroke-miterlimit="10"/>
<line x1="101.647" y1="573.851" x2="351.614" y2="573.851" stroke="white" stroke-width="1.5"/>
<line x1="101.647" y1="637.67" x2="351.614" y2="637.67" stroke="white" stroke-width="1.5"/>
<line x1="163.559" y1="574.601" x2="163.559" y2="638.422" stroke="white" stroke-width="1.5"/>
<line x1="288.541" y1="574.601" x2="288.541" y2="638.422" stroke="white" stroke-width="1.5"/>
<path d="M102.312 511.443C12.563 511.443 12.563 637.756 102.312 637.756" stroke="white" stroke-width="1.5"/>
<rect x="244.101" y="437.005" width="84.9245" height="136.779" stroke="white" stroke-width="1.5"/>
<path d="M287.635 436.068C287.144 436.299 286.672 435.718 286.999 435.285L304.176 412.518C307.526 408.078 314.356 408.651 316.918 413.578C318.902 417.394 317.318 422.079 313.431 423.911L287.635 436.068Z" stroke="white" stroke-width="1.5" stroke-miterlimit="10"/>
<path d="M285.942 436.068C286.433 436.299 286.905 435.718 286.578 435.285L269.401 412.518C266.051 408.078 259.221 408.651 256.659 413.578C254.675 417.394 256.259 422.079 260.146 423.911L285.942 436.068Z" stroke="white" stroke-width="1.5" stroke-miterlimit="10"/>
<line x1="286.045" y1="436.625" x2="256.95" y2="465.72" stroke="white" stroke-width="1.5"/>
<line y1="-0.75" x2="41.1471" y2="-0.75" transform="matrix(0.707107 0.707107 0.707107 -0.707107 287.594 436.095)" stroke="white" stroke-width="1.5"/>
</svg>
