<svg width="358" height="260" viewBox="0 0 358 260" fill="none" xmlns="http://www.w3.org/2000/svg">
<g clip-path="url(#clip0_327_9209)">
<rect width="358" height="260" rx="24" fill="#378861"/>
<path d="M296.424 20.5V73H293.949V22.825H280.749V20.5H296.424ZM322.425 20.5V73H319.95V22.825H306.75V20.5H322.425Z" fill="white"/>
<path d="M287.478 95.956V98.836H286.362V97H279.45L279.438 98.836H278.322L278.334 95.956H278.742C279.27 95.924 279.642 95.508 279.858 94.708C280.074 93.9 280.206 92.764 280.254 91.3L280.338 88.6H286.242V95.956H287.478ZM281.31 91.408C281.27 92.592 281.174 93.572 281.022 94.348C280.878 95.124 280.642 95.66 280.314 95.956H285.054V89.644H281.37L281.31 91.408ZM295.215 95.956V97H289.119V88.6H295.047V89.644H290.319V92.224H294.531V93.244H290.319V95.956H295.215ZM300.027 93.304H298.275V97H297.099V88.6H298.275V92.248H300.051L302.691 88.6H303.975L300.975 92.668L304.119 97H302.751L300.027 93.304ZM310.692 94.9H306.228L305.304 97H304.068L307.872 88.6H309.06L312.876 97H311.616L310.692 94.9ZM310.272 93.94L308.46 89.824L306.648 93.94H310.272ZM314.326 88.6H320.662V89.62H315.514V92.02H318.13C319.13 92.02 319.89 92.228 320.41 92.644C320.93 93.06 321.19 93.66 321.19 94.444C321.19 95.268 320.906 95.9 320.338 96.34C319.778 96.78 318.974 97 317.926 97H314.326V88.6ZM317.878 96.052C318.566 96.052 319.09 95.92 319.45 95.656C319.81 95.392 319.99 95.004 319.99 94.492C319.99 93.476 319.286 92.968 317.878 92.968H315.514V96.052H317.878ZM326.379 88.6C327.467 88.6 328.323 88.86 328.947 89.38C329.571 89.9 329.883 90.616 329.883 91.528C329.883 92.44 329.571 93.156 328.947 93.676C328.323 94.196 327.467 94.456 326.379 94.456H324.303V97H323.103V88.6H326.379ZM326.343 93.412C327.103 93.412 327.683 93.252 328.083 92.932C328.483 92.604 328.683 92.136 328.683 91.528C328.683 90.92 328.483 90.456 328.083 90.136C327.683 89.808 327.103 89.644 326.343 89.644H324.303V93.412H326.343ZM337.521 88.6V97H336.345V94.552H334.029C333.885 94.552 333.777 94.548 333.705 94.54L332.025 97H330.753L332.613 94.336C332.013 94.136 331.553 93.804 331.233 93.34C330.913 92.868 330.753 92.296 330.753 91.624C330.753 90.672 331.057 89.932 331.665 89.404C332.281 88.868 333.109 88.6 334.149 88.6H337.521ZM331.965 91.612C331.965 92.236 332.145 92.716 332.505 93.052C332.873 93.38 333.413 93.544 334.125 93.544H336.345V89.644H334.197C333.477 89.644 332.925 89.812 332.541 90.148C332.157 90.484 331.965 90.972 331.965 91.612Z" fill="white"/>
<path d="M58.8234 240.387L20 240.356L20.0414 189.006L50.906 189.031L50.8966 200.704L60.9389 200.712C68.9883 200.718 75.5289 194.188 75.5353 186.139C75.5418 178.089 69.0118 171.549 60.9624 171.542L36.9565 171.523L36.9158 222.084L55.6158 222.099C74.4064 222.114 89.6632 206.895 89.6784 188.091C89.6935 169.301 74.4741 154.044 55.6707 154.029L20.0696 154" fill="#378861"/>
<path d="M58.8235 240.387L20 240.356L20.0414 189.006L50.906 189.031L50.8966 200.704L60.9389 200.712C68.9883 200.718 75.5289 194.188 75.5353 186.139C75.5418 178.089 69.0118 171.549 60.9624 171.542L36.9565 171.523L36.9158 222.084L55.6158 222.099C74.4064 222.114 89.6632 206.895 89.6784 188.091C89.6935 169.301 74.4741 154.044 55.6707 154.029L20.0696 154" stroke="white" stroke-miterlimit="10"/>
<path d="M58.8234 20.6037L20 20.635L20.0414 71.9853L50.906 71.9605L50.8966 60.2875L60.9389 60.2794C68.9883 60.273 75.5289 66.803 75.5353 74.8524C75.5418 82.9018 69.0118 89.4423 60.9624 89.4488L36.9565 89.4681L36.9158 38.907L55.6158 38.892C74.4064 38.8768 89.6632 54.0963 89.6784 72.8998C89.6935 91.6903 74.4741 106.947 55.6707 106.962L20.0696 106.991" fill="#378861"/>
<path d="M58.8235 20.6037L20 20.635L20.0414 71.9853L50.906 71.9605L50.8966 60.2875L60.9389 60.2794C68.9883 60.2729 75.5289 66.803 75.5353 74.8524C75.5418 82.9018 69.0118 89.4423 60.9624 89.4488L36.9565 89.4681L36.9158 38.907L55.6158 38.892C74.4064 38.8768 89.6632 54.0963 89.6784 72.8998C89.6935 91.6903 74.4741 106.947 55.6707 106.962L20.0696 106.991" stroke="white" stroke-miterlimit="10"/>
<path d="M298.032 240.388L336.855 240.356L336.814 189.006L305.95 189.031L305.959 200.704L295.917 200.712C287.867 200.718 281.327 194.188 281.32 186.139C281.314 178.089 287.844 171.549 295.893 171.542L319.899 171.523L319.94 222.084L301.24 222.099C282.449 222.114 267.192 206.895 267.177 188.091C267.162 169.301 282.381 154.044 301.185 154.029L336.855 154.029" fill="#378861"/>
<path d="M298.032 240.388L336.855 240.356L336.814 189.006L305.95 189.031L305.959 200.704L295.917 200.712C287.867 200.718 281.327 194.188 281.32 186.139C281.314 178.089 287.844 171.549 295.893 171.542L319.899 171.523L319.94 222.084L301.24 222.099C282.449 222.114 267.192 206.895 267.177 188.091C267.162 169.301 282.381 154.044 301.185 154.029L336.855 154.029" stroke="white" stroke-miterlimit="10"/>
<line y1="-0.5" x2="239.695" y2="-0.5" transform="matrix(1 -8.74228e-08 -8.74228e-08 -1 58.5347 239.989)" stroke="white"/>
<line x1="57" y1="20.5" x2="257" y2="20.5" stroke="white"/>
<circle cx="1.6123" cy="1.6123" r="1.6123" transform="matrix(-1 0 0 1 259.364 18.9665)" fill="white"/>
<line x1="20.5" y1="107" x2="20.5" y2="154" stroke="white"/>
<line x1="336.5" y1="115.6" x2="336.5" y2="154.6" stroke="white"/>
<circle cx="1.6123" cy="1.6123" r="1.6123" transform="matrix(-1 0 0 1 338 115.344)" fill="white"/>
<path d="M180.821 87.9946V173.911" stroke="white" stroke-miterlimit="10"/>
<path d="M137.777 131.039H223.658" stroke="white" stroke-miterlimit="10"/>
<path d="M155.168 105.385L206.336 156.59" stroke="white" stroke-miterlimit="10"/>
<path d="M155.168 156.693L206.336 105.524" stroke="white" stroke-miterlimit="10"/>
<rect width="7.52407" height="7.52407" transform="matrix(-0.707107 -0.707107 -0.707107 0.707107 205.385 111.588)" fill="#378861"/>
<rect width="7.52407" height="7.52407" transform="matrix(-0.707107 -0.707107 -0.707107 0.707107 166.69 111.588)" fill="#378861"/>
<rect width="7.52407" height="7.52407" transform="matrix(-0.707107 -0.707107 -0.707107 0.707107 166.69 150.283)" fill="#378861"/>
<rect width="7.52407" height="7.52407" transform="matrix(-0.707107 -0.707107 -0.707107 0.707107 206.46 149.208)" fill="#378861"/>
<path d="M94.1363 121.316L92.5902 126.052C92.1475 127.409 91.0862 128.463 89.7368 128.906L85 130.452L89.7368 131.998C91.0932 132.441 92.1475 133.502 92.5902 134.851L94.1363 139.588L95.6825 134.851C96.1252 133.495 97.1865 132.441 98.5359 131.998L103.273 130.452L98.5359 128.906C97.1795 128.463 96.1252 127.402 95.6825 126.052L94.1363 121.316Z" fill="#378861" stroke="white" stroke-miterlimit="10"/>
<path d="M264.254 121.373L262.708 126.11C262.265 127.466 261.204 128.521 259.854 128.963L255.118 130.509L259.854 132.056C261.211 132.498 262.265 133.56 262.708 134.909L264.254 139.646L265.8 134.909C266.243 133.553 267.304 132.498 268.654 132.056L273.39 130.509L268.654 128.963C267.297 128.521 266.243 127.459 265.8 126.11L264.254 121.373Z" fill="#378861" stroke="white" stroke-miterlimit="10"/>
<path d="M181.201 196.556L179.654 201.293C179.212 202.649 178.15 203.704 176.801 204.146L172.064 205.693L176.801 207.239C178.157 207.682 179.212 208.743 179.654 210.092L181.201 214.829L182.747 210.092C183.189 208.736 184.251 207.682 185.6 207.239L190.337 205.693L185.6 204.146C184.244 203.704 183.189 202.642 182.747 201.293L181.201 196.556Z" fill="#378861" stroke="white" stroke-miterlimit="10"/>
<path d="M181.201 45L179.654 49.7368C179.212 51.0932 178.15 52.1475 176.801 52.5902L172.064 54.1364L176.801 55.6826C178.157 56.1253 179.212 57.1865 179.654 58.5359L181.201 63.2727L182.747 58.5359C183.189 57.1795 184.251 56.1253 185.6 55.6826L190.337 54.1364L185.6 52.5902C184.244 52.1475 183.189 51.0862 182.747 49.7368L181.201 45Z" fill="#378861" stroke="white" stroke-miterlimit="10"/>
<path d="M227.42 134.751C229.497 134.751 231.182 133.067 231.182 130.989C231.182 128.912 229.497 127.227 227.42 127.227C225.342 127.227 223.658 128.912 223.658 130.989C223.658 133.067 225.342 134.751 227.42 134.751Z" fill="#378861" stroke="white" stroke-miterlimit="10"/>
<path d="M181.201 181.508C183.278 181.508 184.963 179.824 184.963 177.746C184.963 175.668 183.278 173.984 181.201 173.984C179.123 173.984 177.438 175.668 177.438 177.746C177.438 179.824 179.123 181.508 181.201 181.508Z" fill="#378861" stroke="white" stroke-miterlimit="10"/>
<path d="M181.201 87.9947C183.278 87.9947 184.963 86.3103 184.963 84.2326C184.963 82.1549 183.278 80.4706 181.201 80.4706C179.123 80.4706 177.438 82.1549 177.438 84.2326C177.438 86.3103 179.123 87.9947 181.201 87.9947Z" fill="#378861" stroke="white" stroke-miterlimit="10"/>
<path d="M133.906 134.751C135.984 134.751 137.668 133.067 137.668 130.989C137.668 128.912 135.984 127.227 133.906 127.227C131.829 127.227 130.144 128.912 130.144 130.989C130.144 133.067 131.829 134.751 133.906 134.751Z" fill="#378861" stroke="white" stroke-miterlimit="10"/>
</g>
<defs>
<clipPath id="clip0_327_9209">
<rect width="358" height="260" rx="24" fill="white"/>
</clipPath>
</defs>
</svg>
