<svg width="244" height="204" viewBox="0 0 244 204" fill="none" xmlns="http://www.w3.org/2000/svg">
<g clip-path="url(#clip0_303_12971)">
<rect width="244" height="204" rx="24" fill="#F4F4F4"/>
<line x1="-62" y1="127.472" x2="300" y2="127.472" stroke="#2B714F"/>
<line x1="79.8857" y1="229.331" x2="79.8857" y2="-12.0019" stroke="#2B714F"/>
<line x1="80.1385" y1="127.793" x2="94.4071" y2="164.891" stroke="#2B714F"/>
<line y1="-0.5" x2="39.7476" y2="-0.5" transform="matrix(-0.358979 0.933346 0.933346 0.358979 79.6719 127.972)" stroke="#2B714F"/>
<line x1="78.5996" y1="126.9" x2="38.6477" y2="166.852" stroke="#2B714F"/>
<line y1="-0.5" x2="56.5006" y2="-0.5" transform="matrix(0.707107 0.707107 0.707107 -0.707107 81.0986 126.546)" stroke="#2B714F"/>
<path d="M81.1567 126.508C80.4828 126.825 79.8343 126.027 80.283 125.433L103.87 94.1697C108.47 88.0734 117.849 88.8606 121.366 95.6263C124.091 100.865 121.916 107.299 116.578 109.814L81.1567 126.508Z" stroke="#2B714F" stroke-miterlimit="10"/>
<path d="M78.8306 126.508C79.5045 126.825 80.153 126.027 79.7043 125.433L56.1175 94.1697C51.5174 88.0734 42.1384 88.8606 38.6211 95.6263C35.8963 100.865 38.0717 107.299 43.4093 109.814L78.8306 126.508Z" stroke="#2B714F" stroke-miterlimit="10"/>
<path style="mix-blend-mode:screen" d="M232 20.9999C232 28.7289 225.73 34.9999 218.001 34.9999C210.272 34.9999 204 28.7289 204 20.9999C204 13.2709 210.272 7 218.001 7C225.73 7 232 13.2709 232 20.9999Z" fill="url(#paint0_radial_303_12971)"/>
<path d="M168.855 18.5V71H166.38V20.825H153.18V18.5H168.855ZM218.031 18.5V20.3L194.931 71H192.156L215.106 20.825H183.531V31.175H181.056V18.5H218.031Z" fill="#2B714F"/>
<path d="M163.242 95.956H164.478V98.836H163.362V97H156.45L156.438 98.836H155.322L155.334 95.956H155.742C156.894 95.884 157.17 93.856 157.254 91.3L157.338 88.6H163.242V95.956ZM158.31 91.408C158.238 93.46 158.034 95.308 157.314 95.956H162.054V89.644H158.37L158.31 91.408ZM167.319 95.956H172.215V97H166.119V88.6H172.047V89.644H167.319V92.224H171.531V93.244H167.319V95.956ZM179.751 97L177.027 93.304H175.275V97H174.099V88.6H175.275V92.248H177.051L179.691 88.6H180.975L177.975 92.668L181.119 97H179.751ZM188.616 97L187.692 94.9H183.228L182.304 97H181.068L184.872 88.6H186.06L189.876 97H188.616ZM183.648 93.94H187.272L185.46 89.824L183.648 93.94ZM191.326 97V88.6H197.662V89.62H192.514V92.02H195.13C197.134 92.02 198.19 92.872 198.19 94.444C198.19 96.088 197.026 97 194.926 97H191.326ZM192.514 96.052H194.878C196.258 96.052 196.99 95.512 196.99 94.492C196.99 93.46 196.282 92.968 194.878 92.968H192.514V96.052ZM203.379 88.6C205.563 88.6 206.883 89.704 206.883 91.528C206.883 93.352 205.563 94.456 203.379 94.456H201.303V97H200.103V88.6H203.379ZM203.343 93.412C204.879 93.412 205.683 92.728 205.683 91.528C205.683 90.328 204.879 89.644 203.343 89.644H201.303V93.412H203.343ZM211.149 88.6H214.521V97H213.345V94.552H211.029C210.921 94.552 210.813 94.552 210.705 94.54L209.025 97H207.753L209.613 94.336C208.425 93.94 207.753 92.98 207.753 91.624C207.753 89.704 209.085 88.6 211.149 88.6ZM208.965 91.612C208.965 92.848 209.697 93.544 211.125 93.544H213.345V89.644H211.197C209.769 89.644 208.965 90.316 208.965 91.612Z" fill="#2B714F"/>
</g>
<defs>
<radialGradient id="paint0_radial_303_12971" cx="0" cy="0" r="1" gradientUnits="userSpaceOnUse" gradientTransform="translate(218 20.9999) scale(14 13.9999)">
<stop stop-color="#ADADAD"/>
<stop offset="0.06" stop-color="#8F8F8F"/>
<stop offset="0.15" stop-color="#696969"/>
<stop offset="0.25" stop-color="#484848"/>
<stop offset="0.35" stop-color="#2D2D2D"/>
<stop offset="0.47" stop-color="#191919"/>
<stop offset="0.59" stop-color="#0B0B0B"/>
<stop offset="0.75" stop-color="#020202"/>
<stop offset="1"/>
</radialGradient>
<clipPath id="clip0_303_12971">
<rect width="244" height="204" rx="24" fill="white"/>
</clipPath>
</defs>
</svg>
