<svg width="184" height="92" viewBox="0 0 184 92" fill="none" xmlns="http://www.w3.org/2000/svg">
<g clip-path="url(#clip0_436_12978)">
<rect x="0.625" y="0.3125" width="182.75" height="91.375" rx="13.372" fill="#378861"/>
<path d="M143.123 11.6121V39.6121H141.803V12.8521H134.763V11.6121H143.123ZM173.51 31.5321H167.43V39.6121H166.11V31.5321H150.03V30.5721L165.51 11.6121H167.07L151.79 30.3321H166.11V23.2121H167.43V30.3321H173.51V31.5321Z" fill="white"/>
<path d="M24.8984 80.3382L12.3906 80.3281L12.4039 63.7845L22.3476 63.7925L22.3446 67.5532L25.58 67.5558C28.1732 67.5579 30.2804 65.4541 30.2825 62.8608C30.2846 60.2675 28.1808 58.1603 25.5875 58.1583L17.8535 58.152L17.8404 74.4414L23.865 74.4462C29.9188 74.4511 34.8341 69.5478 34.839 63.4899C34.8439 57.4361 29.9406 52.5207 23.8827 52.5158L12.3906 52.5158" fill="#378861"/>
<path d="M24.8984 80.3382L12.3906 80.3281L12.4039 63.7845L22.3476 63.7925L22.3446 67.5532L25.58 67.5558C28.1732 67.5579 30.2804 65.4541 30.2825 62.8608C30.2846 60.2675 28.1808 58.1603 25.5875 58.1583L17.8535 58.152L17.8404 74.4414L23.865 74.4462C29.9188 74.4511 34.8341 69.5478 34.839 63.4899C34.8439 57.4361 29.9406 52.5207 23.8827 52.5158L12.3906 52.5158" stroke="white" stroke-miterlimit="10"/>
<path d="M24.8984 11.5146L12.3906 11.5247L12.4039 28.0683L22.3476 28.0603L22.3446 24.2996L25.58 24.297C28.1732 24.2949 30.2804 26.3987 30.2825 28.992C30.2846 31.5853 28.1808 33.6924 25.5875 33.6945L17.8535 33.7008L17.8404 17.4114L23.865 17.4065C29.9188 17.4017 34.8341 22.305 34.839 28.3629C34.8439 34.4167 29.9406 39.3321 23.8827 39.3369L12.3906 39.337" fill="#378861"/>
<path d="M24.8984 11.5146L12.3906 11.5247L12.4039 28.0683L22.3476 28.0603L22.3446 24.2996L25.58 24.297C28.1732 24.2949 30.2804 26.3987 30.2825 28.992C30.2846 31.5853 28.1808 33.6924 25.5875 33.6945L17.8535 33.7008L17.8404 17.4114L23.865 17.4065C29.9188 17.4017 34.8341 22.305 34.839 28.3629C34.8439 34.4167 29.9406 39.3321 23.8827 39.3369L12.3906 39.337" stroke="white" stroke-miterlimit="10"/>
<path d="M159.949 80.4442L172.457 80.4341L172.444 63.8905L162.5 63.8985L162.503 67.6592L159.268 67.6618C156.674 67.6638 154.567 65.5601 154.565 62.9668C154.563 60.3735 156.667 58.2663 159.26 58.2642L166.994 58.258L167.007 74.5473L160.983 74.5522C154.929 74.5571 150.014 69.6538 150.009 63.5958C150.004 57.5421 154.907 52.6267 160.965 52.6218L172.457 52.6218" fill="#378861"/>
<path d="M159.949 80.4442L172.457 80.4341L172.444 63.8905L162.5 63.8985L162.503 67.6592L159.268 67.6618C156.674 67.6638 154.567 65.5601 154.565 62.9668C154.563 60.3735 156.667 58.2663 159.26 58.2642L166.994 58.258L167.007 74.5473L160.983 74.5522C154.929 74.5571 150.014 69.6538 150.009 63.5958C150.004 57.5421 154.907 52.6267 160.965 52.6218L172.457 52.6218" stroke="white" stroke-miterlimit="10"/>
<line x1="164.431" y1="80.5984" x2="21.2401" y2="80.5984" stroke="white"/>
<line x1="124.316" y1="11.6772" x2="21.7973" y2="11.6773" stroke="white"/>
<circle cx="124.887" cy="11.6125" r="1.5" fill="white"/>
<circle cx="172.175" cy="52.5291" r="1.5" fill="white"/>
<line x1="12.5" y1="39" x2="12.5" y2="53" stroke="white"/>
<path d="M91.7067 32.3772V58.9755" stroke="white" stroke-miterlimit="10"/>
<path d="M105.032 45.7031H78.4451" stroke="white" stroke-miterlimit="10"/>
<path d="M99.6486 37.761L83.8076 53.6129" stroke="white" stroke-miterlimit="10"/>
<path d="M99.6486 53.645L83.8076 37.804" stroke="white" stroke-miterlimit="10"/>
<rect x="84.1022" y="39.6812" width="2.32933" height="2.32933" transform="rotate(-45 84.1022 39.6812)" fill="#378861"/>
<rect x="96.0813" y="39.6812" width="2.32933" height="2.32933" transform="rotate(-45 96.0813 39.6812)" fill="#378861"/>
<rect x="96.0813" y="51.6606" width="2.32933" height="2.32933" transform="rotate(-45 96.0813 51.6606)" fill="#378861"/>
<rect x="83.7693" y="51.3279" width="2.32933" height="2.32933" transform="rotate(-45 83.7693 51.3279)" fill="#378861"/>
<path d="M77.2806 46.8523C76.6374 46.8523 76.116 46.3308 76.116 45.6876C76.116 45.0444 76.6374 44.5229 77.2806 44.5229C77.9238 44.5229 78.4453 45.0444 78.4453 45.6876C78.4453 46.3308 77.9238 46.8523 77.2806 46.8523Z" fill="#378861" stroke="white" stroke-miterlimit="10"/>
<path d="M91.5894 61.3274C90.9461 61.3274 90.4247 60.8059 90.4247 60.1627C90.4247 59.5195 90.9461 58.998 91.5894 58.998C92.2326 58.998 92.754 59.5195 92.754 60.1627C92.754 60.8059 92.2326 61.3274 91.5894 61.3274Z" fill="#378861" stroke="white" stroke-miterlimit="10"/>
<path d="M91.5894 32.3772C90.9461 32.3772 90.4247 31.8557 90.4247 31.2125C90.4247 30.5693 90.9461 30.0479 91.5894 30.0479C92.2326 30.0479 92.754 30.5693 92.754 31.2125C92.754 31.8557 92.2326 32.3772 91.5894 32.3772Z" fill="#378861" stroke="white" stroke-miterlimit="10"/>
<path d="M106.231 46.8523C105.588 46.8523 105.066 46.3308 105.066 45.6876C105.066 45.0444 105.588 44.5229 106.231 44.5229C106.874 44.5229 107.395 45.0444 107.395 45.6876C107.395 46.3308 106.874 46.8523 106.231 46.8523Z" fill="#378861" stroke="white" stroke-miterlimit="10"/>
<path d="M67.563 42.5107L68.1419 44.2845C68.3077 44.7924 68.7051 45.1872 69.2104 45.353L70.9842 45.9319L69.2104 46.5109C68.7025 46.6767 68.3077 47.0741 68.1419 47.5794L67.563 49.3531L66.984 47.5794C66.8182 47.0715 66.4208 46.6767 65.9155 46.5109L64.1418 45.9319L65.9155 45.353C66.4234 45.1872 66.8182 44.7898 66.984 44.2845L67.563 42.5107Z" fill="#378861" stroke="white" stroke-miterlimit="10"/>
<path d="M91.5114 66.948L92.0903 68.7218C92.2561 69.2297 92.6535 69.6244 93.1588 69.7902L94.9326 70.3692L93.1588 70.9482C92.6509 71.114 92.2561 71.5114 92.0903 72.0166L91.5114 73.7904L90.9324 72.0166C90.7666 71.5087 90.3692 71.114 89.8639 70.9482L88.0902 70.3692L89.8639 69.7902C90.3719 69.6244 90.7666 69.227 90.9324 68.7218L91.5114 66.948Z" fill="#378861" stroke="white" stroke-miterlimit="10"/>
<path d="M91.5114 17.5847L92.0903 19.3585C92.2561 19.8664 92.6535 20.2612 93.1588 20.427L94.9326 21.0059L93.1588 21.5849C92.6509 21.7507 92.2561 22.1481 92.0903 22.6534L91.5114 24.4271L90.9324 22.6534C90.7666 22.1454 90.3692 21.7507 89.8639 21.5849L88.0902 21.0059L89.8639 20.427C90.3719 20.2612 90.7666 19.8638 90.9324 19.3585L91.5114 17.5847Z" fill="#378861" stroke="white" stroke-miterlimit="10"/>
<path d="M115.949 42.022L116.528 43.7957C116.693 44.3036 117.091 44.6984 117.596 44.8642L119.37 45.4432L117.596 46.0222C117.088 46.188 116.693 46.5853 116.528 47.0906L115.949 48.8644L115.37 47.0906C115.204 46.5827 114.807 46.188 114.301 46.0222L112.527 45.4432L114.301 44.8642C114.809 44.6984 115.204 44.301 115.37 43.7957L115.949 42.022Z" stroke="white" stroke-miterlimit="10"/>
</g>
<defs>
<clipPath id="clip0_436_12978">
<rect x="0.625" y="0.3125" width="182.75" height="91.375" rx="13.372" fill="white"/>
</clipPath>
</defs>
</svg>
