<svg width="375" height="664" viewBox="0 0 375 664" fill="none" xmlns="http://www.w3.org/2000/svg">
<g clip-path="url(#clip0_449_15206)">
<path d="M292.501 335.746C292.612 335.553 292.891 335.553 293.002 335.746L367.284 464.405C367.395 464.598 367.256 464.839 367.033 464.839H218.47C218.247 464.839 218.108 464.598 218.219 464.405L292.501 335.746Z" stroke="#2B714F" stroke-width="1.5"/>
<path d="M292.501 484.998C292.612 484.805 292.891 484.805 293.002 484.998L367.284 613.657C367.395 613.851 367.256 614.092 367.033 614.092H218.47C218.247 614.092 218.108 613.851 218.219 613.657L292.501 484.998Z" stroke="#2B714F" stroke-width="1.5"/>
<path d="M292.502 377.309C292.614 377.116 292.892 377.116 293.004 377.309L386.919 539.976C387.031 540.169 386.891 540.41 386.668 540.41H198.838C198.615 540.41 198.475 540.169 198.587 539.976L292.502 377.309Z" stroke="#2B714F" stroke-width="1.5"/>
<path d="M293.446 424.541C293.557 424.348 293.836 424.348 293.948 424.541L414.86 633.967C414.971 634.16 414.832 634.402 414.609 634.402H172.784C172.562 634.402 172.422 634.16 172.534 633.967L293.446 424.541Z" stroke="#2B714F" stroke-width="1.5"/>
<rect x="277.441" y="635.054" width="32.5072" height="41.9537" stroke="#2B714F" stroke-width="1.5"/>
<path d="M89.6183 452.148L129.23 347.09L168.842 452.148H89.6183Z" stroke="#2B714F" stroke-width="1.5"/>
<path d="M79.01 505.748L129.229 369.165L179.448 505.748H79.01Z" stroke="#2B714F" stroke-width="1.5"/>
<rect x="121.169" y="506.269" width="17.1007" height="21.9956" stroke="#2B714F" stroke-width="1.5"/>
<mask id="mask0_449_15206" style="mask-type:alpha" maskUnits="userSpaceOnUse" x="-41" y="428" width="124" height="168">
<path d="M20.6918 429.093C20.7463 428.944 20.956 428.944 21.0105 429.093L81.763 594.324C81.8038 594.435 81.7218 594.553 81.6037 594.553H-39.9014C-40.0195 594.553 -40.1015 594.435 -40.0607 594.324L20.6918 429.093Z" fill="#D9D9D9" stroke="#2B714F"/>
</mask>
<g mask="url(#mask0_449_15206)">
<path d="M-39.7864 594.303L20.8511 429.384L81.4887 594.303H-39.7864Z" stroke="#2B714F" stroke-width="1.5"/>
<path d="M-84.001 510.087L43.1062 436.702" stroke="#2B714F" stroke-width="1.5"/>
<path d="M-66.2324 540.862L60.8747 467.477" stroke="#2B714F" stroke-width="1.5"/>
<path d="M-48.4648 571.638L78.6423 498.253" stroke="#2B714F" stroke-width="1.5"/>
<path d="M-30.6963 602.414L96.4108 529.029" stroke="#2B714F" stroke-width="1.5"/>
<path d="M-12.9277 633.189L114.179 559.804" stroke="#2B714F" stroke-width="1.5"/>
</g>
<rect x="10.751" y="593.929" width="21.3788" height="27.2679" stroke="#2B714F"/>
</g>
<defs>
<clipPath id="clip0_449_15206">
<rect width="375" height="664" fill="white"/>
</clipPath>
</defs>
</svg>
