<svg width="375" height="664" viewBox="0 0 375 664" fill="none" xmlns="http://www.w3.org/2000/svg">
<mask id="path-1-inside-1_821_3621" fill="white">
<path fill-rule="evenodd" clip-rule="evenodd" d="M281.795 184.974C279.59 180.26 277.45 176.12 274.459 170.745C274.234 170.341 273.656 170.331 273.42 170.729C270.439 175.749 268.497 179.962 266.396 185.006C265.727 186.243 265.348 187.66 265.348 189.165C265.348 194.001 269.268 197.922 274.105 197.922C278.941 197.922 282.861 194.001 282.861 189.165C282.861 188.165 282.694 187.204 282.385 186.309C282.383 186.303 282.388 186.297 282.394 186.297V186.297C282.401 186.297 282.405 186.29 282.403 186.283C282.359 186.189 282.315 186.094 282.272 186C282.135 185.646 281.975 185.304 281.795 184.974Z"/>
</mask>
<path d="M281.795 184.974L280.437 185.61L280.456 185.652L280.479 185.693L281.795 184.974ZM266.396 185.006L267.716 185.72L267.752 185.653L267.781 185.583L266.396 185.006ZM282.272 186L280.873 186.542L280.89 186.586L280.91 186.628L282.272 186ZM282.403 186.283L283.765 185.656L282.403 186.283ZM282.385 186.309L283.803 185.82L282.385 186.309ZM273.148 171.475C276.126 176.825 278.249 180.933 280.437 185.61L283.154 184.339C280.931 179.586 278.774 175.415 275.77 170.016L273.148 171.475ZM267.781 185.583C269.866 180.576 271.777 176.433 274.71 171.494L272.131 169.963C269.1 175.065 267.127 179.348 265.012 184.43L267.781 185.583ZM266.848 189.165C266.848 187.915 267.162 186.743 267.716 185.72L265.077 184.293C264.292 185.744 263.848 187.405 263.848 189.165H266.848ZM274.105 196.422C270.097 196.422 266.848 193.173 266.848 189.165H263.848C263.848 194.83 268.44 199.422 274.105 199.422V196.422ZM281.361 189.165C281.361 193.173 278.112 196.422 274.105 196.422V199.422C279.769 199.422 284.361 194.83 284.361 189.165H281.361ZM280.967 186.798C281.222 187.538 281.361 188.334 281.361 189.165H284.361C284.361 187.997 284.165 186.871 283.803 185.82L280.967 186.798ZM280.91 186.628C280.953 186.722 280.996 186.816 281.04 186.91L283.765 185.656C283.721 185.561 283.677 185.466 283.634 185.371L280.91 186.628ZM280.479 185.693C280.628 185.966 280.76 186.25 280.873 186.542L283.67 185.457C283.509 185.043 283.323 184.641 283.112 184.255L280.479 185.693ZM282.408 187.797C283.503 187.787 284.223 186.651 283.765 185.656L281.04 186.91C280.588 185.928 281.299 184.807 282.38 184.797L282.408 187.797ZM283.803 185.82C284.135 186.783 283.426 187.788 282.408 187.797L282.38 184.797C281.349 184.806 280.631 185.824 280.967 186.798L283.803 185.82ZM275.77 170.016C274.987 168.61 272.963 168.561 272.131 169.963L274.71 171.494C274.35 172.101 273.481 172.072 273.148 171.475L275.77 170.016Z" fill="white" mask="url(#path-1-inside-1_821_3621)"/>
<circle cx="273.807" cy="175.409" r="26.1936" fill="url(#paint0_linear_821_3621)" fill-opacity="0.1"/>
<defs>
<linearGradient id="paint0_linear_821_3621" x1="273.807" y1="197.86" x2="273.807" y2="149.215" gradientUnits="userSpaceOnUse">
<stop stop-color="white"/>
<stop offset="1" stop-color="white" stop-opacity="0"/>
</linearGradient>
</defs>
</svg>
