<svg width="1085" height="600" viewBox="0 0 1085 600" fill="none" xmlns="http://www.w3.org/2000/svg">
<rect width="1085" height="600" fill="#D1D1D1"/>
<g id="44">
<g clip-path="url(#clip0_301_2977)">
<g id="popup-december-20__decor--9 anim-rotate">
<g id="Frame 2087323974">
<g clip-path="url(#clip1_301_2977)">
<circle id="Ellipse 28" cx="955.255" cy="340.092" r="79.0124" stroke="white" stroke-width="2"/>
<path id="Vector" d="M893.652 290.909C899.317 285.953 901.879 299.509 905.903 299.509C909.927 299.509 913.951 290.909 917.975 290.909C922 290.909 926.024 299.509 930.048 299.509C934.072 299.509 938.096 290.909 942.121 290.909C946.145 290.909 950.169 299.509 954.193 299.509C958.217 299.509 962.242 290.909 966.266 290.909C970.29 290.909 974.314 299.509 978.338 299.509C982.363 299.509 986.387 290.909 990.411 290.909C994.435 290.909 998.459 299.509 1002.48 299.509C1006.51 299.509 1010.53 290.909 1014.56 290.909C1018.58 290.909 1022.6 299.509 1026.63 299.509C1030.65 299.509 1034.68 290.909 1038.7 290.909C1042.73 290.909 1046.75 299.509 1050.77 299.509C1054.8 299.509 1058.82 290.909 1062.85 290.909C1066.87 290.909 1069.25 293.741 1072.09 295.866" stroke="white" stroke-width="2" stroke-linecap="round" stroke-linejoin="round"/>
<path id="Vector_2" d="M887.987 380.126C893.652 375.169 896.214 388.726 900.238 388.726C904.262 388.726 908.286 380.126 912.31 380.126C916.335 380.126 920.359 388.726 924.383 388.726C928.407 388.726 932.431 380.126 936.456 380.126C940.48 380.126 944.504 388.726 948.528 388.726C952.552 388.726 956.577 380.126 960.601 380.126C964.625 380.126 968.649 388.726 972.673 388.726C976.698 388.726 980.722 380.126 984.746 380.126C988.77 380.126 992.794 388.726 996.819 388.726C1000.84 388.726 1004.87 380.126 1008.89 380.126C1012.92 380.126 1016.94 388.726 1020.96 388.726C1024.99 388.726 1029.01 380.126 1033.04 380.126C1037.06 380.126 1041.08 388.726 1045.11 388.726C1049.13 388.726 1053.16 380.126 1057.18 380.126C1061.21 380.126 1063.59 382.958 1066.42 385.082" stroke="white" stroke-width="2" stroke-linecap="round" stroke-linejoin="round"/>
</g>
</g>
<path id="Vector_3" d="M956 246L956 -2" stroke="white" stroke-width="2" stroke-miterlimit="10"/>
<path id="Vector_4" d="M950.378 245.919H961.489C966.232 245.919 970.065 249.573 970.065 254.095L970.124 261.444C958.859 260.303 952.558 259.978 941.801 261.497V254.095C941.801 249.573 945.634 245.919 950.378 245.919Z" stroke="white" stroke-width="2" stroke-miterlimit="10"/>
</g>
<g id="popup-december-20__decor--8 anim-rotate">
<path id="Vector_5" d="M814.019 130.702L814.019 -1" stroke="white" stroke-width="2" stroke-miterlimit="10"/>
<g id="Group 1364">
<path id="Vector_6" d="M800.833 147.387C782.578 160.125 751 186.578 751 217.136C751 260.117 813.474 294.976 813.474 294.976C813.474 294.976 875.947 260.117 875.947 217.136C875.947 186.823 844.873 160.55 826.556 147.696" stroke="white" stroke-width="2" stroke-miterlimit="10"/>
<path id="Vector_7" d="M808.73 130.702H819.308C823.823 130.702 827.472 134.688 827.472 139.621V147.695H800.565V139.621C800.565 134.688 804.215 130.702 808.73 130.702Z" stroke="white" stroke-width="2" stroke-miterlimit="10"/>
</g>
<g id="Group 1225">
<path id="Vector_8" d="M815.386 188.765V246.614" stroke="white" stroke-width="2" stroke-miterlimit="10"/>
<path id="Vector_9" d="M786.404 217.747H844.23" stroke="white" stroke-width="2" stroke-miterlimit="10"/>
<path id="Vector_10" d="M798.113 200.475L832.567 234.952" stroke="white" stroke-width="2" stroke-miterlimit="10"/>
<path id="Vector_11" d="M798.113 235.022L832.567 200.568" stroke="white" stroke-width="2" stroke-miterlimit="10"/>
</g>
</g>
<g id="popup-december-20__decor--7 anim-rotate">
<g id="Frame 2087323954">
<g clip-path="url(#clip2_301_2977)">
<g id="Group 1344">
<path id="Vector_12" d="M648.246 321.927C649.47 321.927 650.462 320.935 650.462 319.711C650.462 318.487 649.47 317.495 648.246 317.495C647.022 317.495 646.03 318.487 646.03 319.711C646.03 320.935 647.022 321.927 648.246 321.927Z" fill="white"/>
<path id="Vector_13" d="M658.337 322.164C659.56 322.164 660.552 321.172 660.552 319.948C660.552 318.725 659.56 317.732 658.337 317.732C657.113 317.732 656.121 318.725 656.121 319.948C656.121 321.172 657.113 322.164 658.337 322.164Z" fill="white"/>
<path id="Vector_14" d="M626.985 334.192C628.704 334.192 630.098 332.799 630.098 331.08C630.098 329.36 628.704 327.967 626.985 327.967C625.266 327.967 623.872 329.36 623.872 331.08C623.872 332.799 625.266 334.192 626.985 334.192Z" fill="white"/>
<path id="Vector_15" d="M705.53 343.175C706.776 343.175 707.786 342.165 707.786 340.92C707.786 339.674 706.776 338.664 705.53 338.664C704.285 338.664 703.275 339.674 703.275 340.92C703.275 342.165 704.285 343.175 705.53 343.175Z" fill="white"/>
<path id="Vector_16" d="M669.362 352.829C671.176 352.829 672.647 351.359 672.647 349.545C672.647 347.731 671.176 346.261 669.362 346.261C667.549 346.261 666.078 347.731 666.078 349.545C666.078 351.359 667.549 352.829 669.362 352.829Z" fill="white"/>
<path id="Vector_17" d="M679.757 357.368C681.003 357.368 682.012 356.359 682.012 355.113C682.012 353.867 681.003 352.857 679.757 352.857C678.511 352.857 677.501 353.867 677.501 355.113C677.501 356.359 678.511 357.368 679.757 357.368Z" fill="white"/>
<path id="Vector_18" d="M709.724 362.313C710.963 362.313 711.967 361.309 711.967 360.07C711.967 358.832 710.963 357.828 709.724 357.828C708.486 357.828 707.482 358.832 707.482 360.07C707.482 361.309 708.486 362.313 709.724 362.313Z" fill="white"/>
<path id="Vector_19" d="M655.527 364.768C657.341 364.768 658.812 363.297 658.812 361.483C658.812 359.67 657.341 358.199 655.527 358.199C653.714 358.199 652.243 359.67 652.243 361.483C652.243 363.297 653.714 364.768 655.527 364.768Z" fill="white"/>
<path id="Vector_20" d="M721.925 372.549C723.171 372.549 724.181 371.539 724.181 370.294C724.181 369.048 723.171 368.038 721.925 368.038C720.68 368.038 719.67 369.048 719.67 370.294C719.67 371.539 720.68 372.549 721.925 372.549Z" fill="white"/>
<path id="Vector_21" d="M699.41 373.447C700.656 373.447 701.666 372.437 701.666 371.191C701.666 369.945 700.656 368.936 699.41 368.936C698.165 368.936 697.155 369.945 697.155 371.191C697.155 372.437 698.165 373.447 699.41 373.447Z" fill="white"/>
<path id="Vector_22" d="M707.693 376.359C709.507 376.359 710.978 374.888 710.978 373.074C710.978 371.26 709.507 369.79 707.693 369.79C705.88 369.79 704.409 371.26 704.409 373.074C704.409 374.888 705.88 376.359 707.693 376.359Z" fill="white"/>
<path id="Vector_23" d="M657.571 379.104C658.817 379.104 659.826 378.094 659.826 376.848C659.826 375.603 658.817 374.593 657.571 374.593C656.325 374.593 655.315 375.603 655.315 376.848C655.315 378.094 656.325 379.104 657.571 379.104Z" fill="white"/>
<path id="Vector_24" d="M728.506 379.764C729.759 379.764 730.775 378.748 730.775 377.495C730.775 376.242 729.759 375.227 728.506 375.227C727.254 375.227 726.238 376.242 726.238 377.495C726.238 378.748 727.254 379.764 728.506 379.764Z" fill="white"/>
<path id="Vector_25" d="M633.763 380.135C635.024 380.135 636.045 379.113 636.045 377.853C636.045 376.593 635.024 375.571 633.763 375.571C632.503 375.571 631.481 376.593 631.481 377.853C631.481 379.113 632.503 380.135 633.763 380.135Z" fill="white"/>
<path id="Vector_26" d="M674.046 382.798C675.86 382.798 677.33 381.328 677.33 379.514C677.33 377.7 675.86 376.229 674.046 376.229C672.232 376.229 670.762 377.7 670.762 379.514C670.762 381.328 672.232 382.798 674.046 382.798Z" fill="white"/>
<path id="Vector_27" d="M784.59 382.163C785.828 382.163 786.832 381.159 786.832 379.921C786.832 378.683 785.828 377.679 784.59 377.679C783.352 377.679 782.348 378.683 782.348 379.921C782.348 381.159 783.352 382.163 784.59 382.163Z" fill="white"/>
<path id="Vector_28" d="M760.519 386.832C761.758 386.832 762.761 385.828 762.761 384.59C762.761 383.352 761.758 382.348 760.519 382.348C759.281 382.348 758.277 383.352 758.277 384.59C758.277 385.828 759.281 386.832 760.519 386.832Z" fill="white"/>
<path id="Vector_29" d="M702.866 387.44C704.126 387.44 705.148 386.418 705.148 385.158C705.148 383.898 704.126 382.876 702.866 382.876C701.606 382.876 700.584 383.898 700.584 385.158C700.584 386.418 701.606 387.44 702.866 387.44Z" fill="white"/>
<path id="Vector_30" d="M728.573 395.776C730.394 395.776 731.87 394.299 731.87 392.478C731.87 390.657 730.394 389.181 728.573 389.181C726.752 389.181 725.275 390.657 725.275 392.478C725.275 394.299 726.752 395.776 728.573 395.776Z" fill="white"/>
<path id="Vector_31" d="M782.705 397.201C783.965 397.201 784.987 396.18 784.987 394.92C784.987 393.659 783.965 392.638 782.705 392.638C781.444 392.638 780.423 393.659 780.423 394.92C780.423 396.18 781.444 397.201 782.705 397.201Z" fill="white"/>
<path id="Vector_32" d="M744.441 404.968C745.687 404.968 746.696 403.958 746.696 402.713C746.696 401.467 745.687 400.457 744.441 400.457C743.195 400.457 742.186 401.467 742.186 402.713C742.186 403.958 743.195 404.968 744.441 404.968Z" fill="white"/>
<path id="Vector_33" d="M704.37 405.405C705.623 405.405 706.638 404.39 706.638 403.137C706.638 401.884 705.623 400.868 704.37 400.868C703.117 400.868 702.101 401.884 702.101 403.137C702.101 404.39 703.117 405.405 704.37 405.405Z" fill="white"/>
<path id="Vector_34" d="M636.046 411.261C637.299 411.261 638.315 410.245 638.315 408.992C638.315 407.739 637.299 406.724 636.046 406.724C634.793 406.724 633.777 407.739 633.777 408.992C633.777 410.245 634.793 411.261 636.046 411.261Z" fill="white"/>
<path id="Vector_35" d="M745.746 428.038C747.553 428.038 749.017 426.574 749.017 424.767C749.017 422.961 747.553 421.496 745.746 421.496C743.94 421.496 742.475 422.961 742.475 424.767C742.475 426.574 743.94 428.038 745.746 428.038Z" fill="white"/>
<path id="Vector_36" d="M763.421 438.643C766.029 438.643 768.143 436.529 768.143 433.921C768.143 431.313 766.029 429.199 763.421 429.199C760.813 429.199 758.699 431.313 758.699 433.921C758.699 436.529 760.813 438.643 763.421 438.643Z" fill="white"/>
<path id="Vector_37" d="M772.627 441.73C773.865 441.73 774.869 440.726 774.869 439.487C774.869 438.249 773.865 437.245 772.627 437.245C771.389 437.245 770.385 438.249 770.385 439.487C770.385 440.726 771.389 441.73 772.627 441.73Z" fill="white"/>
<path id="Vector_38" d="M666.197 444.078C668.011 444.078 669.481 442.608 669.481 440.794C669.481 438.98 668.011 437.51 666.197 437.51C664.383 437.51 662.913 438.98 662.913 440.794C662.913 442.608 664.383 444.078 666.197 444.078Z" fill="white"/>
<path id="Vector_39" d="M699.384 454.235C701.999 454.235 704.119 452.115 704.119 449.5C704.119 446.885 701.999 444.765 699.384 444.765C696.768 444.765 694.648 446.885 694.648 449.5C694.648 452.115 696.768 454.235 699.384 454.235Z" fill="white"/>
<path id="Vector_40" d="M718.878 469.35C720.685 469.35 722.149 467.885 722.149 466.079C722.149 464.272 720.685 462.808 718.878 462.808C717.071 462.808 715.607 464.272 715.607 466.079C715.607 467.885 717.071 469.35 718.878 469.35Z" fill="white"/>
<path id="Vector_41" d="M671.724 481.63C672.977 481.63 673.993 480.614 673.993 479.361C673.993 478.108 672.977 477.093 671.724 477.093C670.471 477.093 669.456 478.108 669.456 479.361C669.456 480.614 670.471 481.63 671.724 481.63Z" fill="white"/>
</g>
</g>
<rect x="627" y="321.975" width="158.025" height="158.025" rx="79.0124" stroke="white" stroke-width="2"/>
</g>
<path id="Vector_42" d="M707 307L707 -2" stroke="white" stroke-width="2" stroke-miterlimit="10"/>
<path id="Vector_43" d="M701.135 306.812H712.247C716.99 306.812 720.823 310.467 720.823 314.989L720.882 322.337C709.617 321.196 703.316 320.872 692.559 322.39V314.989C692.559 310.467 696.392 306.812 701.135 306.812Z" stroke="white" stroke-width="2" stroke-miterlimit="10"/>
</g>
<path id="popup-december-20__decor--6 anim-scale" d="M600 47L603.554 57.8877C604.571 61.0054 607.011 63.4285 610.112 64.4462L621 68L610.112 71.554C606.995 72.5717 604.571 75.0108 603.554 78.1123L600 89L596.446 78.1123C595.429 74.9946 592.989 72.5717 589.888 71.554L579 68L589.888 64.4462C593.005 63.4285 595.429 60.9892 596.446 57.8877L600 47Z" stroke="white" stroke-width="2" stroke-miterlimit="10"/>
<path id="popup-december-20__decor--5 anim-scale" d="M524.5 451L529.154 465.258C530.486 469.34 533.681 472.514 537.742 473.846L552 478.5L537.742 483.154C533.66 484.487 530.486 487.681 529.154 491.742L524.5 506L519.846 491.742C518.514 487.66 515.319 484.487 511.258 483.154L497 478.5L511.258 473.846C515.34 472.514 518.514 469.319 519.846 465.258L524.5 451Z" stroke="white" stroke-width="2" stroke-miterlimit="10"/>
<path id="popup-december-20__decor--4 anim-scale" d="M870 481L873.554 491.888C874.571 495.005 877.011 497.429 880.112 498.446L891 502L880.112 505.554C876.995 506.572 874.571 509.011 873.554 512.112L870 523L866.446 512.112C865.429 508.995 862.989 506.572 859.888 505.554L849 502L859.888 498.446C863.005 497.429 865.429 494.989 866.446 491.888L870 481Z" stroke="white" stroke-width="2" stroke-miterlimit="10"/>
<path id="popup-december-20__decor--3 anim-scale" d="M529 112L531.031 118.222C531.612 120.003 533.006 121.388 534.778 121.969L541 124L534.778 126.031C532.997 126.612 531.612 128.006 531.031 129.778L529 136L526.969 129.778C526.388 127.997 524.994 126.612 523.222 126.031L517 124L523.222 121.969C525.003 121.388 526.388 119.994 526.969 118.222L529 112Z" stroke="white" stroke-width="2" stroke-miterlimit="10"/>
<path id="popup-december-20__decor--2 anim-scale" d="M952 528L954.031 534.222C954.612 536.003 956.006 537.388 957.778 537.969L964 540L957.778 542.031C955.997 542.612 954.612 544.006 954.031 545.778L952 552L949.969 545.778C949.388 543.997 947.994 542.612 946.222 542.031L940 540L946.222 537.969C948.003 537.388 949.388 535.994 949.969 534.222L952 528Z" stroke="white" stroke-width="2" stroke-miterlimit="10"/>
<path id="popup-december-20__decor--1 anim-scale" d="M412 36L414.031 42.2215C414.612 44.0031 416.006 45.3877 417.778 45.9693L424 48L417.778 50.0308C415.997 50.6124 414.612 52.0062 414.031 53.7785L412 60L409.969 53.7785C409.388 51.9969 407.994 50.6124 406.222 50.0308L400 48L406.222 45.9693C408.003 45.3877 409.388 43.9938 409.969 42.2215L412 36Z" stroke="white" stroke-width="2" stroke-miterlimit="10"/>
</g>
</g>
<defs>
<clipPath id="clip0_301_2977">
<rect width="1085" height="600" rx="21.188" fill="white"/>
</clipPath>
<clipPath id="clip1_301_2977">
<rect x="875.242" y="260.08" width="160.025" height="160.025" rx="80.0124" fill="white"/>
</clipPath>
<clipPath id="clip2_301_2977">
<rect x="626" y="320.975" width="160.025" height="160.025" rx="80.0124" fill="white"/>
</clipPath>
</defs>
</svg>
