<svg width="159" height="142" viewBox="0 0 159 142" fill="none" xmlns="http://www.w3.org/2000/svg">
<g clip-path="url(#clip0_343_13846)">
<rect x="0.0195312" y="0.835693" width="158.96" height="140.329" rx="9.51381" fill="#F4F4F4"/>
<path d="M34.8351 41.3885V42.6285H15.8751V41.6685L27.8751 29.5885C29.5017 27.9619 30.5951 26.5752 31.1551 25.4285C31.7417 24.2552 32.0351 23.0552 32.0351 21.8285C32.0351 19.9352 31.3817 18.4419 30.0751 17.3485C28.7951 16.2552 26.9551 15.7085 24.5551 15.7085C22.6884 15.7085 21.0617 15.9885 19.6751 16.5485C18.3151 17.0819 17.1417 17.9219 16.1551 19.0685L15.2351 18.1885C17.3951 15.7085 20.5151 14.4685 24.5951 14.4685C27.2884 14.4685 29.4217 15.1219 30.9951 16.4285C32.5684 17.7352 33.3551 19.5085 33.3551 21.7485C33.3551 23.1619 33.0351 24.5219 32.3951 25.8285C31.7551 27.1352 30.5684 28.6552 28.8351 30.3885L17.9151 41.3885H34.8351ZM49.3844 42.7885C47.2778 42.7885 45.3978 42.2152 43.7444 41.0685C42.1178 39.8952 40.8511 38.2419 39.9444 36.1085C39.0378 33.9485 38.5844 31.4552 38.5844 28.6285C38.5844 25.8019 39.0378 23.3219 39.9444 21.1885C40.8511 19.0285 42.1178 17.3752 43.7444 16.2285C45.3978 15.0552 47.2778 14.4685 49.3844 14.4685C51.5178 14.4685 53.3978 15.0552 55.0244 16.2285C56.6511 17.3752 57.9178 19.0285 58.8244 21.1885C59.7311 23.3219 60.1844 25.8019 60.1844 28.6285C60.1844 31.4552 59.7311 33.9485 58.8244 36.1085C57.9178 38.2419 56.6511 39.8952 55.0244 41.0685C53.3978 42.2152 51.5178 42.7885 49.3844 42.7885ZM49.3844 41.5485C51.2511 41.5485 52.9044 41.0285 54.3444 39.9885C55.7844 38.9485 56.8911 37.4552 57.6644 35.5085C58.4644 33.5619 58.8644 31.2685 58.8644 28.6285C58.8644 25.9885 58.4644 23.6952 57.6644 21.7485C56.8911 19.8019 55.7844 18.3085 54.3444 17.2685C52.9044 16.2285 51.2511 15.7085 49.3844 15.7085C47.5178 15.7085 45.8644 16.2285 44.4244 17.2685C43.0111 18.3085 41.9044 19.8019 41.1044 21.7485C40.3311 23.6952 39.9444 25.9885 39.9444 28.6285C39.9444 31.2685 40.3311 33.5619 41.1044 35.5085C41.9044 37.4552 43.0111 38.9485 44.4244 39.9885C45.8644 41.0285 47.5178 41.5485 49.3844 41.5485Z" fill="#2B714F"/>
<path d="M31.3363 67.4324L32.7451 71.7483C33.1485 72.9842 34.1154 73.9448 35.3449 74.3482L39.6609 75.757L35.3449 77.1658C34.109 77.5692 33.1485 78.5361 32.7451 79.7656L31.3363 84.0816L29.9276 79.7656C29.5241 78.5297 28.5572 77.5692 27.3277 77.1658L23.0117 75.757L27.3277 74.3482C28.5636 73.9448 29.5241 72.9778 29.9276 71.7483L31.3363 67.4324Z" stroke="#2B714F" stroke-miterlimit="10"/>
<path d="M18.255 105.488L19.06 107.954C19.2905 108.66 19.843 109.209 20.5456 109.44L23.0119 110.245L20.5456 111.05C19.8394 111.28 19.2905 111.833 19.06 112.535L18.255 115.001L17.45 112.535C17.2194 111.829 16.6669 111.28 15.9643 111.05L13.498 110.245L15.9643 109.44C16.6705 109.209 17.2194 108.656 17.45 107.954L18.255 105.488Z" stroke="#2B714F" stroke-miterlimit="10"/>
<path d="M118.546 116.587L119.351 119.053C119.581 119.76 120.134 120.309 120.837 120.539L123.303 121.344L120.837 122.149C120.13 122.38 119.581 122.932 119.351 123.635L118.546 126.101L117.741 123.635C117.51 122.928 116.958 122.38 116.255 122.149L113.789 121.344L116.255 120.539C116.962 120.309 117.51 119.756 117.741 119.053L118.546 116.587Z" stroke="#2B714F" stroke-miterlimit="10"/>
<circle cx="143.321" cy="77.9373" r="21.8971" stroke="#2B714F"/>
<path d="M143.52 51.576L143.52 -8.28174" stroke="#2B714F" stroke-miterlimit="10"/>
<path d="M141.955 51.576H145.066C146.393 51.576 147.466 52.599 147.466 53.8647L147.483 55.9218C144.329 55.6024 142.566 55.5116 139.555 55.9365V53.8647C139.555 52.599 140.628 51.576 141.955 51.576Z" stroke="#2B714F" stroke-miterlimit="10"/>
<path d="M126.076 64.1698C127.662 62.7824 128.379 66.577 129.505 66.577C130.632 66.577 131.758 64.1698 132.885 64.1698C134.011 64.1698 135.138 66.577 136.264 66.577C137.391 66.577 138.517 64.1698 139.643 64.1698C140.77 64.1698 141.896 66.577 143.023 66.577C144.149 66.577 145.276 64.1698 146.402 64.1698C147.529 64.1698 148.655 66.577 149.782 66.577C150.908 66.577 152.034 64.1698 153.161 64.1698C154.287 64.1698 155.414 66.577 156.54 66.577C157.667 66.577 158.793 64.1698 159.92 64.1698C161.046 64.1698 162.173 66.577 163.299 66.577C164.425 66.577 165.552 64.1698 166.678 64.1698C167.805 64.1698 168.931 66.577 170.058 66.577C171.184 66.577 172.311 64.1698 173.437 64.1698C174.564 64.1698 175.231 64.9626 176.024 65.5572" stroke="#2B714F" stroke-linecap="round" stroke-linejoin="round"/>
<path d="M124.492 89.1436C126.078 87.7561 126.795 91.5508 127.921 91.5508C129.048 91.5508 130.174 89.1436 131.301 89.1436C132.427 89.1436 133.554 91.5508 134.68 91.5508C135.807 91.5508 136.933 89.1436 138.059 89.1436C139.186 89.1436 140.312 91.5508 141.439 91.5508C142.565 91.5508 143.692 89.1436 144.818 89.1436C145.945 89.1436 147.071 91.5508 148.198 91.5508C149.324 91.5508 150.45 89.1436 151.577 89.1436C152.703 89.1436 153.83 91.5508 154.956 91.5508C156.083 91.5508 157.209 89.1436 158.336 89.1436C159.462 89.1436 160.589 91.5508 161.715 91.5508C162.841 91.5508 163.968 89.1436 165.094 89.1436C166.221 89.1436 167.347 91.5508 168.474 91.5508C169.6 91.5508 170.727 89.1436 171.853 89.1436C172.98 89.1436 173.647 89.9364 174.44 90.531" stroke="#2B714F" stroke-linecap="round" stroke-linejoin="round"/>
<g clip-path="url(#clip1_343_13846)">
<path d="M57.3859 72.8523C57.7285 72.8523 58.0062 72.5745 58.0062 72.232C58.0062 71.8894 57.7285 71.6117 57.3859 71.6117C57.0433 71.6117 56.7656 71.8894 56.7656 72.232C56.7656 72.5745 57.0433 72.8523 57.3859 72.8523Z" fill="#2B714F"/>
<path d="M60.2101 72.9188C60.5527 72.9188 60.8304 72.6411 60.8304 72.2985C60.8304 71.9559 60.5527 71.6782 60.2101 71.6782C59.8676 71.6782 59.5898 71.9559 59.5898 72.2985C59.5898 72.6411 59.8676 72.9188 60.2101 72.9188Z" fill="#2B714F"/>
<path d="M51.4338 76.2857C51.9151 76.2857 52.3052 75.8955 52.3052 75.4143C52.3052 74.9331 51.9151 74.543 51.4338 74.543C50.9526 74.543 50.5625 74.9331 50.5625 75.4143C50.5625 75.8955 50.9526 76.2857 51.4338 76.2857Z" fill="#2B714F"/>
<path d="M73.4204 78.7999C73.7691 78.7999 74.0518 78.5173 74.0518 78.1686C74.0518 77.8199 73.7691 77.5372 73.4204 77.5372C73.0717 77.5372 72.7891 77.8199 72.7891 78.1686C72.7891 78.5173 73.0717 78.7999 73.4204 78.7999Z" fill="#2B714F"/>
<path d="M63.2963 81.5024C63.804 81.5024 64.2156 81.0908 64.2156 80.583C64.2156 80.0753 63.804 79.6637 63.2963 79.6637C62.7886 79.6637 62.377 80.0753 62.377 80.583C62.377 81.0908 62.7886 81.5024 63.2963 81.5024Z" fill="#2B714F"/>
<path d="M66.2056 82.773C66.5543 82.773 66.8369 82.4903 66.8369 82.1416C66.8369 81.7929 66.5543 81.5103 66.2056 81.5103C65.8569 81.5103 65.5742 81.7929 65.5742 82.1416C65.5742 82.4903 65.8569 82.773 66.2056 82.773Z" fill="#2B714F"/>
<path d="M74.5945 84.1569C74.9411 84.1569 75.2221 83.8759 75.2221 83.5293C75.2221 83.1826 74.9411 82.9016 74.5945 82.9016C74.2478 82.9016 73.9668 83.1826 73.9668 83.5293C73.9668 83.8759 74.2478 84.1569 74.5945 84.1569Z" fill="#2B714F"/>
<path d="M59.4232 84.8444C59.931 84.8444 60.3426 84.4328 60.3426 83.9251C60.3426 83.4173 59.931 83.0057 59.4232 83.0057C58.9155 83.0057 58.5039 83.4173 58.5039 83.9251C58.5039 84.4328 58.9155 84.8444 59.4232 84.8444Z" fill="#2B714F"/>
<path d="M78.0103 87.0224C78.3589 87.0224 78.6416 86.7397 78.6416 86.391C78.6416 86.0423 78.3589 85.7596 78.0103 85.7596C77.6616 85.7596 77.3789 86.0423 77.3789 86.391C77.3789 86.7397 77.6616 87.0224 78.0103 87.0224Z" fill="#2B714F"/>
<path d="M71.7075 87.2736C72.0562 87.2736 72.3389 86.9909 72.3389 86.6422C72.3389 86.2935 72.0562 86.0109 71.7075 86.0109C71.3588 86.0109 71.0762 86.2935 71.0762 86.6422C71.0762 86.9909 71.3588 87.2736 71.7075 87.2736Z" fill="#2B714F"/>
<path d="M74.0248 88.0888C74.5325 88.0888 74.9441 87.6772 74.9441 87.1695C74.9441 86.6617 74.5325 86.2501 74.0248 86.2501C73.5171 86.2501 73.1055 86.6617 73.1055 87.1695C73.1055 87.6772 73.5171 88.0888 74.0248 88.0888Z" fill="#2B714F"/>
<path d="M59.9946 88.8573C60.3433 88.8573 60.626 88.5746 60.626 88.226C60.626 87.8773 60.3433 87.5946 59.9946 87.5946C59.646 87.5946 59.3633 87.8773 59.3633 88.226C59.3633 88.5746 59.646 88.8573 59.9946 88.8573Z" fill="#2B714F"/>
<path d="M79.8518 89.0421C80.2026 89.0421 80.4869 88.7577 80.4869 88.407C80.4869 88.0563 80.2026 87.772 79.8518 87.772C79.5011 87.772 79.2168 88.0563 79.2168 88.407C79.2168 88.7577 79.5011 89.0421 79.8518 89.0421Z" fill="#2B714F"/>
<path d="M53.3321 89.1458C53.6849 89.1458 53.9708 88.8598 53.9708 88.507C53.9708 88.1543 53.6849 87.8683 53.3321 87.8683C52.9793 87.8683 52.6934 88.1543 52.6934 88.507C52.6934 88.8598 52.9793 89.1458 53.3321 89.1458Z" fill="#2B714F"/>
<path d="M64.6068 89.8913C65.1146 89.8913 65.5262 89.4797 65.5262 88.972C65.5262 88.4642 65.1146 88.0526 64.6068 88.0526C64.0991 88.0526 63.6875 88.4642 63.6875 88.972C63.6875 89.4797 64.0991 89.8913 64.6068 89.8913Z" fill="#2B714F"/>
<path d="M95.5495 89.7136C95.8962 89.7136 96.1772 89.4326 96.1772 89.0859C96.1772 88.7393 95.8962 88.4583 95.5495 88.4583C95.2029 88.4583 94.9219 88.7393 94.9219 89.0859C94.9219 89.4326 95.2029 89.7136 95.5495 89.7136Z" fill="#2B714F"/>
<path d="M88.8132 91.0205C89.1599 91.0205 89.4409 90.7394 89.4409 90.3928C89.4409 90.0461 89.1599 89.7651 88.8132 89.7651C88.4666 89.7651 88.1855 90.0461 88.1855 90.3928C88.1855 90.7394 88.4666 91.0205 88.8132 91.0205Z" fill="#2B714F"/>
<path d="M72.6739 91.1906C73.0267 91.1906 73.3126 90.9046 73.3126 90.5518C73.3126 90.1991 73.0267 89.9131 72.6739 89.9131C72.3211 89.9131 72.0352 90.1991 72.0352 90.5518C72.0352 90.9046 72.3211 91.1906 72.6739 91.1906Z" fill="#2B714F"/>
<path d="M79.8703 93.524C80.3801 93.524 80.7933 93.1108 80.7933 92.601C80.7933 92.0912 80.3801 91.678 79.8703 91.678C79.3605 91.678 78.9473 92.0912 78.9473 92.601C78.9473 93.1108 79.3605 93.524 79.8703 93.524Z" fill="#2B714F"/>
<path d="M95.0215 93.9232C95.3743 93.9232 95.6603 93.6373 95.6603 93.2845C95.6603 92.9317 95.3743 92.6458 95.0215 92.6458C94.6688 92.6458 94.3828 92.9317 94.3828 93.2845C94.3828 93.6373 94.6688 93.9232 95.0215 93.9232Z" fill="#2B714F"/>
<path d="M84.313 96.0972C84.6617 96.0972 84.9443 95.8145 84.9443 95.4658C84.9443 95.1171 84.6617 94.8345 84.313 94.8345C83.9643 94.8345 83.6816 95.1171 83.6816 95.4658C83.6816 95.8145 83.9643 96.0972 84.313 96.0972Z" fill="#2B714F"/>
<path d="M73.096 96.2195C73.4467 96.2195 73.731 95.9352 73.731 95.5845C73.731 95.2338 73.4467 94.9495 73.096 94.9495C72.7453 94.9495 72.4609 95.2338 72.4609 95.5845C72.4609 95.9352 72.7453 96.2195 73.096 96.2195Z" fill="#2B714F"/>
<path d="M53.971 97.8586C54.3217 97.8586 54.606 97.5743 54.606 97.2235C54.606 96.8728 54.3217 96.5885 53.971 96.5885C53.6203 96.5885 53.3359 96.8728 53.3359 97.2235C53.3359 97.5743 53.6203 97.8586 53.971 97.8586Z" fill="#2B714F"/>
<path d="M84.6774 102.555C85.1831 102.555 85.593 102.145 85.593 101.639C85.593 101.134 85.1831 100.724 84.6774 100.724C84.1717 100.724 83.7617 101.134 83.7617 101.639C83.7617 102.145 84.1717 102.555 84.6774 102.555Z" fill="#2B714F"/>
<path d="M89.6245 105.524C90.3545 105.524 90.9463 104.932 90.9463 104.202C90.9463 103.472 90.3545 102.88 89.6245 102.88C88.8945 102.88 88.3027 103.472 88.3027 104.202C88.3027 104.932 88.8945 105.524 89.6245 105.524Z" fill="#2B714F"/>
<path d="M92.2019 106.388C92.5485 106.388 92.8295 106.107 92.8295 105.76C92.8295 105.413 92.5485 105.132 92.2019 105.132C91.8552 105.132 91.5742 105.413 91.5742 105.76C91.5742 106.107 91.8552 106.388 92.2019 106.388Z" fill="#2B714F"/>
<path d="M62.4096 107.045C62.9173 107.045 63.3289 106.633 63.3289 106.126C63.3289 105.618 62.9173 105.206 62.4096 105.206C61.9018 105.206 61.4902 105.618 61.4902 106.126C61.4902 106.633 61.9018 107.045 62.4096 107.045Z" fill="#2B714F"/>
<path d="M71.6985 109.888C72.4306 109.888 73.024 109.294 73.024 108.562C73.024 107.83 72.4306 107.237 71.6985 107.237C70.9665 107.237 70.373 107.83 70.373 108.562C70.373 109.294 70.9665 109.888 71.6985 109.888Z" fill="#2B714F"/>
<path d="M77.1559 114.119C77.6616 114.119 78.0715 113.709 78.0715 113.203C78.0715 112.698 77.6616 112.288 77.1559 112.288C76.6502 112.288 76.2402 112.698 76.2402 113.203C76.2402 113.709 76.6502 114.119 77.1559 114.119Z" fill="#2B714F"/>
<path d="M63.9573 117.556C64.308 117.556 64.5924 117.272 64.5924 116.921C64.5924 116.571 64.308 116.286 63.9573 116.286C63.6066 116.286 63.3223 116.571 63.3223 116.921C63.3223 117.272 63.6066 117.556 63.9573 117.556Z" fill="#2B714F"/>
</g>
<rect x="51.6582" y="73.0857" width="43.7942" height="43.7942" rx="21.8971" stroke="#2B714F"/>
<path d="M73.7539 68.6216L73.7539 -8.28174" stroke="#2B714F" stroke-miterlimit="10"/>
<path d="M72.1898 68.6216H75.3C76.6278 68.6216 77.7008 69.6446 77.7008 70.9102L77.7172 72.9673C74.5638 72.6479 72.8 72.5571 69.7891 72.9821V70.9102C69.7891 69.6446 70.8621 68.6216 72.1898 68.6216Z" stroke="#2B714F" stroke-miterlimit="10"/>
<path d="M103.682 26.6022L103.682 -10.2638" stroke="#2B714F" stroke-miterlimit="10"/>
<path d="M99.9902 31.2727C94.8804 34.8385 86.041 42.2431 86.041 50.7969C86.041 62.8282 103.529 72.586 103.529 72.586C103.529 72.586 121.016 62.8282 121.016 50.7969C121.016 42.3116 112.318 34.9573 107.191 31.3592" stroke="#2B714F" stroke-miterlimit="10"/>
<path d="M102.201 26.6023H105.162C106.426 26.6023 107.448 27.7183 107.448 29.099V31.3592H99.916V29.099C99.916 27.7183 100.937 26.6023 102.201 26.6023Z" stroke="#2B714F" stroke-miterlimit="10"/>
<path d="M104.064 42.8551V59.0484" stroke="#2B714F" stroke-miterlimit="10"/>
<path d="M95.9512 50.9679H112.138" stroke="#2B714F" stroke-miterlimit="10"/>
<path d="M99.2285 46.1329L108.873 55.7838" stroke="#2B714F" stroke-miterlimit="10"/>
<path d="M99.2285 55.8034L108.873 46.1592" stroke="#2B714F" stroke-miterlimit="10"/>
</g>
<defs>
<clipPath id="clip0_343_13846">
<rect x="0.0195312" y="0.835693" width="158.96" height="140.329" rx="9.51381" fill="white"/>
</clipPath>
<clipPath id="clip1_343_13846">
<rect x="51.1582" y="72.5857" width="44.7942" height="44.7942" rx="22.3971" fill="white"/>
</clipPath>
</defs>
</svg>
