<svg width="286" height="286" viewBox="0 0 286 286" fill="none" xmlns="http://www.w3.org/2000/svg">
<g clip-path="url(#clip0_436_13554)">
<rect width="286" height="286" rx="24" fill="#378861"/>
<path d="M217.514 20.5V73H215.039V22.825H201.839V20.5H217.514ZM265.79 70.675V73H230.24V71.2L252.74 48.55C255.79 45.5 257.84 42.9 258.89 40.75C259.99 38.55 260.54 36.3 260.54 34C260.54 30.45 259.315 27.65 256.865 25.6C254.465 23.55 251.015 22.525 246.515 22.525C243.015 22.525 239.965 23.05 237.365 24.1C234.815 25.1 232.615 26.675 230.765 28.825L229.04 27.175C233.09 22.525 238.94 20.2 246.59 20.2C251.64 20.2 255.64 21.425 258.59 23.875C261.54 26.325 263.015 29.65 263.015 33.85C263.015 36.5 262.415 39.05 261.215 41.5C260.015 43.95 257.79 46.8 254.54 50.05L234.065 70.675H265.79Z" fill="white"/>
<path d="M213.242 92.956H214.478V95.836H213.362V94H206.45L206.438 95.836H205.322L205.334 92.956H205.742C206.894 92.884 207.17 90.856 207.254 88.3L207.338 85.6H213.242V92.956ZM208.31 88.408C208.238 90.46 208.034 92.308 207.314 92.956H212.054V86.644H208.37L208.31 88.408ZM217.319 92.956H222.215V94H216.119V85.6H222.047V86.644H217.319V89.224H221.531V90.244H217.319V92.956ZM229.751 94L227.027 90.304H225.275V94H224.099V85.6H225.275V89.248H227.051L229.691 85.6H230.975L227.975 89.668L231.119 94H229.751ZM238.616 94L237.692 91.9H233.228L232.304 94H231.068L234.872 85.6H236.06L239.876 94H238.616ZM233.648 90.94H237.272L235.46 86.824L233.648 90.94ZM241.326 94V85.6H247.662V86.62H242.514V89.02H245.13C247.134 89.02 248.19 89.872 248.19 91.444C248.19 93.088 247.026 94 244.926 94H241.326ZM242.514 93.052H244.878C246.258 93.052 246.99 92.512 246.99 91.492C246.99 90.46 246.282 89.968 244.878 89.968H242.514V93.052ZM253.379 85.6C255.563 85.6 256.883 86.704 256.883 88.528C256.883 90.352 255.563 91.456 253.379 91.456H251.303V94H250.103V85.6H253.379ZM253.343 90.412C254.879 90.412 255.683 89.728 255.683 88.528C255.683 87.328 254.879 86.644 253.343 86.644H251.303V90.412H253.343ZM261.149 85.6H264.521V94H263.345V91.552H261.029C260.921 91.552 260.813 91.552 260.705 91.54L259.025 94H257.753L259.613 91.336C258.425 90.94 257.753 89.98 257.753 88.624C257.753 86.704 259.085 85.6 261.149 85.6ZM258.965 88.612C258.965 89.848 259.697 90.544 261.125 90.544H263.345V86.644H261.197C259.769 86.644 258.965 87.316 258.965 88.612Z" fill="white"/>
<path d="M57.3747 265.496L19.9999 265.466L20.0398 216.032L49.7526 216.056L49.7436 227.293L59.4112 227.301C67.1602 227.307 73.4568 221.021 73.463 213.272C73.4692 205.523 67.1829 199.226 59.4338 199.22L36.3237 199.201L36.2845 247.876L54.2868 247.89C72.3762 247.905 87.0637 233.253 87.0783 215.151C87.0928 197.062 72.4414 182.374 54.3396 182.36L20.0669 182.332" stroke="white" stroke-miterlimit="10"/>
<path d="M57.3747 21.1828L19.9999 21.2129L20.0398 70.6472L49.7526 70.6233L49.7436 59.3859L59.4112 59.3781C67.1602 59.3719 73.4568 65.6582 73.463 73.4073C73.4692 81.1563 67.1829 87.4528 59.4338 87.459L36.3237 87.4777L36.2845 38.8032L54.2868 38.7887C72.3762 38.7741 87.0637 53.4257 87.0783 71.5276C87.0928 89.6169 72.4414 104.305 54.3396 104.319L20.0669 104.347" stroke="white" stroke-miterlimit="10"/>
<path d="M227.556 265.496L264.93 265.466L264.891 216.032L235.178 216.056L235.187 227.293L225.519 227.301C217.77 227.307 211.474 221.021 211.467 213.272C211.461 205.523 217.748 199.226 225.497 199.22L248.607 199.201L248.646 247.876L230.644 247.89C212.554 247.905 197.867 233.253 197.852 215.151C197.838 197.062 212.489 182.374 230.591 182.36L264.93 182.36" stroke="white" stroke-miterlimit="10"/>
<line y1="-0.5" x2="189.361" y2="-0.5" transform="matrix(1 0 0 -1 57.3182 265.009)" stroke="white"/>
<line y1="-0.5" x2="135.553" y2="-0.5" transform="matrix(1 0 0 -1 42.8317 20.6344)" stroke="white"/>
<circle cx="1.55214" cy="1.55214" r="1.55214" transform="matrix(-1 0 0 1 180.455 19.5996)" fill="white"/>
<line x1="20.5669" y1="103.83" x2="20.4999" y2="183" stroke="white"/>
<line y1="-0.5" x2="75.02" y2="-0.5" transform="matrix(0 1 1 0 265.965 107.83)" stroke="white"/>
<circle cx="1.55214" cy="1.55214" r="1.55214" transform="matrix(-1 0 0 1 267 106.794)" fill="white"/>
<path d="M142.926 107V177.347" stroke="white" stroke-miterlimit="10"/>
<path d="M107.682 142.245H178" stroke="white" stroke-miterlimit="10"/>
<path d="M121.921 121.24L163.817 163.165" stroke="white" stroke-miterlimit="10"/>
<path d="M121.921 163.249L163.817 121.353" stroke="white" stroke-miterlimit="10"/>
<path d="M58.3819 134.848L57.116 138.727C56.7535 139.837 55.8845 140.7 54.7797 141.063L50.9012 142.329L54.7797 143.595C55.8903 143.957 56.7535 144.826 57.116 145.931L58.3819 149.81L59.6479 145.931C60.0104 144.821 60.8794 143.957 61.9842 143.595L65.8627 142.329L61.9842 141.063C60.8736 140.7 60.0104 139.831 59.6479 138.727L58.3819 134.848Z" stroke="white" stroke-miterlimit="10"/>
<path d="M142.99 217.696L141.724 221.575C141.362 222.685 140.493 223.549 139.388 223.911L135.509 225.177L139.388 226.443C140.499 226.806 141.362 227.674 141.724 228.779L142.99 232.658L144.256 228.779C144.619 227.669 145.488 226.806 146.592 226.443L150.471 225.177L146.592 223.911C145.482 223.549 144.619 222.68 144.256 221.575L142.99 217.696Z" stroke="white" stroke-miterlimit="10"/>
<path d="M142.99 53L141.724 56.8785C141.362 57.9891 140.493 58.8523 139.388 59.2148L135.509 60.4807L139.388 61.7468C140.499 62.1093 141.362 62.9782 141.724 64.083L142.99 67.9615L144.256 64.083C144.619 62.9724 145.488 62.1093 146.592 61.7468L150.471 60.4807L146.592 59.2148C145.482 58.8523 144.619 57.9833 144.256 56.8785L142.99 53Z" stroke="white" stroke-miterlimit="10"/>
<path d="M230.519 134.848L229.253 138.727C228.891 139.837 228.022 140.701 226.917 141.063L223.039 142.329L226.917 143.595C228.028 143.958 228.891 144.826 229.253 145.931L230.519 149.81L231.785 145.931C232.148 144.821 233.017 143.958 234.122 143.595L238 142.329L234.122 141.063C233.011 140.701 232.148 139.832 231.785 138.727L230.519 134.848Z" stroke="white" stroke-miterlimit="10"/>
<path d="M198.836 145.409C200.537 145.409 201.916 144.03 201.916 142.329C201.916 140.628 200.537 139.249 198.836 139.249C197.135 139.249 195.756 140.628 195.756 142.329C195.756 144.03 197.135 145.409 198.836 145.409Z" stroke="white" stroke-miterlimit="10"/>
<path d="M142.99 200.975C144.691 200.975 146.071 199.595 146.071 197.894C146.071 196.193 144.691 194.814 142.99 194.814C141.289 194.814 139.91 196.193 139.91 197.894C139.91 199.595 141.289 200.975 142.99 200.975Z" stroke="white" stroke-miterlimit="10"/>
<path d="M142.99 90.8438C144.691 90.8438 146.071 89.4646 146.071 87.7634C146.071 86.0622 144.691 84.6831 142.99 84.6831C141.289 84.6831 139.91 86.0622 139.91 87.7634C139.91 89.4646 141.289 90.8438 142.99 90.8438Z" stroke="white" stroke-miterlimit="10"/>
<path d="M86.5447 145.409C88.2459 145.409 89.625 144.03 89.625 142.329C89.625 140.628 88.2459 139.249 86.5447 139.249C84.8434 139.249 83.4644 140.628 83.4644 142.329C83.4644 144.03 84.8434 145.409 86.5447 145.409Z" stroke="white" stroke-miterlimit="10"/>
</g>
<defs>
<clipPath id="clip0_436_13554">
<rect width="286" height="286" rx="24" fill="white"/>
</clipPath>
</defs>
</svg>
