<svg width="243" height="455" viewBox="0 0 243 455" fill="none" xmlns="http://www.w3.org/2000/svg">
<rect width="243" height="455" rx="24" fill="#378861"/>
<path d="M35.5856 20.5V73H33.1106V22.825H19.9106V20.5H35.5856ZM64.8866 20.2C71.6366 20.2 76.7616 22.525 80.2616 27.175C83.8116 31.825 85.5866 38.3 85.5866 46.6C85.5866 52.4 84.6366 57.3 82.7366 61.3C80.8866 65.25 78.2616 68.25 74.8616 70.3C71.4616 72.3 67.4616 73.3 62.8616 73.3C58.0116 73.3 54.1616 72.425 51.3116 70.675L52.4366 68.65C54.8866 70.2 58.3366 70.975 62.7866 70.975C69.0866 70.975 74.0366 68.925 77.6366 64.825C81.2366 60.725 83.0366 54.775 83.0366 46.975C83.0366 43.875 82.7866 41.175 82.2866 38.875C81.4366 42.725 79.4366 45.75 76.2866 47.95C73.1866 50.1 69.4866 51.175 65.1866 51.175C61.7366 51.175 58.6866 50.55 56.0366 49.3C53.3866 48.05 51.3366 46.275 49.8866 43.975C48.4866 41.625 47.7866 38.9 47.7866 35.8C47.7866 32.7 48.5116 29.975 49.9616 27.625C51.4616 25.275 53.4866 23.45 56.0366 22.15C58.6366 20.85 61.5866 20.2 64.8866 20.2ZM65.4116 49C68.4116 49 71.0866 48.425 73.4366 47.275C75.7866 46.075 77.6116 44.45 78.9116 42.4C80.2116 40.35 80.8616 38.075 80.8616 35.575C80.8616 33.375 80.2366 31.275 78.9866 29.275C77.7866 27.225 75.9616 25.575 73.5116 24.325C71.1116 23.075 68.2366 22.45 64.8866 22.45C60.5366 22.45 57.0116 23.675 54.3116 26.125C51.6616 28.525 50.3366 31.725 50.3366 35.725C50.3366 39.775 51.6866 43 54.3866 45.4C57.0866 47.8 60.7616 49 65.4116 49Z" fill="white"/>
<path d="M32.242 94.956H33.478V97.836H32.362V96H25.45L25.438 97.836H24.322L24.334 94.956H24.742C25.894 94.884 26.17 92.856 26.254 90.3L26.338 87.6H32.242V94.956ZM27.31 90.408C27.238 92.46 27.034 94.308 26.314 94.956H31.054V88.644H27.37L27.31 90.408ZM36.3185 94.956H41.2145V96H35.1185V87.6H41.0465V88.644H36.3185V91.224H40.5305V92.244H36.3185V94.956ZM48.751 96L46.027 92.304H44.275V96H43.099V87.6H44.275V91.248H46.051L48.691 87.6H49.975L46.975 91.668L50.119 96H48.751ZM57.6158 96L56.6918 93.9H52.2278L51.3038 96H50.0678L53.8718 87.6H55.0598L58.8758 96H57.6158ZM52.6478 92.94H56.2718L54.4598 88.824L52.6478 92.94ZM60.3256 96V87.6H66.6616V88.62H61.5136V91.02H64.1296C66.1336 91.02 67.1896 91.872 67.1896 93.444C67.1896 95.088 66.0256 96 63.9256 96H60.3256ZM61.5136 95.052H63.8776C65.2576 95.052 65.9896 94.512 65.9896 93.492C65.9896 92.46 65.2816 91.968 63.8776 91.968H61.5136V95.052ZM72.3789 87.6C74.5629 87.6 75.8829 88.704 75.8829 90.528C75.8829 92.352 74.5629 93.456 72.3789 93.456H70.3029V96H69.1029V87.6H72.3789ZM72.3429 92.412C73.8789 92.412 74.6829 91.728 74.6829 90.528C74.6829 89.328 73.8789 88.644 72.3429 88.644H70.3029V92.412H72.3429ZM80.1486 87.6H83.5206V96H82.3446V93.552H80.0286C79.9206 93.552 79.8126 93.552 79.7046 93.54L78.0246 96H76.7526L78.6126 93.336C77.4246 92.94 76.7526 91.98 76.7526 90.624C76.7526 88.704 78.0846 87.6 80.1486 87.6ZM77.9646 90.612C77.9646 91.848 78.6966 92.544 80.1246 92.544H82.3446V88.644H80.1966C78.7686 88.644 77.9646 89.316 77.9646 90.612Z" fill="white"/>
<path d="M122.853 187V266.932" stroke="white" stroke-miterlimit="10"/>
<path d="M162.899 227.046H82.9999" stroke="white" stroke-miterlimit="10"/>
<path d="M146.719 203.179L99.1148 250.817" stroke="white" stroke-miterlimit="10"/>
<path d="M146.719 250.913L99.1148 203.308" stroke="white" stroke-miterlimit="10"/>
<path d="M67.5 230C65.567 230 64 228.433 64 226.5C64 224.567 65.567 223 67.5 223C69.433 223 71 224.567 71 226.5C71 228.433 69.433 230 67.5 230Z" stroke="white" stroke-miterlimit="10"/>
<path d="M122.5 286C120.567 286 119 284.433 119 282.5C119 280.567 120.567 279 122.5 279C124.433 279 126 280.567 126 282.5C126 284.433 124.433 286 122.5 286Z" stroke="white" stroke-miterlimit="10"/>
<path d="M123.5 176C121.567 176 120 174.433 120 172.5C120 170.567 121.567 169 123.5 169C125.433 169 127 170.567 127 172.5C127 174.433 125.433 176 123.5 176Z" stroke="white" stroke-miterlimit="10"/>
<path d="M176.5 230C174.567 230 173 228.433 173 226.5C173 224.567 174.567 223 176.5 223C178.433 223 180 224.567 180 226.5C180 228.433 178.433 230 176.5 230Z" stroke="white" stroke-miterlimit="10"/>
<path d="M56.1839 434.37L20.0647 434.341L20.1031 386.568L48.8179 386.591L48.8092 397.451L58.1521 397.458C65.6408 397.464 71.7258 391.389 71.7318 383.9C71.7378 376.412 65.6626 370.327 58.1739 370.321L35.8401 370.303L35.8022 417.342L53.1998 417.356C70.6815 417.37 84.8757 403.211 84.8897 385.717C84.9038 368.235 70.7445 354.041 53.2508 354.027L20.0647 354.027" stroke="white" stroke-miterlimit="10"/>
<path d="M186.731 434.37L222.851 434.341L222.812 386.568L194.097 386.591L194.106 397.451L184.763 397.458C177.274 397.464 171.189 391.389 171.183 383.9C171.177 376.412 177.253 370.327 184.741 370.32L207.075 370.302L207.113 417.342L189.716 417.356C172.234 417.37 158.04 403.211 158.026 385.717C158.011 368.235 172.171 354.041 189.664 354.027L222.786 354" stroke="white" stroke-miterlimit="10"/>
<path d="M186.731 20.0232L222.851 20.0523L222.812 67.826L194.097 67.8028L194.106 56.9429L184.763 56.9354C177.274 56.9294 171.189 63.0046 171.183 70.4933C171.177 77.982 177.253 84.067 184.741 84.0731L207.075 84.0911L207.113 37.0516L189.716 37.0376C172.234 37.0236 158.04 51.183 158.026 68.6768C158.011 86.1585 172.171 100.353 189.664 100.367L222.786 100.394" stroke="white" stroke-miterlimit="10"/>
<line x1="222.5" y1="100" x2="222.5" y2="354" stroke="white"/>
<line x1="196" y1="434.5" x2="54" y2="434.5" stroke="white"/>
<line x1="20.5" y1="116" x2="20.5" y2="355" stroke="white"/>
<line x1="221" y1="20" x2="99" y2="20" stroke="white"/>
<circle cx="98.5" cy="20" r="1.5" fill="white"/>
<circle cx="20.5" cy="115.5" r="1.5" fill="white"/>
<path d="M122.5 300L123.938 304.407C124.35 305.669 125.338 306.65 126.593 307.062L131 308.5L126.593 309.939C125.331 310.35 124.35 311.338 123.938 312.593L122.5 317L121.062 312.593C120.65 311.331 119.662 310.35 118.407 309.939L114 308.5L118.407 307.062C119.669 306.65 120.65 305.662 121.062 304.407L122.5 300Z" stroke="white" stroke-miterlimit="10"/>
<path d="M204.5 218L205.938 222.407C206.35 223.669 207.338 224.65 208.593 225.062L213 226.5L208.593 227.939C207.331 228.35 206.35 229.338 205.938 230.593L204.5 235L203.062 230.593C202.65 229.331 201.662 228.35 200.407 227.939L196 226.5L200.407 225.062C201.669 224.65 202.65 223.662 203.062 222.407L204.5 218Z" stroke="white" stroke-miterlimit="10"/>
<path d="M41.5 219L42.9384 223.407C43.3504 224.669 44.3377 225.65 45.5931 226.062L50 227.5L45.5931 228.939C44.3312 229.35 43.3504 230.338 42.9384 231.593L41.5 236L40.0616 231.593C39.6496 230.331 38.6623 229.35 37.4069 228.939L33 227.5L37.4069 226.062C38.6688 225.65 39.6496 224.662 40.0616 223.407L41.5 219Z" stroke="white" stroke-miterlimit="10"/>
<path d="M122.5 131L123.938 135.407C124.35 136.669 125.338 137.65 126.593 138.062L131 139.5L126.593 140.939C125.331 141.35 124.35 142.338 123.938 143.593L122.5 148L121.062 143.593C120.65 142.331 119.662 141.35 118.407 140.939L114 139.5L118.407 138.062C119.669 137.65 120.65 136.662 121.062 135.407L122.5 131Z" stroke="white" stroke-miterlimit="10"/>
</svg>
