<svg width="375" height="664" viewBox="0 0 375 664" fill="none" xmlns="http://www.w3.org/2000/svg">
<g id="2036">
<path class="anim-scale popup-december-24__decor--7" d="M215.98 36L219.023 45.322C219.894 47.9914 221.983 50.0661 224.638 50.9375L233.96 53.9802L224.638 57.0231C221.969 57.8945 219.894 59.9829 219.023 62.6384L215.98 71.9604L212.937 62.6384C212.066 59.969 209.978 57.8945 207.322 57.0231L198 53.9802L207.322 50.9375C209.991 50.0661 212.066 47.9776 212.937 45.322L215.98 36Z" stroke="white" stroke-width="1.5" stroke-miterlimit="10"/>
<path class="anim-scale popup-december-24__decor--6" d="M334.889 61L337.071 67.6826C337.695 69.5962 339.192 71.0835 341.096 71.7081L347.779 73.8893L341.096 76.0707C339.182 76.6953 337.695 78.1924 337.071 80.096L334.889 86.7787L332.708 80.096C332.083 78.1825 330.586 76.6953 328.683 76.0707L322 73.8893L328.683 71.7081C330.596 71.0835 332.083 69.5863 332.708 67.6826L334.889 61Z" stroke="white" stroke-width="1.5" stroke-miterlimit="10"/>
<path class="anim-scale popup-december-24__decor--5" d="M47.8893 439L50.0706 445.683C50.6952 447.596 52.1924 449.083 54.096 449.708L60.7787 451.889L54.096 454.071C52.1825 454.695 50.6952 456.192 50.0706 458.096L47.8893 464.779L45.7081 458.096C45.0835 456.182 43.5863 454.695 41.6826 454.071L35 451.889L41.6826 449.708C43.5962 449.083 45.0835 447.586 45.7081 445.683L47.8893 439Z" stroke="white" stroke-width="1.5" stroke-miterlimit="10"/>
<path class="anim-scale popup-december-24__decor--4" d="M275.207 119.637L276.765 124.41C277.211 125.777 278.28 126.839 279.64 127.285L284.413 128.843L279.64 130.401C278.273 130.848 277.211 131.917 276.765 133.277L275.207 138.05L273.649 133.277C273.202 131.91 272.133 130.848 270.773 130.401L266 128.843L270.773 127.285C272.14 126.839 273.202 125.77 273.649 124.41L275.207 119.637Z" stroke="white" stroke-width="1.5" stroke-miterlimit="10"/>
<path class="anim-scale popup-december-24__decor--3" d="M73.2067 27L74.7647 31.7733C75.2108 33.1401 76.2803 34.2025 77.64 34.6486L82.4133 36.2067L77.64 37.7648C76.2732 38.2109 75.2108 39.2803 74.7647 40.64L73.2067 45.4133L71.6486 40.64C71.2025 39.2732 70.133 38.2109 68.7733 37.7648L64 36.2067L68.7733 34.6486C70.1401 34.2025 71.2025 33.133 71.6486 31.7733L73.2067 27Z" stroke="white" stroke-width="1.5" stroke-miterlimit="10"/>
<path class="anim-scale popup-december-24__decor--2" d="M96.2067 413L97.7647 417.773C98.2108 419.14 99.2803 420.202 100.64 420.649L105.413 422.207L100.64 423.765C99.2732 424.211 98.2108 425.28 97.7647 426.64L96.2067 431.413L94.6486 426.64C94.2025 425.273 93.133 424.211 91.7733 423.765L87 422.207L91.7733 420.649C93.1401 420.202 94.2025 419.133 94.6486 417.773L96.2067 413Z" stroke="white" stroke-width="1.5" stroke-miterlimit="10"/>
<path class="anim-scale popup-december-24__decor--1" d="M314 311L317.554 321.888C318.571 325.005 321.011 327.429 324.112 328.446L335 332L324.112 335.554C320.995 336.572 318.571 339.011 317.554 342.112L314 353L310.446 342.112C309.429 338.995 306.989 336.572 303.888 335.554L293 332L303.888 328.446C307.005 327.429 309.429 324.989 310.446 321.888L314 311Z" stroke="white" stroke-width="1.5" stroke-miterlimit="10"/>
</g>
</svg>
