<svg width="375" height="664" viewBox="0 0 375 664" fill="none" xmlns="http://www.w3.org/2000/svg">
<g id="53" clip-path="url(#clip0_449_15590)">
<g id="popup-december-22__decor--7 anim-translate-opacity">
<path id="Vector" d="M207.918 19.0625L187.832 58.6483" stroke="#2B714F" stroke-width="1.5" stroke-miterlimit="10"/>
<path id="Vector_2" d="M178.022 28.833L217.592 48.9104" stroke="#2B714F" stroke-width="1.5" stroke-miterlimit="10"/>
<path id="Vector_3" d="M192.03 21.0781L203.636 56.6326" stroke="#2B714F" stroke-width="1.5" stroke-miterlimit="10"/>
<path id="Vector_4" d="M180.037 44.7186L215.575 33.1048" stroke="#2B714F" stroke-width="1.5" stroke-miterlimit="10"/>
</g>
<g id="popup-december-22__decor--6 anim-translate-opacity">
<path id="Vector_5" d="M333.495 59.9229L321.673 83.2232" stroke="#2B714F" stroke-width="1.5" stroke-miterlimit="10"/>
<path id="Vector_6" d="M315.899 65.6738L339.19 77.4914" stroke="#2B714F" stroke-width="1.5" stroke-miterlimit="10"/>
<path id="Vector_7" d="M324.146 61.1094L330.976 82.0369" stroke="#2B714F" stroke-width="1.5" stroke-miterlimit="10"/>
<path id="Vector_8" d="M317.086 75.0244L338.004 68.1885" stroke="#2B714F" stroke-width="1.5" stroke-miterlimit="10"/>
</g>
<g id="popup-december-22__decor--5 anim-translate-opacity">
<path id="Vector_9" d="M281.495 12.9229L269.673 36.2232" stroke="#2B714F" stroke-width="1.5" stroke-miterlimit="10"/>
<path id="Vector_10" d="M263.899 18.6738L287.19 30.4914" stroke="#2B714F" stroke-width="1.5" stroke-miterlimit="10"/>
<path id="Vector_11" d="M272.146 14.1094L278.976 35.0369" stroke="#2B714F" stroke-width="1.5" stroke-miterlimit="10"/>
<path id="Vector_12" d="M265.086 28.0244L286.004 21.1885" stroke="#2B714F" stroke-width="1.5" stroke-miterlimit="10"/>
</g>
<g id="popup-december-22__decor--9 anim-rotate">
<path id="Vector_13" d="M112.081 482.368C107.038 483.951 101.667 481.146 100.084 476.103C98.5018 471.06 101.307 465.688 106.35 464.106C111.393 462.523 116.764 465.328 118.347 470.372C119.93 475.415 117.124 480.786 112.081 482.368Z" fill="#2B714F"/>
<path id="Vector_14" d="M100.379 538.51C95.336 540.093 89.9649 537.287 88.3822 532.244C86.7996 527.201 89.6049 521.83 94.648 520.247C99.6911 518.665 105.062 521.47 106.645 526.513C108.227 531.556 105.422 536.927 100.379 538.51Z" fill="#2B714F"/>
<path id="Vector_15" d="M124.402 575.722C119.358 577.305 113.987 574.499 112.405 569.456C110.822 564.413 113.627 559.042 118.67 557.459C123.714 555.877 129.085 558.682 130.667 563.725C132.25 568.768 129.445 574.139 124.402 575.722Z" fill="#2B714F"/>
<path id="Vector_16" d="M146.223 605.91C141.18 607.493 135.809 604.688 134.226 599.645C132.643 594.602 135.449 589.23 140.492 587.648C145.535 586.065 150.906 588.87 152.489 593.914C154.071 598.957 151.266 604.328 146.223 605.91Z" fill="#2B714F"/>
<path id="Vector_17" d="M197.46 631.497C192.417 633.08 187.046 630.275 185.463 625.232C183.881 620.188 186.686 614.817 191.729 613.235C196.772 611.652 202.143 614.457 203.726 619.5C205.309 624.544 202.503 629.915 197.46 631.497Z" fill="#2B714F"/>
<path id="Vector_18" d="M160.531 454.819C155.488 456.401 150.117 453.596 148.535 448.553C146.952 443.51 149.757 438.139 154.8 436.556C159.843 434.973 165.215 437.779 166.797 442.822C168.38 447.865 165.575 453.236 160.531 454.819Z" fill="#2B714F"/>
<path id="Vector_19" d="M204.635 462.583C199.592 464.166 194.221 461.361 192.638 456.317C191.056 451.274 193.861 445.903 198.904 444.321C203.947 442.738 209.318 445.543 210.901 450.586C212.483 455.629 209.678 461.001 204.635 462.583Z" fill="#2B714F"/>
<path id="Vector 45" d="M338.785 603.921C285.264 585.824 246.396 568.356 206.132 543.738M115.477 479.98C149.88 506.345 178.339 526.745 206.132 543.738M206.132 543.738L160.601 452.373" stroke="#2B714F" stroke-width="1.5"/>
<path id="Vector 46" d="M184.109 498.919L199.862 461.184" stroke="#2B714F" stroke-width="1.5"/>
<path id="Vector 47" d="M173.685 522.251L104.163 529.632" stroke="#2B714F" stroke-width="1.5"/>
<path id="Vector 48" d="M256.175 571.208L149.947 595.945" stroke="#2B714F" stroke-width="1.5"/>
<path id="Vector 49" d="M206.606 582.905C177.524 571.505 157.837 567.358 129.574 567.76" stroke="#2B714F" stroke-width="1.5"/>
<path id="Vector 50" d="M218.55 579.157L195.35 618.196" stroke="#2B714F" stroke-width="1.5"/>
</g>
<g id="popup-december-22__decor--8 anim-rotate">
<path id="Vector_20" d="M270.819 434.186C267.637 432.944 266.064 429.358 267.306 426.176C268.548 422.994 272.134 421.422 275.316 422.663C278.498 423.905 280.07 427.491 278.828 430.673C277.587 433.855 274 435.427 270.819 434.186Z" fill="#2B714F"/>
<path id="Vector_21" d="M246.2 454.876C243.018 453.634 241.445 450.048 242.687 446.866C243.929 443.684 247.515 442.112 250.697 443.354C253.879 444.596 255.451 448.182 254.209 451.364C252.967 454.545 249.381 456.118 246.2 454.876Z" fill="#2B714F"/>
<path id="Vector_22" d="M243.795 480.261C240.614 479.019 239.041 475.433 240.283 472.251C241.525 469.069 245.111 467.497 248.293 468.739C251.474 469.981 253.047 473.567 251.805 476.748C250.563 479.93 246.977 481.503 243.795 480.261Z" fill="#2B714F"/>
<path id="Vector_23" d="M242.64 501.365C239.458 500.123 237.886 496.537 239.128 493.355C240.37 490.174 243.956 488.601 247.137 489.843C250.319 491.085 251.892 494.671 250.65 497.853C249.408 501.035 245.822 502.607 242.64 501.365Z" fill="#2B714F"/>
<path id="Vector_24" d="M253.079 530.498C249.897 529.256 248.324 525.67 249.566 522.488C250.808 519.307 254.394 517.734 257.576 518.976C260.758 520.218 262.33 523.804 261.088 526.986C259.846 530.167 256.26 531.74 253.079 530.498Z" fill="#2B714F"/>
<path id="Vector_25" d="M303.216 438.278C300.034 437.036 298.462 433.45 299.704 430.269C300.946 427.087 304.532 425.514 307.714 426.756C310.895 427.998 312.468 431.584 311.226 434.766C309.984 437.948 306.398 439.52 303.216 438.278Z" fill="#2B714F"/>
<path id="Vector_26" d="M318.513 459.602C314.629 458.086 312.709 453.708 314.225 449.824C315.742 445.94 320.12 444.02 324.004 445.536C327.888 447.052 329.808 451.43 328.292 455.314C326.776 459.199 322.398 461.119 318.513 459.602Z" fill="#2B714F"/>
<path id="Vector 45_2" d="M328.944 568.403C311.632 541.306 300.601 519.708 291.497 494.438M273.966 433.846C279.846 457.804 285.213 476.996 291.497 494.438M291.497 494.438L303.829 437.664" stroke="#2B714F" stroke-width="1.5"/>
<path id="Vector 46_2" d="M298.239 467.096L318.118 455.559" stroke="#2B714F" stroke-width="1.5"/>
<path id="Vector 47_2" d="M284.634 473.312L251.258 451.857" stroke="#2B714F" stroke-width="1.5"/>
<path id="Vector 48_2" d="M302.803 523.486L247.96 497.6" stroke="#2B714F" stroke-width="1.5"/>
<path id="Vector 49_2" d="M277.116 511.32C268.267 495.901 261.646 487.722 248.957 477.834" stroke="#2B714F" stroke-width="1.5"/>
<path id="Vector 50_2" d="M285.1 514.335L260.189 523.648" stroke="#2B714F" stroke-width="1.5"/>
</g>
<g id="popup-december-22__decor--4 anim-translate-opacity">
<path id="Vector_27" d="M332.623 337.736L313.189 376.039" stroke="#2B714F" stroke-width="1.5" stroke-miterlimit="10"/>
<path id="Vector_28" d="M303.696 347.19L341.983 366.617" stroke="#2B714F" stroke-width="1.5" stroke-miterlimit="10"/>
<path id="Vector_29" d="M317.252 339.687L328.481 374.088" stroke="#2B714F" stroke-width="1.5" stroke-miterlimit="10"/>
<path id="Vector_30" d="M305.646 362.561L340.032 351.324" stroke="#2B714F" stroke-width="1.5" stroke-miterlimit="10"/>
</g>
<g id="popup-december-22__decor--3 anim-translate-opacity">
<path id="Vector_31" d="M25.623 487.736L6.18852 526.039" stroke="#2B714F" stroke-width="1.5" stroke-miterlimit="10"/>
<path id="Vector_32" d="M-3.30371 497.19L34.983 516.617" stroke="#2B714F" stroke-width="1.5" stroke-miterlimit="10"/>
<path id="Vector_33" d="M10.252 489.687L21.481 524.088" stroke="#2B714F" stroke-width="1.5" stroke-miterlimit="10"/>
<path id="Vector_34" d="M-1.35388 512.561L33.0323 501.324" stroke="#2B714F" stroke-width="1.5" stroke-miterlimit="10"/>
</g>
<g id="popup-december-22__decor--2 anim-translate-opacity">
<path id="Vector_35" d="M86.3818 420.923L74.5593 444.223" stroke="#2B714F" stroke-width="1.5" stroke-miterlimit="10"/>
<path id="Vector_36" d="M68.7861 426.674L92.0769 438.491" stroke="#2B714F" stroke-width="1.5" stroke-miterlimit="10"/>
<path id="Vector_37" d="M77.0322 422.109L83.8632 443.037" stroke="#2B714F" stroke-width="1.5" stroke-miterlimit="10"/>
<path id="Vector_38" d="M69.9726 436.024L90.8905 429.189" stroke="#2B714F" stroke-width="1.5" stroke-miterlimit="10"/>
</g>
<g id="popup-december-22__decor--1 anim-translate-opacity">
<path id="Vector_39" d="M54.4951 589.923L42.6726 613.223" stroke="#2B714F" stroke-width="1.5" stroke-miterlimit="10"/>
<path id="Vector_40" d="M36.8994 595.674L60.1902 607.491" stroke="#2B714F" stroke-width="1.5" stroke-miterlimit="10"/>
<path id="Vector_41" d="M45.1455 591.109L51.9764 612.037" stroke="#2B714F" stroke-width="1.5" stroke-miterlimit="10"/>
<path id="Vector_42" d="M38.0859 605.024L59.0038 598.189" stroke="#2B714F" stroke-width="1.5" stroke-miterlimit="10"/>
</g>
</g>
<defs>
<clipPath id="clip0_449_15590">
<rect width="375" height="664" fill="white"/>
</clipPath>
</defs>
</svg>
