<svg width="148" height="124" viewBox="0 0 148 124" fill="none" xmlns="http://www.w3.org/2000/svg">
<g clip-path="url(#clip0_436_13211)">
<rect x="0.445312" y="0.503174" width="147.11" height="122.994" rx="14.4698" fill="#378861"/>
<path d="M112.335 10.2974V38.2974H111.015V11.5374H103.975V10.2974H112.335ZM138.562 10.2974V11.2574L126.242 38.2974H124.762L137.002 11.5374H120.162V17.0574H118.842V10.2974H138.562Z" fill="white"/>
<path d="M76.4111 42.1597V81.8733" stroke="white" stroke-miterlimit="10"/>
<path d="M96.3077 62.0564H56.6105" stroke="white" stroke-miterlimit="10"/>
<path d="M88.2691 50.1982L64.6171 73.8666" stroke="white" stroke-miterlimit="10"/>
<path d="M88.2691 73.9144L64.6171 50.2622" stroke="white" stroke-miterlimit="10"/>
<rect x="65.057" y="53.0652" width="3.4779" height="3.4779" transform="rotate(-45 65.057 53.0652)" fill="#378861"/>
<rect x="82.943" y="53.0652" width="3.4779" height="3.4779" transform="rotate(-45 82.943 53.0652)" fill="#378861"/>
<rect x="82.943" y="70.9514" width="3.4779" height="3.4779" transform="rotate(-45 82.943 70.9514)" fill="#378861"/>
<rect x="64.56" y="70.4546" width="3.4779" height="3.4779" transform="rotate(-45 64.56 70.4546)" fill="#378861"/>
<path d="M76.236 91.1072L76.9507 93.2967C77.1554 93.9237 77.6459 94.411 78.2697 94.6157L80.4592 95.3303L78.2697 96.0451C77.6427 96.2497 77.1554 96.7402 76.9507 97.364L76.236 99.5535L75.5214 97.364C75.3167 96.737 74.8261 96.2497 74.2024 96.0451L72.0129 95.3303L74.2024 94.6157C74.8294 94.411 75.3167 93.9204 75.5214 93.2967L76.236 91.1072Z" stroke="white" stroke-miterlimit="10"/>
<path d="M76.236 24.0166L76.9507 26.2061C77.1554 26.8331 77.6459 27.3204 78.2697 27.5251L80.4592 28.2398L78.2697 28.9545C77.6427 29.1591 77.1554 29.6497 76.9507 30.2734L76.236 32.4629L75.5214 30.2734C75.3167 29.6464 74.8261 29.1591 74.2024 28.9545L72.0129 28.2398L74.2024 27.5251C74.8294 27.3204 75.3167 26.8299 75.5214 26.2061L76.236 24.0166Z" stroke="white" stroke-miterlimit="10"/>
<path d="M41.4457 57.562L42.1603 59.7516C42.365 60.3785 42.8556 60.8658 43.4793 61.0705L45.6688 61.7852L43.4793 62.4999C42.8523 62.7045 42.365 63.1951 42.1603 63.8188L41.4457 66.0083L40.731 63.8188C40.5263 63.1918 40.0358 62.7045 39.412 62.4999L37.2225 61.7852L39.412 61.0705C40.039 60.8658 40.5263 60.3753 40.731 59.7516L41.4457 57.562Z" stroke="white" stroke-miterlimit="10"/>
<path d="M111.223 58L111.938 60.1895C112.142 60.8165 112.633 61.3038 113.257 61.5085L115.446 62.2232L113.257 62.9379C112.63 63.1425 112.142 63.633 111.938 64.2568L111.223 66.4463L110.508 64.2568C110.304 63.6298 109.813 63.1425 109.189 62.9379L107 62.2232L109.189 61.5085C109.816 61.3038 110.304 60.8133 110.508 60.1895L111.223 58Z" stroke="white" stroke-miterlimit="10"/>
<path d="M55.1116 63.5241C54.1512 63.5241 53.3727 62.7455 53.3727 61.7851C53.3727 60.8247 54.1512 60.0461 55.1116 60.0461C56.072 60.0461 56.8506 60.8247 56.8506 61.7851C56.8506 62.7455 56.072 63.5241 55.1116 63.5241Z" stroke="white" stroke-miterlimit="10"/>
<path d="M76.2359 85.2846C75.2755 85.2846 74.497 84.506 74.497 83.5456C74.497 82.5852 75.2755 81.8066 76.2359 81.8066C77.1963 81.8066 77.9749 82.5852 77.9749 83.5456C77.9749 84.506 77.1963 85.2846 76.2359 85.2846Z" stroke="white" stroke-miterlimit="10"/>
<path d="M76.3419 41.9643C75.3815 41.9643 74.6029 41.1857 74.6029 40.2253C74.6029 39.2649 75.3815 38.4863 76.3419 38.4863C77.3023 38.4863 78.0808 39.2649 78.0808 40.2253C78.0808 41.1857 77.3023 41.9643 76.3419 41.9643Z" stroke="white" stroke-miterlimit="10"/>
<path d="M98.0466 63.6691C97.0862 63.6691 96.3077 62.8905 96.3077 61.9301C96.3077 60.9697 97.0862 60.1912 98.0466 60.1912C99.007 60.1912 99.7856 60.9697 99.7856 61.9301C99.7856 62.8905 99.007 63.6691 98.0466 63.6691Z" stroke="white" stroke-miterlimit="10"/>
<path d="M120.353 113.058L137.25 113.045L137.232 90.6962L123.799 90.707L123.803 95.7873L119.433 95.7908C115.929 95.7936 113.083 92.9516 113.08 89.4484C113.077 85.9451 115.919 83.0985 119.422 83.0957L129.87 83.0873L129.888 105.093L121.749 105.099C113.571 105.106 106.931 98.4818 106.925 90.2982C106.918 82.1202 113.542 75.48 121.725 75.4734L137.22 75.4609" stroke="white" stroke-miterlimit="10"/>
<path d="M27.3997 113.053L10.5029 113.039L10.5209 90.6906L23.9538 90.7014L23.9497 95.7817L28.3204 95.7852C31.8236 95.788 34.6702 92.946 34.673 89.4428C34.6758 85.9395 31.8338 83.0929 28.3306 83.0901L17.8827 83.0817L17.865 105.087L26.0037 105.093C34.1817 105.1 40.8218 98.4762 40.8283 90.2926C40.8349 82.1145 34.2112 75.4744 26.0275 75.4678L10.5332 75.4553" stroke="white" stroke-miterlimit="10"/>
<path d="M27.3997 11.1749L10.5029 11.1885L10.5209 33.5372L23.9538 33.5264L23.9497 28.4461L28.3204 28.4426C31.8236 28.4398 34.6702 31.2818 34.673 34.785C34.6758 38.2883 31.8338 41.1349 28.3306 41.1377L17.8827 41.1461L17.865 19.1409L26.0037 19.1343C34.1817 19.1277 40.8218 25.7516 40.8283 33.9352C40.8349 42.1132 34.2112 48.7534 26.0275 48.76L10.5332 48.7725" stroke="white" stroke-miterlimit="10"/>
<line x1="10.5" y1="48" x2="10.5" y2="76" stroke="white"/>
<line x1="136.5" y1="46" x2="136.5" y2="76" stroke="white"/>
<ellipse cx="136.545" cy="45.6842" rx="1.5" ry="1.5001" fill="white"/>
<ellipse cx="94.5" cy="11.0033" rx="1.5" ry="1.5001" fill="white"/>
<path d="M27 113H122" stroke="white"/>
<path d="M11 11H95" stroke="white"/>
</g>
<defs>
<clipPath id="clip0_436_13211">
<rect x="0.445312" y="0.503174" width="147.11" height="122.994" rx="14.4698" fill="white"/>
</clipPath>
</defs>
</svg>
