<svg width="1085" height="600" viewBox="0 0 1085 600" fill="none" xmlns="http://www.w3.org/2000/svg">
<g id="2033">
<g clip-path="url(#clip0_826_4577)">
<g id="Group 1382">
<circle id="Ellipse 18" cx="284.34" cy="456.34" r="32.6445" transform="rotate(61.1688 284.34 456.34)" fill="url(#paint0_linear_826_4577)" fill-opacity="0.4"/>
</g>
<g class="anim-opacity">
<circle id="Ellipse 18_2" cx="365.085" cy="517.086" r="32.6445" transform="rotate(8.09868 365.085 517.086)" fill="url(#paint1_linear_826_4577)" fill-opacity="0.4"/>
</g>
<g class="anim-opacity">
<circle id="Ellipse 18_3" cx="991.351" cy="347.35" r="32.6445" transform="rotate(37.6505 991.351 347.35)" fill="url(#paint2_linear_826_4577)" fill-opacity="0.4"/>
</g>
<g class="anim-opacity">
<circle id="Ellipse 18_4" cx="32.6445" cy="32.6445" r="32.6445" transform="matrix(0.616911 0.787033 0.787033 -0.616911 779.341 142.619)" fill="url(#paint3_linear_826_4577)" fill-opacity="0.4"/>
</g>
<g class="anim-opacity">
<circle id="Ellipse 18_5" cx="803.112" cy="33.1122" r="32.6445" transform="rotate(29.1147 803.112 33.1122)" fill="url(#paint4_linear_826_4577)" fill-opacity="0.4"/>
</g>
<g class="anim-opacity">
<circle id="Ellipse 18_6" cx="1045.32" cy="111.324" r="32.6445" transform="rotate(28.2229 1045.32 111.324)" fill="url(#paint5_linear_826_4577)" fill-opacity="0.4"/>
</g>
<g class="anim-opacity">
<circle id="Ellipse 18_7" cx="1013.83" cy="271.829" r="32.6445" transform="rotate(167.14 1013.83 271.829)" fill="url(#paint6_linear_826_4577)" fill-opacity="0.4"/>
</g>
<g class="anim-opacity">
<circle id="Ellipse 18_8" cx="32.6445" cy="32.6445" r="32.6445" transform="matrix(-0.898041 0.439911 0.439911 0.898041 914.945 35.3125)" fill="url(#paint7_linear_826_4577)" fill-opacity="0.4"/>
</g>
<g class="anim-opacity">
<circle id="Ellipse 18_9" cx="1018.49" cy="472.485" r="32.6445" transform="rotate(110.982 1018.49 472.485)" fill="url(#paint8_linear_826_4577)" fill-opacity="0.4"/>
</g>
<g class="anim-opacity">
<circle id="Ellipse 18_10" cx="810.313" cy="562.312" r="32.6445" transform="rotate(125.105 810.313 562.312)" fill="url(#paint9_linear_826_4577)" fill-opacity="0.4"/>
</g>
<g class="anim-opacity">
<circle id="Ellipse 18_11" cx="32.6445" cy="32.6445" r="32.6445" transform="matrix(-0.999973 -0.00728641 -0.00728641 0.999973 937.979 417.691)" fill="url(#paint10_linear_826_4577)" fill-opacity="0.4"/>
</g>
<g class="anim-opacity">
<circle id="Ellipse 18_12" cx="32.6445" cy="32.6445" r="32.6445" transform="matrix(-0.191914 0.981412 0.981412 0.191914 850.485 216.955)" fill="url(#paint11_linear_826_4577)" fill-opacity="0.4"/>
</g>
<g class="anim-opacity">
<circle id="Ellipse 20" cx="32.6445" cy="32.6445" r="32.6445" transform="matrix(0.854508 0.519439 0.519439 -0.854508 140.196 553.822)" fill="url(#paint12_linear_826_4577)" fill-opacity="0.4"/>
</g>
<g class="anim-opacity">
<circle id="Ellipse 19" cx="66.1056" cy="368.119" r="32.6445" transform="rotate(51.4521 66.1056 368.119)" fill="url(#paint13_linear_826_4577)" fill-opacity="0.4"/>
</g>
<g class="anim-opacity">
<circle id="Ellipse 16" cx="243.594" cy="380.594" r="32.6445" transform="rotate(32.6038 243.594 380.594)" fill="url(#paint14_linear_826_4577)" fill-opacity="0.4"/>
</g>
<g class="anim-opacity">
<circle id="Ellipse 16_2" cx="533.915" cy="51.9151" r="32.6445" transform="rotate(131.771 533.915 51.9151)" fill="url(#paint15_linear_826_4577)" fill-opacity="0.6"/>
</g>
<g class="anim-opacity">
<circle id="Ellipse 16_3" cx="32.6445" cy="32.6445" r="32.6445" transform="matrix(-0.990328 0.138747 0.138747 0.990328 441.056 -24.6016)" fill="url(#paint16_linear_826_4577)" fill-opacity="0.6"/>
</g>
<g class="anim-opacity">
<circle id="Ellipse 16_4" cx="32.6445" cy="32.6445" r="32.6445" transform="matrix(-0.599791 0.800156 0.800156 0.599791 232.128 115.968)" fill="url(#paint17_linear_826_4577)" fill-opacity="0.4"/>
</g>
<g class="anim-opacity">
<circle id="Ellipse 16_5" cx="72.8911" cy="120.891" r="32.6445" transform="rotate(120.232 72.8911 120.891)" fill="url(#paint18_linear_826_4577)" fill-opacity="0.4"/>
</g>
<g class="anim-opacity">
<circle id="Ellipse 16_6" cx="32.6445" cy="32.6445" r="32.6445" transform="matrix(0.0344897 -0.999405 -0.999405 -0.0344897 195.114 94.3662)" fill="url(#paint19_linear_826_4577)" fill-opacity="0.4"/>
</g>
<g class="anim-opacity">
<circle id="Ellipse 16_7" cx="330.119" cy="110.119" r="32.6445" transform="rotate(153.25 330.119 110.119)" fill="url(#paint20_linear_826_4577)" fill-opacity="0.6"/>
</g>
<g class="anim-opacity">
<circle id="Ellipse 16_8" cx="123.574" cy="194.574" r="32.6445" transform="rotate(-130.17 123.574 194.574)" fill="url(#paint21_linear_826_4577)" fill-opacity="0.6"/>
</g>
<g class="anim-opacity">
<circle id="Ellipse 17" cx="144.085" cy="363.975" r="32.6445" transform="rotate(-9.70426 144.085 363.975)" fill="url(#paint22_linear_826_4577)" fill-opacity="0.6"/>
</g>
</g>
</g>
<defs>
<linearGradient id="paint0_linear_826_4577" x1="284.34" y1="484.321" x2="284.34" y2="423.696" gradientUnits="userSpaceOnUse">
<stop stop-color="white"/>
<stop offset="1" stop-color="white" stop-opacity="0"/>
</linearGradient>
<linearGradient id="paint1_linear_826_4577" x1="365.085" y1="545.067" x2="365.085" y2="484.441" gradientUnits="userSpaceOnUse">
<stop stop-color="white"/>
<stop offset="1" stop-color="white" stop-opacity="0"/>
</linearGradient>
<linearGradient id="paint2_linear_826_4577" x1="991.351" y1="375.331" x2="991.351" y2="314.706" gradientUnits="userSpaceOnUse">
<stop stop-color="white"/>
<stop offset="1" stop-color="white" stop-opacity="0"/>
</linearGradient>
<linearGradient id="paint3_linear_826_4577" x1="32.6445" y1="60.6254" x2="32.6445" y2="-4.22829e-07" gradientUnits="userSpaceOnUse">
<stop stop-color="white"/>
<stop offset="1" stop-color="white" stop-opacity="0"/>
</linearGradient>
<linearGradient id="paint4_linear_826_4577" x1="803.112" y1="61.0931" x2="803.112" y2="0.467739" gradientUnits="userSpaceOnUse">
<stop stop-color="white"/>
<stop offset="1" stop-color="white" stop-opacity="0"/>
</linearGradient>
<linearGradient id="paint5_linear_826_4577" x1="1045.32" y1="139.305" x2="1045.32" y2="78.6797" gradientUnits="userSpaceOnUse">
<stop stop-color="white"/>
<stop offset="1" stop-color="white" stop-opacity="0"/>
</linearGradient>
<linearGradient id="paint6_linear_826_4577" x1="1013.83" y1="299.81" x2="1013.83" y2="239.184" gradientUnits="userSpaceOnUse">
<stop stop-color="white"/>
<stop offset="1" stop-color="white" stop-opacity="0"/>
</linearGradient>
<linearGradient id="paint7_linear_826_4577" x1="32.6445" y1="60.6254" x2="32.6445" y2="-4.22829e-07" gradientUnits="userSpaceOnUse">
<stop stop-color="white"/>
<stop offset="1" stop-color="white" stop-opacity="0"/>
</linearGradient>
<linearGradient id="paint8_linear_826_4577" x1="1018.49" y1="500.466" x2="1018.49" y2="439.841" gradientUnits="userSpaceOnUse">
<stop stop-color="white"/>
<stop offset="1" stop-color="white" stop-opacity="0"/>
</linearGradient>
<linearGradient id="paint9_linear_826_4577" x1="810.313" y1="590.293" x2="810.313" y2="529.668" gradientUnits="userSpaceOnUse">
<stop stop-color="white"/>
<stop offset="1" stop-color="white" stop-opacity="0"/>
</linearGradient>
<linearGradient id="paint10_linear_826_4577" x1="32.6445" y1="60.6254" x2="32.6445" y2="-4.22829e-07" gradientUnits="userSpaceOnUse">
<stop stop-color="white"/>
<stop offset="1" stop-color="white" stop-opacity="0"/>
</linearGradient>
<linearGradient id="paint11_linear_826_4577" x1="32.6445" y1="60.6254" x2="32.6445" y2="-4.22829e-07" gradientUnits="userSpaceOnUse">
<stop stop-color="white"/>
<stop offset="1" stop-color="white" stop-opacity="0"/>
</linearGradient>
<linearGradient id="paint12_linear_826_4577" x1="32.6445" y1="60.6254" x2="32.6445" y2="-4.22829e-07" gradientUnits="userSpaceOnUse">
<stop stop-color="white"/>
<stop offset="1" stop-color="white" stop-opacity="0"/>
</linearGradient>
<linearGradient id="paint13_linear_826_4577" x1="66.1056" y1="396.1" x2="66.1056" y2="335.474" gradientUnits="userSpaceOnUse">
<stop stop-color="white"/>
<stop offset="1" stop-color="white" stop-opacity="0"/>
</linearGradient>
<linearGradient id="paint14_linear_826_4577" x1="243.594" y1="408.575" x2="243.594" y2="347.949" gradientUnits="userSpaceOnUse">
<stop stop-color="white"/>
<stop offset="1" stop-color="white" stop-opacity="0"/>
</linearGradient>
<linearGradient id="paint15_linear_826_4577" x1="533.915" y1="79.896" x2="533.915" y2="19.2706" gradientUnits="userSpaceOnUse">
<stop stop-color="white"/>
<stop offset="1" stop-color="white" stop-opacity="0"/>
</linearGradient>
<linearGradient id="paint16_linear_826_4577" x1="32.6445" y1="60.6254" x2="32.6445" y2="-4.22829e-07" gradientUnits="userSpaceOnUse">
<stop stop-color="white"/>
<stop offset="1" stop-color="white" stop-opacity="0"/>
</linearGradient>
<linearGradient id="paint17_linear_826_4577" x1="32.6445" y1="60.6254" x2="32.6445" y2="-4.22829e-07" gradientUnits="userSpaceOnUse">
<stop stop-color="white"/>
<stop offset="1" stop-color="white" stop-opacity="0"/>
</linearGradient>
<linearGradient id="paint18_linear_826_4577" x1="72.8911" y1="148.872" x2="72.8911" y2="88.2469" gradientUnits="userSpaceOnUse">
<stop stop-color="white"/>
<stop offset="1" stop-color="white" stop-opacity="0"/>
</linearGradient>
<linearGradient id="paint19_linear_826_4577" x1="32.6445" y1="60.6254" x2="32.6445" y2="-4.22829e-07" gradientUnits="userSpaceOnUse">
<stop stop-color="white"/>
<stop offset="1" stop-color="white" stop-opacity="0"/>
</linearGradient>
<linearGradient id="paint20_linear_826_4577" x1="330.119" y1="138.1" x2="330.119" y2="77.4744" gradientUnits="userSpaceOnUse">
<stop stop-color="white"/>
<stop offset="1" stop-color="white" stop-opacity="0"/>
</linearGradient>
<linearGradient id="paint21_linear_826_4577" x1="123.574" y1="222.555" x2="123.574" y2="161.929" gradientUnits="userSpaceOnUse">
<stop stop-color="white"/>
<stop offset="1" stop-color="white" stop-opacity="0"/>
</linearGradient>
<linearGradient id="paint22_linear_826_4577" x1="144.085" y1="391.955" x2="144.085" y2="331.33" gradientUnits="userSpaceOnUse">
<stop stop-color="white"/>
<stop offset="1" stop-color="white" stop-opacity="0"/>
</linearGradient>
<clipPath id="clip0_826_4577">
<rect width="1085" height="600" rx="21.188" fill="white"/>
</clipPath>
</defs>
</svg>
