<svg width="328" height="164" viewBox="0 0 328 164" fill="none" xmlns="http://www.w3.org/2000/svg">
<g clip-path="url(#clip0_436_13622)">
<rect width="328" height="164" rx="24" fill="#378861"/>
<path d="M254.46 20V69H252.15V22.17H239.83V20H254.46ZM307.638 54.86H296.998V69H294.688V54.86H266.548V53.18L293.638 20H296.368L269.628 52.76H294.688V40.3H296.998V52.76H307.638V54.86Z" fill="white"/>
<path d="M252.242 85.956H253.478V88.836H252.362V87H245.45L245.438 88.836H244.322L244.334 85.956H244.742C245.894 85.884 246.17 83.856 246.254 81.3L246.338 78.6H252.242V85.956ZM247.31 81.408C247.238 83.46 247.034 85.308 246.314 85.956H251.054V79.644H247.37L247.31 81.408ZM256.319 85.956H261.215V87H255.119V78.6H261.047V79.644H256.319V82.224H260.531V83.244H256.319V85.956ZM268.751 87L266.027 83.304H264.275V87H263.099V78.6H264.275V82.248H266.051L268.691 78.6H269.975L266.975 82.668L270.119 87H268.751ZM277.616 87L276.692 84.9H272.228L271.304 87H270.068L273.872 78.6H275.06L278.876 87H277.616ZM272.648 83.94H276.272L274.46 79.824L272.648 83.94ZM280.326 87V78.6H286.662V79.62H281.514V82.02H284.13C286.134 82.02 287.19 82.872 287.19 84.444C287.19 86.088 286.026 87 283.926 87H280.326ZM281.514 86.052H283.878C285.258 86.052 285.99 85.512 285.99 84.492C285.99 83.46 285.282 82.968 283.878 82.968H281.514V86.052ZM292.379 78.6C294.563 78.6 295.883 79.704 295.883 81.528C295.883 83.352 294.563 84.456 292.379 84.456H290.303V87H289.103V78.6H292.379ZM292.343 83.412C293.879 83.412 294.683 82.728 294.683 81.528C294.683 80.328 293.879 79.644 292.343 79.644H290.303V83.412H292.343ZM300.149 78.6H303.521V87H302.345V84.552H300.029C299.921 84.552 299.813 84.552 299.705 84.54L298.025 87H296.753L298.613 84.336C297.425 83.94 296.753 82.98 296.753 81.624C296.753 79.704 298.085 78.6 300.149 78.6ZM297.965 81.612C297.965 82.848 298.697 83.544 300.125 83.544H302.345V79.644H300.197C298.769 79.644 297.965 80.316 297.965 81.612Z" fill="white"/>
<path d="M39.611 143.631L20.6767 143.616L20.6969 118.572L35.7496 118.585L35.745 124.277L40.6427 124.281C44.5684 124.285 47.7583 121.1 47.7614 117.174C47.7646 113.248 44.5799 110.059 40.6542 110.055L28.9465 110.046L28.9266 134.705L38.0466 134.712C47.2108 134.72 54.6516 127.297 54.659 118.126C54.6664 108.962 47.2439 101.521 38.0734 101.514L20.6767 101.514" fill="#378861"/>
<path d="M39.611 143.631L20.6767 143.616L20.6969 118.572L35.7496 118.585L35.745 124.277L40.6427 124.281C44.5684 124.285 47.7583 121.1 47.7614 117.174C47.7646 113.248 44.5799 110.059 40.6542 110.055L28.9465 110.046L28.9266 134.705L38.0466 134.712C47.2108 134.72 54.6516 127.297 54.659 118.126C54.6664 108.962 47.2439 101.521 38.0734 101.514L20.6767 101.514" stroke="white" stroke-miterlimit="10"/>
<path d="M38.9682 20.0122L20.0339 20.0274L20.0541 45.0711L35.1068 45.059L35.1022 39.3661L39.9999 39.3621C43.9256 39.359 47.1154 42.5437 47.1186 46.4694C47.1218 50.3951 43.9371 53.5849 40.0113 53.5881L28.3036 53.5975L28.2838 28.9388L37.4038 28.9314C46.568 28.924 54.0088 36.3466 54.0162 45.5171C54.0236 54.6813 46.6011 62.1222 37.4306 62.1295L20.0339 62.1296" fill="#378861"/>
<path d="M38.9682 20.0122L20.0339 20.0274L20.0541 45.0711L35.1068 45.059L35.1022 39.3661L39.9999 39.3621C43.9256 39.359 47.1154 42.5437 47.1186 46.4694C47.1218 50.3951 43.9371 53.5849 40.0113 53.5881L28.3036 53.5975L28.2838 28.9388L37.4038 28.9314C46.568 28.924 54.0088 36.3466 54.0162 45.5171C54.0236 54.6813 46.6011 62.1222 37.4306 62.1295L20.0339 62.1296" stroke="white" stroke-miterlimit="10"/>
<path d="M289.061 143.631L307.996 143.616L307.975 118.572L292.923 118.585L292.927 124.277L288.03 124.281C284.104 124.285 280.914 121.1 280.911 117.174C280.908 113.248 284.092 110.059 288.018 110.055L299.726 110.046L299.746 134.705L290.626 134.712C281.462 134.72 274.021 127.297 274.013 118.126C274.006 108.962 281.428 101.521 290.599 101.514L307.996 101.514" fill="#378861"/>
<path d="M289.061 143.631L307.996 143.616L307.975 118.572L292.923 118.585L292.927 124.277L288.03 124.281C284.104 124.285 280.914 121.1 280.911 117.174C280.908 113.248 284.092 110.059 288.018 110.055L299.726 110.046L299.746 134.705L290.626 134.712C281.462 134.72 274.021 127.297 274.013 118.126C274.006 108.962 281.428 101.521 290.599 101.514L307.996 101.514" stroke="white" stroke-miterlimit="10"/>
<line x1="294" y1="143.7" x2="37" y2="143.7" stroke="white"/>
<line x1="222" y1="20" x2="38" y2="20" stroke="white"/>
<circle cx="221.649" cy="19.8158" r="1.3158" fill="white"/>
<circle cx="308.316" cy="101.316" r="1.3158" fill="white"/>
<line x1="20.5" y1="62" x2="20.5" y2="102" stroke="white"/>
<path d="M163.474 57.5494V105.288" stroke="white" stroke-width="0.877197" stroke-miterlimit="10"/>
<path d="M187.391 81.4669H139.672" stroke="white" stroke-width="0.877197" stroke-miterlimit="10"/>
<path d="M177.728 67.2124L149.296 95.6635" stroke="white" stroke-width="0.877197" stroke-miterlimit="10"/>
<path d="M177.728 95.7211L149.296 67.2895" stroke="white" stroke-width="0.877197" stroke-miterlimit="10"/>
<rect x="149.825" y="70.6587" width="4.18068" height="4.18068" transform="rotate(-45 149.825 70.6587)" fill="#378861"/>
<rect x="171.326" y="70.6587" width="4.18068" height="4.18068" transform="rotate(-45 171.326 70.6587)" fill="#378861"/>
<rect x="171.326" y="92.1595" width="4.18068" height="4.18068" transform="rotate(-45 171.326 92.1595)" fill="#378861"/>
<rect x="149.228" y="91.5624" width="4.18068" height="4.18068" transform="rotate(-45 149.228 91.5624)" fill="#378861"/>
<path d="M137.582 83.5295C136.427 83.5295 135.491 82.5936 135.491 81.4391C135.491 80.2846 136.427 79.3488 137.582 79.3488C138.736 79.3488 139.672 80.2846 139.672 81.4391C139.672 82.5936 138.736 83.5295 137.582 83.5295Z" fill="#378861" stroke="white" stroke-width="0.877197" stroke-miterlimit="10"/>
<path d="M163.263 109.509C162.109 109.509 161.173 108.573 161.173 107.419C161.173 106.264 162.109 105.328 163.263 105.328C164.417 105.328 165.353 106.264 165.353 107.419C165.353 108.573 164.417 109.509 163.263 109.509Z" fill="#378861" stroke="white" stroke-width="0.877197" stroke-miterlimit="10"/>
<path d="M163.263 57.5494C162.109 57.5494 161.173 56.6135 161.173 55.459C161.173 54.3045 162.109 53.3687 163.263 53.3687C164.417 53.3687 165.353 54.3045 165.353 55.459C165.353 56.6135 164.417 57.5494 163.263 57.5494Z" fill="#378861" stroke="white" stroke-width="0.877197" stroke-miterlimit="10"/>
<path d="M189.542 83.5295C188.387 83.5295 187.451 82.5936 187.451 81.4391C187.451 80.2846 188.387 79.3488 189.542 79.3488C190.696 79.3488 191.632 80.2846 191.632 81.4391C191.632 82.5936 190.696 83.5295 189.542 83.5295Z" fill="#378861" stroke="white" stroke-width="0.877197" stroke-miterlimit="10"/>
<path d="M120.14 75.7373L121.179 78.9208C121.477 79.8325 122.19 80.541 123.097 80.8386L126.281 81.8777L123.097 82.9169C122.186 83.2144 121.477 83.9276 121.179 84.8345L120.14 88.0181L119.101 84.8345C118.804 83.9229 118.09 83.2144 117.184 82.9169L114 81.8777L117.184 80.8386C118.095 80.541 118.804 79.8277 119.101 78.9208L120.14 75.7373Z" fill="#378861" stroke="white" stroke-width="0.877197" stroke-miterlimit="10"/>
<path d="M163.123 119.597L164.162 122.781C164.46 123.692 165.173 124.401 166.08 124.698L169.263 125.738L166.08 126.777C165.168 127.074 164.46 127.787 164.162 128.694L163.123 131.878L162.084 128.694C161.786 127.783 161.073 127.074 160.166 126.777L156.983 125.738L160.166 124.698C161.078 124.401 161.786 123.688 162.084 122.781L163.123 119.597Z" fill="#378861" stroke="white" stroke-width="0.877197" stroke-miterlimit="10"/>
<path d="M163.123 31L164.162 34.1835C164.46 35.0952 165.173 35.8037 166.08 36.1013L169.263 37.1404L166.08 38.1796C165.168 38.4771 164.46 39.1903 164.162 40.0972L163.123 43.2808L162.084 40.0972C161.786 39.1856 161.073 38.4771 160.166 38.1796L156.983 37.1404L160.166 36.1013C161.078 35.8037 161.786 35.0904 162.084 34.1835L163.123 31Z" fill="#378861" stroke="white" stroke-width="0.877197" stroke-miterlimit="10"/>
<path d="M206.983 74.8599L208.022 78.0434C208.319 78.955 209.033 79.6636 209.94 79.9611L213.123 81.0002L209.94 82.0394C209.028 82.337 208.319 83.0502 208.022 83.9571L206.983 87.1406L205.944 83.9571C205.646 83.0455 204.933 82.337 204.026 82.0394L200.842 81.0002L204.026 79.9611C204.938 79.6636 205.646 78.9503 205.944 78.0434L206.983 74.8599Z" stroke="white" stroke-width="0.877197" stroke-miterlimit="10"/>
</g>
<defs>
<clipPath id="clip0_436_13622">
<rect width="328" height="164" rx="24" fill="white"/>
</clipPath>
</defs>
</svg>
