<svg width="174" height="204" viewBox="0 0 174 204" fill="none" xmlns="http://www.w3.org/2000/svg">
<g clip-path="url(#clip0_436_13317)">
<rect x="0.780273" y="0.103516" width="172.44" height="203.793" rx="14.4705" fill="#378861"/>
<path d="M23.012 11.9935V43.6477H21.5197V13.3953H13.561V11.9935H23.012ZM47.2356 27.0971C49.6172 27.6096 51.4562 28.5592 52.7525 29.946C54.0789 31.3327 54.7422 33.036 54.7422 35.0559C54.7422 37.7691 53.687 39.9095 51.5767 41.4771C49.4966 43.0448 46.6176 43.8286 42.9397 43.8286C39.2618 43.8286 36.3827 43.0448 34.3026 41.4771C32.2225 39.9095 31.1824 37.7691 31.1824 35.0559C31.1824 33.0059 31.8155 31.3026 33.0817 29.946C34.378 28.5592 36.232 27.6096 38.6437 27.0971C36.6239 26.6147 35.0563 25.7405 33.9408 24.4743C32.8555 23.2081 32.3129 21.6706 32.3129 19.8618C32.3129 17.3898 33.2625 15.4302 35.1618 13.9832C37.0912 12.5362 39.6838 11.8126 42.9397 11.8126C46.1955 11.8126 48.7882 12.5362 50.7176 13.9832C52.647 15.4302 53.6117 17.3898 53.6117 19.8618C53.6117 21.6706 53.0539 23.2081 51.9385 24.4743C50.8532 25.7405 49.2856 26.6147 47.2356 27.0971ZM33.8504 19.8618C33.8504 21.8817 34.6493 23.4945 36.2471 24.7004C37.8449 25.8761 40.0757 26.464 42.9397 26.464C45.8036 26.464 48.0496 25.8761 49.6775 24.7004C51.3054 23.4945 52.1194 21.8817 52.1194 19.8618C52.1194 17.8119 51.2904 16.1839 49.6323 14.978C47.9742 13.7722 45.7433 13.1692 42.9397 13.1692C40.136 13.1692 37.9202 13.7722 36.2923 14.978C34.6644 16.1839 33.8504 17.8119 33.8504 19.8618ZM42.9397 42.472C46.1654 42.472 48.6826 41.8087 50.4915 40.4823C52.3304 39.1558 53.2499 37.3621 53.2499 35.1011C53.2499 32.8401 52.3304 31.0614 50.4915 29.7651C48.6826 28.4386 46.1654 27.7754 42.9397 27.7754C39.714 27.7754 37.1967 28.4386 35.3879 29.7651C33.6092 31.0614 32.7199 32.8401 32.7199 35.1011C32.7199 37.3922 33.6092 39.201 35.3879 40.5275C37.1967 41.8238 39.714 42.472 42.9397 42.472Z" fill="white"/>
<path d="M138.627 191.333L161.162 191.315L161.138 161.509L143.223 161.524L143.228 168.299L137.399 168.304C132.727 168.308 128.93 164.517 128.927 159.845C128.923 155.173 132.713 151.377 137.385 151.373L151.319 151.362L151.343 180.709L140.489 180.718C129.582 180.727 120.726 171.893 120.718 160.979C120.709 150.072 129.543 141.216 140.457 141.207L161.121 141.191" stroke="white" stroke-miterlimit="10"/>
<path d="M138.023 12.2724L160.558 12.2905L160.534 42.0963L142.619 42.0819L142.625 35.3064L136.796 35.3017C132.123 35.298 128.327 39.0883 128.323 43.7604C128.319 48.4326 132.11 52.229 136.782 52.2328L150.716 52.244L150.739 22.8964L139.885 22.8876C128.979 22.8788 120.123 31.7128 120.114 42.6271C120.105 53.5339 128.939 62.3896 139.853 62.3984L160.518 62.415" stroke="white" stroke-miterlimit="10"/>
<path d="M35.4151 191.333L12.8805 191.315L12.9045 161.509L30.8195 161.524L30.8141 168.299L36.643 168.304C41.3152 168.308 45.1116 164.517 45.1154 159.845C45.1191 155.173 41.3289 151.377 36.6567 151.373L22.7227 151.362L22.6991 180.709L33.5533 180.718C44.4601 180.727 53.3157 171.893 53.3245 160.979C53.3333 150.072 44.4994 141.216 33.5851 141.207L12.8805 141.207" stroke="white" stroke-miterlimit="10"/>
<line x1="143.073" y1="191.614" x2="23.6916" y2="191.614" stroke="white"/>
<line x1="146.792" y1="12.4419" x2="65.0619" y2="12.4419" stroke="white"/>
<circle cx="65.3145" cy="12.4036" r="1.5" fill="white"/>
<line x1="161.058" y1="62.2061" x2="161.058" y2="141.492" stroke="white"/>
<line x1="13.5" y1="55" x2="13.5" y2="141" stroke="white"/>
<circle cx="13.5803" cy="54.5149" r="1.5" fill="white"/>
<path d="M87.6473 80.2942V122.709" stroke="white" stroke-miterlimit="10"/>
<path d="M108.897 101.544H66.5" stroke="white" stroke-miterlimit="10"/>
<path d="M100.312 88.8799L75.0512 114.158" stroke="white" stroke-miterlimit="10"/>
<path d="M100.312 114.209L75.0512 88.948" stroke="white" stroke-miterlimit="10"/>
<path d="M138.622 97.085L139.386 99.4234C139.604 100.093 140.128 100.614 140.794 100.832L143.133 101.595L140.794 102.359C140.125 102.577 139.604 103.101 139.386 103.767L138.622 106.106L137.859 103.767C137.64 103.098 137.116 102.577 136.45 102.359L134.112 101.595L136.45 100.832C137.12 100.614 137.64 100.09 137.859 99.4234L138.622 97.085Z" stroke="white" stroke-miterlimit="10"/>
<path d="M87.6087 147.037L88.372 149.376C88.5905 150.045 89.1145 150.566 89.7806 150.784L92.1191 151.548L89.7806 152.311C89.111 152.529 88.5905 153.053 88.372 153.719L87.6087 156.058L86.8454 153.719C86.6268 153.05 86.1029 152.529 85.4367 152.311L83.0983 151.548L85.4367 150.784C86.1064 150.566 86.6268 150.042 86.8454 149.376L87.6087 147.037Z" stroke="white" stroke-miterlimit="10"/>
<path d="M87.6087 47.7356L88.372 50.0741C88.5905 50.7437 89.1145 51.2641 89.7806 51.4827L92.1191 52.246L89.7806 53.0093C89.111 53.2279 88.5905 53.7518 88.372 54.418L87.6087 56.7564L86.8454 54.418C86.6268 53.7483 86.1029 53.2279 85.4367 53.0093L83.0983 52.246L85.4367 51.4827C86.1064 51.2641 86.6268 50.7402 86.8454 50.0741L87.6087 47.7356Z" stroke="white" stroke-miterlimit="10"/>
<path d="M34.834 97.085L35.5973 99.4234C35.8159 100.093 36.3398 100.614 37.006 100.832L39.3444 101.595L37.006 102.359C36.3363 102.577 35.8159 103.101 35.5973 103.767L34.834 106.106L34.0707 103.767C33.8522 103.098 33.3282 102.577 32.6621 102.359L30.3236 101.595L32.6621 100.832C33.3317 100.614 33.8522 100.09 34.0707 99.4234L34.834 97.085Z" stroke="white" stroke-miterlimit="10"/>
<path d="M53.9369 103.453C52.9112 103.453 52.0797 102.621 52.0797 101.595C52.0797 100.57 52.9112 99.738 53.9369 99.738C54.9627 99.738 55.7942 100.57 55.7942 101.595C55.7942 102.621 54.9627 103.453 53.9369 103.453Z" stroke="white" stroke-miterlimit="10"/>
<path d="M87.6084 136.955C86.5827 136.955 85.7511 136.123 85.7511 135.098C85.7511 134.072 86.5827 133.24 87.6084 133.24C88.6341 133.24 89.4656 134.072 89.4656 135.098C89.4656 136.123 88.6341 136.955 87.6084 136.955Z" stroke="white" stroke-miterlimit="10"/>
<path d="M87.6084 70.5531C86.5827 70.5531 85.7511 69.7216 85.7511 68.6959C85.7511 67.6701 86.5827 66.8386 87.6084 66.8386C88.6341 66.8386 89.4656 67.6701 89.4656 68.6959C89.4656 69.7216 88.6341 70.5531 87.6084 70.5531Z" stroke="white" stroke-miterlimit="10"/>
<path d="M121.641 103.453C120.616 103.453 119.784 102.621 119.784 101.595C119.784 100.57 120.616 99.738 121.641 99.738C122.667 99.738 123.499 100.57 123.499 101.595C123.499 102.621 122.667 103.453 121.641 103.453Z" stroke="white" stroke-miterlimit="10"/>
</g>
<defs>
<clipPath id="clip0_436_13317">
<rect x="0.780273" y="0.103516" width="172.44" height="203.793" rx="14.4705" fill="white"/>
</clipPath>
</defs>
</svg>
