<svg width="375" height="664" viewBox="0 0 375 664" fill="none" xmlns="http://www.w3.org/2000/svg">
<g clip-path="url(#clip0_449_15068)">
<path d="M213.49 77.3561C207.396 83.5903 204.924 84.2496 204.364 75.7171C204.326 75.1303 203.608 74.841 203.179 75.2425C198.02 80.0619 195.972 79.6927 195.213 72.4438C195.153 71.873 194.452 71.6083 194.031 71.9983C188.58 77.0429 186.787 76.2302 186.305 69.4516C186.263 68.8676 185.55 68.5868 185.121 68.9854C179.502 74.2079 177.466 73.4947 176.337 64.8545" stroke="#2B714F" stroke-width="1.5" stroke-linecap="round"/>
<path d="M180.39 53.3713L217.882 66.2062L205.385 99.3065C197.328 117.993 198.967 117.208 219.233 130.718C239.498 144.228 225.65 166.183 205.722 157.401C185.795 148.619 167.218 139.5 167.218 139.5C157.033 132.883 154.735 127.777 159.112 115.181L180.39 53.3713Z" stroke="#2B714F" stroke-width="1.5"/>
<path d="M182.188 45.899C183.404 50.0692 179.755 53.3707 179.755 53.3707C179.755 53.3707 175.933 50.4167 175.933 46.7678C175.933 43.119 180.972 41.7288 182.188 45.899Z" stroke="#2B714F" stroke-width="1.5"/>
<path d="M219.57 131.393C207.305 137.188 204.515 143.139 204.033 156.725" stroke="#2B714F" stroke-width="1.5" stroke-linecap="round"/>
<path d="M178.81 -16V43.3427" stroke="#2B714F" stroke-width="1.5" stroke-linecap="round"/>
<path d="M273.4 158.624L330.099 178.035L311.2 228.094C299.015 256.354 301.494 255.167 332.143 275.599C362.791 296.031 341.848 329.233 311.71 315.953C281.573 302.672 253.478 288.88 253.478 288.88C238.075 278.873 234.6 271.15 241.219 252.102L273.4 158.624Z" stroke="#2B714F" stroke-width="1.5"/>
<path d="M276.263 147.322C278.102 153.629 272.584 158.622 272.584 158.622C272.584 158.622 266.803 154.154 266.803 148.636C266.803 143.118 274.423 141.015 276.263 147.322Z" stroke="#2B714F" stroke-width="1.5"/>
<path d="M332.653 276.618C314.104 285.382 309.884 294.383 309.156 314.929" stroke="#2B714F" stroke-width="1.5" stroke-linecap="round"/>
<path d="M271.589 -15.9988L271.589 143.584" stroke="#2B714F" stroke-width="1.5" stroke-linecap="round"/>
<path d="M322.33 198.332L265.862 180.04" stroke="#2B714F" stroke-width="1.5" stroke-linecap="round"/>
<path d="M63.4644 88.2827L117.103 106.645L99.2233 154.002C87.6963 180.736 90.0419 179.613 119.036 198.942C148.029 218.271 128.217 249.681 99.7065 237.117C71.196 224.553 44.6185 211.506 44.6185 211.506C30.0467 202.039 26.7591 194.733 33.0211 176.713L63.4644 88.2827Z" stroke="#2B714F" stroke-width="1.5"/>
<path d="M66.1731 77.5914C67.9133 83.5577 62.6927 88.2811 62.6927 88.2811C62.6927 88.2811 57.2236 84.0548 57.2236 78.8344C57.2236 73.6141 64.4329 71.6252 66.1731 77.5914Z" stroke="#2B714F" stroke-width="1.5"/>
<path d="M119.518 199.906C101.971 208.198 97.9787 216.712 97.29 236.149" stroke="#2B714F" stroke-width="1.5" stroke-linecap="round"/>
<path d="M61.625 -13L61.625 73.8347" stroke="#2B714F" stroke-width="1.5" stroke-linecap="round"/>
<path d="M109.753 125.848L56.334 108.543" stroke="#2B714F" stroke-width="1.5" stroke-linecap="round"/>
<path d="M105.504 134.644L54.583 117.085" stroke="#2B714F" stroke-width="1.5" stroke-linecap="round" stroke-dasharray="10.54 10.54"/>
</g>
<defs>
<clipPath id="clip0_449_15068">
<rect width="375" height="664" fill="white"/>
</clipPath>
</defs>
</svg>
