<svg width="147" height="137" viewBox="0 0 147 137" fill="none" xmlns="http://www.w3.org/2000/svg">
<g clip-path="url(#clip0_436_14165)">
<rect width="147" height="136.111" rx="11.8788" fill="#378861"/>
<path d="M118.761 125.9L136.638 125.886L136.619 102.24L122.407 102.252L122.411 107.627L117.787 107.631C114.08 107.634 111.068 104.627 111.065 100.92C111.062 97.2137 114.069 94.2019 117.776 94.1989L128.83 94.19L128.849 117.472L120.238 117.479C111.585 117.486 104.56 110.478 104.553 101.819C104.546 93.1667 111.554 86.1413 120.213 86.1343L136.606 86.1211" stroke="white" stroke-miterlimit="10"/>
<path d="M118.761 10.9531L136.638 10.9675L136.619 34.6131L122.407 34.6017L122.411 29.2266L117.787 29.2228C114.08 29.2199 111.068 32.2268 111.065 35.9333C111.062 39.6399 114.069 42.6516 117.776 42.6546L128.83 42.6635L128.849 19.3814L120.238 19.3744C111.585 19.3675 104.56 26.3757 104.553 35.0342C104.546 43.6868 111.554 50.7122 120.213 50.7192L136.606 50.7324" stroke="white" stroke-miterlimit="10"/>
<path d="M28.2712 125.9L10.3939 125.886L10.413 102.24L24.6254 102.252L24.621 107.627L29.2453 107.631C32.9518 107.634 35.9636 104.627 35.9666 100.92C35.9695 97.2137 32.9626 94.2019 29.2561 94.1989L18.202 94.19L18.1832 117.472L26.7941 117.479C35.4467 117.486 42.4721 110.478 42.4791 101.819C42.486 93.1668 35.4779 86.1413 26.8194 86.1343L10.394 86.1343" stroke="white" stroke-miterlimit="10"/>
<line x1="118.788" y1="126.168" x2="28.2121" y2="126.168" stroke="white"/>
<line x1="125.717" y1="11.1907" x2="60.8788" y2="11.1907" stroke="white"/>
<circle cx="61.2002" cy="11.1001" r="1.5" fill="white"/>
<line x1="137.106" y1="50.4849" x2="137.106" y2="86.3687" stroke="white"/>
<line x1="10.399" y1="50.4849" x2="10.399" y2="86.3687" stroke="white"/>
<circle cx="10.2" cy="51.4897" r="1.5" fill="white"/>
<path d="M74.6333 48.5134V87.1971" stroke="white" stroke-miterlimit="10"/>
<path d="M55.1821 67.8943H93.9916" stroke="white" stroke-miterlimit="10"/>
<path d="M63.0406 56.3435L86.1637 79.398" stroke="white" stroke-miterlimit="10"/>
<path d="M63.0406 79.4448L86.1637 56.406" stroke="white" stroke-miterlimit="10"/>
<path d="M95.6909 69.5655C96.6298 69.5655 97.391 68.8071 97.391 67.8716C97.391 66.9361 96.6298 66.1777 95.6909 66.1777C94.752 66.1777 93.9908 66.9361 93.9908 67.8716C93.9908 68.8071 94.752 69.5655 95.6909 69.5655Z" stroke="white" stroke-miterlimit="10"/>
<path d="M74.8042 90.6177C75.7431 90.6177 76.5043 89.8593 76.5043 88.9238C76.5043 87.9883 75.7431 87.23 74.8042 87.23C73.8653 87.23 73.1041 87.9883 73.1041 88.9238C73.1041 89.8593 73.8653 90.6177 74.8042 90.6177Z" stroke="white" stroke-miterlimit="10"/>
<path d="M74.8042 48.5135C75.7431 48.5135 76.5043 47.7551 76.5043 46.8196C76.5043 45.8841 75.7431 45.1257 74.8042 45.1257C73.8653 45.1257 73.1041 45.8841 73.1041 46.8196C73.1041 47.7551 73.8653 48.5135 74.8042 48.5135Z" stroke="white" stroke-miterlimit="10"/>
<path d="M53.4324 69.5655C54.3713 69.5655 55.1324 68.8071 55.1324 67.8716C55.1324 66.9361 54.3713 66.1777 53.4324 66.1777C52.4935 66.1777 51.7323 66.9361 51.7323 67.8716C51.7323 68.8071 52.4935 69.5655 53.4324 69.5655Z" stroke="white" stroke-miterlimit="10"/>
<path d="M109.876 63.2515L109.031 65.8312C108.789 66.5699 108.209 67.144 107.472 67.3851L104.883 68.2271L107.472 69.0692C108.213 69.3103 108.789 69.8883 109.031 70.6231L109.876 73.2028L110.722 70.6231C110.964 69.8844 111.544 69.3103 112.281 69.0692L114.87 68.2271L112.281 67.3851C111.54 67.144 110.964 66.566 110.722 65.8312L109.876 63.2515Z" stroke="white" stroke-miterlimit="10"/>
<path d="M74.9186 98.792L74.0735 101.372C73.8315 102.11 73.2514 102.685 72.5138 102.926L69.9246 103.768L72.5138 104.61C73.2552 104.851 73.8315 105.429 74.0735 106.164L74.9186 108.743L75.7637 106.164C76.0057 105.425 76.5858 104.851 77.3233 104.61L79.9125 103.768L77.3233 102.926C76.5819 102.685 76.0057 102.107 75.7637 101.372L74.9186 98.792Z" stroke="white" stroke-miterlimit="10"/>
<path d="M74.9186 27L74.0735 29.5797C73.8315 30.3184 73.2514 30.8925 72.5138 31.1337L69.9246 31.9757L72.5138 32.8177C73.2552 33.0589 73.8315 33.6368 74.0735 34.3717L74.9186 36.9514L75.7637 34.3717C76.0057 33.633 76.5858 33.0589 77.3233 32.8177L79.9125 31.9757L77.3233 31.1337C76.5819 30.8925 76.0057 30.3146 75.7637 29.5797L74.9186 27Z" stroke="white" stroke-miterlimit="10"/>
<path d="M36.9939 63.6069L37.839 66.1866C38.0811 66.9253 38.6611 67.4995 39.3987 67.7406L41.9879 68.5826L39.3987 69.4247C38.6573 69.6658 38.0811 70.2437 37.839 70.9786L36.9939 73.5583L36.1488 70.9786C35.9068 70.2399 35.3267 69.6658 34.5892 69.4247L32 68.5826L34.5892 67.7406C35.3306 67.4995 35.9068 66.9215 36.1488 66.1866L36.9939 63.6069Z" stroke="white" stroke-miterlimit="10"/>
<path d="M29.1321 38.7703V40.0103H10.1721V39.0503L22.1721 26.9703C23.7988 25.3436 24.8921 23.9569 25.4521 22.8103C26.0388 21.6369 26.3321 20.4369 26.3321 19.2103C26.3321 17.3169 25.6788 15.8236 24.3721 14.7303C23.0921 13.6369 21.2521 13.0903 18.8521 13.0903C16.9854 13.0903 15.3588 13.3703 13.9721 13.9303C12.6121 14.4636 11.4388 15.3036 10.4521 16.4503L9.53211 15.5703C11.6921 13.0903 14.8121 11.8503 18.8921 11.8503C21.5854 11.8503 23.7188 12.5036 25.2921 13.8103C26.8654 15.1169 27.6521 16.8903 27.6521 19.1303C27.6521 20.5436 27.3321 21.9036 26.6921 23.2103C26.0521 24.5169 24.8654 26.0369 23.1321 27.7703L12.2121 38.7703H29.1321ZM40.8368 24.3703C44.0368 24.3703 46.4635 25.0769 48.1168 26.4903C49.7968 27.9036 50.6368 29.8236 50.6368 32.2503C50.6368 34.6236 49.8101 36.5436 48.1568 38.0103C46.5301 39.4503 44.2101 40.1703 41.1968 40.1703C39.1435 40.1703 37.2368 39.8236 35.4768 39.1303C33.7168 38.4103 32.3835 37.4636 31.4768 36.2903L32.1968 35.3303C33.0501 36.3969 34.2635 37.2636 35.8368 37.9303C37.4368 38.5969 39.2101 38.9303 41.1568 38.9303C43.7968 38.9303 45.8101 38.3303 47.1968 37.1303C48.6101 35.9303 49.3168 34.3036 49.3168 32.2503C49.3168 30.1436 48.5968 28.5036 47.1568 27.3303C45.7168 26.1569 43.5568 25.5703 40.6768 25.5703H39.1168V24.6103L47.8368 13.2503H32.3968V12.0103H49.5968V12.9703L40.8368 24.3703Z" fill="white"/>
</g>
<defs>
<clipPath id="clip0_436_14165">
<rect width="147" height="136.111" rx="11.8788" fill="white"/>
</clipPath>
</defs>
</svg>
