<svg width="276" height="338" viewBox="0 0 276 338" fill="none" xmlns="http://www.w3.org/2000/svg">
<g clip-path="url(#clip0_436_13655)">
<rect width="276" height="338" rx="24" fill="#378861"/>
<path d="M35.5416 23V79H32.9016V25.48H18.8216V23H35.5416ZM63.196 46.92C71.4093 46.92 77.3293 48.3333 80.956 51.16C84.636 53.9333 86.476 57.9333 86.476 63.16C86.476 66.2533 85.756 69.0267 84.316 71.48C82.876 73.9333 80.716 75.8533 77.836 77.24C75.0093 78.6267 71.5426 79.32 67.436 79.32C63.3826 79.32 59.596 78.6 56.076 77.16C52.556 75.72 49.8893 73.8533 48.076 71.56L49.596 69.64C51.2493 71.7733 53.676 73.5067 56.876 74.84C60.076 76.1733 63.596 76.84 67.436 76.84C72.716 76.84 76.7426 75.5867 79.516 73.08C82.3426 70.5733 83.756 67.2667 83.756 63.16C83.756 58.6267 82.156 55.2133 78.956 52.92C75.756 50.5733 70.316 49.4 62.636 49.4H51.756L54.716 23H83.596V25.48H56.956L54.556 46.92H63.196Z" fill="white"/>
<path d="M31.242 102.956H32.478V105.836H31.362V104H24.45L24.438 105.836H23.322L23.334 102.956H23.742C24.894 102.884 25.17 100.856 25.254 98.3L25.338 95.6H31.242V102.956ZM26.31 98.408C26.238 100.46 26.034 102.308 25.314 102.956H30.054V96.644H26.37L26.31 98.408ZM35.3185 102.956H40.2145V104H34.1185V95.6H40.0465V96.644H35.3185V99.224H39.5305V100.244H35.3185V102.956ZM47.751 104L45.027 100.304H43.275V104H42.099V95.6H43.275V99.248H45.051L47.691 95.6H48.975L45.975 99.668L49.119 104H47.751ZM56.6158 104L55.6918 101.9H51.2278L50.3038 104H49.0678L52.8718 95.6H54.0598L57.8758 104H56.6158ZM51.6478 100.94H55.2718L53.4598 96.824L51.6478 100.94ZM59.3256 104V95.6H65.6616V96.62H60.5136V99.02H63.1296C65.1336 99.02 66.1896 99.872 66.1896 101.444C66.1896 103.088 65.0256 104 62.9256 104H59.3256ZM60.5136 103.052H62.8776C64.2576 103.052 64.9896 102.512 64.9896 101.492C64.9896 100.46 64.2816 99.968 62.8776 99.968H60.5136V103.052ZM71.3789 95.6C73.5629 95.6 74.8829 96.704 74.8829 98.528C74.8829 100.352 73.5629 101.456 71.3789 101.456H69.3029V104H68.1029V95.6H71.3789ZM71.3429 100.412C72.8789 100.412 73.6829 99.728 73.6829 98.528C73.6829 97.328 72.8789 96.644 71.3429 96.644H69.3029V100.412H71.3429ZM79.1486 95.6H82.5206V104H81.3446V101.552H79.0286C78.9206 101.552 78.8126 101.552 78.7046 101.54L77.0246 104H75.7526L77.6126 101.336C76.4246 100.94 75.7526 99.98 75.7526 98.624C75.7526 96.704 77.0846 95.6 79.1486 95.6ZM76.9646 98.612C76.9646 99.848 77.6966 100.544 79.1246 100.544H81.3446V96.644H79.1966C77.7686 96.644 76.9646 97.316 76.9646 98.612Z" fill="white"/>
<path d="M139.853 130V209.932" stroke="white" stroke-miterlimit="10"/>
<path d="M179.899 170.046H99.9999" stroke="white" stroke-miterlimit="10"/>
<path d="M163.719 146.18L116.115 193.817" stroke="white" stroke-miterlimit="10"/>
<path d="M163.719 193.913L116.115 146.308" stroke="white" stroke-miterlimit="10"/>
<rect x="117" y="151.95" width="7" height="7" transform="rotate(-45 117 151.95)" fill="#378861"/>
<rect x="153" y="151.95" width="7" height="7" transform="rotate(-45 153 151.95)" fill="#378861"/>
<rect x="153" y="187.95" width="7" height="7" transform="rotate(-45 153 187.95)" fill="#378861"/>
<rect x="116" y="186.95" width="7" height="7" transform="rotate(-45 116 186.95)" fill="#378861"/>
<path d="M225.5 161L226.938 165.407C227.35 166.669 228.338 167.65 229.593 168.062L234 169.5L229.593 170.939C228.331 171.35 227.35 172.338 226.938 173.593L225.5 178L224.062 173.593C223.65 172.331 222.662 171.35 221.407 170.939L217 169.5L221.407 168.062C222.669 167.65 223.65 166.662 224.062 165.407L225.5 161Z" stroke="white" stroke-miterlimit="10"/>
<path d="M139.5 246L140.938 250.407C141.35 251.669 142.338 252.65 143.593 253.062L148 254.5L143.593 255.939C142.331 256.35 141.35 257.338 140.938 258.593L139.5 263L138.062 258.593C137.65 257.331 136.662 256.35 135.407 255.939L131 254.5L135.407 253.062C136.669 252.65 137.65 251.662 138.062 250.407L139.5 246Z" stroke="white" stroke-miterlimit="10"/>
<path d="M139.5 76L140.938 80.4069C141.35 81.6688 142.338 82.6496 143.593 83.0616L148 84.5L143.593 85.9385C142.331 86.3504 141.35 87.3377 140.938 88.5931L139.5 93L138.062 88.5931C137.65 87.3312 136.662 86.3504 135.407 85.9385L131 84.5L135.407 83.0616C136.669 82.6496 137.65 81.6623 138.062 80.4069L139.5 76Z" stroke="white" stroke-miterlimit="10"/>
<path d="M48.5 161L49.9384 165.407C50.3504 166.669 51.3377 167.65 52.5931 168.062L57 169.5L52.5931 170.939C51.3312 171.35 50.3504 172.338 49.9384 173.593L48.5 178L47.0616 173.593C46.6496 172.331 45.6623 171.35 44.4069 170.939L40 169.5L44.4069 168.062C45.6688 167.65 46.6496 166.662 47.0616 165.407L48.5 161Z" stroke="white" stroke-miterlimit="10"/>
<path d="M71.5 173C69.567 173 68 171.433 68 169.5C68 167.567 69.567 166 71.5 166C73.433 166 75 167.567 75 169.5C75 171.433 73.433 173 71.5 173Z" stroke="white" stroke-miterlimit="10"/>
<path d="M139.5 235C137.567 235 136 233.433 136 231.5C136 229.567 137.567 228 139.5 228C141.433 228 143 229.567 143 231.5C143 233.433 141.433 235 139.5 235Z" stroke="white" stroke-miterlimit="10"/>
<path d="M139.5 111C137.567 111 136 109.433 136 107.5C136 105.567 137.567 104 139.5 104C141.433 104 143 105.567 143 107.5C143 109.433 141.433 111 139.5 111Z" stroke="white" stroke-miterlimit="10"/>
<path d="M202.5 173C200.567 173 199 171.433 199 169.5C199 167.567 200.567 166 202.5 166C204.433 166 206 167.567 206 169.5C206 171.433 204.433 173 202.5 173Z" stroke="white" stroke-miterlimit="10"/>
<path d="M228.727 21.0238L255.197 21.0452L255.169 56.0564L234.125 56.0395L234.131 48.0807L227.284 48.0752C221.796 48.0708 217.337 52.5231 217.332 58.0112C217.328 63.4994 221.78 67.9588 227.268 67.9633L243.636 67.9764L243.664 33.5033L230.914 33.493C218.102 33.4827 207.7 43.8595 207.69 56.68C207.679 69.4916 218.056 79.894 230.876 79.9043L255.15 79.9238" stroke="white" stroke-miterlimit="10"/>
<path d="M229.056 316.9L255.526 316.879L255.498 281.867L234.454 281.884L234.461 289.843L227.614 289.849C222.125 289.853 217.666 285.401 217.662 279.913C217.657 274.424 222.109 269.965 227.598 269.961L243.965 269.947L243.993 304.421L231.243 304.431C218.431 304.441 208.029 294.064 208.019 281.244C208.008 268.432 218.385 258.03 231.206 258.02L255.479 258" stroke="white" stroke-miterlimit="10"/>
<path d="M46.4702 316.9L19.9999 316.879L20.0281 281.867L41.072 281.884L41.0656 289.843L47.9126 289.849C53.4007 289.853 57.8602 285.401 57.8646 279.913C57.869 274.424 53.4167 269.965 47.9286 269.961L31.5611 269.947L31.5333 304.421L44.2832 304.431C57.0948 304.441 67.4971 294.064 67.5075 281.244C67.5178 268.432 57.141 258.03 44.3206 258.02L20.0474 258" stroke="white" stroke-miterlimit="10"/>
<line x1="255.5" y1="79.5" x2="255.5" y2="258.5" stroke="white"/>
<line x1="20.5" y1="119" x2="20.5" y2="258" stroke="white"/>
<line x1="230" y1="317" x2="46" y2="317" stroke="white"/>
<line x1="253" y1="21" x2="102" y2="21" stroke="white"/>
<circle cx="101.5" cy="21" r="1.5" fill="white"/>
<circle cx="20.5" cy="118.5" r="1.5" fill="white"/>
</g>
<defs>
<clipPath id="clip0_436_13655">
<rect width="276" height="338" rx="24" fill="white"/>
</clipPath>
</defs>
</svg>
