<svg width="1085" height="600" viewBox="0 0 1085 600" fill="none" xmlns="http://www.w3.org/2000/svg">
<path d="M943.884 100L945.726 105.643C946.253 107.259 947.518 108.515 949.125 109.042L954.768 110.884L949.125 112.726C947.509 113.253 946.253 114.518 945.726 116.125L943.884 121.768L942.042 116.125C941.515 114.509 940.25 113.253 938.643 112.726L933 110.884L938.643 109.042C940.259 108.515 941.515 107.25 942.042 105.643L943.884 100Z" stroke="#2B714F" stroke-width="2" stroke-miterlimit="10"/>
<path d="M1014.88 545L1016.73 550.643C1017.25 552.259 1018.52 553.515 1020.13 554.042L1025.77 555.884L1020.13 557.726C1018.51 558.253 1017.25 559.518 1016.73 561.125L1014.88 566.768L1013.04 561.125C1012.51 559.509 1011.25 558.253 1009.64 557.726L1004 555.884L1009.64 554.042C1011.26 553.515 1012.51 552.25 1013.04 550.643L1014.88 545Z" stroke="#2B714F" stroke-width="2" stroke-miterlimit="10"/>
<path d="M490.884 111L492.726 116.643C493.253 118.259 494.518 119.515 496.125 120.042L501.768 121.884L496.125 123.726C494.509 124.253 493.253 125.518 492.726 127.125L490.884 132.768L489.042 127.125C488.515 125.509 487.25 124.253 485.643 123.726L480 121.884L485.643 120.042C487.259 119.515 488.515 118.25 489.042 116.643L490.884 111Z" stroke="#2B714F" stroke-width="2" stroke-miterlimit="10"/>
<path d="M603 416L605.369 423.258C606.048 425.337 607.674 426.952 609.742 427.631L617 430L609.742 432.369C607.663 433.048 606.048 434.674 605.369 436.742L603 444L600.631 436.742C599.952 434.663 598.326 433.048 596.258 432.369L589 430L596.258 427.631C598.337 426.952 599.952 425.326 600.631 423.258L603 416Z" stroke="#2B714F" stroke-width="2" stroke-miterlimit="10"/>
<path d="M671 70L673.369 77.2585C674.048 79.3369 675.674 80.9524 677.742 81.6308L685 84L677.742 86.3693C675.663 87.0478 674.048 88.6739 673.369 90.7416L671 98L668.631 90.7416C667.952 88.6631 666.326 87.0478 664.258 86.3693L657 84L664.258 81.6308C666.337 80.9524 667.952 79.3261 668.631 77.2585L671 70Z" stroke="#2B714F" stroke-width="2" stroke-miterlimit="10"/>
<path d="M644.384 467L648.341 479.124C649.474 482.595 652.191 485.294 655.644 486.427L667.768 490.384L655.644 494.341C652.173 495.475 649.474 498.191 648.341 501.644L644.384 513.768L640.427 501.644C639.294 498.173 636.577 495.475 633.124 494.341L621 490.384L633.124 486.427C636.595 485.294 639.294 482.577 640.427 479.124L644.384 467Z" stroke="#2B714F" stroke-width="2" stroke-miterlimit="10"/>
<path d="M1005.38 142L1009.34 154.124C1010.47 157.595 1013.19 160.294 1016.64 161.427L1028.77 165.384L1016.64 169.341C1013.17 170.475 1010.47 173.191 1009.34 176.644L1005.38 188.768L1001.43 176.644C1000.29 173.173 997.577 170.475 994.124 169.341L982 165.384L994.124 161.427C997.595 160.294 1000.29 157.577 1001.43 154.124L1005.38 142Z" stroke="#2B714F" stroke-width="2" stroke-miterlimit="10"/>
<path d="M746.384 35L750.341 47.1237C751.474 50.5953 754.191 53.2936 757.644 54.4268L769.768 58.384L757.644 62.3415C754.173 63.4747 751.474 66.1907 750.341 69.6444L746.384 81.7681L742.427 69.6444C741.294 66.1727 738.577 63.4747 735.124 62.3415L723 58.384L735.124 54.4268C738.595 53.2936 741.294 50.5773 742.427 47.1237L746.384 35Z" stroke="#2B714F" stroke-width="2" stroke-miterlimit="10"/>
</svg>
