<svg width="286" height="286" viewBox="0 0 286 286" fill="none" xmlns="http://www.w3.org/2000/svg">
<g clip-path="url(#clip0_303_12798)">
<rect width="286" height="286" rx="24" fill="#F4F4F4"/>
<path d="M210.514 26.5V79H208.039V28.825H194.839V26.5H210.514ZM258.79 76.675V79H223.24V77.2L245.74 54.55C248.79 51.5 250.84 48.9 251.89 46.75C252.99 44.55 253.54 42.3 253.54 40C253.54 36.45 252.315 33.65 249.865 31.6C247.465 29.55 244.015 28.525 239.515 28.525C236.015 28.525 232.965 29.05 230.365 30.1C227.815 31.1 225.615 32.675 223.765 34.825L222.04 33.175C226.09 28.525 231.94 26.2 239.59 26.2C244.64 26.2 248.64 27.425 251.59 29.875C254.54 32.325 256.015 35.65 256.015 39.85C256.015 42.5 255.415 45.05 254.215 47.5C253.015 49.95 250.79 52.8 247.54 56.05L227.065 76.675H258.79Z" fill="#2B714F"/>
<path d="M180.867 151.369H33V299.235H180.867V151.369Z" stroke="#2B714F" stroke-miterlimit="10"/>
<path d="M180.867 151.369H33V190.558H180.867V151.369Z" stroke="#2B714F" stroke-miterlimit="10"/>
<path d="M116.386 151.369H97.4302V299.235H116.386V151.369Z" stroke="#2B714F" stroke-miterlimit="10"/>
<path d="M97.8303 151.369L154.223 121.72C164.464 116.337 176.81 123.473 177.261 135.017C177.611 143.956 170.474 151.369 161.535 151.369H97.8303Z" stroke="#2B714F" stroke-miterlimit="10"/>
<path d="M116.035 151.369L59.6432 121.72C49.4015 116.337 37.0564 123.473 36.6057 135.017C36.2551 143.956 43.3919 151.369 52.3315 151.369H116.035Z" stroke="#2B714F" stroke-miterlimit="10"/>
<path d="M106.879 81L109.874 90.1765C110.732 92.8042 112.788 94.8465 115.402 95.7042L124.578 98.6995L115.402 101.695C112.774 102.553 110.732 104.608 109.874 107.222L106.879 116.399L103.883 107.222C103.026 104.595 100.97 102.553 98.3557 101.695L89.1793 98.6995L98.3557 95.7042C100.983 94.8465 103.026 92.7906 103.883 90.1765L106.879 81Z" stroke="#2B714F" stroke-miterlimit="10"/>
<path d="M207.242 103.956H208.478V106.836H207.362V105H200.45L200.438 106.836H199.322L199.334 103.956H199.742C200.894 103.884 201.17 101.856 201.254 99.3L201.338 96.6H207.242V103.956ZM202.31 99.408C202.238 101.46 202.034 103.308 201.314 103.956H206.054V97.644H202.37L202.31 99.408ZM211.319 103.956H216.215V105H210.119V96.6H216.047V97.644H211.319V100.224H215.531V101.244H211.319V103.956ZM223.751 105L221.027 101.304H219.275V105H218.099V96.6H219.275V100.248H221.051L223.691 96.6H224.975L221.975 100.668L225.119 105H223.751ZM232.616 105L231.692 102.9H227.228L226.304 105H225.068L228.872 96.6H230.06L233.876 105H232.616ZM227.648 101.94H231.272L229.46 97.824L227.648 101.94ZM235.326 105V96.6H241.662V97.62H236.514V100.02H239.13C241.134 100.02 242.19 100.872 242.19 102.444C242.19 104.088 241.026 105 238.926 105H235.326ZM236.514 104.052H238.878C240.258 104.052 240.99 103.512 240.99 102.492C240.99 101.46 240.282 100.968 238.878 100.968H236.514V104.052ZM247.379 96.6C249.563 96.6 250.883 97.704 250.883 99.528C250.883 101.352 249.563 102.456 247.379 102.456H245.303V105H244.103V96.6H247.379ZM247.343 101.412C248.879 101.412 249.683 100.728 249.683 99.528C249.683 98.328 248.879 97.644 247.343 97.644H245.303V101.412H247.343ZM255.149 96.6H258.521V105H257.345V102.552H255.029C254.921 102.552 254.813 102.552 254.705 102.54L253.025 105H251.753L253.613 102.336C252.425 101.94 251.753 100.98 251.753 99.624C251.753 97.704 253.085 96.6 255.149 96.6ZM252.965 99.612C252.965 100.848 253.697 101.544 255.125 101.544H257.345V97.644H255.197C253.769 97.644 252.965 98.316 252.965 99.612Z" fill="#2B714F"/>
</g>
<defs>
<clipPath id="clip0_303_12798">
<rect width="286" height="286" rx="24" fill="white"/>
</clipPath>
</defs>
</svg>
