<svg width="244" height="394" viewBox="0 0 244 394" fill="none" xmlns="http://www.w3.org/2000/svg">
<g clip-path="url(#clip0_436_13587)">
<rect width="244" height="394" rx="24" fill="#378861"/>
<path d="M38.6927 19.7812V72.2812H36.2177V22.1062H23.0177V19.7812H38.6927ZM67.0937 42.9562C73.0937 42.9562 77.6437 44.2812 80.7437 46.9312C83.8937 49.5812 85.4687 53.1812 85.4687 57.7312C85.4687 62.1812 83.9187 65.7812 80.8187 68.5312C77.7687 71.2312 73.4187 72.5813 67.7687 72.5813C63.9187 72.5813 60.3437 71.9312 57.0437 70.6312C53.7437 69.2812 51.2437 67.5062 49.5437 65.3062L50.8937 63.5062C52.4937 65.5062 54.7687 67.1312 57.7187 68.3812C60.7187 69.6312 64.0437 70.2562 67.6937 70.2562C72.6437 70.2562 76.4187 69.1312 79.0187 66.8812C81.6687 64.6312 82.9937 61.5812 82.9937 57.7312C82.9937 53.7812 81.6437 50.7062 78.9437 48.5062C76.2437 46.3062 72.1937 45.2062 66.7937 45.2062H63.8687V43.4062L80.2187 22.1062H51.2687V19.7812H83.5187V21.5812L67.0937 42.9562Z" fill="white"/>
<path d="M34.242 94.956H35.478V97.836H34.362V96H27.45L27.438 97.836H26.322L26.334 94.956H26.742C27.894 94.884 28.17 92.856 28.254 90.3L28.338 87.6H34.242V94.956ZM29.31 90.408C29.238 92.46 29.034 94.308 28.314 94.956H33.054V88.644H29.37L29.31 90.408ZM38.3185 94.956H43.2145V96H37.1185V87.6H43.0465V88.644H38.3185V91.224H42.5305V92.244H38.3185V94.956ZM50.751 96L48.027 92.304H46.275V96H45.099V87.6H46.275V91.248H48.051L50.691 87.6H51.975L48.975 91.668L52.119 96H50.751ZM59.6158 96L58.6918 93.9H54.2278L53.3038 96H52.0678L55.8718 87.6H57.0598L60.8758 96H59.6158ZM54.6478 92.94H58.2718L56.4598 88.824L54.6478 92.94ZM62.3256 96V87.6H68.6616V88.62H63.5136V91.02H66.1296C68.1336 91.02 69.1896 91.872 69.1896 93.444C69.1896 95.088 68.0256 96 65.9256 96H62.3256ZM63.5136 95.052H65.8776C67.2576 95.052 67.9896 94.512 67.9896 93.492C67.9896 92.46 67.2816 91.968 65.8776 91.968H63.5136V95.052ZM74.3789 87.6C76.5629 87.6 77.8829 88.704 77.8829 90.528C77.8829 92.352 76.5629 93.456 74.3789 93.456H72.3029V96H71.1029V87.6H74.3789ZM74.3429 92.412C75.8789 92.412 76.6829 91.728 76.6829 90.528C76.6829 89.328 75.8789 88.644 74.3429 88.644H72.3029V92.412H74.3429ZM82.1486 87.6H85.5206V96H84.3446V93.552H82.0286C81.9206 93.552 81.8126 93.552 81.7046 93.54L80.0246 96H78.7526L80.6126 93.336C79.4246 92.94 78.7526 91.98 78.7526 90.624C78.7526 88.704 80.0846 87.6 82.1486 87.6ZM79.9646 90.612C79.9646 91.848 80.6966 92.544 82.1246 92.544H84.3446V88.644H82.1966C80.7686 88.644 79.9646 89.316 79.9646 90.612Z" fill="white"/>
<path d="M57.1839 373.37L21.0647 373.341L21.1031 325.568L49.8179 325.591L49.8092 336.451L59.1521 336.458C66.6408 336.464 72.7258 330.389 72.7318 322.9C72.7378 315.412 66.6626 309.327 59.1739 309.321L36.8401 309.303L36.8022 356.342L54.1998 356.356C71.6815 356.37 85.8757 342.211 85.8897 324.717C85.9038 307.235 71.7445 293.041 54.2508 293.027L21.0647 293.027" stroke="white" stroke-miterlimit="10"/>
<path d="M187.731 373.37L223.851 373.341L223.812 325.568L195.097 325.591L195.106 336.451L185.763 336.458C178.274 336.464 172.189 330.389 172.183 322.9C172.177 315.412 178.253 309.327 185.741 309.32L208.075 309.302L208.113 356.342L190.716 356.356C173.234 356.37 159.04 342.211 159.026 324.717C159.011 307.235 173.171 293.041 190.664 293.027L223.786 293" stroke="white" stroke-miterlimit="10"/>
<path d="M187.731 20.0232L223.851 20.0523L223.812 67.826L195.097 67.8028L195.106 56.9429L185.763 56.9354C178.274 56.9294 172.189 63.0046 172.183 70.4933C172.177 77.982 178.253 84.067 185.741 84.0731L208.075 84.0911L208.113 37.0516L190.716 37.0376C173.234 37.0236 159.04 51.183 159.026 68.6768C159.011 86.1585 173.171 100.353 190.664 100.367L223.786 100.394" stroke="white" stroke-miterlimit="10"/>
<line x1="223.5" y1="100" x2="223.5" y2="293" stroke="white"/>
<line x1="197" y1="373.5" x2="55" y2="373.5" stroke="white"/>
<line x1="21.5" y1="112" x2="21.5" y2="293" stroke="white"/>
<line x1="222" y1="20" x2="100" y2="20" stroke="white"/>
<circle cx="99.5" cy="20" r="1.5" fill="white"/>
<circle cx="21.5" cy="111.5" r="1.5" fill="white"/>
<path d="M123.853 156V235.932" stroke="white" stroke-miterlimit="10"/>
<path d="M163.899 196.046H83.9999" stroke="white" stroke-miterlimit="10"/>
<path d="M147.719 172.18L100.115 219.817" stroke="white" stroke-miterlimit="10"/>
<path d="M147.719 219.913L100.115 172.308" stroke="white" stroke-miterlimit="10"/>
<path d="M68.5 199C66.567 199 65 197.433 65 195.5C65 193.567 66.567 192 68.5 192C70.433 192 72 193.567 72 195.5C72 197.433 70.433 199 68.5 199Z" stroke="white" stroke-miterlimit="10"/>
<path d="M123.5 255C121.567 255 120 253.433 120 251.5C120 249.567 121.567 248 123.5 248C125.433 248 127 249.567 127 251.5C127 253.433 125.433 255 123.5 255Z" stroke="white" stroke-miterlimit="10"/>
<path d="M124.5 145C122.567 145 121 143.433 121 141.5C121 139.567 122.567 138 124.5 138C126.433 138 128 139.567 128 141.5C128 143.433 126.433 145 124.5 145Z" stroke="white" stroke-miterlimit="10"/>
<path d="M177.5 199C175.567 199 174 197.433 174 195.5C174 193.567 175.567 192 177.5 192C179.433 192 181 193.567 181 195.5C181 197.433 179.433 199 177.5 199Z" stroke="white" stroke-miterlimit="10"/>
<path d="M123.5 269L124.938 273.407C125.35 274.669 126.338 275.65 127.593 276.062L132 277.5L127.593 278.939C126.331 279.35 125.35 280.338 124.938 281.593L123.5 286L122.062 281.593C121.65 280.331 120.662 279.35 119.407 278.939L115 277.5L119.407 276.062C120.669 275.65 121.65 274.662 122.062 273.407L123.5 269Z" stroke="white" stroke-miterlimit="10"/>
<path d="M205.5 187L206.938 191.407C207.35 192.669 208.338 193.65 209.593 194.062L214 195.5L209.593 196.939C208.331 197.35 207.35 198.338 206.938 199.593L205.5 204L204.062 199.593C203.65 198.331 202.662 197.35 201.407 196.939L197 195.5L201.407 194.062C202.669 193.65 203.65 192.662 204.062 191.407L205.5 187Z" stroke="white" stroke-miterlimit="10"/>
<path d="M42.5 188L43.9384 192.407C44.3504 193.669 45.3377 194.65 46.5931 195.062L51 196.5L46.5931 197.939C45.3312 198.35 44.3504 199.338 43.9384 200.593L42.5 205L41.0616 200.593C40.6496 199.331 39.6623 198.35 38.4069 197.939L34 196.5L38.4069 195.062C39.6688 194.65 40.6496 193.662 41.0616 192.407L42.5 188Z" stroke="white" stroke-miterlimit="10"/>
<path d="M123.5 100L124.938 104.407C125.35 105.669 126.338 106.65 127.593 107.062L132 108.5L127.593 109.939C126.331 110.35 125.35 111.338 124.938 112.593L123.5 117L122.062 112.593C121.65 111.331 120.662 110.35 119.407 109.939L115 108.5L119.407 107.062C120.669 106.65 121.65 105.662 122.062 104.407L123.5 100Z" stroke="white" stroke-miterlimit="10"/>
</g>
<defs>
<clipPath id="clip0_436_13587">
<rect width="244" height="394" rx="24" fill="white"/>
</clipPath>
</defs>
</svg>
