<svg width="159" height="141" viewBox="0 0 159 141" fill="none" xmlns="http://www.w3.org/2000/svg">
<rect width="158.96" height="140.329" rx="9.51381" fill="#378861"/>
<path d="M29.2286 36.5886V37.8286H10.2686V36.8686L22.2686 24.7886C23.8953 23.1619 24.9886 21.7753 25.5486 20.6286C26.1353 19.4553 26.4286 18.2553 26.4286 17.0286C26.4286 15.1353 25.7753 13.6419 24.4686 12.5486C23.1886 11.4553 21.3486 10.9086 18.9486 10.9086C17.082 10.9086 15.4553 11.1886 14.0686 11.7486C12.7086 12.2819 11.5353 13.1219 10.5486 14.2686L9.62862 13.3886C11.7886 10.9086 14.9086 9.66861 18.9886 9.66861C21.682 9.66861 23.8153 10.3219 25.3886 11.6286C26.962 12.9353 27.7486 14.7086 27.7486 16.9486C27.7486 18.3619 27.4286 19.7219 26.7886 21.0286C26.1486 22.3353 24.962 23.8553 23.2286 25.5886L12.3086 36.5886H29.2286ZM43.778 37.9886C41.6713 37.9886 39.7913 37.4153 38.138 36.2686C36.5113 35.0953 35.2447 33.4419 34.338 31.3086C33.4313 29.1486 32.978 26.6553 32.978 23.8286C32.978 21.0019 33.4313 18.5219 34.338 16.3886C35.2447 14.2286 36.5113 12.5753 38.138 11.4286C39.7913 10.2553 41.6713 9.66861 43.778 9.66861C45.9113 9.66861 47.7913 10.2553 49.418 11.4286C51.0447 12.5753 52.3113 14.2286 53.218 16.3886C54.1247 18.5219 54.578 21.0019 54.578 23.8286C54.578 26.6553 54.1247 29.1486 53.218 31.3086C52.3113 33.4419 51.0447 35.0953 49.418 36.2686C47.7913 37.4153 45.9113 37.9886 43.778 37.9886ZM43.778 36.7486C45.6447 36.7486 47.298 36.2286 48.738 35.1886C50.178 34.1486 51.2847 32.6553 52.058 30.7086C52.858 28.7619 53.258 26.4686 53.258 23.8286C53.258 21.1886 52.858 18.8953 52.058 16.9486C51.2847 15.0019 50.178 13.5086 48.738 12.4686C47.298 11.4286 45.6447 10.9086 43.778 10.9086C41.9113 10.9086 40.258 11.4286 38.818 12.4686C37.4047 13.5086 36.298 15.0019 35.498 16.9486C34.7247 18.8953 34.338 21.1886 34.338 23.8286C34.338 26.4686 34.7247 28.7619 35.498 30.7086C36.298 32.6553 37.4047 34.1486 38.818 35.1886C40.258 36.2286 41.9113 36.7486 43.778 36.7486Z" fill="white"/>
<path d="M81.6026 54.7043V86.3901" stroke="white" stroke-miterlimit="10"/>
<path d="M97.4775 70.5791H65.8048" stroke="white" stroke-miterlimit="10"/>
<path d="M91.0636 61.1179L72.1927 80.0019" stroke="white" stroke-miterlimit="10"/>
<path d="M91.0636 80.0402L72.1927 61.1692" stroke="white" stroke-miterlimit="10"/>
<rect x="72.5436" y="63.4055" width="2.77486" height="2.77486" transform="rotate(-45 72.5436 63.4055)" fill="#378861"/>
<rect x="86.8143" y="63.4055" width="2.77486" height="2.77486" transform="rotate(-45 86.8143 63.4055)" fill="#378861"/>
<rect x="86.8143" y="77.676" width="2.77486" height="2.77486" transform="rotate(-45 86.8143 77.676)" fill="#378861"/>
<rect x="72.1472" y="77.2798" width="2.77486" height="2.77486" transform="rotate(-45 72.1472 77.2798)" fill="#378861"/>
<path d="M121.5 66.9932L122.07 68.7401C122.234 69.2403 122.625 69.6291 123.123 69.7924L124.87 70.3626L123.123 70.9329C122.622 71.0962 122.234 71.4875 122.07 71.9852L121.5 73.7321L120.93 71.9852C120.767 71.4849 120.375 71.0962 119.878 70.9329L118.131 70.3626L119.878 69.7924C120.378 69.6291 120.767 69.2378 120.93 68.7401L121.5 66.9932Z" stroke="white" stroke-miterlimit="10"/>
<path d="M81.4628 105.841L82.033 107.588C82.1963 108.088 82.5877 108.477 83.0853 108.64L84.8323 109.211L83.0853 109.781C82.5851 109.944 82.1963 110.335 82.033 110.833L81.4628 112.58L80.8926 110.833C80.7293 110.333 80.3379 109.944 79.8403 109.781L78.0933 109.211L79.8403 108.64C80.3405 108.477 80.7293 108.086 80.8926 107.588L81.4628 105.841Z" stroke="white" stroke-miterlimit="10"/>
<path d="M81.4628 28.145L82.033 29.892C82.1963 30.3922 82.5877 30.781 83.0853 30.9443L84.8323 31.5145L83.0853 32.0847C82.5851 32.248 82.1963 32.6394 82.033 33.137L81.4628 34.884L80.8926 33.137C80.7293 32.6368 80.3379 32.248 79.8403 32.0847L78.0933 31.5145L79.8403 30.9443C80.3405 30.781 80.7293 30.3896 80.8926 29.892L81.4628 28.145Z" stroke="white" stroke-miterlimit="10"/>
<path d="M40.2363 66.9932L40.8065 68.7401C40.9698 69.2403 41.3612 69.6291 41.8588 69.7924L43.6058 70.3626L41.8588 70.9329C41.3586 71.0962 40.9698 71.4875 40.8065 71.9852L40.2363 73.7321L39.6661 71.9852C39.5028 71.4849 39.1114 71.0962 38.6137 70.9329L36.8668 70.3626L38.6137 69.7924C39.114 69.6291 39.5028 69.2378 39.6661 68.7401L40.2363 66.9932Z" stroke="white" stroke-miterlimit="10"/>
<path d="M54.507 71.75C53.7407 71.75 53.1196 71.1288 53.1196 70.3625C53.1196 69.5963 53.7407 68.9751 54.507 68.9751C55.2733 68.9751 55.8944 69.5963 55.8944 70.3625C55.8944 71.1288 55.2733 71.75 54.507 71.75Z" stroke="white" stroke-miterlimit="10"/>
<path d="M81.4628 96.3274C80.6965 96.3274 80.0754 95.7062 80.0754 94.9399C80.0754 94.1737 80.6965 93.5525 81.4628 93.5525C82.2291 93.5525 82.8502 94.1737 82.8502 94.9399C82.8502 95.7062 82.2291 96.3274 81.4628 96.3274Z" stroke="white" stroke-miterlimit="10"/>
<path d="M81.4628 47.1726C80.6965 47.1726 80.0754 46.5514 80.0754 45.7851C80.0754 45.0189 80.6965 44.3977 81.4628 44.3977C82.2291 44.3977 82.8502 45.0189 82.8502 45.7851C82.8502 46.5514 82.2291 47.1726 81.4628 47.1726Z" stroke="white" stroke-miterlimit="10"/>
<path d="M106.437 71.75C105.67 71.75 105.049 71.1288 105.049 70.3625C105.049 69.5963 105.67 68.9751 106.437 68.9751C107.203 68.9751 107.824 69.5963 107.824 70.3625C107.824 71.1288 107.203 71.75 106.437 71.75Z" stroke="white" stroke-miterlimit="10"/>
<path d="M131.237 8.27283L150.978 8.28873L150.957 34.3991L135.263 34.3865L135.268 28.4511L130.161 28.447C126.068 28.4437 122.743 31.764 122.739 35.857C122.736 39.9499 126.056 43.2756 130.149 43.2789L142.356 43.2887L142.376 17.5796L132.868 17.572C123.313 17.5643 115.556 25.303 115.548 34.8641C115.54 44.4186 123.279 52.1765 132.84 52.1842L150.942 52.1987" stroke="white" stroke-miterlimit="10"/>
<path d="M131.237 132.186L150.978 132.17L150.957 106.06L135.263 106.073L135.268 112.008L130.161 112.012C126.068 112.015 122.743 108.695 122.739 104.602C122.736 100.509 126.056 97.1834 130.149 97.1801L142.356 97.1703L142.376 122.879L132.868 122.887C123.313 122.895 115.556 115.156 115.548 105.595C115.54 96.0403 123.279 88.2825 132.84 88.2748L150.942 88.2603" stroke="white" stroke-miterlimit="10"/>
<path d="M28.2747 132.186L8.53397 132.17L8.555 106.06L24.2489 106.073L24.2441 112.008L29.3504 112.012C33.4433 112.015 36.769 108.695 36.7723 104.602C36.7756 100.509 33.4552 97.1834 29.3623 97.1801L17.1559 97.1703L17.1352 122.879L26.6437 122.887C36.1983 122.895 43.956 115.156 43.9637 105.595C43.9714 96.0403 36.2327 88.2825 26.6716 88.2748L8.56934 88.2603" stroke="white" stroke-miterlimit="10"/>
<line x1="137.951" y1="132.1" x2="21.0105" y2="132.1" stroke="white"/>
<line x1="149" y1="8.3999" x2="63" y2="8.39991" stroke="white"/>
<line x1="8.5" y1="50" x2="8.5" y2="89" stroke="white"/>
<circle cx="8.5" cy="49.7715" r="1.5" fill="white"/>
<circle cx="63.5" cy="8.5" r="1.5" fill="white"/>
<line x1="150.5" y1="51.7" x2="150.5" y2="88.7" stroke="white"/>
</svg>
