<svg width="286" height="338" viewBox="0 0 286 338" fill="none" xmlns="http://www.w3.org/2000/svg">
<g clip-path="url(#clip0_436_13756)">
<rect width="286" height="338" rx="24" fill="#378861"/>
<path d="M36.8729 20.5V73H34.3979V22.825H21.1979V20.5H36.8729ZM77.0488 45.55C80.9988 46.4 84.0488 47.975 86.1988 50.275C88.3988 52.575 89.4988 55.4 89.4988 58.75C89.4988 63.25 87.7488 66.8 84.2488 69.4C80.7988 72 76.0238 73.3 69.9238 73.3C63.8238 73.3 59.0488 72 55.5988 69.4C52.1488 66.8 50.4238 63.25 50.4238 58.75C50.4238 55.35 51.4738 52.525 53.5738 50.275C55.7238 47.975 58.7988 46.4 62.7988 45.55C59.4488 44.75 56.8488 43.3 54.9988 41.2C53.1988 39.1 52.2988 36.55 52.2988 33.55C52.2988 29.45 53.8738 26.2 57.0238 23.8C60.2238 21.4 64.5238 20.2 69.9238 20.2C75.3238 20.2 79.6238 21.4 82.8238 23.8C86.0238 26.2 87.6238 29.45 87.6238 33.55C87.6238 36.55 86.6988 39.1 84.8488 41.2C83.0488 43.3 80.4488 44.75 77.0488 45.55ZM54.8488 33.55C54.8488 36.9 56.1738 39.575 58.8238 41.575C61.4738 43.525 65.1738 44.5 69.9238 44.5C74.6738 44.5 78.3988 43.525 81.0988 41.575C83.7988 39.575 85.1488 36.9 85.1488 33.55C85.1488 30.15 83.7738 27.45 81.0238 25.45C78.2738 23.45 74.5738 22.45 69.9238 22.45C65.2738 22.45 61.5988 23.45 58.8988 25.45C56.1988 27.45 54.8488 30.15 54.8488 33.55ZM69.9238 71.05C75.2738 71.05 79.4488 69.95 82.4488 67.75C85.4988 65.55 87.0238 62.575 87.0238 58.825C87.0238 55.075 85.4988 52.125 82.4488 49.975C79.4488 47.775 75.2738 46.675 69.9238 46.675C64.5738 46.675 60.3988 47.775 57.3988 49.975C54.4488 52.125 52.9738 55.075 52.9738 58.825C52.9738 62.625 54.4488 65.625 57.3988 67.825C60.3988 69.975 64.5738 71.05 69.9238 71.05Z" fill="white"/>
<path d="M38.242 96.956H39.478V99.836H38.362V98H31.45L31.438 99.836H30.322L30.334 96.956H30.742C31.894 96.884 32.17 94.856 32.254 92.3L32.338 89.6H38.242V96.956ZM33.31 92.408C33.238 94.46 33.034 96.308 32.314 96.956H37.054V90.644H33.37L33.31 92.408ZM42.3185 96.956H47.2145V98H41.1185V89.6H47.0465V90.644H42.3185V93.224H46.5305V94.244H42.3185V96.956ZM54.751 98L52.027 94.304H50.275V98H49.099V89.6H50.275V93.248H52.051L54.691 89.6H55.975L52.975 93.668L56.119 98H54.751ZM63.6158 98L62.6918 95.9H58.2278L57.3038 98H56.0678L59.8718 89.6H61.0598L64.8758 98H63.6158ZM58.6478 94.94H62.2718L60.4598 90.824L58.6478 94.94ZM66.3256 98V89.6H72.6616V90.62H67.5136V93.02H70.1296C72.1336 93.02 73.1896 93.872 73.1896 95.444C73.1896 97.088 72.0256 98 69.9256 98H66.3256ZM67.5136 97.052H69.8776C71.2576 97.052 71.9896 96.512 71.9896 95.492C71.9896 94.46 71.2816 93.968 69.8776 93.968H67.5136V97.052ZM78.3789 89.6C80.5629 89.6 81.8829 90.704 81.8829 92.528C81.8829 94.352 80.5629 95.456 78.3789 95.456H76.3029V98H75.1029V89.6H78.3789ZM78.3429 94.412C79.8789 94.412 80.6829 93.728 80.6829 92.528C80.6829 91.328 79.8789 90.644 78.3429 90.644H76.3029V94.412H78.3429ZM86.1486 89.6H89.5206V98H88.3446V95.552H86.0286C85.9206 95.552 85.8126 95.552 85.7046 95.54L84.0246 98H82.7526L84.6126 95.336C83.4246 94.94 82.7526 93.98 82.7526 92.624C82.7526 90.704 84.0846 89.6 86.1486 89.6ZM83.9646 92.612C83.9646 93.848 84.6966 94.544 86.1246 94.544H88.3446V90.644H86.1966C84.7686 90.644 83.9646 91.316 83.9646 92.612Z" fill="white"/>
<path d="M228.625 317.164L266 317.134L265.96 267.7L236.247 267.724L236.256 278.961L226.589 278.969C218.84 278.975 212.543 272.689 212.537 264.94C212.531 257.191 218.817 250.894 226.566 250.888L249.676 250.869L249.715 299.544L231.713 299.558C213.624 299.573 198.936 284.921 198.922 266.819C198.907 248.73 213.559 234.042 231.66 234.028L265.933 234" stroke="white" stroke-miterlimit="10"/>
<path d="M227.625 20.1828L265 20.2129L264.96 69.6472L235.247 69.6233L235.256 58.3859L225.589 58.3781C217.84 58.3719 211.543 64.6582 211.537 72.4073C211.531 80.1563 217.817 86.4528 225.566 86.459L248.676 86.4777L248.715 37.8032L230.713 37.7887C212.624 37.7741 197.936 52.4257 197.922 70.5276C197.907 88.6169 212.559 103.305 230.66 103.319L264.933 103.347" stroke="white" stroke-miterlimit="10"/>
<path d="M57.4443 317.164L20.0696 317.134L20.1094 267.7L49.8223 267.724L49.8132 278.961L59.4808 278.969C67.2298 278.975 73.5264 272.689 73.5326 264.94C73.5388 257.191 67.2525 250.894 59.5034 250.888L36.3933 250.869L36.3541 299.544L54.3564 299.558C72.4458 299.573 87.1333 284.921 87.1479 266.819C87.1624 248.73 72.511 234.042 54.4092 234.028L20.0696 234.028" stroke="white" stroke-miterlimit="10"/>
<line x1="236" y1="317.3" x2="38" y2="317.3" stroke="white"/>
<line x1="242.168" y1="20.1344" x2="106.615" y2="20.1344" stroke="white"/>
<circle cx="106.098" cy="20.1517" r="1.55214" fill="white"/>
<line x1="265.5" y1="103" x2="265.5" y2="234.5" stroke="white"/>
<line x1="20.5" y1="106.5" x2="20.5" y2="234.5" stroke="white"/>
<circle cx="20.5521" cy="107.552" r="1.55214" fill="white"/>
<path d="M144.074 133V203.347" stroke="white" stroke-miterlimit="10"/>
<path d="M179.318 168.245H109" stroke="white" stroke-miterlimit="10"/>
<path d="M165.079 147.24L123.183 189.165" stroke="white" stroke-miterlimit="10"/>
<path d="M165.079 189.249L123.183 147.353" stroke="white" stroke-miterlimit="10"/>
<path d="M228.618 160.848L229.884 164.727C230.247 165.837 231.115 166.7 232.22 167.063L236.099 168.329L232.22 169.595C231.11 169.957 230.247 170.826 229.884 171.931L228.618 175.81L227.352 171.931C226.99 170.821 226.121 169.957 225.016 169.595L221.137 168.329L225.016 167.063C226.126 166.7 226.99 165.831 227.352 164.727L228.618 160.848Z" stroke="white" stroke-miterlimit="10"/>
<path d="M144.01 243.696L145.276 247.575C145.638 248.685 146.507 249.549 147.612 249.911L151.491 251.177L147.612 252.443C146.501 252.806 145.638 253.674 145.276 254.779L144.01 258.658L142.744 254.779C142.381 253.669 141.512 252.806 140.408 252.443L136.529 251.177L140.408 249.911C141.518 249.549 142.381 248.68 142.744 247.575L144.01 243.696Z" stroke="white" stroke-miterlimit="10"/>
<path d="M144.01 79L145.276 82.8785C145.638 83.9891 146.507 84.8523 147.612 85.2148L151.491 86.4807L147.612 87.7468C146.501 88.1093 145.638 88.9782 145.276 90.083L144.01 93.9615L142.744 90.083C142.381 88.9724 141.512 88.1093 140.408 87.7468L136.529 86.4807L140.408 85.2148C141.518 84.8523 142.381 83.9833 142.744 82.8785L144.01 79Z" stroke="white" stroke-miterlimit="10"/>
<path d="M56.4807 160.848L57.7467 164.727C58.1092 165.837 58.9782 166.7 60.083 167.063L63.9615 168.329L60.083 169.595C58.9724 169.957 58.1092 170.826 57.7467 171.931L56.4807 175.81L55.2148 171.931C54.8523 170.821 53.9833 169.957 52.8785 169.595L49 168.329L52.8785 167.063C53.9891 166.7 54.8523 165.831 55.2148 164.727L56.4807 160.848Z" stroke="white" stroke-miterlimit="10"/>
<path d="M88.1638 171.409C86.4626 171.409 85.0835 170.03 85.0835 168.329C85.0835 166.628 86.4626 165.249 88.1638 165.249C89.8651 165.249 91.2441 166.628 91.2441 168.329C91.2441 170.03 89.8651 171.409 88.1638 171.409Z" stroke="white" stroke-miterlimit="10"/>
<path d="M144.01 226.975C142.309 226.975 140.929 225.595 140.929 223.894C140.929 222.193 142.309 220.814 144.01 220.814C145.711 220.814 147.09 222.193 147.09 223.894C147.09 225.595 145.711 226.975 144.01 226.975Z" stroke="white" stroke-miterlimit="10"/>
<path d="M144.01 116.844C142.309 116.844 140.929 115.465 140.929 113.763C140.929 112.062 142.309 110.683 144.01 110.683C145.711 110.683 147.09 112.062 147.09 113.763C147.09 115.465 145.711 116.844 144.01 116.844Z" stroke="white" stroke-miterlimit="10"/>
<path d="M200.455 171.409C198.754 171.409 197.375 170.03 197.375 168.329C197.375 166.628 198.754 165.249 200.455 165.249C202.157 165.249 203.536 166.628 203.536 168.329C203.536 170.03 202.157 171.409 200.455 171.409Z" stroke="white" stroke-miterlimit="10"/>
</g>
<defs>
<clipPath id="clip0_436_13756">
<rect width="286" height="338" rx="24" fill="white"/>
</clipPath>
</defs>
</svg>
