<svg width="134" height="134" viewBox="0 0 134 134" fill="none" xmlns="http://www.w3.org/2000/svg">
<g clip-path="url(#clip0_436_12826)">
<rect x="0.669922" y="0.669922" width="132.66" height="132.66" rx="11.1323" fill="#F4F4F4"/>
<path d="M96.1016 12.6399V40.6399H94.7816V13.8799H87.7416V12.6399H96.1016ZM121.849 39.3999V40.6399H102.889V39.6799L114.889 27.5999C116.515 25.9732 117.609 24.5866 118.169 23.4399C118.755 22.2666 119.049 21.0666 119.049 19.8399C119.049 17.9466 118.395 16.4532 117.089 15.3599C115.809 14.2666 113.969 13.7199 111.569 13.7199C109.702 13.7199 108.075 13.9999 106.689 14.5599C105.329 15.0932 104.155 15.9332 103.169 17.0799L102.249 16.1999C104.409 13.7199 107.529 12.4799 111.609 12.4799C114.302 12.4799 116.435 13.1332 118.009 14.4399C119.582 15.7466 120.369 17.5199 120.369 19.7599C120.369 21.1732 120.049 22.5332 119.409 23.8399C118.769 25.1466 117.582 26.6666 115.849 28.3999L104.929 39.3999H121.849Z" fill="#2B714F"/>
<path d="M85.5649 70.8818H16.9775V139.469H85.5649V70.8818Z" stroke="#2B714F" stroke-miterlimit="10"/>
<path d="M85.5649 70.8818H16.9775V89.0595H85.5649V70.8818Z" stroke="#2B714F" stroke-miterlimit="10"/>
<path d="M55.6558 70.8818H46.8631V139.469H55.6558V70.8818Z" stroke="#2B714F" stroke-miterlimit="10"/>
<path d="M47.0483 70.8816L73.2056 57.1293C77.9562 54.6321 83.6827 57.9423 83.8918 63.2969C84.0544 67.4435 80.744 70.8816 76.5974 70.8816H47.0483Z" stroke="#2B714F" stroke-miterlimit="10"/>
<path d="M55.4938 70.8816L29.3365 57.1293C24.5859 54.6321 18.8597 57.9423 18.6506 63.2969C18.488 67.4435 21.7984 70.8816 25.945 70.8816H55.4938Z" stroke="#2B714F" stroke-miterlimit="10"/>
<path d="M51.246 38.2415L52.6353 42.4979C53.0331 43.7168 53.9868 44.6641 55.1993 45.062L59.4558 46.4513L55.1993 47.8407C53.9805 48.2385 53.0331 49.1921 52.6353 50.4046L51.246 54.6611L49.8566 50.4046C49.4588 49.1858 48.5051 48.2385 47.2926 47.8407L43.0361 46.4513L47.2926 45.062C48.5114 44.6641 49.4588 43.7105 49.8566 42.4979L51.246 38.2415Z" stroke="#2B714F" stroke-miterlimit="10"/>
</g>
<defs>
<clipPath id="clip0_436_12826">
<rect x="0.669922" y="0.669922" width="132.66" height="132.66" rx="11.1323" fill="white"/>
</clipPath>
</defs>
</svg>
