<svg width="299" height="182" viewBox="0 0 299 182" fill="none" xmlns="http://www.w3.org/2000/svg">
<g clip-path="url(#clip0_324_9061)">
<rect width="299" height="182" rx="24" fill="#F4F4F4"/>
<path style="mix-blend-mode:screen" d="M288 76.9999C288 84.7289 281.73 90.9999 274.001 90.9999C266.272 90.9999 260 84.7289 260 76.9999C260 69.2709 266.272 63 274.001 63C281.73 63 288 69.2709 288 76.9999Z" fill="url(#paint0_radial_324_9061)"/>
<path d="M234.879 69.675V72H199.329V70.2L221.829 47.55C224.879 44.5 226.929 41.9 227.979 39.75C229.079 37.55 229.629 35.3 229.629 33C229.629 29.45 228.404 26.65 225.954 24.6C223.554 22.55 220.104 21.525 215.604 21.525C212.104 21.525 209.054 22.05 206.454 23.1C203.904 24.1 201.704 25.675 199.854 27.825L198.129 26.175C202.179 21.525 208.029 19.2 215.679 19.2C220.729 19.2 224.729 20.425 227.679 22.875C230.629 25.325 232.104 28.65 232.104 32.85C232.104 35.5 231.504 38.05 230.304 40.5C229.104 42.95 226.879 45.8 223.629 49.05L203.154 69.675H234.879ZM276.7 69.675V72H241.15V70.2L263.65 47.55C266.7 44.5 268.75 41.9 269.8 39.75C270.9 37.55 271.45 35.3 271.45 33C271.45 29.45 270.225 26.65 267.775 24.6C265.375 22.55 261.925 21.525 257.425 21.525C253.925 21.525 250.875 22.05 248.275 23.1C245.725 24.1 243.525 25.675 241.675 27.825L239.95 26.175C244 21.525 249.85 19.2 257.5 19.2C262.55 19.2 266.55 20.425 269.5 22.875C272.45 25.325 273.925 28.65 273.925 32.85C273.925 35.5 273.325 38.05 272.125 40.5C270.925 42.95 268.7 45.8 265.45 49.05L244.975 69.675H276.7Z" fill="#2B714F"/>
<path d="M148.81 63.1289C152.4 63.1289 155.31 60.2188 155.31 56.6289C155.31 53.0391 152.4 50.1289 148.81 50.1289C145.22 50.1289 142.31 53.0391 142.31 56.6289C142.31 60.2188 145.22 63.1289 148.81 63.1289Z" fill="#2B714F"/>
<path d="M167.81 97.1289C171.4 97.1289 174.31 94.2188 174.31 90.6289C174.31 87.0391 171.4 84.1289 167.81 84.1289C164.22 84.1289 161.31 87.0391 161.31 90.6289C161.31 94.2188 164.22 97.1289 167.81 97.1289Z" fill="#2B714F"/>
<path d="M159.81 126.129C163.4 126.129 166.31 123.219 166.31 119.629C166.31 116.039 163.4 113.129 159.81 113.129C156.22 113.129 153.31 116.039 153.31 119.629C153.31 123.219 156.22 126.129 159.81 126.129Z" fill="#2B714F"/>
<path d="M151.81 150.129C155.4 150.129 158.31 147.219 158.31 143.629C158.31 140.039 155.4 137.129 151.81 137.129C148.22 137.129 145.31 140.039 145.31 143.629C145.31 147.219 148.22 150.129 151.81 150.129Z" fill="#2B714F"/>
<path d="M123.81 177.129C127.4 177.129 130.31 174.219 130.31 170.629C130.31 167.039 127.4 164.129 123.81 164.129C120.22 164.129 117.31 167.039 117.31 170.629C117.31 174.219 120.22 177.129 123.81 177.129Z" fill="#2B714F"/>
<path d="M111.81 55.1289C115.4 55.1289 118.31 52.2188 118.31 48.6289C118.31 45.0391 115.4 42.1289 111.81 42.1289C108.22 42.1289 105.31 45.0391 105.31 48.6289C105.31 52.2188 108.22 55.1289 111.81 55.1289Z" fill="#2B714F"/>
<path d="M84.8101 69.1289C88.3999 69.1289 91.3101 66.2188 91.3101 62.6289C91.3101 59.0391 88.3999 56.1289 84.8101 56.1289C81.2202 56.1289 78.3101 59.0391 78.3101 62.6289C78.3101 66.2188 81.2202 69.1289 84.8101 69.1289Z" fill="#2B714F"/>
<path d="M26.6211 187.999C57.6237 165.388 79.2581 146.164 100.344 122.023M146.124 62.2714C129.192 86.3525 114.899 105.359 100.344 122.023M100.344 122.023L111.269 53.5576" stroke="#2B714F"/>
<path d="M105.5 88.501L87.6177 67.251" stroke="#2B714F"/>
<path d="M117 101.501L163.552 92.1465" stroke="#2B714F"/>
<path d="M73.5 150.001L147.368 144.429" stroke="#2B714F"/>
<path d="M108 147.501C124.528 134.199 136.441 127.508 154.838 122.021" stroke="#2B714F"/>
<path d="M99.5 147.501L122.472 168.081" stroke="#2B714F"/>
<path d="M20.6858 59.9747C22.8396 58.2465 23.1845 55.0995 21.4563 52.9458C19.728 50.792 16.5811 50.4471 14.4273 52.1753C12.2736 53.9036 11.9286 57.0505 13.6568 59.2043C15.3851 61.358 18.5321 61.703 20.6858 59.9747Z" fill="#2B714F"/>
<path d="M44.6858 69.9747C46.8396 68.2465 47.1845 65.0995 45.4563 62.9458C43.728 60.792 40.5811 60.4471 38.4273 62.1753C36.2736 63.9036 35.9286 67.0505 37.6568 69.2043C39.3851 71.358 42.5321 71.703 44.6858 69.9747Z" fill="#2B714F"/>
<path d="M52.6858 88.9747C54.8396 87.2465 55.1845 84.0995 53.4563 81.9458C51.728 79.792 48.5811 79.4471 46.4273 81.1753C44.2736 82.9036 43.9286 86.0505 45.6568 88.2043C47.3851 90.358 50.5321 90.703 52.6858 88.9747Z" fill="#2B714F"/>
<path d="M58.6858 104.975C60.8396 103.247 61.1845 100.1 59.4563 97.9458C57.728 95.792 54.5811 95.4471 52.4273 97.1753C50.2736 98.9036 49.9286 102.051 51.6568 104.204C53.3851 106.358 56.5321 106.703 58.6858 104.975Z" fill="#2B714F"/>
<path d="M57.6858 129.975C59.8396 128.247 60.1845 125.1 58.4563 122.946C56.728 120.792 53.5811 120.447 51.4273 122.175C49.2736 123.904 48.9286 127.051 50.6568 129.204C52.3851 131.358 55.5321 131.703 57.6858 129.975Z" fill="#2B714F"/>
<path d="M-3.31468 70.9738C-1.16092 69.2455 -0.815977 66.0986 -2.54422 63.9448C-4.27246 61.791 -7.41942 61.4461 -9.57318 63.1743C-11.7269 64.9026 -12.0719 68.0495 -10.3436 70.2033C-8.61541 72.3571 -5.46843 72.702 -3.31468 70.9738Z" fill="#2B714F"/>
<path d="M8.33972 177.581C15.1344 152.487 18.4152 133.156 19.321 111.459M18.1765 60.4747C19.4399 80.3789 19.9462 96.4827 19.321 111.459M19.321 111.459L-3.93601 70.6492" stroke="#2B714F"/>
<path d="M7.50024 91.9999L-10.6277 87.912" stroke="#2B714F"/>
<path d="M19.5002 93.5005L40.0522 68.8704" stroke="#2B714F"/>
<path d="M17.6306 136.604L53.6703 103.359" stroke="#2B714F"/>
<path d="M34.5001 121C37.5933 106.964 40.7211 99.0518 48.1157 88.352" stroke="#2B714F"/>
<path d="M29.0725 125.259L50.5432 126.412" stroke="#2B714F"/>
<path d="M255.537 133V164.013" stroke="#2B714F" stroke-miterlimit="10"/>
<path d="M240 148.537H271" stroke="#2B714F" stroke-miterlimit="10"/>
<path d="M246.277 139.278L264.747 157.761" stroke="#2B714F" stroke-miterlimit="10"/>
<path d="M246.277 157.799L264.747 139.328" stroke="#2B714F" stroke-miterlimit="10"/>
<path d="M208.525 128V149.008" stroke="#2B714F" stroke-miterlimit="10"/>
<path d="M198 138.525H219" stroke="#2B714F" stroke-miterlimit="10"/>
<path d="M202.252 132.252L214.764 144.773" stroke="#2B714F" stroke-miterlimit="10"/>
<path d="M202.252 144.798L214.764 132.286" stroke="#2B714F" stroke-miterlimit="10"/>
<path d="M67.4502 11V35.8501" stroke="#2B714F" stroke-miterlimit="10"/>
<path d="M55 23.4501H79.8398" stroke="#2B714F" stroke-miterlimit="10"/>
<path d="M60.0303 16.0303L74.8301 30.8403" stroke="#2B714F" stroke-miterlimit="10"/>
<path d="M60.0303 30.8702L74.8301 16.0703" stroke="#2B714F" stroke-miterlimit="10"/>
<path d="M215.478 95.956V98.836H214.362V97H207.45L207.438 98.836H206.322L206.334 95.956H206.742C207.27 95.924 207.642 95.508 207.858 94.708C208.074 93.9 208.206 92.764 208.254 91.3L208.338 88.6H214.242V95.956H215.478ZM209.31 91.408C209.27 92.592 209.174 93.572 209.022 94.348C208.878 95.124 208.642 95.66 208.314 95.956H213.054V89.644H209.37L209.31 91.408ZM223.215 95.956V97H217.119V88.6H223.047V89.644H218.319V92.224H222.531V93.244H218.319V95.956H223.215ZM228.027 93.304H226.275V97H225.099V88.6H226.275V92.248H228.051L230.691 88.6H231.975L228.975 92.668L232.119 97H230.751L228.027 93.304ZM238.692 94.9H234.228L233.304 97H232.068L235.872 88.6H237.06L240.876 97H239.616L238.692 94.9ZM238.272 93.94L236.46 89.824L234.648 93.94H238.272ZM242.326 88.6H248.662V89.62H243.514V92.02H246.13C247.13 92.02 247.89 92.228 248.41 92.644C248.93 93.06 249.19 93.66 249.19 94.444C249.19 95.268 248.906 95.9 248.338 96.34C247.778 96.78 246.974 97 245.926 97H242.326V88.6ZM245.878 96.052C246.566 96.052 247.09 95.92 247.45 95.656C247.81 95.392 247.99 95.004 247.99 94.492C247.99 93.476 247.286 92.968 245.878 92.968H243.514V96.052H245.878ZM254.379 88.6C255.467 88.6 256.323 88.86 256.947 89.38C257.571 89.9 257.883 90.616 257.883 91.528C257.883 92.44 257.571 93.156 256.947 93.676C256.323 94.196 255.467 94.456 254.379 94.456H252.303V97H251.103V88.6H254.379ZM254.343 93.412C255.103 93.412 255.683 93.252 256.083 92.932C256.483 92.604 256.683 92.136 256.683 91.528C256.683 90.92 256.483 90.456 256.083 90.136C255.683 89.808 255.103 89.644 254.343 89.644H252.303V93.412H254.343ZM265.521 88.6V97H264.345V94.552H262.029C261.885 94.552 261.777 94.548 261.705 94.54L260.025 97H258.753L260.613 94.336C260.013 94.136 259.553 93.804 259.233 93.34C258.913 92.868 258.753 92.296 258.753 91.624C258.753 90.672 259.057 89.932 259.665 89.404C260.281 88.868 261.109 88.6 262.149 88.6H265.521ZM259.965 91.612C259.965 92.236 260.145 92.716 260.505 93.052C260.873 93.38 261.413 93.544 262.125 93.544H264.345V89.644H262.197C261.477 89.644 260.925 89.812 260.541 90.148C260.157 90.484 259.965 90.972 259.965 91.612Z" fill="#2B714F"/>
</g>
<defs>
<radialGradient id="paint0_radial_324_9061" cx="0" cy="0" r="1" gradientUnits="userSpaceOnUse" gradientTransform="translate(274 76.9999) scale(14 13.9999)">
<stop stop-color="#ADADAD"/>
<stop offset="0.06" stop-color="#8F8F8F"/>
<stop offset="0.15" stop-color="#696969"/>
<stop offset="0.25" stop-color="#484848"/>
<stop offset="0.35" stop-color="#2D2D2D"/>
<stop offset="0.47" stop-color="#191919"/>
<stop offset="0.59" stop-color="#0B0B0B"/>
<stop offset="0.75" stop-color="#020202"/>
<stop offset="1"/>
</radialGradient>
<clipPath id="clip0_324_9061">
<rect width="299" height="182" rx="24" fill="white"/>
</clipPath>
</defs>
</svg>
