<svg width="1085" height="600" viewBox="0 0 1085 600" fill="none" xmlns="http://www.w3.org/2000/svg">
<g id="2029">
<path id="popup-december-19__decor--5" d="M951.272 138.748L955.662 125.236L960.052 138.748C960.314 139.552 961.063 140.096 961.908 140.096H976.115L964.622 148.447C963.938 148.944 963.651 149.825 963.913 150.629L968.303 164.14L956.809 155.79C956.125 155.293 955.199 155.293 954.515 155.79L943.021 164.14L947.412 150.629C947.673 149.825 947.387 148.944 946.703 148.447L935.209 140.096H949.416C950.261 140.096 951.011 139.552 951.272 138.748Z" stroke="#2B714F" stroke-width="2"/>
<path id="popup-december-19__decor--4" d="M836.353 47.4481L838.31 41.4271L840.266 47.4481C840.43 47.9531 840.901 48.295 841.432 48.295H847.763L842.641 52.0162C842.211 52.3283 842.032 52.8815 842.196 53.3865L844.152 59.4076L839.03 55.6863C838.601 55.3742 838.019 55.3742 837.589 55.6863L832.468 59.4076L834.424 53.3865C834.588 52.8815 834.408 52.3283 833.979 52.0162L828.857 48.295H835.188C835.719 48.295 836.189 47.9531 836.353 47.4481Z" stroke="#2B714F" stroke-width="1.5"/>
<path id="popup-december-19__decor--3" d="M147.719 44.2092L153.93 63.3269C154.243 64.2879 155.138 64.9386 156.149 64.9386L176.25 64.9386C176.572 64.9386 176.706 65.3507 176.446 65.54L160.183 77.3554C159.366 77.9493 159.024 79.0021 159.336 79.9632L165.548 99.0808C165.647 99.3871 165.297 99.6419 165.036 99.4525L148.774 87.6372C147.956 87.0432 146.849 87.0432 146.032 87.6372L129.769 99.4525C129.509 99.6418 129.158 99.3871 129.257 99.0808L135.469 79.9632C135.781 79.0021 135.439 77.9493 134.622 77.3554L118.359 65.54C118.099 65.3507 118.233 64.9386 118.555 64.9386L138.656 64.9386C139.667 64.9386 140.562 64.2879 140.875 63.3269L147.086 44.2092C147.186 43.9029 147.619 43.9029 147.719 44.2092Z" stroke="#2B714F" stroke-width="2"/>
<path id="popup-december-19__decor--2" d="M82.6233 117.465L87.2613 103.191L91.8993 117.465C92.1664 118.287 92.9327 118.844 93.7973 118.844H108.806L96.6638 127.666C95.9643 128.174 95.6716 129.075 95.9388 129.897L100.577 144.171L88.4344 135.349C87.7349 134.841 86.7877 134.841 86.0882 135.349L73.9458 144.171L78.5838 129.897C78.851 129.075 78.5583 128.174 77.8588 127.666L65.7164 118.844H80.7252C81.5898 118.844 82.3561 118.287 82.6233 117.465Z" stroke="#2B714F" stroke-width="2"/>
<path id="popup-december-19__decor--1" d="M203.896 117.465L208.534 103.191L213.172 117.465C213.439 118.287 214.205 118.844 215.07 118.844H230.079L217.936 127.666C217.237 128.174 216.944 129.075 217.211 129.897L221.849 144.171L209.707 135.349C209.007 134.841 208.06 134.841 207.361 135.349L195.218 144.171L199.856 129.897C200.123 129.075 199.831 128.174 199.131 127.666L186.989 118.844H201.998C202.862 118.844 203.629 118.287 203.896 117.465Z" stroke="#2B714F" stroke-width="2"/>
</g>
</svg>
