<svg width="149" height="90" viewBox="0 0 149 90" fill="none" xmlns="http://www.w3.org/2000/svg">
<g clip-path="url(#clip0_343_14112)">
<rect x="0.75" y="0.108643" width="147.5" height="89.7826" rx="11.8395" fill="#F4F4F4"/>
<path style="mix-blend-mode:screen" d="M142.824 38.0935C142.824 41.9063 139.731 44.9999 135.918 44.9999C132.106 44.9999 129.012 41.9063 129.012 38.0935C129.012 34.2807 132.106 31.1873 135.918 31.1873C139.731 31.1873 142.824 34.2807 142.824 38.0935Z" fill="url(#paint0_radial_343_14112)"/>
<path d="M114.494 38.3619V39.6019H95.5336V38.6419L107.534 26.5619C109.16 24.9353 110.254 23.5486 110.814 22.4019C111.4 21.2286 111.694 20.0286 111.694 18.8019C111.694 16.9086 111.04 15.4153 109.734 14.3219C108.454 13.2286 106.614 12.6819 104.214 12.6819C102.347 12.6819 100.72 12.9619 99.3336 13.5219C97.9736 14.0553 96.8003 14.8953 95.8136 16.0419L94.8936 15.1619C97.0536 12.6819 100.174 11.4419 104.254 11.4419C106.947 11.4419 109.08 12.0953 110.654 13.4019C112.227 14.7086 113.014 16.4819 113.014 18.7219C113.014 20.1353 112.694 21.4953 112.054 22.8019C111.414 24.1086 110.227 25.6286 108.494 27.3619L97.5736 38.3619H114.494ZM136.798 38.3619V39.6019H117.838V38.6419L129.838 26.5619C131.465 24.9353 132.558 23.5486 133.118 22.4019C133.705 21.2286 133.998 20.0286 133.998 18.8019C133.998 16.9086 133.345 15.4153 132.038 14.3219C130.758 13.2286 128.918 12.6819 126.518 12.6819C124.652 12.6819 123.025 12.9619 121.638 13.5219C120.278 14.0553 119.105 14.8953 118.118 16.0419L117.198 15.1619C119.358 12.6819 122.478 11.4419 126.558 11.4419C129.252 11.4419 131.385 12.0953 132.958 13.4019C134.532 14.7086 135.318 16.4819 135.318 18.7219C135.318 20.1353 134.998 21.4953 134.358 22.8019C133.718 24.1086 132.532 25.6286 130.798 27.3619L119.878 38.3619H136.798Z" fill="#2B714F"/>
<path d="M74.1596 31.2509C75.9306 31.2509 77.3662 29.8153 77.3662 28.0444C77.3662 26.2735 75.9306 24.8379 74.1596 24.8379C72.3887 24.8379 70.9531 26.2735 70.9531 28.0444C70.9531 29.8153 72.3887 31.2509 74.1596 31.2509Z" fill="#2B714F"/>
<path d="M83.5327 48.0235C85.3036 48.0235 86.7392 46.5879 86.7392 44.817C86.7392 43.0461 85.3036 41.6105 83.5327 41.6105C81.7618 41.6105 80.3262 43.0461 80.3262 44.817C80.3262 46.5879 81.7618 48.0235 83.5327 48.0235Z" fill="#2B714F"/>
<path d="M79.5874 62.3295C81.3583 62.3295 82.7939 60.8939 82.7939 59.123C82.7939 57.3521 81.3583 55.9165 79.5874 55.9165C77.8165 55.9165 76.3809 57.3521 76.3809 59.123C76.3809 60.8939 77.8165 62.3295 79.5874 62.3295Z" fill="#2B714F"/>
<path d="M75.6401 74.1689C77.411 74.1689 78.8466 72.7333 78.8466 70.9624C78.8466 69.1915 77.411 67.7559 75.6401 67.7559C73.8692 67.7559 72.4336 69.1915 72.4336 70.9624C72.4336 72.7333 73.8692 74.1689 75.6401 74.1689Z" fill="#2B714F"/>
<path d="M61.8276 87.4884C63.5985 87.4884 65.0341 86.0528 65.0341 84.2818C65.0341 82.5109 63.5985 81.0753 61.8276 81.0753C60.0567 81.0753 58.6211 82.5109 58.6211 84.2818C58.6211 86.0528 60.0567 87.4884 61.8276 87.4884Z" fill="#2B714F"/>
<path d="M55.9077 27.3044C57.6786 27.3044 59.1142 25.8688 59.1142 24.0979C59.1142 22.327 57.6786 20.8914 55.9077 20.8914C54.1368 20.8914 52.7012 22.327 52.7012 24.0979C52.7012 25.8688 54.1368 27.3044 55.9077 27.3044Z" fill="#2B714F"/>
<path d="M42.5874 34.2108C44.3583 34.2108 45.7939 32.7752 45.7939 31.0043C45.7939 29.2333 44.3583 27.7977 42.5874 27.7977C40.8165 27.7977 39.3809 29.2333 39.3809 31.0043C39.3809 32.7752 40.8165 34.2108 42.5874 34.2108Z" fill="#2B714F"/>
<path d="M13.8828 92.8506C29.1767 81.6964 39.8492 72.2131 50.2511 60.3041M72.8351 30.8279C64.4821 42.7074 57.4311 52.0836 50.2511 60.3041M50.2511 60.3041L55.6407 26.5293" stroke="#2B714F"/>
<path d="M52.7942 43.7672L43.9727 33.2843" stroke="#2B714F"/>
<path d="M58.4668 50.1802L81.4316 45.5656" stroke="#2B714F"/>
<path d="M37.0078 74.1058L73.4479 71.3569" stroke="#2B714F"/>
<path d="M54.0273 72.8725C62.1806 66.3107 68.0577 63.01 77.1331 60.3032" stroke="#2B714F"/>
<path d="M49.834 72.8726L61.1666 83.0249" stroke="#2B714F"/>
<path d="M10.9565 29.6948C12.0189 28.8423 12.1891 27.2898 11.3366 26.2274C10.484 25.1649 8.93156 24.9947 7.86909 25.8473C6.80662 26.6999 6.63645 28.2523 7.48901 29.3148C8.34157 30.3772 9.894 30.5474 10.9565 29.6948Z" fill="#2B714F"/>
<path d="M22.7944 34.6279C23.8568 33.7754 24.027 32.223 23.1744 31.1605C22.3219 30.098 20.7694 29.9278 19.707 30.7804C18.6445 31.633 18.4743 33.1854 19.3269 34.2479C20.1795 35.3103 21.7319 35.4805 22.7944 34.6279Z" fill="#2B714F"/>
<path d="M26.7416 44.0009C27.8041 43.1483 27.9743 41.5959 27.1217 40.5334C26.2691 39.4709 24.7167 39.3008 23.6542 40.1533C22.5918 41.0059 22.4216 42.5583 23.2742 43.6208C24.1267 44.6833 25.6792 44.8534 26.7416 44.0009Z" fill="#2B714F"/>
<path d="M29.7026 51.8939C30.765 51.0414 30.9352 49.4889 30.0826 48.4265C29.2301 47.364 27.6777 47.1938 26.6152 48.0464C25.5527 48.899 25.3825 50.4514 26.2351 51.5139C27.0877 52.5763 28.6401 52.7465 29.7026 51.8939Z" fill="#2B714F"/>
<path d="M29.2084 64.2267C30.2709 63.3741 30.4411 61.8217 29.5885 60.7592C28.7359 59.6968 27.1835 59.5266 26.121 60.3792C25.0586 61.2317 24.8884 62.7842 25.741 63.8466C26.5935 64.9091 28.146 65.0793 29.2084 64.2267Z" fill="#2B714F"/>
<path d="M-0.883369 35.1209C0.179103 34.2683 0.349269 32.7159 -0.503291 31.6534C-1.35585 30.5909 -2.90828 30.4208 -3.97076 31.2733C-5.03323 32.1259 -5.2034 33.6783 -4.35084 34.7408C-3.49828 35.8033 -1.94584 35.9734 -0.883369 35.1209Z" fill="#2B714F"/>
<path d="M4.8651 87.7112C8.21699 75.3325 9.83544 65.7962 10.2823 55.0928M9.71767 29.9415C10.3409 39.7605 10.5907 47.7047 10.2823 55.0928M10.2823 55.0928L-1.19065 34.9607" stroke="#2B714F"/>
<path d="M4.45247 45.4933L-4.49023 43.4767" stroke="#2B714F"/>
<path d="M10.3719 46.2335L20.5104 34.0832" stroke="#2B714F"/>
<path d="M9.44777 67.4968L27.2266 51.0969" stroke="#2B714F"/>
<path d="M17.7698 59.7994C19.2957 52.875 20.8387 48.9721 24.4865 43.6937" stroke="#2B714F"/>
<path d="M15.0938 61.9001L25.6855 62.4692" stroke="#2B714F"/>
<path d="M126.809 65.719V81.018" stroke="#2B714F" stroke-miterlimit="10"/>
<path d="M119.145 73.3834H134.437" stroke="#2B714F" stroke-miterlimit="10"/>
<path d="M122.242 68.816L131.354 77.9338" stroke="#2B714F" stroke-miterlimit="10"/>
<path d="M122.242 77.9525L131.354 68.8409" stroke="#2B714F" stroke-miterlimit="10"/>
<path d="M103.617 63.2523V73.6161" stroke="#2B714F" stroke-miterlimit="10"/>
<path d="M98.4258 68.4447H108.785" stroke="#2B714F" stroke-miterlimit="10"/>
<path d="M100.523 65.35L106.696 71.5266" stroke="#2B714F" stroke-miterlimit="10"/>
<path d="M100.523 71.5392L106.696 65.3668" stroke="#2B714F" stroke-miterlimit="10"/>
<path d="M34.0215 5.53516V17.794" stroke="#2B714F" stroke-miterlimit="10"/>
<path d="M27.8809 11.6769H40.1346" stroke="#2B714F" stroke-miterlimit="10"/>
<path d="M30.3633 8.0166L37.6642 15.3226" stroke="#2B714F" stroke-miterlimit="10"/>
<path d="M30.3633 15.3373L37.6642 8.03638" stroke="#2B714F" stroke-miterlimit="10"/>
</g>
<defs>
<radialGradient id="paint0_radial_343_14112" cx="0" cy="0" r="1" gradientUnits="userSpaceOnUse" gradientTransform="translate(135.918 38.0936) scale(6.90635 6.90632)">
<stop stop-color="#ADADAD"/>
<stop offset="0.06" stop-color="#8F8F8F"/>
<stop offset="0.15" stop-color="#696969"/>
<stop offset="0.25" stop-color="#484848"/>
<stop offset="0.35" stop-color="#2D2D2D"/>
<stop offset="0.47" stop-color="#191919"/>
<stop offset="0.59" stop-color="#0B0B0B"/>
<stop offset="0.75" stop-color="#020202"/>
<stop offset="1"/>
</radialGradient>
<clipPath id="clip0_343_14112">
<rect x="0.75" y="0.108643" width="147.5" height="89.7826" rx="11.8395" fill="white"/>
</clipPath>
</defs>
</svg>
