<svg width="335" height="228" viewBox="0 0 335 228" fill="none" xmlns="http://www.w3.org/2000/svg">
<rect width="335" height="228" rx="24" fill="#378861"/>
<path d="M61.4941 69.675V72H25.9441V70.2L48.4441 47.55C51.4941 44.5 53.5441 41.9 54.5941 39.75C55.6941 37.55 56.2441 35.3 56.2441 33C56.2441 29.45 55.0191 26.65 52.5691 24.6C50.1691 22.55 46.7191 21.525 42.2191 21.525C38.7191 21.525 35.6691 22.05 33.0691 23.1C30.5191 24.1 28.3191 25.675 26.4691 27.825L24.7441 26.175C28.7941 21.525 34.6441 19.2 42.2941 19.2C47.3441 19.2 51.3441 20.425 54.2941 22.875C57.2441 25.325 58.7191 28.65 58.7191 32.85C58.7191 35.5 58.1191 38.05 56.9191 40.5C55.7191 42.95 53.4941 45.8 50.2441 49.05L29.7691 69.675H61.4941ZM109.891 56.85H98.4913V72H96.0163V56.85H65.8663V55.05L94.8913 19.5H97.8163L69.1663 54.6H96.0163V41.25H98.4913V54.6H109.891V56.85Z" fill="white"/>
<path d="M42.242 96.956H43.478V99.836H42.362V98H35.45L35.438 99.836H34.322L34.334 96.956H34.742C35.894 96.884 36.17 94.856 36.254 92.3L36.338 89.6H42.242V96.956ZM37.31 92.408C37.238 94.46 37.034 96.308 36.314 96.956H41.054V90.644H37.37L37.31 92.408ZM46.3185 96.956H51.2145V98H45.1185V89.6H51.0465V90.644H46.3185V93.224H50.5305V94.244H46.3185V96.956ZM58.751 98L56.027 94.304H54.275V98H53.099V89.6H54.275V93.248H56.051L58.691 89.6H59.975L56.975 93.668L60.119 98H58.751ZM67.6158 98L66.6918 95.9H62.2278L61.3038 98H60.0678L63.8718 89.6H65.0598L68.8758 98H67.6158ZM62.6478 94.94H66.2718L64.4598 90.824L62.6478 94.94ZM70.3256 98V89.6H76.6616V90.62H71.5136V93.02H74.1296C76.1336 93.02 77.1896 93.872 77.1896 95.444C77.1896 97.088 76.0256 98 73.9256 98H70.3256ZM71.5136 97.052H73.8776C75.2576 97.052 75.9896 96.512 75.9896 95.492C75.9896 94.46 75.2816 93.968 73.8776 93.968H71.5136V97.052ZM82.3789 89.6C84.5629 89.6 85.8829 90.704 85.8829 92.528C85.8829 94.352 84.5629 95.456 82.3789 95.456H80.3029V98H79.1029V89.6H82.3789ZM82.3429 94.412C83.8789 94.412 84.6829 93.728 84.6829 92.528C84.6829 91.328 83.8789 90.644 82.3429 90.644H80.3029V94.412H82.3429ZM90.1486 89.6H93.5206V98H92.3446V95.552H90.0286C89.9206 95.552 89.8126 95.552 89.7046 95.54L88.0246 98H86.7526L88.6126 95.336C87.4246 94.94 86.7526 93.98 86.7526 92.624C86.7526 90.704 88.0846 89.6 90.1486 89.6ZM87.9646 92.612C87.9646 93.848 88.6966 94.544 90.1246 94.544H92.3446V90.644H90.1966C88.7686 90.644 87.9646 91.316 87.9646 92.612Z" fill="white"/>
<path d="M278.731 207.37L314.851 207.341L314.812 159.568L286.097 159.591L286.106 170.451L276.763 170.458C269.274 170.464 263.189 164.389 263.183 156.9C263.177 149.412 269.253 143.327 276.741 143.32L299.075 143.302L299.113 190.342L281.716 190.356C264.234 190.37 250.04 176.211 250.026 158.717C250.011 141.235 264.171 127.041 281.664 127.027L314.786 127" fill="#378861"/>
<path d="M278.731 207.37L314.851 207.341L314.812 159.568L286.097 159.591L286.106 170.451L276.763 170.458C269.274 170.464 263.189 164.389 263.183 156.9C263.177 149.412 269.253 143.327 276.741 143.32L299.075 143.302L299.113 190.342L281.716 190.356C264.234 190.37 250.04 176.211 250.026 158.717C250.011 141.235 264.171 127.041 281.664 127.027L314.786 127" stroke="white" stroke-miterlimit="10"/>
<path d="M278.731 21.0232L314.851 21.0523L314.812 68.826L286.097 68.8028L286.106 57.9429L276.763 57.9354C269.274 57.9294 263.189 64.0046 263.183 71.4933C263.177 78.982 269.253 85.067 276.741 85.0731L299.075 85.0911L299.113 38.0516L281.716 38.0376C264.234 38.0236 250.04 52.183 250.026 69.6768C250.011 87.1585 264.171 101.353 281.664 101.367L314.786 101.394" fill="#378861"/>
<path d="M278.731 21.0232L314.851 21.0523L314.812 68.826L286.097 68.8028L286.106 57.9429L276.763 57.9354C269.274 57.9294 263.189 64.0046 263.183 71.4933C263.177 78.982 269.253 85.067 276.741 85.0731L299.075 85.0911L299.113 38.0516L281.716 38.0376C264.234 38.0236 250.04 52.183 250.026 69.6768C250.011 87.1585 264.171 101.353 281.664 101.367L314.786 101.394" stroke="white" stroke-miterlimit="10"/>
<path d="M56.1839 207.37L20.0647 207.341L20.1031 159.568L48.8179 159.591L48.8092 170.451L58.1521 170.458C65.6408 170.464 71.7258 164.389 71.7318 156.9C71.7378 149.412 65.6626 143.327 58.1739 143.321L35.8401 143.303L35.8022 190.342L53.1998 190.356C70.6815 190.37 84.8757 176.211 84.8897 158.717C84.9038 141.235 70.7445 127.041 53.2508 127.027L20.0647 127.027" fill="#378861"/>
<path d="M56.1839 207.37L20.0647 207.341L20.1031 159.568L48.8179 159.591L48.8092 170.451L58.1521 170.458C65.6408 170.464 71.7258 164.389 71.7318 156.9C71.7378 149.412 65.6626 143.327 58.1739 143.321L35.8401 143.303L35.8022 190.342L53.1998 190.356C70.6815 190.37 84.8757 176.211 84.8897 158.717C84.9038 141.235 70.7445 127.041 53.2508 127.027L20.0647 127.027" stroke="white" stroke-miterlimit="10"/>
<line x1="279" y1="207.5" x2="56" y2="207.5" stroke="white"/>
<line x1="279" y1="21" x2="123" y2="21" stroke="white"/>
<circle cx="122.5" cy="21" r="1.5" fill="white"/>
<line x1="314.5" y1="101" x2="314.5" y2="127.5" stroke="white"/>
<line x1="20.5" y1="99" x2="20.5" y2="127" stroke="white"/>
<circle cx="20.5" cy="99.5" r="1.5" fill="white"/>
<path d="M171.853 75V154.932" stroke="white" stroke-miterlimit="10"/>
<path d="M211.899 115.046H132" stroke="white" stroke-miterlimit="10"/>
<path d="M195.719 91.1794L148.115 138.817" stroke="white" stroke-miterlimit="10"/>
<path d="M195.719 138.913L148.115 91.3082" stroke="white" stroke-miterlimit="10"/>
<rect x="149" y="96.9497" width="7" height="7" transform="rotate(-45 149 96.9497)" fill="#378861"/>
<rect x="185" y="96.9497" width="7" height="7" transform="rotate(-45 185 96.9497)" fill="#378861"/>
<rect x="185" y="132.95" width="7" height="7" transform="rotate(-45 185 132.95)" fill="#378861"/>
<rect x="148" y="131.95" width="7" height="7" transform="rotate(-45 148 131.95)" fill="#378861"/>
<path d="M252.5 106L253.938 110.407C254.35 111.669 255.338 112.65 256.593 113.062L261 114.5L256.593 115.939C255.331 116.35 254.35 117.338 253.938 118.593L252.5 123L251.062 118.593C250.65 117.331 249.662 116.35 248.407 115.939L244 114.5L248.407 113.062C249.669 112.65 250.65 111.662 251.062 110.407L252.5 106Z" fill="#378861" stroke="white" stroke-miterlimit="10"/>
<path d="M171.5 176L172.938 180.407C173.35 181.669 174.338 182.65 175.593 183.062L180 184.5L175.593 185.939C174.331 186.35 173.35 187.338 172.938 188.593L171.5 193L170.062 188.593C169.65 187.331 168.662 186.35 167.407 185.939L163 184.5L167.407 183.062C168.669 182.65 169.65 181.662 170.062 180.407L171.5 176Z" fill="#378861" stroke="white" stroke-miterlimit="10"/>
<path d="M171.5 35L172.938 39.4069C173.35 40.6688 174.338 41.6496 175.593 42.0616L180 43.5L175.593 44.9385C174.331 45.3504 173.35 46.3377 172.938 47.5931L171.5 52L170.062 47.5931C169.65 46.3312 168.662 45.3504 167.407 44.9385L163 43.5L167.407 42.0616C168.669 41.6496 169.65 40.6623 170.062 39.4069L171.5 35Z" fill="#378861" stroke="white" stroke-miterlimit="10"/>
<path d="M128.5 118.5C126.567 118.5 125 116.933 125 115C125 113.067 126.567 111.5 128.5 111.5C130.433 111.5 132 113.067 132 115C132 116.933 130.433 118.5 128.5 118.5Z" fill="#378861" stroke="white" stroke-miterlimit="10"/>
<path d="M171.5 162C169.567 162 168 160.433 168 158.5C168 156.567 169.567 155 171.5 155C173.433 155 175 156.567 175 158.5C175 160.433 173.433 162 171.5 162Z" fill="#378861" stroke="white" stroke-miterlimit="10"/>
<path d="M171.5 75.0001C169.567 75.0001 168 73.433 168 71.5C168 69.567 169.567 68 171.5 68C173.433 68 175 69.567 175 71.5C175 73.433 173.433 75.0001 171.5 75.0001Z" fill="#378861" stroke="white" stroke-miterlimit="10"/>
<path d="M215.5 118.5C213.567 118.5 212 116.933 212 115C212 113.067 213.567 111.5 215.5 111.5C217.433 111.5 219 113.067 219 115C219 116.933 217.433 118.5 215.5 118.5Z" fill="#378861" stroke="white" stroke-miterlimit="10"/>
</svg>
