<svg width="170" height="171" viewBox="0 0 170 171" fill="none" xmlns="http://www.w3.org/2000/svg">
<g clip-path="url(#clip0_436_13047)">
<rect width="170" height="171" rx="14.7826" fill="#378861"/>
<path d="M21.0274 12.377V40.377H19.7074V13.617H12.6674V12.377H21.0274ZM34.8545 24.337C38.9612 24.337 41.9212 25.0436 43.7345 26.457C45.5745 27.8436 46.4945 29.8436 46.4945 32.457C46.4945 34.0036 46.1345 35.3903 45.4145 36.617C44.6945 37.8436 43.6145 38.8036 42.1745 39.497C40.7612 40.1903 39.0279 40.537 36.9745 40.537C34.9479 40.537 33.0545 40.177 31.2945 39.457C29.5345 38.737 28.2012 37.8036 27.2945 36.657L28.0545 35.697C28.8812 36.7636 30.0945 37.6303 31.6945 38.297C33.2945 38.9636 35.0545 39.297 36.9745 39.297C39.6145 39.297 41.6279 38.6703 43.0145 37.417C44.4279 36.1636 45.1345 34.5103 45.1345 32.457C45.1345 30.1903 44.3345 28.4836 42.7345 27.337C41.1345 26.1636 38.4145 25.577 34.5745 25.577H29.1345L30.6145 12.377H45.0545V13.617H31.7345L30.5345 24.337H34.8545Z" fill="white"/>
<path d="M86.1406 61.6875V110.072" stroke="white" stroke-miterlimit="10"/>
<path d="M110.807 85.9285H61.5934" stroke="white" stroke-miterlimit="10"/>
<path d="M100.841 71.4812L71.5191 100.317" stroke="white" stroke-miterlimit="10"/>
<path d="M100.841 100.376L71.5191 71.5593" stroke="white" stroke-miterlimit="10"/>
<rect x="72.0644" y="76.5879" width="4.31159" height="4.31159" transform="rotate(-45 72.0644 76.5879)" fill="#378861"/>
<rect x="94.2383" y="76.5879" width="4.31159" height="4.31159" transform="rotate(-45 94.2383 76.5879)" fill="#378861"/>
<rect x="94.2383" y="98.7617" width="4.31159" height="4.31159" transform="rotate(-45 94.2383 98.7617)" fill="#378861"/>
<rect x="71.4482" y="98.1458" width="4.31159" height="4.31159" transform="rotate(-45 71.4482 98.1458)" fill="#378861"/>
<path d="M138.895 80.4524L139.781 83.12C140.034 83.8839 140.643 84.4776 141.416 84.7269L144.13 85.5976L141.416 86.4684C140.639 86.7177 140.034 87.3154 139.781 88.0753L138.895 90.7429L138.009 88.0753C137.755 87.3114 137.147 86.7177 136.374 86.4684L133.659 85.5976L136.374 84.7269C137.151 84.4776 137.755 83.8799 138.009 83.12L138.895 80.4524Z" stroke="white" stroke-miterlimit="10"/>
<path d="M85.9239 131.905L86.8099 134.572C87.0636 135.336 87.6718 135.93 88.445 136.179L91.1594 137.05L88.445 137.921C87.6677 138.17 87.0636 138.768 86.8099 139.528L85.9239 142.195L85.0379 139.528C84.7842 138.764 84.176 138.17 83.4028 137.921L80.6884 137.05L83.4028 136.179C84.1801 135.93 84.7842 135.332 85.0379 134.572L85.9239 131.905Z" stroke="white" stroke-miterlimit="10"/>
<path d="M85.9239 29L86.8099 31.6676C87.0636 32.4315 87.6718 33.0252 88.445 33.2745L91.1594 34.1452L88.445 35.016C87.6677 35.2653 87.0636 35.863 86.8099 36.6229L85.9239 39.2905L85.0379 36.6229C84.7842 35.859 84.176 35.2653 83.4028 35.016L80.6884 34.1452L83.4028 33.2745C84.1801 33.0252 84.7842 32.4275 85.0379 31.6676L85.9239 29Z" stroke="white" stroke-miterlimit="10"/>
<path d="M29.8732 80.4524L30.7592 83.12C31.0129 83.8839 31.621 84.4776 32.3943 84.7269L35.1087 85.5976L32.3943 86.4684C31.617 86.7177 31.0129 87.3154 30.7592 88.0753L29.8732 90.7429L28.9872 88.0753C28.7335 87.3114 28.1253 86.7177 27.3521 86.4684L24.6377 85.5976L27.3521 84.7269C28.1294 84.4776 28.7335 83.8799 28.9872 83.12L29.8732 80.4524Z" stroke="white" stroke-miterlimit="10"/>
<path d="M44.0395 87.7163C42.8489 87.7163 41.8837 86.7677 41.8837 85.5976C41.8837 84.4275 42.8489 83.479 44.0395 83.479C45.2301 83.479 46.1953 84.4275 46.1953 85.5976C46.1953 86.7677 45.2301 87.7163 44.0395 87.7163Z" stroke="white" stroke-miterlimit="10"/>
<path d="M85.9243 125.246C84.7336 125.246 83.7685 124.298 83.7685 123.128C83.7685 121.958 84.7336 121.009 85.9243 121.009C87.1149 121.009 88.0801 121.958 88.0801 123.128C88.0801 124.298 87.1149 125.246 85.9243 125.246Z" stroke="white" stroke-miterlimit="10"/>
<path d="M85.9243 50.1863C84.7336 50.1863 83.7685 49.2377 83.7685 48.0676C83.7685 46.8975 84.7336 45.949 85.9243 45.949C87.1149 45.949 88.0801 46.8975 88.0801 48.0676C88.0801 49.2377 87.1149 50.1863 85.9243 50.1863Z" stroke="white" stroke-miterlimit="10"/>
<path d="M124.728 87.7163C123.537 87.7163 122.572 86.7677 122.572 85.5976C122.572 84.4275 123.537 83.479 124.728 83.479C125.919 83.479 126.884 84.4275 126.884 85.5976C126.884 86.7677 125.919 87.7163 124.728 87.7163Z" stroke="white" stroke-miterlimit="10"/>
<path d="M137.619 12.0139L159.768 12.0315L159.745 40.8226L142.136 40.8087L142.141 34.2639L136.412 34.2594C131.82 34.2557 128.088 37.917 128.084 42.4301C128.081 46.9433 131.806 50.6104 136.398 50.6141L150.094 50.6249L150.117 22.2763L139.449 22.2678C128.728 22.2593 120.024 30.7926 120.016 41.3354C120.007 51.8708 128.69 60.4251 139.417 60.4336L159.729 60.4497" stroke="white" stroke-miterlimit="10"/>
<path d="M137.043 160.427L159.192 160.409L159.168 131.618L141.56 131.632L141.565 138.177L135.836 138.182C131.243 138.185 127.512 134.524 127.508 130.011C127.504 125.498 131.23 121.83 135.822 121.827L149.518 121.816L149.541 150.165L138.873 150.173C128.152 150.182 119.448 141.648 119.439 131.106C119.431 120.57 128.114 112.016 138.841 112.007L159.152 111.991" stroke="white" stroke-miterlimit="10"/>
<path d="M33.1498 160.436L11.0004 160.418L11.024 131.627L28.6327 131.641L28.6274 138.186L34.3567 138.19C38.949 138.194 42.6805 134.533 42.6842 130.02C42.6879 125.506 38.9624 121.839 34.3701 121.836L20.6743 121.825L20.6511 150.173L31.3198 150.182C42.0401 150.19 50.7444 141.657 50.753 131.114C50.7617 120.579 42.0788 112.025 31.3511 112.016L11.04 112" stroke="white" stroke-miterlimit="10"/>
<line x1="159.5" y1="61" x2="159.5" y2="112" stroke="white"/>
<line x1="10.7998" y1="51.5" x2="10.7998" y2="112.5" stroke="white"/>
<line x1="155.833" y1="12.127" x2="62.8258" y2="12.127" stroke="white"/>
<line x1="139" y1="160.5" x2="33" y2="160.5" stroke="white"/>
<circle cx="63.0938" cy="12" r="1.5" fill="white"/>
<circle cx="11" cy="50.5" r="1.5" fill="white"/>
</g>
<defs>
<clipPath id="clip0_436_13047">
<rect width="170" height="171" rx="14.7826" fill="white"/>
</clipPath>
</defs>
</svg>
