<svg width="375" height="664" viewBox="0 0 375 664" fill="none" xmlns="http://www.w3.org/2000/svg">
<g clip-path="url(#clip0_449_14719)">
<rect width="375" height="664" fill="white"/>
<path d="M227.98 31.363L231.023 40.6851C231.894 43.3544 233.983 45.4292 236.638 46.3005L245.96 49.3433L236.638 52.3862C233.969 53.2575 231.894 55.3459 231.023 58.0014L227.98 67.3235L224.937 58.0014C224.066 55.3321 221.978 53.2575 219.322 52.3862L210 49.3433L219.322 46.3005C221.991 45.4292 224.066 43.3406 224.937 40.6851L227.98 31.363Z" stroke="#2B714F" stroke-width="1.5" stroke-miterlimit="10"/>
<path d="M334.889 57L337.071 63.6826C337.695 65.5962 339.192 67.0835 341.096 67.7081L347.779 69.8893L341.096 72.0707C339.182 72.6953 337.695 74.1924 337.071 76.096L334.889 82.7787L332.708 76.096C332.083 74.1825 330.586 72.6953 328.683 72.0707L322 69.8893L328.683 67.7081C330.596 67.0835 332.083 65.5863 332.708 63.6826L334.889 57Z" stroke="#2B714F" stroke-width="1.5" stroke-miterlimit="10"/>
<path d="M283.207 108L284.765 112.773C285.211 114.14 286.28 115.202 287.64 115.649L292.413 117.207L287.64 118.765C286.273 119.211 285.211 120.28 284.765 121.64L283.207 126.413L281.649 121.64C281.202 120.273 280.133 119.211 278.773 118.765L274 117.207L278.773 115.649C280.14 115.202 281.202 114.133 281.649 112.773L283.207 108Z" stroke="#2B714F" stroke-width="1.5" stroke-miterlimit="10"/>
<path d="M109.742 519.844L134.413 497.365" stroke="#2B714F" stroke-width="1.5" stroke-linecap="round"/>
<path d="M354.259 519.843L329.588 497.914" stroke="#2B714F" stroke-width="1.5" stroke-linecap="round"/>
<path d="M296.157 471.498L234.281 425.471C233.901 425.188 233.382 425.181 232.995 425.454L167.688 471.498" stroke="#2B714F" stroke-width="1.5" stroke-linecap="round"/>
<path d="M232.888 590.547C233.01 590.459 233.175 590.459 233.296 590.549L353.869 679.377C354.138 679.576 353.998 680.003 353.663 680.003H110.385C110.049 680.003 109.909 679.573 110.181 679.376L232.888 590.547Z" stroke="#2B714F" stroke-width="1.5"/>
<path d="M109.742 519.843V679.931" stroke="#2B714F" stroke-width="1.5" stroke-linecap="round"/>
<path d="M354.26 519.843V679.931" stroke="#2B714F" stroke-width="1.5" stroke-linecap="round"/>
<path d="M219.391 599.887L110.29 519.843" stroke="#2B714F" stroke-width="1.5" stroke-linecap="round"/>
<path d="M246.254 599.887L353.71 519.843" stroke="#2B714F" stroke-width="1.5" stroke-linecap="round"/>
<path d="M134.961 537.387V472.694C134.961 472.089 135.452 471.598 136.057 471.598H328.492C329.097 471.598 329.588 472.089 329.588 472.694V537.387" stroke="#2B714F" stroke-width="1.5" stroke-linecap="round"/>
<path d="M174.842 523.133V566.865" stroke="#2B714F" stroke-width="1.5" stroke-linecap="round"/>
<path d="M174.78 522.728H284.026C284.631 522.728 285.122 523.219 285.122 523.825V571.594" stroke="#2B714F" stroke-width="1.5" stroke-linecap="round"/>
<path d="M232.555 522.433C232.15 522.624 231.761 522.145 232.03 521.787L246.196 503.012C248.958 499.35 254.591 499.823 256.704 503.887C258.34 507.033 257.034 510.897 253.828 512.408L232.555 522.433Z" stroke="#2B714F" stroke-width="1.5" stroke-miterlimit="10"/>
<path d="M231.158 522.433C231.563 522.624 231.952 522.145 231.683 521.787L217.517 503.012C214.754 499.35 209.122 499.823 207.009 503.887C205.373 507.033 206.679 510.897 209.885 512.408L231.158 522.433Z" stroke="#2B714F" stroke-width="1.5" stroke-miterlimit="10"/>
<line x1="231.337" y1="522.986" x2="207.343" y2="546.98" stroke="#2B714F" stroke-width="1.5"/>
<line y1="-0.75" x2="33.9328" y2="-0.75" transform="matrix(0.707107 0.707107 0.707107 -0.707107 232.521 522.456)" stroke="#2B714F" stroke-width="1.5"/>
<path d="M32.884 548L34.7259 553.643C35.2534 555.259 36.5176 556.515 38.1251 557.042L43.7681 558.884L38.1251 560.726C36.5093 561.253 35.2534 562.518 34.7259 564.125L32.884 569.768L31.0422 564.125C30.5147 562.509 29.2504 561.253 27.6429 560.726L22 558.884L27.6429 557.042C29.2588 556.515 30.5147 555.25 31.0422 553.643L32.884 548Z" stroke="#2B714F" stroke-width="1.5" stroke-miterlimit="10"/>
<path d="M79 456L81.3692 463.258C82.0476 465.337 83.6739 466.952 85.7416 467.631L93 470L85.7416 472.369C83.6631 473.048 82.0476 474.674 81.3692 476.742L79 484L76.6308 476.742C75.9524 474.663 74.3261 473.048 72.2585 472.369L65 470L72.2585 467.631C74.3369 466.952 75.9524 465.326 76.6308 463.258L79 456Z" stroke="#2B714F" stroke-width="1.5" stroke-miterlimit="10"/>
<path d="M314.384 374L318.341 386.124C319.474 389.595 322.191 392.294 325.644 393.427L337.768 397.384L325.644 401.341C322.173 402.475 319.474 405.191 318.341 408.644L314.384 420.768L310.427 408.644C309.294 405.173 306.577 402.475 303.124 401.341L291 397.384L303.124 393.427C306.595 392.294 309.294 389.577 310.427 386.124L314.384 374Z" stroke="#2B714F" stroke-width="1.5" stroke-miterlimit="10"/>
</g>
<defs>
<clipPath id="clip0_449_14719">
<rect width="375" height="664" fill="white"/>
</clipPath>
</defs>
</svg>
