<svg width="375" height="664" viewBox="0 0 375 664" fill="none" xmlns="http://www.w3.org/2000/svg">
<g id="Frame 2087324015">
<g id="anim-fire">
<circle id="popup-december-18__8 anim-fire__light" cx="174.793" cy="410.793" r="59.7932" fill="url(#paint0_linear_824_4065)" fill-opacity="0.3"/>
<g id="popup-december-18__8 anim-fire__fire">
<mask id="path-2-inside-1_824_4065" fill="white">
<path d="M198.243 426.27C192.01 412.943 185.957 401.237 177.502 386.042C176.865 384.899 175.231 384.87 174.563 385.995C166.124 400.205 160.629 412.128 154.684 426.406C152.799 429.901 151.729 433.9 151.729 438.149C151.729 451.83 162.82 462.921 176.501 462.921C190.182 462.921 201.272 451.83 201.272 438.149C201.272 435.32 200.798 432.602 199.925 430.069C199.919 430.052 199.931 430.035 199.949 430.034C199.968 430.034 199.98 430.015 199.972 429.998C199.853 429.738 199.734 429.479 199.614 429.221C199.221 428.203 198.762 427.217 198.243 426.27Z"/>
</mask>
<path d="M198.243 426.27C192.01 412.943 185.957 401.237 177.502 386.042C176.865 384.899 175.231 384.87 174.563 385.995C166.124 400.205 160.629 412.128 154.684 426.406C152.799 429.901 151.729 433.9 151.729 438.149C151.729 451.83 162.82 462.921 176.501 462.921C190.182 462.921 201.272 451.83 201.272 438.149C201.272 435.32 200.798 432.602 199.925 430.069C199.919 430.052 199.931 430.035 199.949 430.034C199.968 430.034 199.98 430.015 199.972 429.998C199.853 429.738 199.734 429.479 199.614 429.221C199.221 428.203 198.762 427.217 198.243 426.27Z" stroke="#2B714F" stroke-width="3" mask="url(#path-2-inside-1_824_4065)"/>
</g>
</g>
<g id="anim-fire_2">
<circle id="popup-december-18__7 anim-fire__light" cx="302.013" cy="319.013" r="52.0125" fill="url(#paint1_linear_824_4065)" fill-opacity="0.3"/>
<g id="popup-december-18__7 anim-fire__fire">
<mask id="path-4-inside-2_824_4065" fill="white">
<path d="M317.875 337.999C313.498 328.64 309.249 320.421 303.311 309.751C302.864 308.948 301.717 308.928 301.248 309.717C295.327 319.688 291.47 328.055 287.299 338.072C285.972 340.528 285.219 343.34 285.219 346.327C285.219 355.93 293.004 363.716 302.607 363.716C312.211 363.716 319.996 355.93 319.996 346.327C319.996 344.341 319.663 342.434 319.05 340.656C319.046 340.644 319.055 340.631 319.067 340.631C319.081 340.631 319.09 340.617 319.084 340.605C318.999 340.419 318.913 340.233 318.828 340.048C318.554 339.341 318.235 338.657 317.875 337.999Z"/>
</mask>
<path d="M317.875 337.999C313.498 328.64 309.249 320.421 303.311 309.751C302.864 308.948 301.717 308.928 301.248 309.717C295.327 319.688 291.47 328.055 287.299 338.072C285.972 340.528 285.219 343.34 285.219 346.327C285.219 355.93 293.004 363.716 302.607 363.716C312.211 363.716 319.996 355.93 319.996 346.327C319.996 344.341 319.663 342.434 319.05 340.656C319.046 340.644 319.055 340.631 319.067 340.631C319.081 340.631 319.09 340.617 319.084 340.605C318.999 340.419 318.913 340.233 318.828 340.048C318.554 339.341 318.235 338.657 317.875 337.999Z" stroke="#2B714F" stroke-width="3" mask="url(#path-4-inside-2_824_4065)"/>
</g>
</g>
<g id="popup-december-18__6 anim-opacity">
<path id="Vector" d="M55.8193 355V408.79" stroke="#2B714F" stroke-width="1.4" stroke-miterlimit="10"/>
<path id="Vector_2" d="M82.7676 381.949H28.9995" stroke="#2B714F" stroke-width="1.4" stroke-miterlimit="10"/>
<path id="Vector_3" d="M71.8799 365.887L39.8444 397.945" stroke="#2B714F" stroke-width="1.4" stroke-miterlimit="10"/>
<path id="Vector_4" d="M71.8799 398.011L39.8444 365.975" stroke="#2B714F" stroke-width="1.4" stroke-miterlimit="10"/>
</g>
<g id="popup-december-18__5 anim-opacity">
<path id="Vector_5" d="M117.374 336V368.722" stroke="#2B714F" stroke-width="1.4" stroke-miterlimit="10"/>
<path id="Vector_6" d="M133.768 352.395H101.059" stroke="#2B714F" stroke-width="1.4" stroke-miterlimit="10"/>
<path id="Vector_7" d="M127.144 342.624L107.656 362.125" stroke="#2B714F" stroke-width="1.4" stroke-miterlimit="10"/>
<path id="Vector_8" d="M127.144 362.165L107.656 342.677" stroke="#2B714F" stroke-width="1.4" stroke-miterlimit="10"/>
</g>
<g id="popup-december-18__4 anim-opacity">
<path id="Vector_9" d="M311.547 55.3872V94.4033" stroke="#2B714F" stroke-width="1.4" stroke-miterlimit="10"/>
<path id="Vector_10" d="M292 74.9341H331" stroke="#2B714F" stroke-width="1.4" stroke-miterlimit="10"/>
<path id="Vector_11" d="M299.898 63.2842L323.135 86.5368" stroke="#2B714F" stroke-width="1.4" stroke-miterlimit="10"/>
<path id="Vector_12" d="M299.898 86.5844L323.135 63.3477" stroke="#2B714F" stroke-width="1.4" stroke-miterlimit="10"/>
</g>
<g id="popup-december-18__3 anim-opacity">
<path id="Vector_13" d="M261.029 33.356V57.3659" stroke="#2B714F" stroke-width="1.2" stroke-miterlimit="10"/>
<path id="Vector_14" d="M249 45.3853H273" stroke="#2B714F" stroke-width="1.2" stroke-miterlimit="10"/>
<path id="Vector_15" d="M253.861 38.2163L268.161 52.5256" stroke="#2B714F" stroke-width="1.2" stroke-miterlimit="10"/>
<path id="Vector_16" d="M253.861 52.5544L268.161 38.2549" stroke="#2B714F" stroke-width="1.2" stroke-miterlimit="10"/>
</g>
<g id="popup-december-18__2 anim-opacity">
<path id="Vector_17" d="M75.3945 481V513.722" stroke="#2B714F" stroke-width="1.4" stroke-miterlimit="10"/>
<path id="Vector_18" d="M59 497.394H91.7084" stroke="#2B714F" stroke-width="1.4" stroke-miterlimit="10"/>
<path id="Vector_19" d="M65.624 487.624L85.112 507.125" stroke="#2B714F" stroke-width="1.4" stroke-miterlimit="10"/>
<path id="Vector_20" d="M65.624 507.164L85.112 487.676" stroke="#2B714F" stroke-width="1.4" stroke-miterlimit="10"/>
</g>
<g id="popup-december-18__1 anim-opacity">
<path id="Vector_21" d="M45.0586 559V607.02" stroke="#2B714F" stroke-width="1.4" stroke-miterlimit="10"/>
<path id="Vector_22" d="M21 583.058H69" stroke="#2B714F" stroke-width="1.4" stroke-miterlimit="10"/>
<path id="Vector_23" d="M30.7207 568.72L59.3195 597.338" stroke="#2B714F" stroke-width="1.4" stroke-miterlimit="10"/>
<path id="Vector_24" d="M30.7207 597.397L59.3195 568.798" stroke="#2B714F" stroke-width="1.4" stroke-miterlimit="10"/>
</g>
</g>
<defs>
<linearGradient id="paint0_linear_824_4065" x1="174.793" y1="462.044" x2="174.793" y2="351" gradientUnits="userSpaceOnUse">
<stop stop-color="white"/>
<stop offset="1" stop-color="white" stop-opacity="0"/>
</linearGradient>
<linearGradient id="paint1_linear_824_4065" x1="302.013" y1="363.595" x2="302.013" y2="267" gradientUnits="userSpaceOnUse">
<stop stop-color="white"/>
<stop offset="1" stop-color="white" stop-opacity="0"/>
</linearGradient>
</defs>
</svg>
