<svg width="375" height="664" viewBox="0 0 375 664" fill="none" xmlns="http://www.w3.org/2000/svg">
<g clip-path="url(#clip0_449_15517)">
<path d="M224.662 573.648C229.485 573.648 233.395 569.738 233.395 564.915C233.395 560.092 229.485 556.182 224.662 556.182C219.839 556.182 215.929 560.092 215.929 564.915C215.929 569.738 219.839 573.648 224.662 573.648Z" stroke="#226042" stroke-width="1.5" stroke-miterlimit="10"/>
<path d="M96.4697 573.648C101.293 573.648 105.202 569.738 105.202 564.915C105.202 560.092 101.293 556.182 96.4697 556.182C91.6465 556.182 87.7363 560.092 87.7363 564.915C87.7363 569.738 91.6465 573.648 96.4697 573.648Z" stroke="#226042" stroke-width="1.5" stroke-miterlimit="10"/>
<path d="M-33.125 671.756H73.275C75.8389 671.756 77.9021 669.692 77.9021 667.128V605.936C77.9021 603.953 77.0806 602.051 75.6384 600.689L37.1808 564.655C34.1162 561.77 29.3291 561.81 26.2845 564.715L-11.2518 600.689C-12.674 602.051 -13.4754 603.953 -13.4553 605.916L-13.1947 646.537C-13.1947 648.06 -11.953 649.302 -10.4107 649.302H1.50708C3.0494 649.302 4.29154 648.06 4.29154 646.517V625.606C4.29154 620.098 8.7582 615.631 14.2665 615.631C19.7747 615.631 24.2414 620.098 24.2414 625.606V646.578C24.2414 648.12 25.4831 649.362 27.0254 649.362H36.4399C37.9822 649.362 39.2239 648.12 39.2239 646.578V625.606C39.2239 620.098 43.6905 615.631 49.1988 615.631C54.7071 615.631 59.1737 620.098 59.1737 625.606V649.302" stroke="#226042" stroke-width="1.5" stroke-miterlimit="10"/>
<path d="M65.2422 671.756H201.627C204.191 671.756 206.254 669.692 206.254 667.128V605.936C206.254 603.953 205.433 602.051 203.991 600.689L165.533 564.655C162.468 561.77 157.681 561.81 154.636 564.715L117.1 600.689C115.678 602.051 114.877 603.953 114.897 605.916L115.157 646.537C115.157 648.06 116.399 649.302 117.941 649.302H129.859C131.402 649.302 132.643 648.06 132.643 646.517V625.606C132.643 620.098 137.11 615.631 142.618 615.631C148.126 615.631 152.594 620.098 152.594 625.606V646.578C152.594 648.12 153.835 649.362 155.378 649.362H164.792C166.334 649.362 167.576 648.12 167.576 646.578V625.606C167.576 620.098 172.043 615.631 177.551 615.631C183.059 615.631 187.526 620.098 187.526 625.606V649.302" stroke="#226042" stroke-width="1.5" stroke-miterlimit="10"/>
<path d="M193.575 671.756H329.96C332.523 671.756 334.587 669.692 334.587 667.128V605.936C334.587 603.953 333.766 602.051 332.324 600.689L293.865 564.655C290.801 561.77 286.014 561.81 282.969 564.715L245.433 600.689C244.011 602.051 243.21 603.953 243.23 605.916L243.49 646.537C243.49 648.06 244.732 649.302 246.274 649.302H258.192C259.735 649.302 260.976 648.06 260.976 646.517V625.606C260.976 620.098 265.443 615.631 270.951 615.631C276.459 615.631 280.926 620.098 280.926 625.606V646.578C280.926 648.12 282.168 649.362 283.711 649.362H293.125C294.667 649.362 295.909 648.12 295.909 646.578V625.606C295.909 620.098 300.375 615.631 305.883 615.631C311.392 615.631 315.859 620.098 315.859 625.606V649.302" stroke="#226042" stroke-width="1.5" stroke-miterlimit="10"/>
<path d="M324.076 443.757C328.899 443.757 332.809 439.847 332.809 435.024C332.809 430.2 328.899 426.291 324.076 426.291C319.253 426.291 315.343 430.2 315.343 435.024C315.343 439.847 319.253 443.757 324.076 443.757Z" stroke="#226042" stroke-width="1.5" stroke-miterlimit="10"/>
<path d="M195.884 443.757C200.707 443.757 204.617 439.847 204.617 435.024C204.617 430.2 200.707 426.291 195.884 426.291C191.061 426.291 187.15 430.2 187.15 435.024C187.15 439.847 191.061 443.757 195.884 443.757Z" stroke="#226042" stroke-width="1.5" stroke-miterlimit="10"/>
<path d="M65.1474 443.757C69.9706 443.757 73.8802 439.847 73.8802 435.024C73.8802 430.2 69.9706 426.291 65.1474 426.291C60.3242 426.291 56.4141 430.2 56.4141 435.024C56.4141 439.847 60.3242 443.757 65.1474 443.757Z" stroke="#226042" stroke-width="1.5" stroke-miterlimit="10"/>
<path d="M177.317 537.237V476.045C177.317 474.062 176.495 472.16 175.053 470.798L136.595 434.763C133.531 431.879 128.744 431.919 125.699 434.824L88.1629 470.798C86.7407 472.16 85.9393 474.062 85.9594 476.025L86.22 516.646C86.22 518.169 87.4616 519.411 89.004 519.411H100.922C102.464 519.411 103.706 518.169 103.706 516.626V495.715C103.706 490.207 108.173 485.74 113.681 485.74C119.189 485.74 123.656 490.207 123.656 495.715V516.686C123.656 518.229 124.898 519.471 126.44 519.471H135.855C137.397 519.471 138.639 518.229 138.639 516.686V495.715C138.639 490.207 143.105 485.74 148.613 485.74C154.122 485.74 158.588 490.207 158.588 495.715V519.411" stroke="#226042" stroke-width="1.5" stroke-miterlimit="10"/>
<path d="M305.668 537.237V476.045C305.668 474.062 304.847 472.16 303.405 470.798L264.947 434.763C261.882 431.879 257.095 431.919 254.05 434.824L216.514 470.798C215.092 472.16 214.291 474.062 214.311 476.025L214.571 516.646C214.571 518.169 215.813 519.411 217.356 519.411H229.273C230.816 519.411 232.057 518.169 232.057 516.626V495.715C232.057 490.207 236.524 485.74 242.032 485.74C247.54 485.74 252.008 490.207 252.008 495.715V516.686C252.008 518.229 253.249 519.471 254.792 519.471H264.206C265.748 519.471 266.99 518.229 266.99 516.686V495.715C266.99 490.207 271.457 485.74 276.965 485.74C282.473 485.74 286.94 490.207 286.94 495.715V519.411" stroke="#226042" stroke-width="1.5" stroke-miterlimit="10"/>
<path d="M434.002 537.237V476.045C434.002 474.062 433.181 472.16 431.739 470.798L393.28 434.763C390.216 431.879 385.429 431.919 382.384 434.824L344.848 470.798C343.426 472.16 342.625 474.062 342.645 476.025L342.905 516.646C342.905 518.169 344.147 519.411 345.689 519.411H357.607C359.15 519.411 360.391 518.169 360.391 516.626V495.715C360.391 490.207 364.858 485.74 370.366 485.74C375.874 485.74 380.341 490.207 380.341 495.715V516.686C380.341 518.229 381.583 519.471 383.126 519.471H392.54C394.082 519.471 395.324 518.229 395.324 516.686V495.715C395.324 490.207 399.79 485.74 405.299 485.74C410.807 485.74 415.274 490.207 415.274 495.715V519.411" stroke="#226042" stroke-width="1.5" stroke-miterlimit="10"/>
</g>
<defs>
<clipPath id="clip0_449_15517">
<rect width="375" height="664" fill="white"/>
</clipPath>
</defs>
</svg>
