<svg width="1921" height="704" viewBox="0 0 1921 704" fill="none" xmlns="http://www.w3.org/2000/svg">
<mask id="mask0_810_2042" style="mask-type:alpha" maskUnits="userSpaceOnUse" x="0" y="0" width="1921" height="704">
<rect width="1921" height="704" fill="#D9D9D9"/>
</mask>
<g mask="url(#mask0_810_2042)">
<path d="M1335.85 20.9211C1335.85 17.0984 1332.75 13.9998 1328.93 13.9998C1325.11 13.9998 1322.01 17.0984 1322.01 20.9211C1322.01 24.7438 1325.11 27.8428 1328.93 27.8428C1332.75 27.8428 1335.85 24.7438 1335.85 20.9211Z" stroke="white" stroke-miterlimit="10"/>
<path d="M1307.97 70.9113C1307.97 67.0887 1304.88 63.99 1301.05 63.99C1297.23 63.99 1294.13 67.0887 1294.13 70.9113C1294.13 74.734 1297.23 77.833 1301.05 77.833C1304.88 77.833 1307.97 74.734 1307.97 70.9113Z" stroke="white" stroke-miterlimit="10"/>
<path d="M1258 69.5632H1272.84C1280.69 69.5632 1287.04 63.2129 1287.04 55.3706V41.4644C1287.04 33.6221 1293.39 27.2717 1301.23 27.2717H1301.43C1309.28 27.2717 1315.63 33.6221 1315.63 41.4644V55.3706C1315.63 63.2129 1321.98 69.5632 1329.82 69.5632H1330.68C1338.52 69.5632 1344.87 63.2129 1344.87 55.3706V41.4644C1344.87 33.6221 1351.22 27.2717 1359.06 27.2717C1366.9 27.2717 1373.25 33.6221 1373.25 41.4644V69.5473V87.4545C1373.25 94.7729 1379.19 100.71 1386.51 100.71C1393.83 100.71 1399.76 94.7729 1399.76 87.4545V34.5267C1399.76 30.5262 1403.02 27.2717 1407.02 27.2717H1434.86" stroke="white" stroke-miterlimit="10"/>
<path d="M1856.75 526.747V510.717C1856.75 502.042 1849.7 494.993 1841.03 494.993C1830.62 494.993 1822.15 486.554 1822.15 476.116C1822.15 465.712 1830.59 457.24 1841.03 457.24H1850.01C1860.78 457.24 1869.53 448.496 1869.53 437.719C1869.53 426.942 1860.78 418.199 1850.01 418.199H1829.23C1818.05 418.199 1809 409.15 1809 397.967C1809 386.885 1817.91 377.87 1829 377.734L1867.39 377.429C1883.83 377.294 1897.08 363.941 1897.08 347.505V266" stroke="white" stroke-miterlimit="10"/>
<path d="M1758.66 373H1665V466.659H1758.66V373Z" stroke="white" stroke-miterlimit="10"/>
<path d="M1712.24 419.423C1711.92 419.575 1711.61 419.193 1711.83 418.908L1723.14 403.914C1725.34 400.99 1729.84 401.368 1731.53 404.613C1732.83 407.125 1731.79 410.211 1729.23 411.417L1712.24 419.423Z" stroke="white" stroke-miterlimit="10"/>
<path d="M1711.13 419.423C1711.45 419.575 1711.76 419.193 1711.55 418.908L1700.24 403.914C1698.03 400.99 1693.53 401.368 1691.85 404.613C1690.54 407.125 1691.58 410.211 1694.14 411.417L1711.13 419.423Z" stroke="white" stroke-miterlimit="10"/>
<line x1="1665" y1="419.625" x2="1758.75" y2="419.625" stroke="white"/>
<line x1="1711.38" y1="467" x2="1711.38" y2="373.25" stroke="white"/>
<line x1="1712" y1="419.946" x2="1718.84" y2="437.738" stroke="white"/>
<line y1="-0.5" x2="19.0626" y2="-0.5" transform="matrix(-0.358979 0.933346 0.933346 0.358979 1711.53 420.125)" stroke="white"/>
<line x1="1711.2" y1="419.795" x2="1692.04" y2="438.955" stroke="white"/>
<line y1="-0.5" x2="27.0971" y2="-0.5" transform="matrix(0.707107 0.707107 0.707107 -0.707107 1712.22 419.441)" stroke="white"/>
<path d="M1854.48 206.518H1744V317H1854.48V206.518Z" fill="#2B714F" stroke="white" stroke-miterlimit="10"/>
<path d="M1854.48 206.518H1744V235.799H1854.48V206.518Z" fill="#2B714F" stroke="white" stroke-miterlimit="10"/>
<path d="M1806.32 206.518H1792.16V317H1806.32V206.518Z" fill="#2B714F" stroke="white" stroke-miterlimit="10"/>
<path d="M1792.44 206.518L1834.58 184.365C1842.23 180.342 1851.45 185.675 1851.79 194.3C1852.05 200.979 1846.72 206.518 1840.04 206.518H1792.44Z" fill="#2B714F" stroke="white" stroke-miterlimit="10"/>
<path d="M1806.04 206.518L1763.91 184.365C1756.26 180.342 1747.03 185.675 1746.69 194.3C1746.43 200.979 1751.76 206.518 1758.44 206.518H1806.04Z" fill="#2B714F" stroke="white" stroke-miterlimit="10"/>
<path d="M256.439 452.438C260.389 452.438 263.591 449.236 263.591 445.286C263.591 441.337 260.389 438.135 256.439 438.135C252.49 438.135 249.288 441.337 249.288 445.286C249.288 449.236 252.49 452.438 256.439 452.438Z" fill="#2B714F" stroke="white" stroke-miterlimit="10"/>
<path d="M204.788 423.635C208.738 423.635 211.939 420.433 211.939 416.484C211.939 412.534 208.738 409.332 204.788 409.332C200.838 409.332 197.636 412.534 197.636 416.484C197.636 420.433 200.838 423.635 204.788 423.635Z" fill="#2B714F" stroke="white" stroke-miterlimit="10"/>
<path d="M206.182 372V387.336C206.182 395.439 212.743 402 220.846 402H235.214C243.317 402 249.878 408.561 249.878 416.664V416.877C249.878 424.98 243.317 431.541 235.214 431.541H220.846C212.743 431.541 206.182 438.102 206.182 446.205V447.091C206.182 455.194 212.743 461.755 220.846 461.755H235.214C243.317 461.755 249.878 468.316 249.878 476.419C249.878 484.521 243.317 491.082 235.214 491.082H206.198H187.696C180.134 491.082 174 497.217 174 504.779C174 512.34 180.134 518.475 187.696 518.475H242.382C246.516 518.475 249.878 521.837 249.878 525.971V554.741" fill="#2B714F"/>
<path d="M206.182 372V387.336C206.182 395.439 212.743 402 220.846 402H235.214C243.317 402 249.878 408.561 249.878 416.664V416.877C249.878 424.98 243.317 431.541 235.214 431.541H220.846C212.743 431.541 206.182 438.102 206.182 446.205V447.091C206.182 455.194 212.743 461.755 220.846 461.755H235.214C243.317 461.755 249.878 468.316 249.878 476.419C249.878 484.521 243.317 491.082 235.214 491.082H206.198H187.696C180.134 491.082 174 497.217 174 504.779C174 512.34 180.134 518.475 187.696 518.475H242.382C246.516 518.475 249.878 521.837 249.878 525.971V554.741" stroke="white" stroke-miterlimit="10"/>
<path d="M-6.00007 359.942L151.77 359.942" stroke="white" stroke-miterlimit="10"/>
<path d="M128.838 344.076L124.739 359.942" stroke="white" stroke-miterlimit="10"/>
<path d="M112.32 336L104.894 361.149" stroke="white" stroke-miterlimit="10"/>
<path d="M89.6547 336L82.2278 361.149" stroke="white" stroke-miterlimit="10"/>
<path d="M66.9892 336L59.5626 361.149" stroke="white" stroke-miterlimit="10"/>
<path d="M44.2981 336L36.8715 361.149" stroke="white" stroke-miterlimit="10"/>
<path d="M21.6325 336L14.2059 361.149" stroke="white" stroke-miterlimit="10"/>
<path d="M128.838 375.809L124.739 359.943" stroke="white" stroke-miterlimit="10"/>
<path d="M112.32 383.888L104.894 358.738" stroke="white" stroke-miterlimit="10"/>
<path d="M89.6547 383.888L82.2278 358.738" stroke="white" stroke-miterlimit="10"/>
<path d="M66.9892 383.888L59.5626 358.738" stroke="white" stroke-miterlimit="10"/>
<path d="M44.2981 383.888L36.8715 358.738" stroke="white" stroke-miterlimit="10"/>
<path d="M21.6325 383.888L14.2059 358.738" stroke="white" stroke-miterlimit="10"/>
<path d="M27.0514 71.1111V25H88.0408V61.6583H74.1767V73.5857C74.1767 83.146 81.9388 90.9081 91.4991 90.9081C101.06 90.9081 108.822 83.146 108.822 73.5857V45.0736H48.7695V67.2839C48.7695 89.6016 66.8605 107.708 89.1936 107.708C111.511 107.708 129.618 89.617 129.618 67.2839V25" fill="#2B714F"/>
<path d="M27.0514 71.1111V25H88.0408V61.6583H74.1767V73.5857C74.1767 83.146 81.9388 90.9081 91.4991 90.9081C101.06 90.9081 108.822 83.146 108.822 73.5857V45.0736H48.7695V67.2839C48.7695 89.6016 66.8605 107.708 89.1936 107.708C111.511 107.708 129.618 89.617 129.618 67.2839V25" stroke="white" stroke-miterlimit="10"/>
<path d="M130.033 25H191.022V61.6583H177.158V73.5857C177.158 83.146 184.92 90.9081 194.481 90.9081C204.041 90.9081 211.803 83.146 211.803 73.5857V45.0736H151.751V67.2839C151.751 89.6016 169.842 107.708 192.175 107.708C214.493 107.708 232.599 89.617 232.599 67.2839V25" fill="#2B714F"/>
<path d="M130.033 25H191.022V61.6583H177.158V73.5857C177.158 83.146 184.92 90.9081 194.481 90.9081C204.041 90.9081 211.803 83.146 211.803 73.5857V45.0736H151.751V67.2839C151.751 89.6016 169.842 107.708 192.175 107.708C214.493 107.708 232.599 89.617 232.599 67.2839V25" stroke="white" stroke-miterlimit="10"/>
<path d="M27.1894 64.3486V69.6054C27.1894 105.557 55.9013 134.929 91.8526 135.744C55.7476 137.127 27.1894 166.807 27.1894 202.943L48.9691 203.189C53.9952 203.25 58.0378 207.339 58.0378 212.365C58.0378 217.437 53.9339 221.541 48.8617 221.541H39.4395C34.5517 221.541 30.5862 225.507 30.5862 230.395C30.5862 235.282 34.5517 239.248 39.4395 239.248H43.5129C48.2316 239.248 52.0739 243.075 52.0739 247.809C52.0739 252.528 48.2469 256.371 43.5129 256.371C39.5781 256.371 36.3808 259.567 36.3808 263.502V270.773" fill="#2B714F"/>
<path d="M27.1894 64.3486V69.6054C27.1894 105.557 55.9013 134.929 91.8526 135.744C55.7476 137.127 27.1894 166.807 27.1894 202.943L48.9691 203.189C53.9952 203.25 58.0378 207.339 58.0378 212.365C58.0378 217.437 53.9339 221.541 48.8617 221.541H39.4395C34.5517 221.541 30.5862 225.507 30.5862 230.395C30.5862 235.282 34.5517 239.248 39.4395 239.248H43.5129C48.2316 239.248 52.0739 243.075 52.0739 247.809C52.0739 252.528 48.2469 256.371 43.5129 256.371C39.5781 256.371 36.3808 259.567 36.3808 263.502V270.773" stroke="white" stroke-miterlimit="10"/>
<path d="M250.884 159H132V277.884H250.884V159Z" stroke="white" stroke-miterlimit="10"/>
<path d="M191.969 217.926C191.559 218.12 191.164 217.634 191.437 217.272L205.796 198.24C208.596 194.529 214.305 195.008 216.447 199.127C218.105 202.316 216.781 206.233 213.532 207.764L191.969 217.926Z" stroke="white" stroke-miterlimit="10"/>
<path d="M190.554 217.926C190.964 218.12 191.359 217.634 191.086 217.272L176.727 198.24C173.927 194.529 168.217 195.008 166.076 199.127C164.417 202.316 165.742 206.233 168.991 207.764L190.554 217.926Z" stroke="white" stroke-miterlimit="10"/>
<line x1="132.001" y1="218.317" x2="251" y2="218.317" stroke="white"/>
<line x1="191" y1="278.317" x2="191" y2="159.318" stroke="white"/>
<line x1="191.533" y1="218.638" x2="200.219" y2="241.222" stroke="white"/>
<line y1="-0.5" x2="24.1967" y2="-0.5" transform="matrix(-0.358979 0.933346 0.933346 0.358979 191.066 218.817)" stroke="white"/>
<line x1="190.551" y1="218.303" x2="166.23" y2="242.624" stroke="white"/>
<line y1="-0.5" x2="34.3952" y2="-0.5" transform="matrix(0.707107 0.707107 0.707107 -0.707107 191.935 217.949)" stroke="white"/>
<path d="M1590.58 147.522C1597.48 140.614 1597.48 129.415 1590.58 122.508C1583.67 115.601 1572.47 115.601 1565.56 122.508C1558.66 129.415 1558.66 140.614 1565.56 147.522C1572.47 154.429 1583.67 154.429 1590.58 147.522Z" fill="#2B714F" stroke="white" stroke-width="1.08431" stroke-miterlimit="10"/>
<path d="M1590.58 177.88C1597.49 170.973 1597.49 159.774 1590.58 152.866C1583.67 145.959 1572.48 145.959 1565.57 152.866C1558.66 159.774 1558.66 170.972 1565.57 177.88C1572.48 184.787 1583.67 184.787 1590.58 177.88Z" fill="#2B714F" stroke="white" stroke-width="1.08431" stroke-miterlimit="10"/>
<path d="M1590.58 116.925C1597.49 110.018 1597.49 98.8187 1590.58 91.9114C1583.68 85.0041 1572.48 85.0039 1565.57 91.9112C1558.66 98.8185 1558.66 110.018 1565.57 116.925C1572.48 123.832 1583.68 123.832 1590.58 116.925Z" fill="#2B714F" stroke="white" stroke-width="1.08431" stroke-miterlimit="10"/>
<path d="M1569.26 95.6081C1564.39 100.478 1564.39 108.36 1569.26 113.219C1574.13 118.088 1582.02 118.088 1586.87 113.219C1591.74 108.349 1591.74 100.467 1586.87 95.6081C1582 90.7386 1574.12 90.7386 1569.26 95.6081Z" fill="#2B714F" stroke="white" stroke-width="1.08431" stroke-miterlimit="10"/>
<path d="M1574.22 108.274C1576.35 110.403 1579.81 110.403 1581.94 108.274C1584.07 106.145 1584.07 102.684 1581.94 100.555C1579.81 98.4258 1576.35 98.4258 1574.22 100.555C1572.09 102.684 1572.09 106.145 1574.22 108.274Z" fill="#2B714F" stroke="white" stroke-width="1.08431" stroke-miterlimit="10"/>
<path d="M1569.26 126.246C1564.39 131.115 1564.39 138.998 1569.26 143.857C1574.13 148.726 1582.02 148.726 1586.87 143.857C1591.74 138.987 1591.74 131.104 1586.87 126.246C1582 121.376 1574.12 121.376 1569.26 126.246Z" fill="#2B714F" stroke="white" stroke-width="1.08431" stroke-miterlimit="10"/>
<path d="M1574.22 138.908C1576.35 141.037 1579.81 141.037 1581.94 138.908C1584.07 136.779 1584.07 133.319 1581.94 131.19C1579.81 129.061 1576.35 129.061 1574.22 131.19C1572.09 133.319 1572.09 136.779 1574.22 138.908Z" fill="#2B714F" stroke="white" stroke-width="1.08431" stroke-miterlimit="10"/>
<path d="M1569.26 156.891C1564.39 161.761 1564.39 169.644 1569.26 174.502C1574.13 179.372 1582.02 179.372 1586.87 174.502C1591.74 169.633 1591.74 161.75 1586.87 156.891C1582 152.022 1574.12 152.022 1569.26 156.891Z" fill="#2B714F" stroke="white" stroke-width="1.08431" stroke-miterlimit="10"/>
<path d="M1574.22 169.556C1576.35 171.685 1579.81 171.685 1581.94 169.556C1584.07 167.427 1584.07 163.966 1581.94 161.837C1579.81 159.708 1576.35 159.708 1574.22 161.837C1572.09 163.966 1572.09 167.427 1574.22 169.556Z" fill="#2B714F" stroke="white" stroke-width="1.08431" stroke-miterlimit="10"/>
<path d="M1484.41 147.521C1491.32 140.613 1491.32 129.414 1484.41 122.507C1477.5 115.6 1466.3 115.6 1459.4 122.507C1452.49 129.414 1452.49 140.613 1459.4 147.521C1466.3 154.428 1477.5 154.428 1484.41 147.521Z" fill="#2B714F" stroke="white" stroke-width="1.08431" stroke-miterlimit="10"/>
<path d="M1484.41 177.879C1491.32 170.972 1491.32 159.773 1484.41 152.865C1477.51 145.958 1466.31 145.958 1459.4 152.865C1452.49 159.773 1452.49 170.972 1459.4 177.879C1466.31 184.786 1477.51 184.786 1484.41 177.879Z" fill="#2B714F" stroke="white" stroke-width="1.08431" stroke-miterlimit="10"/>
<path d="M1484.42 116.924C1491.32 110.017 1491.32 98.8177 1484.42 91.9104C1477.51 85.0031 1466.31 85.0029 1459.4 91.9102C1452.5 98.8175 1452.5 110.017 1459.4 116.924C1466.31 123.831 1477.51 123.831 1484.42 116.924Z" fill="#2B714F" stroke="white" stroke-width="1.08431" stroke-miterlimit="10"/>
<path d="M1463.09 95.6081C1458.23 100.478 1458.23 108.36 1463.09 113.219C1467.96 118.088 1475.85 118.088 1480.71 113.219C1485.58 108.349 1485.58 100.467 1480.71 95.6081C1475.84 90.7386 1467.95 90.7386 1463.09 95.6081Z" fill="#2B714F" stroke="white" stroke-width="1.08431" stroke-miterlimit="10"/>
<path d="M1468.05 108.274C1470.18 110.403 1473.64 110.403 1475.77 108.274C1477.9 106.145 1477.9 102.684 1475.77 100.555C1473.64 98.4258 1470.18 98.4258 1468.05 100.555C1465.92 102.684 1465.92 106.145 1468.05 108.274Z" fill="#2B714F" stroke="white" stroke-width="1.08431" stroke-miterlimit="10"/>
<path d="M1463.09 126.246C1458.23 131.115 1458.23 138.998 1463.09 143.857C1467.96 148.726 1475.85 148.726 1480.71 143.857C1485.58 138.987 1485.58 131.104 1480.71 126.246C1475.84 121.376 1467.95 121.376 1463.09 126.246Z" fill="#2B714F" stroke="white" stroke-width="1.08431" stroke-miterlimit="10"/>
<path d="M1468.05 138.908C1470.18 141.037 1473.64 141.037 1475.77 138.908C1477.9 136.779 1477.9 133.319 1475.77 131.19C1473.64 129.061 1470.18 129.061 1468.05 131.19C1465.92 133.319 1465.92 136.779 1468.05 138.908Z" fill="#2B714F" stroke="white" stroke-width="1.08431" stroke-miterlimit="10"/>
<path d="M1463.09 156.891C1458.23 161.761 1458.23 169.644 1463.09 174.502C1467.96 179.372 1475.85 179.372 1480.71 174.502C1485.58 169.633 1485.58 161.75 1480.71 156.891C1475.84 152.022 1467.95 152.022 1463.09 156.891Z" fill="#2B714F" stroke="white" stroke-width="1.08431" stroke-miterlimit="10"/>
<path d="M1468.05 169.556C1470.18 171.685 1473.64 171.685 1475.77 169.556C1477.9 167.427 1477.9 163.966 1475.77 161.837C1473.64 159.708 1470.18 159.708 1468.05 161.837C1465.92 163.966 1465.92 167.427 1468.05 169.556Z" fill="#2B714F" stroke="white" stroke-width="1.08431" stroke-miterlimit="10"/>
<path d="M1527.96 566.353H1565.67V345.731H1527.96V566.353Z" fill="#2B714F" stroke="white" stroke-width="1.08431" stroke-miterlimit="10"/>
<path d="M1568.86 430.062V554.943C1586.69 557.301 1600.29 569.835 1600.29 584.935H1568.86V585H1524.77V430.051C1536.69 431.427 1544.15 437.289 1546.38 448.404C1550.38 438.207 1557.52 431.678 1568.86 430.051V430.062Z" fill="#2B714F" stroke="white" stroke-width="1.08431" stroke-miterlimit="10"/>
<path d="M1518.73 345.731H1481.02V566.353H1518.73V345.731Z" fill="#2B714F" stroke="white" stroke-width="1.08431" stroke-miterlimit="10"/>
<path d="M1477.82 430.062V554.943C1459.99 557.301 1446.39 569.835 1446.39 584.935H1477.82V585H1521.91V430.051C1509.99 431.427 1502.53 437.289 1500.3 448.404C1496.3 438.207 1489.16 431.678 1477.82 430.051V430.062Z" fill="#2B714F" stroke="white" stroke-width="1.08431" stroke-miterlimit="10"/>
<path d="M1479.8 278.268L1457.79 176.883H1592.93L1569.03 278.268H1569.17L1578.44 346.997H1468.96L1479.8 278.268Z" fill="#2B714F" stroke="white" stroke-width="1.08431" stroke-miterlimit="10"/>
<path d="M1479.8 278.268L1457.79 176.883H1592.93L1569.03 278.268H1569.17L1578.44 346.997H1468.96L1479.8 278.268Z" fill="#2B714F"/>
<mask id="mask1_810_2042" style="mask-type:luminance" maskUnits="userSpaceOnUse" x="1457" y="176" width="136" height="171">
<path d="M1479.8 278.267L1457.79 176.882H1592.93L1569.03 278.267H1569.17L1578.44 346.996H1468.96L1479.8 278.267Z" fill="white"/>
</mask>
<g mask="url(#mask1_810_2042)">
<path d="M1584.85 350.085C1618.57 350.085 1645.9 309.25 1645.9 258.876C1645.9 208.502 1618.57 167.666 1584.85 167.666C1551.14 167.666 1523.81 208.502 1523.81 258.876C1523.81 309.25 1551.14 350.085 1584.85 350.085Z" fill="#2B714F" stroke="white" stroke-width="1.08431" stroke-miterlimit="10"/>
<path d="M1584.85 350.085C1618.57 350.085 1645.9 309.25 1645.9 258.876C1645.9 208.502 1618.57 167.666 1584.85 167.666C1551.14 167.666 1523.81 208.502 1523.81 258.876C1523.81 309.25 1551.14 350.085 1584.85 350.085Z" fill="#2B714F" stroke="white" stroke-width="1.08431" stroke-miterlimit="10"/>
<path d="M1584.85 342.956C1614.63 342.956 1638.77 305.312 1638.77 258.876C1638.77 212.439 1614.63 174.795 1584.85 174.795C1555.08 174.795 1530.94 212.439 1530.94 258.876C1530.94 305.312 1555.08 342.956 1584.85 342.956Z" fill="#2B714F" stroke="white" stroke-width="1.08431" stroke-miterlimit="10"/>
<path d="M1463.73 350.086C1497.44 350.086 1524.77 309.25 1524.77 258.876C1524.77 208.502 1497.44 167.667 1463.73 167.667C1430.02 167.667 1402.69 208.502 1402.69 258.876C1402.69 309.25 1430.02 350.086 1463.73 350.086Z" fill="#2B714F" stroke="white" stroke-width="1.08431" stroke-miterlimit="10"/>
<path d="M1463.73 350.086C1497.44 350.086 1524.77 309.25 1524.77 258.876C1524.77 208.502 1497.44 167.667 1463.73 167.667C1430.02 167.667 1402.69 208.502 1402.69 258.876C1402.69 309.25 1430.02 350.086 1463.73 350.086Z" fill="#2B714F" stroke="white" stroke-width="1.08431" stroke-miterlimit="10"/>
<path d="M1463.73 342.956C1493.5 342.956 1517.64 305.312 1517.64 258.876C1517.64 212.439 1493.5 174.795 1463.73 174.795C1433.95 174.795 1409.82 212.439 1409.82 258.876C1409.82 305.312 1433.95 342.956 1463.73 342.956Z" fill="#2B714F" stroke="white" stroke-width="1.08431" stroke-miterlimit="10"/>
</g>
<path d="M1479.8 278.268L1457.79 176.883H1592.93L1569.03 278.268H1569.17L1578.44 346.997H1468.96L1479.8 278.268Z" stroke="white" stroke-width="1.08431" stroke-miterlimit="10"/>
<path d="M1477.58 289.491H1571.18V273.977H1477.58V289.491Z" fill="#2B714F" stroke="white" stroke-width="1.08431" stroke-miterlimit="10"/>
<path d="M1613.8 323.688V375.614H1601.08L1595.77 351.245L1591.54 362.906H1583.06L1589.42 320.5L1613.8 323.688Z" fill="#2B714F" stroke="white" stroke-width="1.08431" stroke-miterlimit="10"/>
<path d="M1580.41 325.804H1615.39V177.941C1615.39 168.278 1607.56 160.45 1597.9 160.45C1588.24 160.45 1580.41 168.278 1580.41 177.941V325.804Z" fill="#2B714F" stroke="white" stroke-width="1.08431" stroke-miterlimit="10"/>
<path d="M1598.52 196.371C1611.38 196.371 1621.8 185.95 1621.8 173.094C1621.8 160.238 1611.38 149.816 1598.52 149.816C1585.67 149.816 1575.25 160.238 1575.25 173.094C1575.25 185.95 1585.67 196.371 1598.52 196.371Z" fill="#2B714F" stroke="white" stroke-width="1.08431" stroke-miterlimit="10"/>
<path d="M1578.29 333.218H1618.57V289.851C1607.78 291.751 1601.35 297.767 1597.68 306.382C1594.96 297.571 1587.87 292.668 1578.29 289.851V333.218Z" fill="#2B714F" stroke="white" stroke-width="1.08431" stroke-miterlimit="10"/>
<path d="M1592.55 185.868C1592.43 185.202 1592.35 184.525 1592.35 183.826C1592.35 177.265 1598.29 171.947 1598.29 171.947C1598.29 171.947 1604.23 177.265 1604.23 183.826C1604.23 183.99 1604.21 184.154 1604.21 184.318C1608.51 179.885 1614.26 176.795 1621.84 175.452V200.607H1574.75V175.452C1582.19 177.636 1588.34 180.911 1592.56 185.868H1592.55Z" fill="#2B714F" stroke="white" stroke-width="1.08431" stroke-miterlimit="10"/>
<path d="M1593.69 311.271L1597.6 315.178L1601.5 311.271L1597.6 307.365L1593.69 311.271Z" fill="#2B714F" stroke="white" stroke-width="1.08431" stroke-miterlimit="10"/>
<path d="M1593.69 320.89L1597.6 324.797L1601.5 320.891L1597.6 316.984L1593.69 320.89Z" fill="#2B714F" stroke="white" stroke-width="1.08431" stroke-miterlimit="10"/>
<path d="M1435.06 323.688V375.614H1447.78L1453.07 351.245L1457.31 362.906H1465.79L1459.44 320.5L1435.06 323.688Z" fill="#2B714F" stroke="white" stroke-width="1.08431" stroke-miterlimit="10"/>
<path d="M1468.44 325.804H1433.46V177.941C1433.46 168.278 1441.29 160.45 1450.95 160.45C1460.62 160.45 1468.44 168.278 1468.44 177.941V325.804Z" fill="#2B714F" stroke="white" stroke-width="1.08431" stroke-miterlimit="10"/>
<path d="M1450.33 196.371C1463.19 196.371 1473.61 185.95 1473.61 173.094C1473.61 160.238 1463.19 149.816 1450.33 149.816C1437.48 149.816 1427.05 160.238 1427.05 173.094C1427.05 185.95 1437.48 196.371 1450.33 196.371Z" fill="#2B714F" stroke="white" stroke-width="1.08431" stroke-miterlimit="10"/>
<path d="M1470.56 333.218H1430.29V289.851C1441.07 291.751 1447.5 297.767 1451.17 306.382C1453.89 297.571 1460.99 292.668 1470.56 289.851V333.218Z" fill="#2B714F" stroke="white" stroke-width="1.08431" stroke-miterlimit="10"/>
<path d="M1456.29 185.868C1456.41 185.202 1456.49 184.525 1456.49 183.826C1456.49 177.265 1450.55 171.947 1450.55 171.947C1450.55 171.947 1444.61 177.265 1444.61 183.826C1444.61 183.99 1444.63 184.154 1444.63 184.318C1440.33 179.885 1434.59 176.795 1427 175.452V200.607H1474.09V175.452C1466.65 177.636 1460.51 180.911 1456.28 185.868H1456.29Z" fill="#2B714F" stroke="white" stroke-width="1.08431" stroke-miterlimit="10"/>
<path d="M1451.26 307.374L1447.35 311.28L1451.26 315.187L1455.16 311.28L1451.26 307.374Z" fill="#2B714F" stroke="white" stroke-width="1.08431" stroke-miterlimit="10"/>
<path d="M1451.26 316.992L1447.35 320.898L1451.26 324.805L1455.16 320.898L1451.26 316.992Z" fill="#2B714F" stroke="white" stroke-width="1.08431" stroke-miterlimit="10"/>
<path d="M1479.65 187.899H1569.84V79.0462L1479.65 79.0462V187.899Z" fill="#2B714F"/>
<mask id="mask2_810_2042" style="mask-type:luminance" maskUnits="userSpaceOnUse" x="1479" y="79" width="91" height="109">
<path d="M1479.65 187.901H1569.84V79.0479L1479.65 79.0479V187.901Z" fill="white"/>
</mask>
<g mask="url(#mask2_810_2042)">
<path d="M1564.67 155.833C1571.86 155.833 1577.69 150.002 1577.69 142.808C1577.69 135.614 1571.86 129.783 1564.67 129.783C1557.47 129.783 1551.64 135.614 1551.64 142.808C1551.64 150.002 1557.47 155.833 1564.67 155.833Z" fill="#2B714F" stroke="white" stroke-width="1.08431" stroke-miterlimit="10"/>
<path d="M1484.26 155.833C1491.46 155.833 1497.29 150.002 1497.29 142.808C1497.29 135.615 1491.46 129.783 1484.26 129.783C1477.07 129.783 1471.24 135.615 1471.24 142.808C1471.24 150.002 1477.07 155.833 1484.26 155.833Z" fill="#2B714F" stroke="white" stroke-width="1.08431" stroke-miterlimit="10"/>
</g>
<path d="M1479.65 187.899H1569.84V79.0462L1479.65 79.0462V187.899Z" stroke="white" stroke-width="1.08431" stroke-miterlimit="10"/>
<path d="M1525.85 99.277C1549.08 99.277 1567.91 84.2167 1567.91 65.6386C1567.91 47.0606 1549.08 32 1525.85 32C1502.63 32 1483.8 47.0606 1483.8 65.6386C1483.8 84.2167 1502.63 99.277 1525.85 99.277Z" fill="#2B714F" stroke="white" stroke-width="1.08431" stroke-miterlimit="10"/>
<path d="M1504.49 184.11H1545C1546.89 184.11 1548.42 182.58 1548.42 180.693V156.826C1548.42 154.939 1546.89 153.409 1545 153.409H1504.49C1502.6 153.409 1501.07 154.939 1501.07 156.826V180.693C1501.07 182.58 1502.6 184.11 1504.49 184.11Z" fill="#2B714F" stroke="white" stroke-width="1.08431" stroke-miterlimit="10"/>
<path d="M1518.83 182.626C1521.58 182.626 1523.82 180.399 1523.82 177.637V159.884C1523.82 157.133 1521.59 154.895 1518.83 154.895C1516.08 154.895 1513.84 157.122 1513.84 159.884V177.637C1513.84 180.388 1516.07 182.626 1518.83 182.626Z" fill="#2B714F" stroke="white" stroke-width="1.08431" stroke-miterlimit="10"/>
<path d="M1506.09 182.627H1508.42C1510.53 182.627 1512.24 180.916 1512.24 178.805V158.727C1512.24 156.617 1510.53 154.906 1508.42 154.906H1506.09C1503.98 154.906 1502.27 156.617 1502.27 158.727V178.805C1502.27 180.916 1503.98 182.627 1506.09 182.627Z" fill="#2B714F" stroke="white" stroke-width="1.08431" stroke-miterlimit="10"/>
<path d="M1530.27 182.626C1533.02 182.626 1535.26 180.399 1535.26 177.637V159.884C1535.26 157.133 1533.04 154.895 1530.27 154.895C1527.52 154.895 1525.28 157.122 1525.28 159.884V177.637C1525.28 180.388 1527.51 182.626 1530.27 182.626Z" fill="#2B714F" stroke="white" stroke-width="1.08431" stroke-miterlimit="10"/>
<path d="M1542.01 182.626C1544.76 182.626 1547 180.399 1547 177.637V159.884C1547 157.133 1544.77 154.895 1542.01 154.895C1539.26 154.895 1537.02 157.122 1537.02 159.884V177.637C1537.02 180.388 1539.25 182.626 1542.01 182.626Z" fill="#2B714F" stroke="white" stroke-width="1.08431" stroke-miterlimit="10"/>
<path d="M1543.69 123.679C1543.69 127.151 1546.51 129.957 1549.97 129.957C1553.43 129.957 1556.25 127.14 1556.25 123.679C1556.25 120.207 1553.43 117.401 1549.97 117.401C1546.51 117.401 1543.69 120.218 1543.69 123.679Z" fill="#2B714F" stroke="white" stroke-width="1.08431" stroke-miterlimit="10"/>
<path d="M1493.23 123.679C1493.23 127.151 1496.05 129.957 1499.51 129.957C1502.97 129.957 1505.78 127.14 1505.78 123.679C1505.78 120.218 1502.97 117.401 1499.51 117.401C1496.05 117.401 1493.23 120.218 1493.23 123.679Z" fill="#2B714F" stroke="white" stroke-width="1.08431" stroke-miterlimit="10"/>
<path d="M1531.99 143.365L1556.35 155.681C1556.35 155.681 1543.88 166.37 1534.26 160.31C1530.09 157.69 1525 152.471 1525 152.471C1525 152.471 1522.47 155.845 1515.38 160.31C1505.76 166.37 1493.29 155.681 1493.29 155.681L1517.31 143.398C1521.92 141.04 1527.37 141.029 1531.99 143.365Z" fill="#2B714F" stroke="white" stroke-width="1.08431" stroke-miterlimit="10"/>
<path d="M1531.03 112.031H1568.73C1568.73 105.087 1563.11 99.4639 1556.16 99.4639H1531.03V112.031Z" fill="#2B714F" stroke="white" stroke-width="1.08431" stroke-miterlimit="10"/>
<path d="M1480.75 112.031H1518.45V99.4639H1493.32C1486.37 99.4639 1480.75 105.087 1480.75 112.031Z" fill="#2B714F" stroke="white" stroke-width="1.08431" stroke-miterlimit="10"/>
<path d="M1479.65 88.7416C1479.65 95.5545 1500.45 108.7 1525.29 108.7C1550.14 108.7 1570.53 95.5435 1570.53 88.7416C1570.53 81.9287 1550.14 76.415 1525.29 76.415C1500.45 76.415 1479.65 81.9287 1479.65 88.7416Z" fill="#2B714F" stroke="white" stroke-width="1.08431" stroke-miterlimit="10"/>
<path d="M1479.64 89.7461L1570.52 89.7461V69.6023L1479.64 69.6023V89.7461Z" fill="#2B714F" stroke="white" stroke-width="1.08431" stroke-miterlimit="10"/>
<path d="M1501.22 64.3833C1505.34 54.3278 1512.55 47.3075 1524.65 45.0693C1524.65 45.0693 1524.66 45.0693 1524.67 45.0693C1524.68 45.0693 1524.69 45.0693 1524.71 45.0693V45.0912C1535.45 48.3885 1543.41 54.1094 1546.47 64.3943C1550.59 54.3169 1557.82 47.2857 1569.96 45.0693V70.2246H1524.72H1524.65H1479.41V45.0693C1490.18 48.3666 1498.16 54.0876 1501.22 64.3943V64.3833Z" fill="#2B714F" stroke="white" stroke-width="1.08431" stroke-miterlimit="10"/>
<path d="M1479.65 168.4H1569.84V166.206H1479.65V168.4Z" fill="#2B714F" stroke="white" stroke-width="1.08431" stroke-miterlimit="10"/>
<path d="M1520.68 142.337H1528.82V118.437H1520.68V142.337Z" fill="#2B714F" stroke="white" stroke-width="1.08431" stroke-miterlimit="10"/>
<path d="M1510.64 285.978V278.259C1510.64 274.362 1513.81 271.195 1517.71 271.195H1530.4C1534.3 271.195 1537.47 274.362 1537.47 278.259V285.978C1537.47 289.876 1534.3 293.042 1530.4 293.042H1517.71C1513.81 293.042 1510.64 289.876 1510.64 285.978ZM1517.71 275.464C1516.17 275.464 1514.91 276.72 1514.91 278.259V285.978C1514.91 287.518 1516.17 288.773 1517.71 288.773H1530.4C1531.94 288.773 1533.2 287.518 1533.2 285.978V278.259C1533.2 276.72 1531.94 275.464 1530.4 275.464H1517.71Z" fill="#2B714F" stroke="white" stroke-width="1.08431" stroke-miterlimit="10"/>
<path d="M1552.32 206.154C1552.32 209.036 1554.65 211.383 1557.55 211.383C1560.44 211.383 1562.78 209.047 1562.78 206.154C1562.78 203.26 1560.44 200.924 1557.55 200.924C1554.65 200.924 1552.32 203.26 1552.32 206.154Z" fill="#2B714F" stroke="white" stroke-width="1.08431" stroke-miterlimit="10"/>
<path d="M1552.32 234.651C1552.32 237.533 1554.65 239.88 1557.55 239.88C1560.44 239.88 1562.78 237.544 1562.78 234.651C1562.78 231.758 1560.44 229.421 1557.55 229.421C1554.65 229.421 1552.32 231.758 1552.32 234.651Z" fill="#2B714F" stroke="white" stroke-width="1.08431" stroke-miterlimit="10"/>
<path d="M1552.32 263.157C1552.32 266.039 1554.65 268.386 1557.55 268.386C1560.44 268.386 1562.78 266.05 1562.78 263.157C1562.78 260.263 1560.44 257.927 1557.55 257.927C1554.65 257.927 1552.32 260.263 1552.32 263.157Z" fill="#2B714F" stroke="white" stroke-width="1.08431" stroke-miterlimit="10"/>
<path d="M1485.81 206.154C1485.81 209.036 1488.15 211.383 1491.04 211.383C1493.94 211.383 1496.27 209.047 1496.27 206.154C1496.27 203.271 1493.94 200.924 1491.04 200.924C1488.15 200.924 1485.81 203.26 1485.81 206.154Z" fill="#2B714F" stroke="white" stroke-width="1.08431" stroke-miterlimit="10"/>
<path d="M1485.82 234.651C1485.82 237.533 1488.15 239.88 1491.04 239.88C1493.94 239.88 1496.27 237.544 1496.27 234.651C1496.27 231.758 1493.94 229.421 1491.04 229.421C1488.15 229.421 1485.82 231.758 1485.82 234.651Z" fill="#2B714F" stroke="white" stroke-width="1.08431" stroke-miterlimit="10"/>
<path d="M1485.81 263.157C1485.81 266.039 1488.15 268.386 1491.04 268.386C1493.94 268.386 1496.27 266.05 1496.27 263.157C1496.27 260.263 1493.94 257.927 1491.04 257.927C1488.15 257.927 1485.81 260.263 1485.81 263.157Z" fill="#2B714F" stroke="white" stroke-width="1.08431" stroke-miterlimit="10"/>
<path d="M1539.4 457.482L1546.29 464.368L1553.18 457.482L1546.29 450.595L1539.4 457.482Z" fill="#2B714F" stroke="white" stroke-width="1.08431" stroke-miterlimit="10"/>
<path d="M1539.4 474.43L1546.29 481.316L1553.18 474.43L1546.29 467.544L1539.4 474.43Z" fill="#2B714F" stroke="white" stroke-width="1.08431" stroke-miterlimit="10"/>
<path d="M1539.41 492.645L1546.29 499.531L1553.18 492.645L1546.29 485.759L1539.41 492.645Z" fill="#2B714F" stroke="white" stroke-width="1.08431" stroke-miterlimit="10"/>
<path d="M1539.41 509.611L1546.3 516.497L1553.18 509.611L1546.3 502.724L1539.41 509.611Z" fill="#2B714F" stroke="white" stroke-width="1.08431" stroke-miterlimit="10"/>
<path d="M1493.08 457.477L1499.97 464.363L1506.86 457.477L1499.97 450.59L1493.08 457.477Z" fill="#2B714F" stroke="white" stroke-width="1.08431" stroke-miterlimit="10"/>
<path d="M1493.09 474.434L1499.98 481.32L1506.87 474.434L1499.98 467.547L1493.09 474.434Z" fill="#2B714F" stroke="white" stroke-width="1.08431" stroke-miterlimit="10"/>
<path d="M1493.09 492.651L1499.97 499.537L1506.86 492.651L1499.97 485.764L1493.09 492.651Z" fill="#2B714F" stroke="white" stroke-width="1.08431" stroke-miterlimit="10"/>
<path d="M1493.09 509.607L1499.98 516.493L1506.86 509.607L1499.98 502.72L1493.09 509.607Z" fill="#2B714F" stroke="white" stroke-width="1.08431" stroke-miterlimit="10"/>
<path d="M416.22 44V54.0866C430.54 63.353 441.07 87.5385 441.07 115.071C441.07 150.319 423.845 180.068 403.451 180.068C383.056 180.068 365.831 150.297 365.831 115.071C365.831 87.5385 376.361 63.353 390.682 54.0866V44C371.019 52.6234 356.986 80.755 356.986 115.071C356.986 156.459 377.403 188.892 403.473 188.892C429.543 188.892 449.96 156.459 449.96 115.071C449.96 80.755 435.905 52.6013 416.264 44H416.22Z" fill="#2B714F" stroke="white" stroke-width="0.783505" stroke-miterlimit="10"/>
<path d="M424.177 182.064C424.177 171.157 414.889 162.312 403.45 162.312C392.011 162.312 382.723 171.157 382.723 182.064L389.883 212.102H418.879L424.155 182.064H424.177Z" fill="#2B714F" stroke="white" stroke-width="0.783505" stroke-miterlimit="10"/>
<path d="M424.177 182.064C424.177 171.157 414.889 162.312 403.45 162.312C392.011 162.312 382.723 171.157 382.723 182.064L389.883 212.102H418.879L424.155 182.064H424.177Z" fill="#2B714F"/>
<mask id="mask3_810_2042" style="mask-type:luminance" maskUnits="userSpaceOnUse" x="382" y="162" width="43" height="51">
<path d="M424.177 182.063C424.177 171.156 414.889 162.312 403.45 162.312C392.011 162.312 382.723 171.156 382.723 182.063L389.883 212.101H418.879L424.155 182.063H424.177Z" fill="white"/>
</mask>
<g mask="url(#mask3_810_2042)">
<path d="M407.13 170.537H400.192V209.11H407.13V170.537Z" fill="#2B714F" stroke="white" stroke-width="0.783505" stroke-miterlimit="10"/>
<path d="M427.636 158.1H381.415V173.329H427.636V158.1Z" fill="#2B714F" stroke="white" stroke-width="0.783505" stroke-miterlimit="10"/>
</g>
<path d="M424.177 182.064C424.177 171.157 414.889 162.312 403.45 162.312C392.011 162.312 382.723 171.157 382.723 182.064L389.883 212.102H418.879L424.155 182.064H424.177Z" stroke="white" stroke-width="0.783505" stroke-miterlimit="10"/>
<path d="M419.412 133.958C419.412 123.03 412.251 114.184 403.451 114.184C394.65 114.184 387.49 123.03 387.49 133.958C387.49 141.385 390.793 147.836 395.67 151.205C397 152.136 397.864 153.599 397.864 155.24V165.792C397.864 168.718 400.236 171.112 403.184 171.112H403.761C406.687 171.112 409.081 168.74 409.081 165.792V155.24C409.081 153.622 409.924 152.136 411.276 151.205C416.153 147.836 419.456 141.385 419.456 133.958H419.412Z" fill="#2B714F" stroke="white" stroke-width="0.783505" stroke-miterlimit="10"/>
<path d="M394.361 175.214C394.361 182.463 388.487 188.337 381.238 188.337C373.989 188.337 368.114 182.463 368.114 175.214C368.114 167.965 373.989 162.09 381.238 162.09C388.487 162.09 394.361 167.965 394.361 175.214Z" fill="#2B714F" stroke="white" stroke-width="0.783505" stroke-miterlimit="10"/>
<path d="M438.808 175.214C438.808 182.463 432.934 188.337 425.685 188.337C418.436 188.337 412.561 182.463 412.561 175.214C412.561 167.965 418.436 162.09 425.685 162.09C432.934 162.09 438.808 167.965 438.808 175.214Z" fill="#2B714F" stroke="white" stroke-width="0.783505" stroke-miterlimit="10"/>
<path d="M399.083 498.892H390.482L379.265 352.427H399.083V498.892Z" fill="#2B714F" stroke="white" stroke-width="0.783505" stroke-miterlimit="10"/>
<path d="M394.361 488.339L399.216 468.964L403.738 474.462C403.738 474.462 399.216 482.531 399.216 486.41C399.216 490.29 399.859 499.667 399.859 499.667L390.482 499.999L389.839 493.216L394.361 488.361V488.339Z" fill="#2B714F" stroke="white" stroke-width="0.783505" stroke-miterlimit="10"/>
<path d="M399.837 468.942H387.245V471.204H399.837V468.942Z" fill="#2B714F" stroke="white" stroke-width="0.783505" stroke-miterlimit="10"/>
<path d="M407.817 498.892H416.418L427.636 352.427H407.817V498.892Z" fill="#2B714F" stroke="white" stroke-width="0.783505" stroke-miterlimit="10"/>
<path d="M412.539 488.339L407.685 468.964L403.162 474.462C403.162 474.462 407.685 482.531 407.685 486.41C407.685 490.29 407.042 499.667 407.042 499.667L416.419 499.999L417.062 493.216L412.539 488.361V488.339Z" fill="#2B714F" stroke="white" stroke-width="0.783505" stroke-miterlimit="10"/>
<path d="M407.063 471.227H419.655V468.966H407.063V471.227Z" fill="#2B714F" stroke="white" stroke-width="0.783505" stroke-miterlimit="10"/>
<path d="M403.451 153.732C412.266 153.732 419.412 144.879 419.412 133.958C419.412 123.038 412.266 114.184 403.451 114.184C394.636 114.184 387.49 123.038 387.49 133.958C387.49 144.879 394.636 153.732 403.451 153.732Z" fill="#2B714F"/>
<mask id="mask4_810_2042" style="mask-type:luminance" maskUnits="userSpaceOnUse" x="387" y="114" width="33" height="40">
<path d="M403.451 153.731C412.266 153.731 419.412 144.879 419.412 133.958C419.412 123.037 412.266 114.183 403.451 114.183C394.636 114.183 387.49 123.037 387.49 133.958C387.49 144.879 394.636 153.731 403.451 153.731Z" fill="white"/>
</mask>
<g mask="url(#mask4_810_2042)">
<path d="M441.402 94.83H366.452V135.331H441.402V94.83Z" fill="#2B714F" stroke="white" stroke-width="0.783505" stroke-miterlimit="10"/>
<path d="M397.864 135.331V94.83H409.99V135.331" fill="#2B714F"/>
<path d="M397.864 135.331V94.83H409.99V135.331" stroke="white" stroke-width="0.783505" stroke-miterlimit="10"/>
<path d="M392.632 135.331V94.83H415.222V135.331" fill="#2B714F"/>
<path d="M392.632 135.331V94.83H415.222V135.331" stroke="white" stroke-width="0.783505" stroke-miterlimit="10"/>
</g>
<path d="M403.451 153.732C412.266 153.732 419.412 144.879 419.412 133.958C419.412 123.038 412.266 114.184 403.451 114.184C394.636 114.184 387.49 123.038 387.49 133.958C387.49 144.879 394.636 153.732 403.451 153.732Z" stroke="white" stroke-width="0.783505" stroke-miterlimit="10"/>
<path d="M403.96 110.349C411.098 110.349 416.885 104.563 416.885 97.4252C416.885 90.2875 411.098 84.501 403.96 84.501C396.823 84.501 391.036 90.2875 391.036 97.4252C391.036 104.563 396.823 110.349 403.96 110.349Z" fill="#2B714F" stroke="white" stroke-width="0.783505" stroke-miterlimit="10"/>
<path d="M546.901 354.577C546.901 275.347 482.68 211.126 403.45 211.126C324.221 211.126 260 275.347 260 354.577H546.879H546.901Z" fill="#2B714F" stroke="white" stroke-width="0.783505" stroke-miterlimit="10"/>
<path d="M403.451 116.379L387.09 119.815V103.012L403.451 108.62V116.379Z" fill="#2B714F" stroke="white" stroke-width="0.783505" stroke-miterlimit="10"/>
<path d="M403.45 116.379L419.81 119.815V103.012L403.45 108.62V116.379Z" fill="#2B714F" stroke="white" stroke-width="0.783505" stroke-miterlimit="10"/>
<path d="M406.62 109.352H399.903V116.068H406.62V109.352Z" fill="#2B714F" stroke="white" stroke-width="0.783505" stroke-miterlimit="10"/>
<path d="M389.44 139.989C389.44 141.43 388.265 142.605 386.825 142.605C385.384 142.605 384.209 141.43 384.209 139.989C384.209 138.548 385.384 137.373 386.825 137.373C388.265 137.373 389.44 138.548 389.44 139.989Z" fill="#2B714F" stroke="white" stroke-width="0.783505" stroke-miterlimit="10"/>
<path d="M422.693 139.989C422.693 141.43 421.518 142.605 420.077 142.605C418.636 142.605 417.461 141.43 417.461 139.989C417.461 138.548 418.636 137.373 420.077 137.373C421.518 137.373 422.693 138.548 422.693 139.989Z" fill="#2B714F" stroke="white" stroke-width="0.783505" stroke-miterlimit="10"/>
<path d="M398.374 138.703C398.374 140.233 397.132 141.474 395.603 141.474C394.073 141.474 392.832 140.233 392.832 138.703" fill="#2B714F"/>
<path d="M398.374 138.703C398.374 140.233 397.132 141.474 395.603 141.474C394.073 141.474 392.832 140.233 392.832 138.703" stroke="white" stroke-width="0.783505" stroke-linecap="round" stroke-linejoin="round"/>
<path d="M413.515 138.703C413.515 140.233 412.273 141.474 410.744 141.474C409.214 141.474 407.973 140.233 407.973 138.703" fill="#2B714F"/>
<path d="M413.515 138.703C413.515 140.233 412.273 141.474 410.744 141.474C409.214 141.474 407.973 140.233 407.973 138.703" stroke="white" stroke-width="0.783505" stroke-linecap="round" stroke-linejoin="round"/>
<path d="M405.512 147.082C405.512 148.124 404.669 148.944 403.65 148.944C402.63 148.944 401.788 148.102 401.788 147.082C401.788 146.062 402.63 145.22 403.65 145.22C404.669 145.22 405.512 146.062 405.512 147.082Z" fill="#2B714F" stroke="white" stroke-width="0.783505" stroke-miterlimit="10"/>
<path d="M394.118 147.458C395.256 147.458 396.179 146.535 396.179 145.397C396.179 144.258 395.256 143.335 394.118 143.335C392.979 143.335 392.056 144.258 392.056 145.397C392.056 146.535 392.979 147.458 394.118 147.458Z" fill="#2B714F" stroke="white" stroke-width="0.783505" stroke-miterlimit="10"/>
<path d="M412.406 147.458C413.545 147.458 414.468 146.535 414.468 145.397C414.468 144.258 413.545 143.335 412.406 143.335C411.268 143.335 410.344 144.258 410.344 145.397C410.344 146.535 411.268 147.458 412.406 147.458Z" fill="#2B714F" stroke="white" stroke-width="0.783505" stroke-miterlimit="10"/>
<path d="M546.901 354.577C546.901 275.347 482.68 211.126 403.45 211.126C324.221 211.126 260 275.347 260 354.577H546.879H546.901Z" fill="#2B714F"/>
<mask id="mask5_810_2042" style="mask-type:luminance" maskUnits="userSpaceOnUse" x="260" y="211" width="287" height="144">
<path d="M546.901 354.577C546.901 275.347 482.68 211.126 403.45 211.126C324.221 211.126 260 275.347 260 354.577H546.879H546.901Z" fill="white"/>
</mask>
<g mask="url(#mask5_810_2042)">
<path d="M395.75 265.468C417.718 221.562 399.933 168.16 356.027 146.193C312.121 124.226 258.719 142.011 236.752 185.917C214.785 229.823 232.57 283.224 276.476 305.192C320.382 327.159 373.783 309.374 395.75 265.468Z" fill="#2B714F" stroke="white" stroke-width="0.783505" stroke-miterlimit="10"/>
<path d="M578.762 239.774C586.628 191.313 553.72 145.651 505.259 137.784C456.798 129.918 411.136 162.827 403.27 211.287C395.404 259.748 428.312 305.41 476.773 313.276C525.234 321.143 570.896 288.235 578.762 239.774Z" fill="#2B714F" stroke="white" stroke-width="0.783505" stroke-miterlimit="10"/>
<path d="M531.501 290.823C567.837 268.364 579.086 220.702 556.627 184.366C534.168 148.03 486.506 136.781 450.17 159.24C413.834 181.699 402.585 229.361 425.044 265.697C447.503 302.033 495.165 313.282 531.501 290.823Z" fill="#2B714F" stroke="white" stroke-width="0.783505" stroke-miterlimit="10"/>
<path d="M381.208 268.889C405.501 233.753 396.711 185.577 361.575 161.284C326.439 136.991 278.262 145.78 253.969 180.916C229.676 216.052 238.466 264.229 273.602 288.523C308.738 312.816 356.915 304.025 381.208 268.889Z" fill="#2B714F" stroke="white" stroke-width="0.783505" stroke-miterlimit="10"/>
<path d="M555.347 328.328C553.596 340.698 542.999 350.23 530.141 350.23C517.284 350.23 506.688 340.698 504.937 328.328C503.185 340.698 492.589 350.23 479.731 350.23C466.873 350.23 455.967 340.454 454.437 327.818H454.038C452.509 340.432 441.779 350.23 428.744 350.23C415.709 350.23 405.29 340.698 403.539 328.328C401.788 340.698 391.191 350.23 378.334 350.23C365.476 350.23 354.88 340.698 353.129 328.328C351.377 340.698 340.781 350.23 327.923 350.23C315.066 350.23 304.47 340.698 302.718 328.328C300.967 340.698 290.37 350.23 277.513 350.23C267.16 350.23 258.249 344.046 254.258 335.156V372.642H561.798V341.939C558.406 338.237 556.101 333.538 555.347 328.328Z" fill="#2B714F" stroke="white" stroke-width="0.783505" stroke-miterlimit="10"/>
<path d="M552.842 323.894H249.426V326.156H552.842V323.894Z" fill="#2B714F" stroke="white" stroke-width="0.783505" stroke-miterlimit="10"/>
<path d="M552.842 319.129H249.426V321.39H552.842V319.129Z" fill="#2B714F" stroke="white" stroke-width="0.783505" stroke-miterlimit="10"/>
</g>
<path d="M546.901 354.577C546.901 275.347 482.68 211.126 403.45 211.126C324.221 211.126 260 275.347 260 354.577H546.879H546.901Z" stroke="white" stroke-width="0.783505" stroke-miterlimit="10"/>
<path d="M419.721 207.29H388.819V211.879H419.721V207.29Z" fill="#2B714F" stroke="white" stroke-width="0.783505" stroke-miterlimit="10"/>
</g>
</svg>
