<svg width="1921" height="704" viewBox="0 0 1921 704" fill="none" xmlns="http://www.w3.org/2000/svg">
    <mask id="mask0_810_1972" style="mask-type:alpha" maskUnits="userSpaceOnUse" x="0" y="0" width="1921" height="704">
        <rect width="1921" height="704" fill="#D9D9D9"/>
    </mask>
    <g mask="url(#mask0_810_1972)">
        <path d="M320.171 91.3995L285.069 71.1299" stroke="white" stroke-miterlimit="10"/>
        <path d="M313.725 92.2869L312.563 87.0029L317.715 85.3585" stroke="white" stroke-miterlimit="10"/>
        <path d="M291.526 70.2402L292.677 75.5241L287.524 77.1575" stroke="white" stroke-miterlimit="10"/>
        <path d="M302.861 101.528L302.389 61" stroke="white" stroke-miterlimit="10"/>
        <path d="M298.794 96.4303L302.751 92.747L306.796 96.3426" stroke="white" stroke-miterlimit="10"/>
        <path d="M306.446 66.0986L302.488 69.782L298.443 66.1863" stroke="white" stroke-miterlimit="10"/>
        <path d="M320.291 71.3369L284.948 91.19" stroke="white" stroke-miterlimit="10"/>
        <path d="M313.845 70.373L312.628 75.635L317.77 77.3452" stroke="white" stroke-miterlimit="10"/>
        <path d="M291.394 92.1548L292.611 86.8927L287.48 85.1827" stroke="white" stroke-miterlimit="10"/>
        <path d="M1859.85 104.705L1815.15 78.8974" stroke="white" stroke-miterlimit="10"/>
        <path d="M1851.64 105.835L1850.16 99.1076L1856.72 97.0139" stroke="white" stroke-miterlimit="10"/>
        <path d="M1823.37 77.7656L1824.84 84.4932L1818.28 86.5729" stroke="white" stroke-miterlimit="10"/>
        <path d="M1837.81 117.602L1837.21 66" stroke="white" stroke-miterlimit="10"/>
        <path d="M1832.63 111.112L1837.67 106.422L1842.82 111" stroke="white" stroke-miterlimit="10"/>
        <path d="M1842.37 72.4912L1837.33 77.181L1832.18 72.6028" stroke="white" stroke-miterlimit="10"/>
        <path d="M1860 79.1621L1815 104.44" stroke="white" stroke-miterlimit="10"/>
        <path d="M1851.79 77.9337L1850.24 84.6333L1856.79 86.8108" stroke="white" stroke-miterlimit="10"/>
        <path d="M1823.21 105.669L1824.76 98.9693L1818.22 96.792" stroke="white" stroke-miterlimit="10"/>
        <path d="M114.468 625.475L78.1245 604.488" stroke="white" stroke-miterlimit="10"/>
        <path d="M107.795 626.393L106.591 620.922L111.926 619.22" stroke="white" stroke-miterlimit="10"/>
        <path d="M84.81 603.568L86.0019 609.039L80.667 610.73" stroke="white" stroke-miterlimit="10"/>
        <path d="M96.5463 635.962L96.0583 594" stroke="white" stroke-miterlimit="10"/>
        <path d="M92.3354 630.685L96.4331 626.871L100.621 630.594" stroke="white" stroke-miterlimit="10"/>
        <path d="M100.258 599.278L96.1606 603.092L91.9724 599.369" stroke="white" stroke-miterlimit="10"/>
        <path d="M114.594 604.703L78 625.259" stroke="white" stroke-miterlimit="10"/>
        <path d="M107.919 603.704L106.66 609.152L111.983 610.923" stroke="white" stroke-miterlimit="10"/>
        <path d="M84.674 626.258L85.934 620.81L80.6221 619.039" stroke="white" stroke-miterlimit="10"/>
        <path d="M1764.16 585.784L1703.21 550.589" stroke="white" stroke-miterlimit="10"/>
        <path d="M1752.97 587.326L1750.95 578.151L1759.9 575.296" stroke="white" stroke-miterlimit="10"/>
        <path d="M1714.42 549.047L1716.42 558.222L1707.47 561.058" stroke="white" stroke-miterlimit="10"/>
        <path d="M1734.1 603.372L1733.28 533" stroke="white" stroke-miterlimit="10"/>
        <path d="M1727.04 594.522L1733.91 588.126L1740.94 594.369" stroke="white" stroke-miterlimit="10"/>
        <path d="M1740.33 541.851L1733.46 548.246L1726.43 542.003" stroke="white" stroke-miterlimit="10"/>
        <path d="M1764.37 550.95L1703 585.422" stroke="white" stroke-miterlimit="10"/>
        <path d="M1753.18 549.274L1751.06 558.411L1759.99 561.381" stroke="white" stroke-miterlimit="10"/>
        <path d="M1714.19 587.097L1716.31 577.961L1707.4 574.991" stroke="white" stroke-miterlimit="10"/>
        <path d="M102.159 502.784L41.2091 467.589" stroke="white" stroke-miterlimit="10"/>
        <path d="M90.9668 504.326L88.949 495.151L97.8953 492.296" stroke="white" stroke-miterlimit="10"/>
        <path d="M52.421 466.047L54.4197 475.222L45.4729 478.058" stroke="white" stroke-miterlimit="10"/>
        <path d="M72.1028 520.372L71.2845 450" stroke="white" stroke-miterlimit="10"/>
        <path d="M65.0409 511.522L71.9128 505.126L78.9366 511.369" stroke="white" stroke-miterlimit="10"/>
        <path d="M78.3273 458.851L71.4559 465.246L64.4321 459.003" stroke="white" stroke-miterlimit="10"/>
        <path d="M102.369 467.95L41 502.422" stroke="white" stroke-miterlimit="10"/>
        <path d="M91.1761 466.274L89.0635 475.411L97.9908 478.381" stroke="white" stroke-miterlimit="10"/>
        <path d="M52.1921 504.097L54.3052 494.961L45.397 491.991" stroke="white" stroke-miterlimit="10"/>
        <path d="M1892.06 618.754L1846.16 592.247" stroke="white" stroke-width="0.753138" stroke-miterlimit="10"/>
        <path d="M1883.63 619.915L1882.11 613.005L1888.85 610.855" stroke="white" stroke-width="0.753138" stroke-miterlimit="10"/>
        <path d="M1854.6 591.086L1856.11 597.996L1849.37 600.132" stroke="white" stroke-width="0.753138" stroke-miterlimit="10"/>
        <path d="M1869.42 632L1868.81 579" stroke="white" stroke-width="0.753138" stroke-miterlimit="10"/>
        <path d="M1864.11 625.334L1869.28 620.517L1874.57 625.22" stroke="white" stroke-width="0.753138" stroke-miterlimit="10"/>
        <path d="M1874.11 585.666L1868.94 590.483L1863.65 585.781" stroke="white" stroke-width="0.753138" stroke-miterlimit="10"/>
        <path d="M1892.22 592.519L1846 618.481" stroke="white" stroke-width="0.753138" stroke-miterlimit="10"/>
        <path d="M1883.79 591.257L1882.2 598.138L1888.92 600.375" stroke="white" stroke-width="0.753138" stroke-miterlimit="10"/>
        <path d="M1854.43 619.743L1856.02 612.862L1849.31 610.625" stroke="white" stroke-width="0.753138" stroke-miterlimit="10"/>
        <path d="M243.775 678.77L178.225 640.918" stroke="white" stroke-width="1.07547" stroke-miterlimit="10"/>
        <path d="M231.737 680.426L229.567 670.559L239.189 667.488" stroke="white" stroke-width="1.07547" stroke-miterlimit="10"/>
        <path d="M190.283 639.259L192.433 649.126L182.811 652.176" stroke="white" stroke-width="1.07547" stroke-miterlimit="10"/>
        <path d="M211.451 697.683L210.571 622" stroke="white" stroke-width="1.07547" stroke-miterlimit="10"/>
        <path d="M203.855 688.164L211.245 681.286L218.799 688" stroke="white" stroke-width="1.07547" stroke-miterlimit="10"/>
        <path d="M218.144 631.52L210.754 638.398L203.201 631.683" stroke="white" stroke-width="1.07547" stroke-miterlimit="10"/>
        <path d="M244 641.305L178 678.378" stroke="white" stroke-width="1.07547" stroke-miterlimit="10"/>
        <path d="M231.963 639.502L229.691 649.328L239.292 652.522" stroke="white" stroke-width="1.07547" stroke-miterlimit="10"/>
        <path d="M190.036 680.178L192.309 670.352L182.728 667.158" stroke="white" stroke-width="1.07547" stroke-miterlimit="10"/>
        <path d="M730.13 79.7302L698.11 61.2402" stroke="white" stroke-miterlimit="10"/>
        <path d="M724.25 80.5398L723.19 75.7197L727.89 74.2197" stroke="white" stroke-miterlimit="10"/>
        <path d="M704 60.4297L705.05 65.2496L700.35 66.7396" stroke="white" stroke-miterlimit="10"/>
        <path d="M714.34 88.97L713.91 52" stroke="white" stroke-miterlimit="10"/>
        <path d="M710.63 84.3201L714.24 80.9601L717.93 84.24" stroke="white" stroke-miterlimit="10"/>
        <path d="M717.61 56.6504L714 60.0104L710.31 56.7303" stroke="white" stroke-miterlimit="10"/>
        <path d="M730.24 61.4297L698 79.5397" stroke="white" stroke-miterlimit="10"/>
        <path d="M724.36 60.5498L723.25 65.3497L727.94 66.9098" stroke="white" stroke-miterlimit="10"/>
        <path d="M703.88 80.4205L704.99 75.6205L700.31 74.0605" stroke="white" stroke-miterlimit="10"/>
        <path d="M811.819 32.5863L759.181 2.19022" stroke="white" stroke-width="1.5" stroke-miterlimit="10"/>
        <path d="M802.153 33.9172L800.41 25.9934L808.137 23.5275" stroke="white" stroke-width="1.5" stroke-miterlimit="10"/>
        <path d="M768.863 0.857422L770.59 8.78103L762.863 11.2305" stroke="white" stroke-width="1.5" stroke-miterlimit="10"/>
        <path d="M785.861 47.7757L785.155 -13" stroke="white" stroke-width="1.5" stroke-miterlimit="10"/>
        <path d="M779.763 40.131L785.697 34.6074L791.763 39.9993" stroke="white" stroke-width="1.5" stroke-miterlimit="10"/>
        <path d="M791.237 -5.35547L785.303 0.168082L779.237 -5.22403" stroke="white" stroke-width="1.5" stroke-miterlimit="10"/>
        <path d="M812 2.50195L759 32.2733" stroke="white" stroke-width="1.5" stroke-miterlimit="10"/>
        <path d="M802.333 1.05566L800.509 8.94636L808.219 11.511" stroke="white" stroke-width="1.5" stroke-miterlimit="10"/>
        <path d="M768.666 33.7211L770.491 25.8302L762.798 23.2658" stroke="white" stroke-width="1.5" stroke-miterlimit="10"/>
        <path d="M1693.13 213.73L1661.11 195.24" stroke="white" stroke-miterlimit="10"/>
        <path d="M1687.25 214.54L1686.19 209.72L1690.89 208.22" stroke="white" stroke-miterlimit="10"/>
        <path d="M1667 194.43L1668.05 199.25L1663.35 200.74" stroke="white" stroke-miterlimit="10"/>
        <path d="M1677.34 222.97L1676.91 186" stroke="white" stroke-miterlimit="10"/>
        <path d="M1673.63 218.32L1677.24 214.96L1680.93 218.24" stroke="white" stroke-miterlimit="10"/>
        <path d="M1680.61 190.65L1677 194.01L1673.31 190.73" stroke="white" stroke-miterlimit="10"/>
        <path d="M1693.24 195.43L1661 213.54" stroke="white" stroke-miterlimit="10"/>
        <path d="M1687.36 194.55L1686.25 199.35L1690.94 200.91" stroke="white" stroke-miterlimit="10"/>
        <path d="M1666.88 214.421L1667.99 209.62L1663.31 208.061" stroke="white" stroke-miterlimit="10"/>
    </g>
</svg>
