<svg width="1921" height="704" viewBox="0 0 1921 704" fill="none" xmlns="http://www.w3.org/2000/svg">
<path d="M547.5 424L550.631 433.592C551.527 436.338 553.676 438.473 556.408 439.369L566 442.5L556.408 445.631C553.662 446.527 551.527 448.676 550.631 451.408L547.5 461L544.369 451.408C543.473 448.662 541.324 446.527 538.592 445.631L529 442.5L538.592 439.369C541.338 438.473 543.473 436.324 544.369 433.592L547.5 424Z" stroke="#F2F2F2" stroke-miterlimit="10"/>
<path d="M1369.5 132L1372.63 141.592C1373.53 144.338 1375.68 146.473 1378.41 147.369L1388 150.5L1378.41 153.631C1375.66 154.527 1373.53 156.676 1372.63 159.408L1369.5 169L1366.37 159.408C1365.47 156.662 1363.32 154.527 1360.59 153.631L1351 150.5L1360.59 147.369C1363.34 146.473 1365.47 144.324 1366.37 141.592L1369.5 132Z" stroke="#F2F2F2" stroke-miterlimit="10"/>
<path d="M1307 109L1309.37 116.258C1310.05 118.337 1311.67 119.952 1313.74 120.631L1321 123L1313.74 125.369C1311.66 126.048 1310.05 127.674 1309.37 129.742L1307 137L1304.63 129.742C1303.95 127.663 1302.33 126.048 1300.26 125.369L1293 123L1300.26 120.631C1302.34 119.952 1303.95 118.326 1304.63 116.258L1307 109Z" stroke="#F2F2F2" stroke-miterlimit="10"/>
<path d="M1404 458L1408.06 470.443C1409.22 474.006 1412.01 476.775 1415.56 477.939L1428 482L1415.56 486.062C1411.99 487.225 1409.22 490.012 1408.06 493.557L1404 506L1399.94 493.557C1398.78 489.994 1395.99 487.225 1392.44 486.062L1380 482L1392.44 477.939C1396.01 476.775 1398.78 473.988 1399.94 470.443L1404 458Z" stroke="white" stroke-miterlimit="10"/>
</svg>
