<svg width="430" height="400" viewBox="0 0 430 400" fill="none" xmlns="http://www.w3.org/2000/svg">
<mask id="mask0_814_2057" style="mask-type:alpha" maskUnits="userSpaceOnUse" x="0" y="0" width="430" height="400">
<rect width="430" height="400" fill="#D9D9D9"/>
</mask>
<g mask="url(#mask0_814_2057)">
<path d="M386.047 14V17.2959C390.726 20.3237 394.167 28.2264 394.167 37.2229C394.167 48.7402 388.538 58.461 381.874 58.461C375.21 58.461 369.582 48.7329 369.582 37.2229C369.582 28.2264 373.023 20.3237 377.702 17.2959V14C371.277 16.8177 366.692 26.0099 366.692 37.2229C366.692 50.7467 373.363 61.344 381.882 61.344C390.4 61.344 397.071 50.7467 397.071 37.2229C397.071 26.0099 392.479 16.8105 386.061 14H386.047Z" fill="#2B714F" stroke="white" stroke-width="0.5" stroke-miterlimit="10"/>
<path d="M388.647 59.1131C388.647 55.5493 385.612 52.6592 381.874 52.6592C378.137 52.6592 375.101 55.5493 375.101 59.1131L377.441 68.9282H386.916L388.64 59.1131H388.647Z" fill="#2B714F" stroke="white" stroke-width="0.5" stroke-miterlimit="10"/>
<path d="M388.647 59.1131C388.647 55.5493 385.612 52.6592 381.874 52.6592C378.137 52.6592 375.101 55.5493 375.101 59.1131L377.441 68.9282H386.916L388.64 59.1131H388.647Z" fill="#2B714F"/>
<mask id="mask1_814_2057" style="mask-type:luminance" maskUnits="userSpaceOnUse" x="375" y="52" width="14" height="17">
<path d="M388.647 59.1129C388.647 55.5491 385.612 52.6589 381.874 52.6589C378.137 52.6589 375.101 55.5491 375.101 59.1129L377.441 68.928H386.916L388.64 59.1129H388.647Z" fill="white"/>
</mask>
<g mask="url(#mask1_814_2057)">
<path d="M383.076 55.3467H380.809V67.9505H383.076V55.3467Z" fill="#2B714F" stroke="white" stroke-width="0.5" stroke-miterlimit="10"/>
<path d="M389.776 51.2827H374.673V56.259H389.776V51.2827Z" fill="#2B714F" stroke="white" stroke-width="0.5" stroke-miterlimit="10"/>
</g>
<path d="M388.647 59.1131C388.647 55.5493 385.612 52.6592 381.874 52.6592C378.137 52.6592 375.101 55.5493 375.101 59.1131L377.441 68.9282H386.916L388.64 59.1131H388.647Z" stroke="white" stroke-width="0.5" stroke-miterlimit="10"/>
<path d="M387.09 43.3944C387.09 39.8233 384.75 36.9331 381.875 36.9331C378.999 36.9331 376.659 39.8233 376.659 43.3944C376.659 45.821 377.738 47.9289 379.332 49.0299C379.767 49.3341 380.049 49.8122 380.049 50.3482V53.7962C380.049 54.7523 380.824 55.5346 381.788 55.5346H381.976C382.932 55.5346 383.714 54.7595 383.714 53.7962V50.3482C383.714 49.8194 383.99 49.3341 384.432 49.0299C386.025 47.9289 387.104 45.821 387.104 43.3944H387.09Z" fill="#2B714F" stroke="white" stroke-width="0.5" stroke-miterlimit="10"/>
<path d="M378.903 56.8747C378.903 59.2433 376.984 61.1629 374.615 61.1629C372.246 61.1629 370.327 59.2433 370.327 56.8747C370.327 54.506 372.246 52.5864 374.615 52.5864C376.984 52.5864 378.903 54.506 378.903 56.8747Z" fill="#2B714F" stroke="white" stroke-width="0.5" stroke-miterlimit="10"/>
<path d="M393.427 56.8747C393.427 59.2433 391.507 61.1629 389.139 61.1629C386.77 61.1629 384.85 59.2433 384.85 56.8747C384.85 54.506 386.77 52.5864 389.139 52.5864C391.507 52.5864 393.427 54.506 393.427 56.8747Z" fill="#2B714F" stroke="white" stroke-width="0.5" stroke-miterlimit="10"/>
<path d="M380.447 162.638H377.637L373.972 114.78H380.447V162.638Z" fill="#2B714F" stroke="white" stroke-width="0.5" stroke-miterlimit="10"/>
<path d="M378.904 159.19L380.491 152.859L381.968 154.655C381.968 154.655 380.491 157.292 380.491 158.56C380.491 159.827 380.701 162.891 380.701 162.891L377.637 163L377.427 160.783L378.904 159.197V159.19Z" fill="#2B714F" stroke="white" stroke-width="0.5" stroke-miterlimit="10"/>
<path d="M380.692 152.852H376.578V153.591H380.692V152.852Z" fill="#2B714F" stroke="white" stroke-width="0.5" stroke-miterlimit="10"/>
<path d="M383.301 162.638H386.112L389.777 114.78H383.301V162.638Z" fill="#2B714F" stroke="white" stroke-width="0.5" stroke-miterlimit="10"/>
<path d="M384.845 159.19L383.258 152.859L381.781 154.655C381.781 154.655 383.258 157.292 383.258 158.56C383.258 159.827 383.048 162.891 383.048 162.891L386.112 163L386.322 160.783L384.845 159.197V159.19Z" fill="#2B714F" stroke="white" stroke-width="0.5" stroke-miterlimit="10"/>
<path d="M383.056 153.598H387.17V152.86H383.056V153.598Z" fill="#2B714F" stroke="white" stroke-width="0.5" stroke-miterlimit="10"/>
<path d="M381.875 49.8556C384.755 49.8556 387.09 46.9629 387.09 43.3944C387.09 39.8259 384.755 36.9331 381.875 36.9331C378.994 36.9331 376.659 39.8259 376.659 43.3944C376.659 46.9629 378.994 49.8556 381.875 49.8556Z" fill="#2B714F"/>
<mask id="mask2_814_2057" style="mask-type:luminance" maskUnits="userSpaceOnUse" x="376" y="36" width="12" height="14">
<path d="M381.873 49.8554C384.754 49.8554 387.089 46.9626 387.089 43.3942C387.089 39.8257 384.754 36.9329 381.873 36.9329C378.993 36.9329 376.658 39.8257 376.658 43.3942C376.658 46.9626 378.993 49.8554 381.873 49.8554Z" fill="white"/>
</mask>
<g mask="url(#mask2_814_2057)">
<path d="M394.274 30.6089H369.784V43.8429H394.274V30.6089Z" fill="#2B714F" stroke="white" stroke-width="0.5" stroke-miterlimit="10"/>
<path d="M380.048 43.8429V30.6089H384.01V43.8429" fill="#2B714F"/>
<path d="M380.048 43.8429V30.6089H384.01V43.8429" stroke="white" stroke-width="0.5" stroke-miterlimit="10"/>
<path d="M378.337 43.8429V30.6089H385.719V43.8429" fill="#2B714F"/>
<path d="M378.337 43.8429V30.6089H385.719V43.8429" stroke="white" stroke-width="0.5" stroke-miterlimit="10"/>
</g>
<path d="M381.875 49.8556C384.755 49.8556 387.09 46.9629 387.09 43.3944C387.09 39.8259 384.755 36.9331 381.875 36.9331C378.994 36.9331 376.659 39.8259 376.659 43.3944C376.659 46.9629 378.994 49.8556 381.875 49.8556Z" stroke="white" stroke-width="0.5" stroke-miterlimit="10"/>
<path d="M382.041 35.6799C384.373 35.6799 386.264 33.7892 386.264 31.4569C386.264 29.1246 384.373 27.2339 382.041 27.2339C379.708 27.2339 377.818 29.1246 377.818 31.4569C377.818 33.7892 379.708 35.6799 382.041 35.6799Z" fill="#2B714F" stroke="white" stroke-width="0.5" stroke-miterlimit="10"/>
<path d="M428.747 115.482C428.747 89.5938 407.763 68.6091 381.874 68.6091C355.986 68.6091 335.001 89.5938 335.001 115.482H428.74H428.747Z" fill="#2B714F" stroke="white" stroke-width="0.5" stroke-miterlimit="10"/>
<path d="M381.874 37.6503L376.528 38.7731V33.2825L381.874 35.115V37.6503Z" fill="#2B714F" stroke="white" stroke-width="0.5" stroke-miterlimit="10"/>
<path d="M381.873 37.6503L387.219 38.7731V33.2825L381.873 35.115V37.6503Z" fill="#2B714F" stroke="white" stroke-width="0.5" stroke-miterlimit="10"/>
<path d="M382.91 35.354H380.715V37.5487H382.91V35.354Z" fill="#2B714F" stroke="white" stroke-width="0.5" stroke-miterlimit="10"/>
<path d="M377.296 45.3647C377.296 45.8355 376.912 46.2195 376.441 46.2195C375.97 46.2195 375.586 45.8355 375.586 45.3647C375.586 44.8939 375.97 44.51 376.441 44.51C376.912 44.51 377.296 44.8939 377.296 45.3647Z" fill="#2B714F" stroke="white" stroke-width="0.5" stroke-miterlimit="10"/>
<path d="M388.162 45.3647C388.162 45.8355 387.778 46.2195 387.307 46.2195C386.836 46.2195 386.452 45.8355 386.452 45.3647C386.452 44.8939 386.836 44.51 387.307 44.51C387.778 44.51 388.162 44.8939 388.162 45.3647Z" fill="#2B714F" stroke="white" stroke-width="0.5" stroke-miterlimit="10"/>
<path d="M380.215 44.9448C380.215 45.4446 379.809 45.8503 379.309 45.8503C378.81 45.8503 378.404 45.4446 378.404 44.9448" fill="#2B714F"/>
<path d="M380.215 44.9448C380.215 45.4446 379.809 45.8503 379.309 45.8503C378.81 45.8503 378.404 45.4446 378.404 44.9448" stroke="white" stroke-width="0.5" stroke-linecap="round" stroke-linejoin="round"/>
<path d="M385.162 44.9448C385.162 45.4446 384.756 45.8503 384.257 45.8503C383.757 45.8503 383.351 45.4446 383.351 44.9448" fill="#2B714F"/>
<path d="M385.162 44.9448C385.162 45.4446 384.756 45.8503 384.257 45.8503C383.757 45.8503 383.351 45.4446 383.351 44.9448" stroke="white" stroke-width="0.5" stroke-linecap="round" stroke-linejoin="round"/>
<path d="M382.547 47.6824C382.547 48.0229 382.271 48.2909 381.938 48.2909C381.605 48.2909 381.33 48.0156 381.33 47.6824C381.33 47.3492 381.605 47.074 381.938 47.074C382.271 47.074 382.547 47.3492 382.547 47.6824Z" fill="#2B714F" stroke="white" stroke-width="0.5" stroke-miterlimit="10"/>
<path d="M378.824 47.8055C379.196 47.8055 379.497 47.504 379.497 47.1319C379.497 46.7599 379.196 46.4583 378.824 46.4583C378.452 46.4583 378.15 46.7599 378.15 47.1319C378.15 47.504 378.452 47.8055 378.824 47.8055Z" fill="#2B714F" stroke="white" stroke-width="0.5" stroke-miterlimit="10"/>
<path d="M384.801 47.8055C385.173 47.8055 385.475 47.504 385.475 47.1319C385.475 46.7599 385.173 46.4583 384.801 46.4583C384.429 46.4583 384.127 46.7599 384.127 47.1319C384.127 47.504 384.429 47.8055 384.801 47.8055Z" fill="#2B714F" stroke="white" stroke-width="0.5" stroke-miterlimit="10"/>
<path d="M428.747 115.482C428.747 89.5938 407.763 68.6091 381.874 68.6091C355.986 68.6091 335.001 89.5938 335.001 115.482H428.74H428.747Z" fill="#2B714F"/>
<mask id="mask3_814_2057" style="mask-type:luminance" maskUnits="userSpaceOnUse" x="335" y="68" width="94" height="48">
<path d="M428.746 115.482C428.746 89.5938 407.762 68.6091 381.873 68.6091C355.985 68.6091 335 89.5938 335 115.482H428.739H428.746Z" fill="white"/>
</mask>
<g mask="url(#mask3_814_2057)">
<path d="M379.357 86.3659C386.535 72.0193 380.724 54.5702 366.377 47.3922C352.03 40.2142 334.581 46.0256 327.403 60.3722C320.225 74.7188 326.037 92.1678 340.383 99.3457C354.73 106.524 372.179 100.712 379.357 86.3659Z" fill="#2B714F" stroke="white" stroke-width="0.5" stroke-miterlimit="10"/>
<path d="M439.157 77.97C441.728 62.1352 430.975 47.2148 415.14 44.6444C399.305 42.0741 384.385 52.8271 381.814 68.6619C379.244 84.4967 389.997 99.4169 405.832 101.987C421.667 104.558 436.587 93.8048 439.157 77.97Z" fill="#2B714F" stroke="white" stroke-width="0.5" stroke-miterlimit="10"/>
<path d="M423.714 94.6508C435.587 87.3122 439.263 71.7382 431.924 59.8653C424.586 47.9924 409.012 44.3167 397.139 51.6553C385.266 58.9938 381.59 74.5678 388.929 86.4406C396.267 98.3135 411.841 101.989 423.714 94.6508Z" fill="#2B714F" stroke="white" stroke-width="0.5" stroke-miterlimit="10"/>
<path d="M374.605 87.4837C382.543 76.0028 379.671 60.2609 368.19 52.323C356.709 44.3852 340.967 47.2573 333.029 58.7381C325.091 70.219 327.963 85.961 339.444 93.8989C350.925 101.837 366.667 98.9646 374.605 87.4837Z" fill="#2B714F" stroke="white" stroke-width="0.5" stroke-miterlimit="10"/>
<path d="M431.505 106.906C430.933 110.948 427.47 114.062 423.269 114.062C419.068 114.062 415.605 110.948 415.033 106.906C414.461 110.948 410.998 114.062 406.797 114.062C402.596 114.062 399.032 110.868 398.532 106.739H398.402C397.902 110.861 394.396 114.062 390.137 114.062C385.878 114.062 382.473 110.948 381.901 106.906C381.329 110.948 377.866 114.062 373.665 114.062C369.464 114.062 366.001 110.948 365.429 106.906C364.857 110.948 361.394 114.062 357.193 114.062C352.992 114.062 349.53 110.948 348.957 106.906C348.385 110.948 344.923 114.062 340.721 114.062C337.339 114.062 334.427 112.041 333.123 109.137V121.385H433.613V111.353C432.505 110.143 431.751 108.608 431.505 106.906Z" fill="#2B714F" stroke="white" stroke-width="0.5" stroke-miterlimit="10"/>
<path d="M430.688 105.457H331.545V106.196H430.688V105.457Z" fill="#2B714F" stroke="white" stroke-width="0.5" stroke-miterlimit="10"/>
<path d="M430.688 103.9H331.545V104.638H430.688V103.9Z" fill="#2B714F" stroke="white" stroke-width="0.5" stroke-miterlimit="10"/>
</g>
<path d="M428.747 115.482C428.747 89.5938 407.763 68.6091 381.874 68.6091C355.986 68.6091 335.001 89.5938 335.001 115.482H428.74H428.747Z" stroke="white" stroke-width="0.5" stroke-miterlimit="10"/>
<path d="M387.19 67.3557H377.093V68.8552H387.19V67.3557Z" fill="#2B714F" stroke="white" stroke-width="0.5" stroke-miterlimit="10"/>
<path d="M60.6058 60.0955C63.1228 57.5786 63.1228 53.4977 60.6058 50.9808C58.0889 48.4638 54.008 48.4637 51.491 50.9807C48.974 53.4977 48.9741 57.5786 51.4911 60.0955C54.008 62.6125 58.0888 62.6125 60.6058 60.0955Z" fill="#2B714F" stroke="white" stroke-width="0.5" stroke-miterlimit="10"/>
<path d="M60.608 71.1578C63.125 68.6408 63.1249 64.5599 60.6079 62.0429C58.0909 59.526 54.0101 59.526 51.4931 62.043C48.9761 64.5599 48.9761 68.6407 51.4931 71.1577C54.0101 73.6747 58.091 73.6748 60.608 71.1578Z" fill="#2B714F" stroke="white" stroke-width="0.5" stroke-miterlimit="10"/>
<path d="M60.6087 48.9461C63.1257 46.4291 63.1257 42.3483 60.6087 39.8313C58.0917 37.3144 54.0108 37.3143 51.4939 39.8313C48.9769 42.3483 48.9769 46.4291 51.4939 48.9461C54.0109 51.4631 58.0917 51.4631 60.6087 48.9461Z" fill="#2B714F" stroke="white" stroke-width="0.5" stroke-miterlimit="10"/>
<path d="M52.84 41.1785C51.0656 42.9529 51.0656 45.8253 52.84 47.5957C54.6144 49.3701 57.4868 49.3701 59.2573 47.5957C61.0317 45.8213 61.0317 42.9489 59.2573 41.1785C57.4829 39.4041 54.6104 39.4041 52.84 41.1785Z" fill="#2B714F" stroke="white" stroke-width="0.5" stroke-miterlimit="10"/>
<path d="M54.6461 45.7938C55.4219 46.5696 56.6831 46.5696 57.4589 45.7938C58.2347 45.018 58.2347 43.7568 57.4589 42.981C56.6831 42.2052 55.4219 42.2052 54.6461 42.981C53.8703 43.7568 53.8703 45.018 54.6461 45.7938Z" fill="#2B714F" stroke="white" stroke-width="0.5" stroke-miterlimit="10"/>
<path d="M52.84 52.3428C51.0656 54.1172 51.0656 56.9896 52.84 58.76C54.6144 60.5344 57.4868 60.5344 59.2573 58.76C61.0317 56.9856 61.0317 54.1132 59.2573 52.3428C57.4829 50.5684 54.6104 50.5684 52.84 52.3428Z" fill="#2B714F" stroke="white" stroke-width="0.5" stroke-miterlimit="10"/>
<path d="M54.6461 56.9568C55.4219 57.7326 56.6831 57.7326 57.4589 56.9568C58.2347 56.181 58.2347 54.9199 57.4589 54.1441C56.6831 53.3683 55.4219 53.3683 54.6461 54.1441C53.8703 54.9199 53.8703 56.181 54.6461 56.9568Z" fill="#2B714F" stroke="white" stroke-width="0.5" stroke-miterlimit="10"/>
<path d="M52.84 63.5098C51.0656 65.2842 51.0656 68.1567 52.84 69.9271C54.6144 71.7015 57.4868 71.7015 59.2573 69.9271C61.0317 68.1527 61.0317 65.2802 59.2573 63.5098C57.4829 61.7354 54.6104 61.7354 52.84 63.5098Z" fill="#2B714F" stroke="white" stroke-width="0.5" stroke-miterlimit="10"/>
<path d="M54.6461 68.1246C55.4219 68.9005 56.6831 68.9005 57.4589 68.1246C58.2347 67.3488 58.2347 66.0876 57.4589 65.3118C56.6831 64.536 55.4219 64.536 54.6461 65.3118C53.8703 66.0876 53.8703 67.3488 54.6461 68.1246Z" fill="#2B714F" stroke="white" stroke-width="0.5" stroke-miterlimit="10"/>
<path d="M21.9203 60.0951C24.4373 57.5781 24.4373 53.4973 21.9203 50.9803C19.4033 48.4633 15.3224 48.4632 12.8054 50.9802C10.2885 53.4972 10.2885 57.5781 12.8055 60.0951C15.3225 62.612 19.4033 62.612 21.9203 60.0951Z" fill="#2B714F" stroke="white" stroke-width="0.5" stroke-miterlimit="10"/>
<path d="M21.9217 71.1576C24.4387 68.6406 24.4386 64.5597 21.9216 62.0427C19.4046 59.5257 15.3238 59.5257 12.8068 62.0427C10.2899 64.5597 10.2899 68.6405 12.8068 71.1575C15.3238 73.6745 19.4047 73.6745 21.9217 71.1576Z" fill="#2B714F" stroke="white" stroke-width="0.5" stroke-miterlimit="10"/>
<path d="M21.9224 48.9459C24.4394 46.4289 24.4394 42.3481 21.9224 39.8311C19.4054 37.3141 15.3246 37.3141 12.8076 39.831C10.2906 42.348 10.2907 46.4289 12.8076 48.9459C15.3246 51.4629 19.4054 51.4629 21.9224 48.9459Z" fill="#2B714F" stroke="white" stroke-width="0.5" stroke-miterlimit="10"/>
<path d="M14.153 41.1785C12.3786 42.9529 12.3786 45.8253 14.153 47.5957C15.9274 49.3701 18.7999 49.3701 20.5704 47.5957C22.3448 45.8213 22.3448 42.9489 20.5704 41.1785C18.7959 39.4041 15.9234 39.4041 14.153 41.1785Z" fill="#2B714F" stroke="white" stroke-width="0.5" stroke-miterlimit="10"/>
<path d="M15.9591 45.7938C16.7349 46.5696 17.9961 46.5696 18.7719 45.7938C19.5477 45.018 19.5477 43.7568 18.7719 42.981C17.9961 42.2052 16.7349 42.2052 15.9591 42.981C15.1832 43.7568 15.1832 45.018 15.9591 45.7938Z" fill="#2B714F" stroke="white" stroke-width="0.5" stroke-miterlimit="10"/>
<path d="M14.153 52.3428C12.3786 54.1172 12.3786 56.9896 14.153 58.76C15.9274 60.5344 18.7999 60.5344 20.5704 58.76C22.3448 56.9856 22.3448 54.1132 20.5704 52.3428C18.7959 50.5684 15.9234 50.5684 14.153 52.3428Z" fill="#2B714F" stroke="white" stroke-width="0.5" stroke-miterlimit="10"/>
<path d="M15.9591 56.9568C16.7349 57.7326 17.9961 57.7326 18.7719 56.9568C19.5477 56.181 19.5477 54.9199 18.7719 54.1441C17.9961 53.3683 16.7349 53.3683 15.9591 54.1441C15.1832 54.9199 15.1832 56.181 15.9591 56.9568Z" fill="#2B714F" stroke="white" stroke-width="0.5" stroke-miterlimit="10"/>
<path d="M14.153 63.5098C12.3786 65.2842 12.3786 68.1567 14.153 69.9271C15.9274 71.7015 18.7999 71.7015 20.5704 69.9271C22.3448 68.1527 22.3448 65.2802 20.5704 63.5098C18.7959 61.7354 15.9234 61.7354 14.153 63.5098Z" fill="#2B714F" stroke="white" stroke-width="0.5" stroke-miterlimit="10"/>
<path d="M15.9591 68.1246C16.7349 68.9005 17.9961 68.9005 18.7719 68.1246C19.5477 67.3488 19.5477 66.0876 18.7719 65.3118C17.9961 64.536 16.7349 64.536 15.9591 65.3118C15.1832 66.0876 15.1832 67.3488 15.9591 68.1246Z" fill="#2B714F" stroke="white" stroke-width="0.5" stroke-miterlimit="10"/>
<path d="M37.7888 212.715H51.5305L51.5305 132.322H37.7888L37.7888 212.715Z" fill="#2B714F" stroke="white" stroke-width="0.5" stroke-miterlimit="10"/>
<path d="M52.6924 163.052V208.557C59.1893 209.417 64.1465 213.984 64.1465 219.486H52.6924V219.51H36.6274V163.048C40.9719 163.549 43.6891 165.685 44.5007 169.735C45.9608 166.019 48.5628 163.64 52.6924 163.048V163.052Z" fill="#2B714F" stroke="white" stroke-width="0.5" stroke-miterlimit="10"/>
<path d="M34.4275 132.322H20.6859V212.715H34.4275V132.322Z" fill="#2B714F" stroke="white" stroke-width="0.5" stroke-miterlimit="10"/>
<path d="M19.5199 163.052V208.557C13.0231 209.417 8.06586 213.984 8.06586 219.486H19.5199V219.51H35.585V163.048C31.2405 163.549 28.5232 165.685 27.7116 169.735C26.2515 166.019 23.6496 163.64 19.5199 163.048V163.052Z" fill="#2B714F" stroke="white" stroke-width="0.5" stroke-miterlimit="10"/>
<path d="M20.2399 107.739L12.2194 70.7944H61.465L52.7561 107.739H52.8079L56.1856 132.783H16.2893L20.2399 107.739Z" fill="#2B714F" stroke="white" stroke-width="0.5" stroke-miterlimit="10"/>
<path d="M20.2399 107.739L12.2194 70.7944H61.465L52.7561 107.739H52.8079L56.1856 132.783H16.2893L20.2399 107.739Z" fill="#2B714F"/>
<mask id="mask4_814_2057" style="mask-type:luminance" maskUnits="userSpaceOnUse" x="12" y="70" width="50" height="63">
<path d="M20.2412 107.738L12.2206 70.7939H61.4663L52.7573 107.738H52.8091L56.1868 132.783H16.2906L20.2412 107.738Z" fill="white"/>
</mask>
<g mask="url(#mask4_814_2057)">
<path d="M58.5208 133.909C70.8057 133.909 80.7646 119.028 80.7646 100.672C80.7646 82.3164 70.8057 67.436 58.5208 67.436C46.236 67.436 36.2772 82.3164 36.2772 100.672C36.2772 119.028 46.236 133.909 58.5208 133.909Z" fill="#2B714F" stroke="white" stroke-width="0.5" stroke-miterlimit="10"/>
<path d="M58.5208 133.909C70.8057 133.909 80.7646 119.028 80.7646 100.672C80.7646 82.3164 70.8057 67.436 58.5208 67.436C46.236 67.436 36.2772 82.3164 36.2772 100.672C36.2772 119.028 46.236 133.909 58.5208 133.909Z" fill="#2B714F" stroke="white" stroke-width="0.5" stroke-miterlimit="10"/>
<path d="M58.5213 131.311C69.3714 131.311 78.1671 117.593 78.1671 100.672C78.1671 83.7512 69.3714 70.0339 58.5213 70.0339C47.6713 70.0339 38.8756 83.7512 38.8756 100.672C38.8756 117.593 47.6713 131.311 58.5213 131.311Z" fill="#2B714F" stroke="white" stroke-width="0.5" stroke-miterlimit="10"/>
<path d="M14.3836 133.909C26.6684 133.909 36.6273 119.028 36.6273 100.672C36.6273 82.3164 26.6684 67.436 14.3836 67.436C2.0987 67.436 -7.86011 82.3164 -7.86011 100.672C-7.86011 119.028 2.0987 133.909 14.3836 133.909Z" fill="#2B714F" stroke="white" stroke-width="0.5" stroke-miterlimit="10"/>
<path d="M14.3836 133.909C26.6684 133.909 36.6273 119.028 36.6273 100.672C36.6273 82.3164 26.6684 67.436 14.3836 67.436C2.0987 67.436 -7.86011 82.3164 -7.86011 100.672C-7.86011 119.028 2.0987 133.909 14.3836 133.909Z" fill="#2B714F" stroke="white" stroke-width="0.5" stroke-miterlimit="10"/>
<path d="M14.384 131.311C25.2341 131.311 34.0298 117.593 34.0298 100.672C34.0298 83.7512 25.2341 70.0339 14.384 70.0339C3.534 70.0339 -5.26166 83.7512 -5.26166 100.672C-5.26166 117.593 3.534 131.311 14.384 131.311Z" fill="#2B714F" stroke="white" stroke-width="0.5" stroke-miterlimit="10"/>
</g>
<path d="M20.2399 107.739L12.2194 70.7944H61.465L52.7561 107.739H52.8079L56.1856 132.783H16.2893L20.2399 107.739Z" stroke="white" stroke-width="0.5" stroke-miterlimit="10"/>
<path d="M19.432 111.828H53.5397V106.175H19.432V111.828Z" fill="#2B714F" stroke="white" stroke-width="0.5" stroke-miterlimit="10"/>
<path d="M69.0677 124.289V143.211H64.4328L62.4992 134.331L60.9556 138.58H57.8683L60.1838 123.128L69.0677 124.289Z" fill="#2B714F" stroke="white" stroke-width="0.5" stroke-miterlimit="10"/>
<path d="M56.9018 125.061H69.6489V71.1799C69.6489 67.659 66.7963 64.8064 63.2753 64.8064C59.7544 64.8064 56.9018 67.659 56.9018 71.1799V125.061Z" fill="#2B714F" stroke="white" stroke-width="0.5" stroke-miterlimit="10"/>
<path d="M63.5021 77.8959C68.1866 77.8959 71.9842 74.0983 71.9842 69.4138C71.9842 64.7292 68.1866 60.9316 63.5021 60.9316C58.8175 60.9316 55.02 64.7292 55.02 69.4138C55.02 74.0983 58.8175 77.8959 63.5021 77.8959Z" fill="#2B714F" stroke="white" stroke-width="0.5" stroke-miterlimit="10"/>
<path d="M56.1296 127.762H70.8063V111.96C66.8755 112.652 64.5321 114.844 63.1954 117.983C62.2047 114.773 59.6187 112.986 56.1296 111.96V127.762Z" fill="#2B714F" stroke="white" stroke-width="0.5" stroke-miterlimit="10"/>
<path d="M61.3256 74.0687C61.2819 73.826 61.2541 73.5794 61.2541 73.3247C61.2541 70.9337 63.4183 68.9961 63.4183 68.9961C63.4183 68.9961 65.5826 70.9337 65.5826 73.3247C65.5826 73.3844 65.5746 73.4441 65.5746 73.5037C67.1422 71.8885 69.2349 70.7625 71.9999 70.2732V79.4396H54.8407V70.2732C57.55 71.0689 59.79 72.2624 61.3296 74.0687H61.3256Z" fill="#2B714F" stroke="white" stroke-width="0.5" stroke-miterlimit="10"/>
<path d="M61.7414 119.765L63.1649 121.188L64.5884 119.765L63.1649 118.341L61.7414 119.765Z" fill="#2B714F" stroke="white" stroke-width="0.5" stroke-miterlimit="10"/>
<path d="M61.7414 123.27L63.1649 124.694L64.5883 123.27L63.1648 121.847L61.7414 123.27Z" fill="#2B714F" stroke="white" stroke-width="0.5" stroke-miterlimit="10"/>
<path d="M3.93652 124.289V143.211H8.57151L10.501 134.331L12.0447 138.58H15.136L12.8205 123.128L3.93652 124.289Z" fill="#2B714F" stroke="white" stroke-width="0.5" stroke-miterlimit="10"/>
<path d="M16.1021 125.061H3.35504V71.1799C3.35504 67.659 6.20762 64.8064 9.72858 64.8064C13.2495 64.8064 16.1021 67.659 16.1021 71.1799V125.061Z" fill="#2B714F" stroke="white" stroke-width="0.5" stroke-miterlimit="10"/>
<path d="M9.50196 77.8959C14.1865 77.8959 17.9841 74.0983 17.9841 69.4138C17.9841 64.7292 14.1865 60.9316 9.50196 60.9316C4.81741 60.9316 1.0199 64.7292 1.0199 69.4138C1.0199 74.0983 4.81741 77.8959 9.50196 77.8959Z" fill="#2B714F" stroke="white" stroke-width="0.5" stroke-miterlimit="10"/>
<path d="M16.8744 127.762H2.19781V111.96C6.12856 112.652 8.47184 114.844 9.80861 117.983C10.7993 114.773 13.3853 112.986 16.8744 111.96V127.762Z" fill="#2B714F" stroke="white" stroke-width="0.5" stroke-miterlimit="10"/>
<path d="M11.6742 74.0687C11.718 73.826 11.7459 73.5794 11.7459 73.3247C11.7459 70.9337 9.58152 68.9961 9.58152 68.9961C9.58152 68.9961 7.41725 70.9337 7.41725 73.3247C7.41725 73.3844 7.42521 73.4441 7.42521 73.5037C5.85769 71.8885 3.76505 70.7625 1 70.2732V79.4396H18.1592V70.2732C15.4498 71.0689 13.2099 72.2624 11.6702 74.0687H11.6742Z" fill="#2B714F" stroke="white" stroke-width="0.5" stroke-miterlimit="10"/>
<path d="M9.83952 118.345L8.41602 119.768L9.83952 121.192L11.263 119.768L9.83952 118.345Z" fill="#2B714F" stroke="white" stroke-width="0.5" stroke-miterlimit="10"/>
<path d="M9.83952 121.849L8.41602 123.273L9.83945 124.696L11.263 123.273L9.83952 121.849Z" fill="#2B714F" stroke="white" stroke-width="0.5" stroke-miterlimit="10"/>
<path d="M20.1846 74.8088H53.0508L53.0508 35.1434L20.1846 35.1434L20.1846 74.8088Z" fill="#2B714F"/>
<mask id="mask5_814_2057" style="mask-type:luminance" maskUnits="userSpaceOnUse" x="20" y="35" width="34" height="40">
<path d="M20.1848 74.8096H53.051L53.051 35.1441L20.1848 35.1441L20.1848 74.8096Z" fill="white"/>
</mask>
<g mask="url(#mask5_814_2057)">
<path d="M51.1635 63.1242C53.7848 63.1242 55.9099 60.9992 55.9099 58.3779C55.9099 55.7566 53.7848 53.6316 51.1635 53.6316C48.5422 53.6316 46.4172 55.7566 46.4172 58.3779C46.4172 60.9992 48.5422 63.1242 51.1635 63.1242Z" fill="#2B714F" stroke="white" stroke-width="0.5" stroke-miterlimit="10"/>
<path d="M21.8661 63.1242C24.4874 63.1242 26.6124 60.9992 26.6124 58.3779C26.6124 55.7566 24.4874 53.6316 21.8661 53.6316C19.2447 53.6316 17.1198 55.7566 17.1198 58.3779C17.1198 60.9992 19.2447 63.1242 21.8661 63.1242Z" fill="#2B714F" stroke="white" stroke-width="0.5" stroke-miterlimit="10"/>
</g>
<path d="M20.1846 74.8088H53.0508L53.0508 35.1434L20.1846 35.1434L20.1846 74.8088Z" stroke="white" stroke-width="0.5" stroke-miterlimit="10"/>
<path d="M37.0209 42.5154C45.4847 42.5154 52.3459 37.0275 52.3459 30.2577C52.3459 23.488 45.4847 18 37.0209 18C28.557 18 21.6957 23.488 21.6957 30.2577C21.6957 37.0275 28.557 42.5154 37.0209 42.5154Z" fill="#2B714F" stroke="white" stroke-width="0.5" stroke-miterlimit="10"/>
<path d="M29.2353 73.4282H43.9994C44.6872 73.4282 45.2448 72.8706 45.2448 72.1829V63.486C45.2448 62.7983 44.6872 62.2407 43.9994 62.2407H29.2353C28.5476 62.2407 27.99 62.7983 27.99 63.486V72.1829C27.99 72.8706 28.5476 73.4282 29.2353 73.4282Z" fill="#2B714F" stroke="white" stroke-width="0.5" stroke-miterlimit="10"/>
<path d="M34.4627 72.8873C35.4653 72.8873 36.2809 72.0757 36.2809 71.0691V64.6001C36.2809 63.5975 35.4693 62.782 34.4627 62.782C33.4602 62.782 32.6447 63.5935 32.6447 64.6001V71.0691C32.6447 72.0717 33.4562 72.8873 34.4627 72.8873Z" fill="#2B714F" stroke="white" stroke-width="0.5" stroke-miterlimit="10"/>
<path d="M29.8198 72.8875H30.6672C31.4362 72.8875 32.0596 72.264 32.0596 71.495V64.1786C32.0596 63.4096 31.4362 62.7861 30.6672 62.7861H29.8198C29.0508 62.7861 28.4273 63.4096 28.4273 64.1786V71.495C28.4273 72.264 29.0508 72.8875 29.8198 72.8875Z" fill="#2B714F" stroke="white" stroke-width="0.5" stroke-miterlimit="10"/>
<path d="M38.6327 72.8873C39.6352 72.8873 40.4509 72.0757 40.4509 71.0691V64.6001C40.4509 63.5975 39.6392 62.782 38.6327 62.782C37.6301 62.782 36.8146 63.5935 36.8146 64.6001V71.0691C36.8146 72.0717 37.6261 72.8873 38.6327 72.8873Z" fill="#2B714F" stroke="white" stroke-width="0.5" stroke-miterlimit="10"/>
<path d="M42.9093 72.8873C43.9119 72.8873 44.7275 72.0757 44.7275 71.0691V64.6001C44.7275 63.5975 43.9158 62.782 42.9093 62.782C41.9067 62.782 41.0912 63.5935 41.0912 64.6001V71.0691C41.0912 72.0717 41.9027 72.8873 42.9093 72.8873Z" fill="#2B714F" stroke="white" stroke-width="0.5" stroke-miterlimit="10"/>
<path d="M43.5217 51.4075C43.5217 52.6727 44.5481 53.6951 45.8093 53.6951C47.0705 53.6951 48.0969 52.6687 48.0969 51.4075C48.0969 50.1423 47.0705 49.1199 45.8093 49.1199C44.5481 49.1199 43.5217 50.1463 43.5217 51.4075Z" fill="#2B714F" stroke="white" stroke-width="0.5" stroke-miterlimit="10"/>
<path d="M25.1333 51.4075C25.1333 52.6727 26.1597 53.6951 27.4209 53.6951C28.6821 53.6951 29.7086 52.6687 29.7086 51.4075C29.7086 50.1463 28.6821 49.1199 27.4209 49.1199C26.1597 49.1199 25.1333 50.1463 25.1333 51.4075Z" fill="#2B714F" stroke="white" stroke-width="0.5" stroke-miterlimit="10"/>
<path d="M39.2572 58.5809L48.1332 63.0686C48.1332 63.0686 43.5898 66.9636 40.0848 64.7555C38.565 63.8007 36.711 61.899 36.711 61.899C36.711 61.899 35.788 63.1283 33.2059 64.7555C29.7009 66.9636 25.1575 63.0686 25.1575 63.0686L33.9101 58.5928C35.5891 57.7335 37.5743 57.7295 39.2572 58.5809Z" fill="#2B714F" stroke="white" stroke-width="0.5" stroke-miterlimit="10"/>
<path d="M38.907 47.1627H52.6446C52.6446 44.6324 50.5958 42.5835 48.0655 42.5835H38.907V47.1627Z" fill="#2B714F" stroke="white" stroke-width="0.5" stroke-miterlimit="10"/>
<path d="M20.5862 47.1627H34.3239V42.5835H25.1654C22.6351 42.5835 20.5862 44.6324 20.5862 47.1627Z" fill="#2B714F" stroke="white" stroke-width="0.5" stroke-miterlimit="10"/>
<path d="M20.1841 38.6763C20.1841 41.1589 27.7631 45.949 36.8181 45.949C45.8732 45.949 53.301 41.1549 53.301 38.6763C53.301 36.1937 45.8732 34.1846 36.8181 34.1846C27.7631 34.1846 20.1841 36.1937 20.1841 38.6763Z" fill="#2B714F" stroke="white" stroke-width="0.5" stroke-miterlimit="10"/>
<path d="M20.1801 39.0425L53.297 39.0425V31.7022L20.1801 31.7022V39.0425Z" fill="#2B714F" stroke="white" stroke-width="0.5" stroke-miterlimit="10"/>
<path d="M28.0456 29.8004C29.5454 26.1362 32.1752 23.578 36.5834 22.7625C36.5834 22.7625 36.5874 22.7625 36.5913 22.7625C36.5953 22.7625 36.5993 22.7625 36.6033 22.7625V22.7704C40.5181 23.9719 43.4184 26.0566 44.5324 29.8043C46.0362 26.1322 48.67 23.5701 53.0941 22.7625V31.9289H36.6073H36.5834H20.0966V22.7625C24.0233 23.964 26.9316 26.0487 28.0456 29.8043V29.8004Z" fill="#2B714F" stroke="white" stroke-width="0.5" stroke-miterlimit="10"/>
<path d="M20.1846 67.7036H53.0508V66.9039H20.1846V67.7036Z" fill="#2B714F" stroke="white" stroke-width="0.5" stroke-miterlimit="10"/>
<path d="M35.1355 58.2063H38.1035V49.4973H35.1355V58.2063Z" fill="#2B714F" stroke="white" stroke-width="0.5" stroke-miterlimit="10"/>
<path d="M31.4789 110.548V107.735C31.4789 106.315 32.6326 105.161 34.0529 105.161H38.68C40.1003 105.161 41.254 106.315 41.254 107.735V110.548C41.254 111.968 40.1003 113.122 38.68 113.122H34.0529C32.6326 113.122 31.4789 111.968 31.4789 110.548ZM34.0529 106.717C33.492 106.717 33.0345 107.174 33.0345 107.735V110.548C33.0345 111.109 33.492 111.567 34.0529 111.567H38.68C39.2409 111.567 39.6985 111.109 39.6985 110.548V107.735C39.6985 107.174 39.2409 106.717 38.68 106.717H34.0529Z" fill="#2B714F" stroke="white" stroke-width="0.5" stroke-miterlimit="10"/>
<path d="M46.6653 81.4606C46.6653 82.511 47.5166 83.3663 48.5709 83.3663C49.6252 83.3663 50.4766 82.5149 50.4766 81.4606C50.4766 80.4063 49.6252 79.5549 48.5709 79.5549C47.5166 79.5549 46.6653 80.4063 46.6653 81.4606Z" fill="#2B714F" stroke="white" stroke-width="0.5" stroke-miterlimit="10"/>
<path d="M46.6653 91.8449C46.6653 92.8952 47.5166 93.7505 48.5709 93.7505C49.6252 93.7505 50.4766 92.8992 50.4766 91.8449C50.4766 90.7906 49.6252 89.9392 48.5709 89.9392C47.5166 89.9392 46.6653 90.7906 46.6653 91.8449Z" fill="#2B714F" stroke="white" stroke-width="0.5" stroke-miterlimit="10"/>
<path d="M46.6653 102.232C46.6653 103.282 47.5166 104.138 48.5709 104.138C49.6252 104.138 50.4766 103.286 50.4766 102.232C50.4766 101.178 49.6252 100.326 48.5709 100.326C47.5166 100.326 46.6653 101.178 46.6653 102.232Z" fill="#2B714F" stroke="white" stroke-width="0.5" stroke-miterlimit="10"/>
<path d="M22.4316 81.4606C22.4316 82.511 23.2831 83.3663 24.3373 83.3663C25.3916 83.3663 26.2431 82.5149 26.2431 81.4606C26.2431 80.4103 25.3916 79.5549 24.3373 79.5549C23.2831 79.5549 22.4316 80.4063 22.4316 81.4606Z" fill="#2B714F" stroke="white" stroke-width="0.5" stroke-miterlimit="10"/>
<path d="M22.4316 91.8449C22.4316 92.8952 23.2831 93.7505 24.3373 93.7505C25.3916 93.7505 26.2431 92.8992 26.2431 91.8449C26.2431 90.7906 25.3916 89.9392 24.3373 89.9392C23.2831 89.9392 22.4316 90.7906 22.4316 91.8449Z" fill="#2B714F" stroke="white" stroke-width="0.5" stroke-miterlimit="10"/>
<path d="M22.4316 102.232C22.4316 103.282 23.2831 104.138 24.3373 104.138C25.3916 104.138 26.2431 103.286 26.2431 102.232C26.2431 101.178 25.3916 100.326 24.3373 100.326C23.2831 100.326 22.4316 101.178 22.4316 102.232Z" fill="#2B714F" stroke="white" stroke-width="0.5" stroke-miterlimit="10"/>
<path d="M41.9596 173.043L44.469 175.552L46.9784 173.043L44.469 170.534L41.9596 173.043Z" fill="#2B714F" stroke="white" stroke-width="0.5" stroke-miterlimit="10"/>
<path d="M41.9589 179.219L44.4683 181.729L46.9776 179.219L44.4683 176.71L41.9589 179.219Z" fill="#2B714F" stroke="white" stroke-width="0.5" stroke-miterlimit="10"/>
<path d="M41.961 185.856L44.4704 188.366L46.9798 185.856L44.4704 183.347L41.961 185.856Z" fill="#2B714F" stroke="white" stroke-width="0.5" stroke-miterlimit="10"/>
<path d="M41.9618 192.039L44.4711 194.548L46.9805 192.039L44.4711 189.529L41.9618 192.039Z" fill="#2B714F" stroke="white" stroke-width="0.5" stroke-miterlimit="10"/>
<path d="M25.0807 173.041L27.5901 175.551L30.0995 173.041L27.59 170.532L25.0807 173.041Z" fill="#2B714F" stroke="white" stroke-width="0.5" stroke-miterlimit="10"/>
<path d="M25.0843 179.221L27.5937 181.73L30.1031 179.221L27.5936 176.711L25.0843 179.221Z" fill="#2B714F" stroke="white" stroke-width="0.5" stroke-miterlimit="10"/>
<path d="M25.0821 185.858L27.5916 188.368L30.1009 185.859L27.5915 183.349L25.0821 185.858Z" fill="#2B714F" stroke="white" stroke-width="0.5" stroke-miterlimit="10"/>
<path d="M25.0828 192.037L27.5922 194.547L30.1016 192.037L27.5922 189.528L25.0828 192.037Z" fill="#2B714F" stroke="white" stroke-width="0.5" stroke-miterlimit="10"/>
</g>
</svg>
