<svg width="430" height="400" viewBox="0 0 430 400" fill="none" xmlns="http://www.w3.org/2000/svg">
<mask id="mask0_814_2206" style="mask-type:alpha" maskUnits="userSpaceOnUse" x="0" y="0" width="430" height="400">
<rect width="430" height="400" fill="#D9D9D9"/>
</mask>
<g mask="url(#mask0_814_2206)">
<path d="M405.476 395.307L381.894 353.065" stroke="white" stroke-width="0.5" stroke-miterlimit="10"/>
<path d="M398.327 392.275L400.367 386.149L406.654 387.614" fill="#2B714F"/>
<path d="M398.327 392.275L400.367 386.149L406.654 387.614" stroke="white" stroke-width="0.5" stroke-miterlimit="10"/>
<path d="M389.055 356.104L387.003 362.224L380.723 360.747" fill="#2B714F"/>
<path d="M389.055 356.104L387.003 362.224L380.723 360.747" stroke="white" stroke-width="0.5" stroke-miterlimit="10"/>
<path d="M381.54 395.104L405.842 353.275" stroke="white" stroke-width="0.5" stroke-miterlimit="10"/>
<path d="M380.489 387.392L386.798 386.037L388.745 392.196" fill="#2B714F"/>
<path d="M380.489 387.392L386.798 386.037L388.745 392.196" stroke="white" stroke-width="0.5" stroke-miterlimit="10"/>
<path d="M406.882 360.98L400.573 362.335L398.626 356.176" fill="#2B714F"/>
<path d="M406.882 360.98L400.573 362.335L398.626 356.176" stroke="white" stroke-width="0.5" stroke-miterlimit="10"/>
<path d="M417.869 374.819L369.502 373.554" stroke="white" stroke-width="0.5" stroke-miterlimit="10"/>
<path d="M411.851 369.887L407.386 374.536L411.61 379.433" fill="#2B714F"/>
<path d="M411.851 369.887L407.386 374.536L411.61 379.433" stroke="white" stroke-width="0.5" stroke-miterlimit="10"/>
<path d="M375.518 378.484L379.984 373.835L375.771 368.945" fill="#2B714F"/>
<path d="M375.518 378.484L379.984 373.835L375.771 368.945" stroke="white" stroke-width="0.5" stroke-miterlimit="10"/>
<path d="M43.9282 398.239L30.4953 368.599" stroke="white" stroke-width="0.5" stroke-miterlimit="10"/>
<path d="M39.3063 395.804L41.0183 391.812L45.1498 393.148" fill="#2B714F"/>
<path d="M39.3063 395.804L41.0183 391.812L45.1498 393.148" stroke="white" stroke-width="0.5" stroke-miterlimit="10"/>
<path d="M35.1242 371.038L33.4051 375.025L29.2785 373.682" fill="#2B714F"/>
<path d="M35.1242 371.038L33.4051 375.025L29.2785 373.682" stroke="white" stroke-width="0.5" stroke-miterlimit="10"/>
<path d="M27.8943 396.757L46.535 370.086" stroke="white" stroke-width="0.5" stroke-miterlimit="10"/>
<path d="M27.6237 391.529L31.9288 390.975L32.8878 395.213" fill="#2B714F"/>
<path d="M27.6237 391.529L31.9288 390.975L32.8878 395.213" stroke="white" stroke-width="0.5" stroke-miterlimit="10"/>
<path d="M46.7995 375.309L42.4946 375.863L41.5356 371.625" fill="#2B714F"/>
<path d="M46.7995 375.309L42.4946 375.863L41.5356 371.625" stroke="white" stroke-width="0.5" stroke-miterlimit="10"/>
<path d="M53.3866 385.202L21.0376 381.635" stroke="white" stroke-width="0.5" stroke-miterlimit="10"/>
<path d="M49.6295 381.559L46.3753 384.424L48.9313 387.944" fill="#2B714F"/>
<path d="M49.6295 381.559L46.3753 384.424L48.9313 387.944" stroke="white" stroke-width="0.5" stroke-miterlimit="10"/>
<path d="M24.7935 385.279L28.048 382.414L25.4991 378.899" fill="#2B714F"/>
<path d="M24.7935 385.279L28.048 382.414L25.4991 378.899" stroke="white" stroke-width="0.5" stroke-miterlimit="10"/>
<path d="M274.258 29.9111L265.412 10.3906" stroke="white" stroke-width="0.5" stroke-miterlimit="10"/>
<path d="M271.214 28.3077L272.341 25.6787L275.062 26.5583" fill="#2B714F"/>
<path d="M271.214 28.3077L272.341 25.6787L275.062 26.5583" stroke="white" stroke-width="0.5" stroke-miterlimit="10"/>
<path d="M268.459 11.997L267.327 14.6225L264.609 13.7381" fill="#2B714F"/>
<path d="M268.459 11.997L267.327 14.6225L264.609 13.7381" stroke="white" stroke-width="0.5" stroke-miterlimit="10"/>
<path d="M263.698 28.935L275.975 11.3698" stroke="white" stroke-width="0.5" stroke-miterlimit="10"/>
<path d="M263.52 25.4919L266.355 25.1273L266.987 27.9182" fill="#2B714F"/>
<path d="M263.52 25.4919L266.355 25.1273L266.987 27.9182" stroke="white" stroke-width="0.5" stroke-miterlimit="10"/>
<path d="M276.148 14.8099L273.313 15.1747L272.682 12.3836" fill="#2B714F"/>
<path d="M276.148 14.8099L273.313 15.1747L272.682 12.3836" stroke="white" stroke-width="0.5" stroke-miterlimit="10"/>
<path d="M280.487 21.3251L259.183 18.9761" stroke="white" stroke-width="0.5" stroke-miterlimit="10"/>
<path d="M278.013 18.9258L275.87 20.8129L277.553 23.131" fill="#2B714F"/>
<path d="M278.013 18.9258L275.87 20.8129L277.553 23.131" stroke="white" stroke-width="0.5" stroke-miterlimit="10"/>
<path d="M261.657 21.3757L263.8 19.4887L262.121 17.174" fill="#2B714F"/>
<path d="M261.657 21.3757L263.8 19.4887L262.121 17.174" stroke="white" stroke-width="0.5" stroke-miterlimit="10"/>
<path d="M313.856 14.7523L288.739 0.248413" stroke="white" stroke-width="0.5" stroke-miterlimit="10"/>
<path d="M309.244 15.3869L308.412 11.606L312.099 10.4293" fill="#2B714F"/>
<path d="M309.244 15.3869L308.412 11.606L312.099 10.4293" stroke="white" stroke-width="0.5" stroke-miterlimit="10"/>
<path d="M293.359 -0.387329L294.183 3.39354L290.496 4.56231" fill="#2B714F"/>
<path d="M293.359 -0.387329L294.183 3.39354L290.496 4.56231" stroke="white" stroke-width="0.5" stroke-miterlimit="10"/>
<path d="M301.47 22L301.133 -7" stroke="white" stroke-width="0.5" stroke-miterlimit="10"/>
<path d="M298.56 18.3528L301.392 15.7172L304.286 18.29" fill="#2B714F"/>
<path d="M298.56 18.3528L301.392 15.7172L304.286 18.29" stroke="white" stroke-width="0.5" stroke-miterlimit="10"/>
<path d="M313.942 0.396851L288.652 14.6027" stroke="white" stroke-width="0.5" stroke-miterlimit="10"/>
<path d="M309.33 -0.293335L308.459 3.47183L312.138 4.69557" fill="#2B714F"/>
<path d="M309.33 -0.293335L308.459 3.47183L312.138 4.69557" stroke="white" stroke-width="0.5" stroke-miterlimit="10"/>
<path d="M293.264 15.2933L294.135 11.5281L290.464 10.3044" fill="#2B714F"/>
<path d="M293.264 15.2933L294.135 11.5281L290.464 10.3044" stroke="white" stroke-width="0.5" stroke-miterlimit="10"/>
</g>
</svg>
