<svg width="1921" height="704" viewBox="0 0 1921 704" fill="none" xmlns="http://www.w3.org/2000/svg">
<path d="M553.674 61.8191V0" stroke="white" stroke-miterlimit="10"/>
<path d="M570.368 78.6826H536.97C526.837 84.4881 520 95.3974 520 107.912C520 126.509 535.077 141.586 553.674 141.586C572.271 141.586 587.348 126.509 587.348 107.912C587.348 95.3974 580.511 84.4775 570.378 78.6826H570.368Z" fill="#2B714F" stroke="white" stroke-miterlimit="10"/>
<path d="M541.117 66.6887H566.221C568.741 66.6887 570.782 68.7301 570.782 71.2501V78.6824H536.566V71.2501C536.566 68.7301 538.607 66.6887 541.127 66.6887H541.117Z" fill="#2B714F" stroke="white" stroke-miterlimit="10"/>
<path d="M553.121 93.834L555.461 101C556.13 103.053 557.736 104.648 559.778 105.317L566.944 107.657L559.778 109.996C557.725 110.666 556.13 112.271 555.461 114.313L553.121 121.479L550.782 114.313C550.112 112.261 548.507 110.666 546.465 109.996L539.299 107.657L546.465 105.317C548.517 104.648 550.112 103.042 550.782 101L553.121 93.834Z" fill="#2B714F" stroke="white" stroke-miterlimit="10"/>
<path d="M557.406 66.6887V65.3701C557.406 63.2754 555.705 61.5742 553.61 61.5742C551.516 61.5742 549.814 63.2754 549.814 65.3701V66.6887" fill="#2B714F"/>
<path d="M557.406 66.6887V65.3701C557.406 63.2754 555.705 61.5742 553.61 61.5742C551.516 61.5742 549.814 63.2754 549.814 65.3701V66.6887" stroke="white" stroke-miterlimit="10"/>
<path d="M538.98 40.6172L555.354 51.0372L538.98 61.4574C530.76 66.6887 520 60.7875 520 51.0372C520 41.2869 530.76 35.3858 538.98 40.6172Z" fill="#2B714F" stroke="white" stroke-miterlimit="10"/>
<path d="M568.05 40.6172L551.675 51.0372L568.05 61.4574C576.269 66.6887 587.029 60.7875 587.029 51.0372C587.029 41.2869 576.269 35.3858 568.05 40.6172Z" fill="#2B714F" stroke="white" stroke-miterlimit="10"/>
<path d="M559.129 51.0374C559.129 54.1635 556.598 56.6942 553.472 56.6942C550.346 56.6942 547.815 54.1635 547.815 51.0374C547.815 47.9114 550.346 45.3809 553.472 45.3809C556.598 45.3809 559.129 47.9114 559.129 51.0374Z" fill="#2B714F" stroke="white" stroke-miterlimit="10"/>
<path d="M620.204 33.9719V0" stroke="white" stroke-miterlimit="10"/>
<path d="M640.842 61.6596C640.842 75.7268 620.395 87.1359 620.395 87.1359C620.395 87.1359 599.948 75.7268 599.948 61.6596C599.948 47.5924 620.395 36.1835 620.395 36.1835C620.395 36.1835 640.842 47.5924 640.842 61.6596Z" fill="#2B714F" stroke="white" stroke-miterlimit="10"/>
<path d="M618.386 33.9718H622.022C623.575 33.9718 624.829 35.2264 624.829 36.7788V39.32H615.579V36.7788C615.579 35.2264 616.833 33.9718 618.386 33.9718Z" fill="#2B714F" stroke="white" stroke-miterlimit="10"/>
<path d="M620.874 52.3877V73.2067" stroke="white" stroke-miterlimit="10"/>
<path d="M631.304 62.8193H610.485" stroke="white" stroke-miterlimit="10"/>
<path d="M627.083 56.6094L614.685 69.0072" stroke="white" stroke-miterlimit="10"/>
<path d="M627.083 69.0384L614.685 56.6299" stroke="white" stroke-miterlimit="10"/>
<path d="M620.374 100.597L626.785 109.571L620.214 118.779L613.792 109.805L620.374 100.597Z" fill="#2B714F" stroke="white" stroke-miterlimit="10"/>
<path d="M620.002 89.6875L623.681 94.8339L619.906 100.118L616.227 94.9721L620.002 89.6875Z" fill="#2B714F" stroke="white" stroke-miterlimit="10"/>
<path d="M620.002 135.771L622.904 139.832L619.927 144L617.014 139.938L620.002 135.771Z" fill="#2B714F" stroke="white" stroke-miterlimit="10"/>
<path d="M620.023 134.888C624.186 134.888 627.561 131.513 627.561 127.349C627.561 123.186 624.186 119.811 620.023 119.811C615.859 119.811 612.484 123.186 612.484 127.349C612.484 131.513 615.859 134.888 620.023 134.888Z" fill="#2B714F" stroke="white" stroke-miterlimit="10"/>
<path style="mix-blend-mode:screen" d="M631.228 63.4475C631.228 69.5016 626.317 74.4137 620.263 74.4137C614.208 74.4137 609.296 69.5016 609.296 63.4475C609.296 57.3934 614.208 52.4814 620.263 52.4814C626.317 52.4814 631.228 57.3934 631.228 63.4475Z" fill="url(#paint0_radial_810_2032)"/>
<path d="M1665.45 37.5492V0" stroke="white" stroke-miterlimit="10"/>
<path d="M1675.59 47.792H1655.31C1649.15 51.3183 1645 57.9446 1645 65.5461C1645 76.8419 1654.16 85.9999 1665.45 85.9999C1676.75 85.9999 1685.91 76.8419 1685.91 65.5461C1685.91 57.9446 1681.75 51.3118 1675.6 47.792H1675.59Z" fill="#2B714F" stroke="white" stroke-miterlimit="10"/>
<path d="M1657.83 40.507H1673.07C1674.61 40.507 1675.85 41.7469 1675.85 43.2776V47.792H1655.06V43.2776C1655.06 41.7469 1656.3 40.507 1657.83 40.507H1657.83Z" fill="#2B714F" stroke="white" stroke-miterlimit="10"/>
<path d="M1665.12 56.9953L1666.54 61.3483C1666.95 62.5948 1667.92 63.5636 1669.16 63.9704L1673.51 65.3913L1669.16 66.8122C1667.91 67.219 1666.95 68.1942 1666.54 69.4342L1665.12 73.7872L1663.7 69.4342C1663.29 68.1878 1662.32 67.219 1661.08 66.8122L1656.72 65.3913L1661.08 63.9704C1662.32 63.5636 1663.29 62.5883 1663.7 61.3483L1665.12 56.9953Z" fill="#2B714F" stroke="white" stroke-miterlimit="10"/>
<path d="M1667.72 40.507V39.7061C1667.72 38.4338 1666.69 37.4005 1665.42 37.4005C1664.14 37.4005 1663.11 38.4338 1663.11 39.7061V40.507" fill="#2B714F"/>
<path d="M1667.72 40.507V39.7061C1667.72 38.4338 1666.69 37.4005 1665.42 37.4005C1664.14 37.4005 1663.11 38.4338 1663.11 39.7061V40.507" stroke="white" stroke-miterlimit="10"/>
<path d="M1656.53 24.6716L1666.47 31.0008L1656.53 37.33C1651.54 40.5076 1645 36.9231 1645 31.0008C1645 25.0784 1651.54 21.494 1656.53 24.6716Z" fill="#2B714F" stroke="white" stroke-miterlimit="10"/>
<path d="M1674.19 24.6716L1664.24 31.0008L1674.19 37.33C1679.18 40.5076 1685.71 36.9231 1685.71 31.0008C1685.71 25.0784 1679.18 21.494 1674.19 24.6716Z" fill="#2B714F" stroke="white" stroke-miterlimit="10"/>
<path d="M1668.77 31.0004C1668.77 32.8992 1667.23 34.4363 1665.33 34.4363C1663.43 34.4363 1661.9 32.8992 1661.9 31.0004C1661.9 29.1016 1663.43 27.5646 1665.33 27.5646C1667.23 27.5646 1668.77 29.1016 1668.77 31.0004Z" fill="#2B714F" stroke="white" stroke-miterlimit="10"/>
<path d="M1727.91 58L1727.91 0" stroke="white" stroke-miterlimit="10"/>
<path d="M1756.91 96.6223C1756.91 116.157 1728.51 132 1728.51 132C1728.51 132 1700.12 116.157 1700.12 96.6223C1700.12 77.0881 1728.51 61.2451 1728.51 61.2451C1728.51 61.2451 1756.91 77.0881 1756.91 96.6223Z" fill="#2B714F" stroke="white" stroke-miterlimit="10"/>
<path d="M1725.72 58.1758H1730.77C1732.93 58.1758 1734.67 59.9181 1734.67 62.0738V65.6025H1721.83V62.0738C1721.83 59.9181 1723.57 58.1758 1725.72 58.1758Z" fill="#2B714F" stroke="white" stroke-miterlimit="10"/>
<path d="M1729.18 83.748V112.658" stroke="white" stroke-miterlimit="10"/>
<path d="M1743.66 98.2334H1714.75" stroke="white" stroke-miterlimit="10"/>
<path d="M1737.8 89.6094L1720.59 106.826" stroke="white" stroke-miterlimit="10"/>
<path d="M1737.8 106.871L1720.59 89.6396" stroke="white" stroke-miterlimit="10"/>
<circle cx="1187.46" cy="86.0306" r="24.4694" stroke="white"/>
<path d="M1189 48.2859C1188.56 48.4947 1188.13 47.97 1188.43 47.5789L1203.94 27.0189C1206.97 23.0096 1213.13 23.5274 1215.45 27.9768C1217.24 31.4221 1215.81 35.6533 1212.3 37.3076L1189 48.2859Z" stroke="white" stroke-miterlimit="10"/>
<path d="M1187.47 48.2859C1187.92 48.4947 1188.34 47.97 1188.05 47.5789L1172.54 27.0189C1169.51 23.0096 1163.34 23.5274 1161.03 27.9768C1159.24 31.4221 1160.67 35.6533 1164.18 37.3076L1187.47 48.2859Z" stroke="white" stroke-miterlimit="10"/>
<line x1="1188.77" y1="47.4509" x2="1168.35" y2="57.2448" stroke="white"/>
<line x1="1188.49" y1="47.801" x2="1203.42" y2="58.5949" stroke="white"/>
<line x1="1187.32" x2="1187.32" y2="61.0236" stroke="white"/>
<path d="M1187.66 74V97.0095" stroke="white" stroke-miterlimit="10"/>
<path d="M1176.13 85.5273H1199.13" stroke="white" stroke-miterlimit="10"/>
<path d="M1180.79 78.6574L1194.49 92.3705" stroke="white" stroke-miterlimit="10"/>
<path d="M1180.79 92.3981L1194.49 78.6943" stroke="white" stroke-miterlimit="10"/>
<defs>
<radialGradient id="paint0_radial_810_2032" cx="0" cy="0" r="1" gradientUnits="userSpaceOnUse" gradientTransform="translate(620.262 63.4476) scale(10.9662 10.9661)">
<stop stop-color="#ADADAD"/>
<stop offset="0.06" stop-color="#8F8F8F"/>
<stop offset="0.15" stop-color="#696969"/>
<stop offset="0.25" stop-color="#484848"/>
<stop offset="0.35" stop-color="#2D2D2D"/>
<stop offset="0.47" stop-color="#191919"/>
<stop offset="0.59" stop-color="#0B0B0B"/>
<stop offset="0.75" stop-color="#020202"/>
<stop offset="1"/>
</radialGradient>
</defs>
</svg>
