<svg width="1085" height="600" viewBox="0 0 1085 600" fill="none" xmlns="http://www.w3.org/2000/svg">
<g class="2031">
<g class="anim-translate-opacity popup-december-21__decor--9">
<path class="Vector" d="M1024.43 312.418L1009.62 341.599" stroke="#2B714F" stroke-width="1.5" stroke-miterlimit="10"/>
<path class="Vector_2" d="M1002.39 319.62L1031.56 334.42" stroke="#2B714F" stroke-width="1.5" stroke-miterlimit="10"/>
<path class="Vector_3" d="M1012.72 313.904L1021.27 340.113" stroke="#2B714F" stroke-width="1.5" stroke-miterlimit="10"/>
<path class="Vector_4" d="M1003.88 331.33L1030.07 322.769" stroke="#2B714F" stroke-width="1.5" stroke-miterlimit="10"/>
</g>
<g class="anim-translate-opacity popup-december-21__decor--8">
<path class="Vector_5" d="M780.371 51.1934L756.032 99.1621" stroke="#2B714F" stroke-width="1.5" stroke-miterlimit="10"/>
<path class="Vector_6" d="M744.145 63.0322L792.094 87.3613" stroke="#2B714F" stroke-width="1.5" stroke-miterlimit="10"/>
<path class="Vector_7" d="M761.122 53.6357L775.185 96.7194" stroke="#2B714F" stroke-width="1.5" stroke-miterlimit="10"/>
<path class="Vector_8" d="M746.587 82.2825L789.651 68.2093" stroke="#2B714F" stroke-width="1.5" stroke-miterlimit="10"/>
</g>
<g class="anim-translate-opacity popup-december-21__decor--7">
<path class="Vector_9" d="M885.371 207.193L861.032 255.162" stroke="#2B714F" stroke-width="1.5" stroke-miterlimit="10"/>
<path class="Vector_10" d="M849.145 219.032L897.094 243.361" stroke="#2B714F" stroke-width="1.5" stroke-miterlimit="10"/>
<path class="Vector_11" d="M866.122 209.636L880.185 252.719" stroke="#2B714F" stroke-width="1.5" stroke-miterlimit="10"/>
<path class="Vector_12" d="M851.587 238.283L894.651 224.209" stroke="#2B714F" stroke-width="1.5" stroke-miterlimit="10"/>
</g>
<g class="anim-translate-opacity popup-december-21__decor--6">
<path class="Vector_13" d="M316.371 73.1934L292.032 121.162" stroke="#2B714F" stroke-width="1.5" stroke-miterlimit="10"/>
<path class="Vector_14" d="M280.145 85.0322L328.094 109.361" stroke="#2B714F" stroke-width="1.5" stroke-miterlimit="10"/>
<path class="Vector_15" d="M297.122 75.6357L311.185 118.719" stroke="#2B714F" stroke-width="1.5" stroke-miterlimit="10"/>
<path class="Vector_16" d="M282.587 104.283L325.651 90.2093" stroke="#2B714F" stroke-width="1.5" stroke-miterlimit="10"/>
</g>
<g class="anim-translate-opacity popup-december-21__decor--5">
<path class="Vector_17" d="M73.3711 284.193L49.032 332.162" stroke="#2B714F" stroke-width="1.5" stroke-miterlimit="10"/>
<path class="Vector_18" d="M37.145 296.032L85.094 320.361" stroke="#2B714F" stroke-width="1.5" stroke-miterlimit="10"/>
<path class="Vector_19" d="M54.1221 286.636L68.185 329.719" stroke="#2B714F" stroke-width="1.5" stroke-miterlimit="10"/>
<path class="Vector_20" d="M39.5869 315.283L82.6509 301.209" stroke="#2B714F" stroke-width="1.5" stroke-miterlimit="10"/>
</g>
<g class="anim-translate-opacity popup-december-21__decor--4">
<path class="Vector_21" d="M76.4238 58.418L61.6178 87.5985" stroke="#2B714F" stroke-width="1.5" stroke-miterlimit="10"/>
<path class="Vector_22" d="M54.3857 65.6201L83.5543 80.4201" stroke="#2B714F" stroke-width="1.5" stroke-miterlimit="10"/>
<path class="Vector_23" d="M64.7139 59.9043L73.2687 86.1131" stroke="#2B714F" stroke-width="1.5" stroke-miterlimit="10"/>
<path class="Vector_24" d="M55.8719 77.3302L82.0688 68.7691" stroke="#2B714F" stroke-width="1.5" stroke-miterlimit="10"/>
</g>
<g class="anim-translate-opacity popup-december-21__decor--3">
<path class="Vector_25" d="M232.424 312.418L217.618 341.599" stroke="#2B714F" stroke-width="1.5" stroke-miterlimit="10"/>
<path class="Vector_26" d="M210.386 319.62L239.555 334.42" stroke="#2B714F" stroke-width="1.5" stroke-miterlimit="10"/>
<path class="Vector_27" d="M220.714 313.904L229.269 340.113" stroke="#2B714F" stroke-width="1.5" stroke-miterlimit="10"/>
<path class="Vector_28" d="M211.872 331.33L238.069 322.769" stroke="#2B714F" stroke-width="1.5" stroke-miterlimit="10"/>
</g>
<g class="anim-translate-opacity popup-december-21__decor--2">
<path class="Vector_29" d="M182.425 141.418L167.619 170.599" stroke="#2B714F" stroke-width="1.5" stroke-miterlimit="10"/>
<path class="Vector_30" d="M160.387 148.62L189.555 163.42" stroke="#2B714F" stroke-width="1.5" stroke-miterlimit="10"/>
<path class="Vector_31" d="M170.715 142.904L179.27 169.113" stroke="#2B714F" stroke-width="1.5" stroke-miterlimit="10"/>
<path class="Vector_32" d="M161.873 160.33L188.07 151.769" stroke="#2B714F" stroke-width="1.5" stroke-miterlimit="10"/>
</g>
<g class="anim-translate-opacity popup-december-21__decor--1">
<path class="Vector_33" d="M976.426 91.418L961.62 120.599" stroke="#2B714F" stroke-width="1.5" stroke-miterlimit="10"/>
<path class="Vector_34" d="M954.388 98.6201L983.557 113.42" stroke="#2B714F" stroke-width="1.5" stroke-miterlimit="10"/>
<path class="Vector_35" d="M964.716 92.9043L973.271 119.113" stroke="#2B714F" stroke-width="1.5" stroke-miterlimit="10"/>
<path class="Vector_36" d="M955.874 110.33L982.071 101.769" stroke="#2B714F" stroke-width="1.5" stroke-miterlimit="10"/>
</g>
</g>
</svg>
