<svg width="1085" height="600" viewBox="0 0 1085 600" fill="none" xmlns="http://www.w3.org/2000/svg">
<circle cx="940.179" cy="407.241" r="34.4756" transform="rotate(-19.4304 940.179 407.241)" stroke="#2B714F" stroke-width="2"/>
<path d="M924.415 355.938C923.92 356.428 923.1 355.926 923.311 355.263L934.377 320.384C936.536 313.582 945.044 311.361 950.247 316.229C954.276 319.998 954.359 326.344 950.438 330.219L924.415 355.938Z" stroke="#2B714F" stroke-width="2" stroke-miterlimit="10"/>
<path d="M922.367 356.66C923.059 356.731 923.383 355.826 922.803 355.441L892.302 335.226C886.353 331.284 878.334 334.893 877.338 341.947C876.565 347.411 880.482 352.404 885.967 352.961L922.367 356.66Z" stroke="#2B714F" stroke-width="2" stroke-miterlimit="10"/>
<line x1="923.256" y1="357.096" x2="892.566" y2="400.051" stroke="#2B714F" stroke-width="2"/>
<line y1="-1" x2="52.7921" y2="-1" transform="matrix(0.971126 0.238566 0.238566 -0.971126 923.296 356.213)" stroke="#2B714F" stroke-width="2"/>
<line x1="899.605" y1="291.943" x2="928.447" y2="373.705" stroke="#2B714F" stroke-width="2"/>
<path d="M932.799 388.474L948.127 426.339" stroke="#2B714F" stroke-width="2" stroke-miterlimit="10"/>
<path d="M921.508 415.124L959.357 399.802" stroke="#2B714F" stroke-width="2" stroke-miterlimit="10"/>
<path d="M924.595 400.715L956.282 414.153" stroke="#2B714F" stroke-width="2" stroke-miterlimit="10"/>
<path d="M933.749 423.327L947.171 391.647" stroke="#2B714F" stroke-width="2" stroke-miterlimit="10"/>
</svg>
