<svg width="375" height="664" viewBox="0 0 375 664" fill="none" xmlns="http://www.w3.org/2000/svg">
<g clip-path="url(#clip0_449_14656)">
<path d="M133.878 541.764L45.0098 503.03" stroke="#2B714F" stroke-width="1.5" stroke-miterlimit="10"/>
<path d="M118.777 545.592L114.632 533.361L126.43 528.056" stroke="#2B714F" stroke-width="1.5" stroke-miterlimit="10"/>
<path d="M60.1104 499.203L64.2921 511.43L52.4905 516.698" stroke="#2B714F" stroke-width="1.5" stroke-miterlimit="10"/>
<path d="M95.4776 570.494L83.4492 474.296" stroke="#2B714F" stroke-width="1.5" stroke-miterlimit="10"/>
<path d="M84.4724 559.455L92.8508 549.661L103.443 557.08" stroke="#2B714F" stroke-width="1.5" stroke-miterlimit="10"/>
<path d="M94.4495 485.335L86.0337 495.133L75.4785 487.71" stroke="#2B714F" stroke-width="1.5" stroke-miterlimit="10"/>
<path d="M128.776 494.035L50.1522 550.755" stroke="#2B714F" stroke-width="1.5" stroke-miterlimit="10"/>
<path d="M113.215 493.492L111.72 506.325L124.384 509.01" stroke="#2B714F" stroke-width="1.5" stroke-miterlimit="10"/>
<path d="M65.7093 551.299L67.1672 538.471L54.54 535.781" stroke="#2B714F" stroke-width="1.5" stroke-miterlimit="10"/>
<path d="M32.7387 405.552C34.927 403.835 46.6657 396.324 50.8309 397.693C54.9961 399.062 56.2363 409.332 60.4015 410.7C64.5667 412.069 71.657 404.537 75.8222 405.906C79.9874 407.274 81.2275 417.544 85.3927 418.913C89.5579 420.282 96.6482 412.75 100.813 414.118C104.979 415.487 106.219 425.757 110.384 427.126C114.549 428.495 121.64 420.962 125.805 422.331C129.97 423.7 131.21 433.97 135.375 435.338C139.54 436.707 146.631 429.175 150.796 430.544C154.961 431.913 156.201 442.182 160.367 443.551C164.532 444.92 171.622 437.388 175.787 438.757C179.952 440.125 181.193 450.395 185.358 451.764C189.523 453.133 196.613 445.6 200.779 446.969C204.944 448.338 208.973 457.763 210.568 459.931" stroke="#2B714F" stroke-width="1.5" stroke-linecap="round" stroke-linejoin="round"/>
<path d="M-28.9475 585.851C-27.3524 588.019 -23.5422 597.49 -19.377 598.859C-15.2117 600.227 -8.12145 592.695 -3.95624 594.064C0.20897 595.433 1.44911 605.703 5.61432 607.071C9.77953 608.44 16.8698 600.908 21.035 602.277C25.2002 603.645 26.4404 613.915 30.6056 615.284C34.7708 616.653 41.8611 609.121 46.0263 610.489C50.1915 611.858 51.4316 622.128 55.5968 623.497C59.7621 624.866 66.8523 617.333 71.0176 618.702C75.1828 620.071 76.4229 630.341 80.5881 631.709C84.7533 633.078 91.8436 625.546 96.0088 626.915C100.174 628.284 101.414 638.553 105.579 639.922C109.745 641.291 116.835 633.759 121 635.128C125.165 636.496 126.405 646.766 130.571 648.135C134.736 649.504 141.574 642.701 145.228 641.465" stroke="#2B714F" stroke-width="1.5" stroke-linecap="round" stroke-linejoin="round"/>
<path d="M-28.9462 585.852C-32.1497 578.303 -17.2471 580.262 -15.8783 576.097C-14.5096 571.932 -22.0418 564.842 -20.673 560.677C-19.3042 556.511 -9.03441 555.271 -7.66562 551.106C-6.29683 546.941 -13.829 539.85 -12.4603 535.685C-11.0915 531.52 -0.821691 530.28 0.547095 526.115C1.91588 521.949 -5.61633 514.859 -4.24755 510.694C-2.87876 506.529 7.39103 505.289 8.75981 501.123C10.1286 496.958 2.59638 489.868 3.96517 485.703C5.33396 481.537 15.6037 480.297 16.9725 476.132C18.3413 471.967 10.8091 464.877 12.1779 460.711C13.5467 456.546 23.8165 455.306 25.1852 451.141C26.554 446.976 19.0218 439.885 20.3906 435.72C21.7594 431.555 32.0292 430.315 33.398 426.15C34.7668 421.984 27.2345 414.894 28.6033 410.729C29.9721 406.564 33.7145 405.06 36.8765 402.851" stroke="#2B714F" stroke-width="1.5" stroke-linecap="round" stroke-linejoin="round"/>
<path d="M140.18 644.474C142.348 642.879 151.818 639.069 153.187 634.903C154.556 630.738 147.024 623.648 148.392 619.483C149.761 615.317 160.031 614.077 161.4 609.912C162.769 605.747 155.236 598.657 156.605 594.491C157.974 590.326 168.244 589.086 169.612 584.921C170.981 580.756 163.449 573.665 164.818 569.5C166.187 565.335 176.456 564.095 177.825 559.93C179.194 555.764 171.662 548.674 173.031 544.509C174.399 540.344 184.669 539.103 186.038 534.938C187.407 530.773 179.874 523.683 181.243 519.518C182.612 515.352 192.882 514.112 194.251 509.947C195.619 505.782 188.087 498.691 189.456 494.526C190.825 490.361 201.095 489.121 202.463 484.956C203.832 480.79 196.3 473.7 197.669 469.535C199.037 465.37 215.239 467.96 210.57 459.929" stroke="#2B714F" stroke-width="1.5" stroke-linecap="round" stroke-linejoin="round"/>
<path d="M256.119 418.663C256.119 418.663 257.721 417.908 260.926 416.4C261.107 416.315 261.3 416.277 261.504 416.286C261.942 416.322 262.256 416.542 262.446 416.947C262.503 417.068 262.539 417.177 262.554 417.276C262.649 417.725 262.734 418.185 262.808 418.656C263.17 421.169 263.02 423.455 262.358 425.513C261.696 427.551 260.663 428.9 259.259 429.561C259.069 429.65 258.869 429.729 258.659 429.796C257.256 430.214 255.795 429.939 254.276 428.97C252.594 427.878 251.208 426.173 250.117 423.855C249.476 422.494 249.019 421.03 248.745 419.465C248.303 416.937 248.381 414.632 248.98 412.551C249.611 410.381 250.693 408.935 252.227 408.213C252.873 407.909 253.545 407.761 254.243 407.769C255.772 407.797 257.258 408.528 258.702 409.964C258.853 410.083 258.966 410.224 259.044 410.388C259.129 410.569 259.162 410.763 259.145 410.971C259.1 411.413 258.884 411.726 258.496 411.908C258.393 411.957 258.277 411.99 258.149 412.008C257.76 412.055 257.439 411.943 257.186 411.672L257.091 411.606C256.738 411.257 256.365 410.969 255.975 410.743C254.916 410.125 253.934 410.03 253.029 410.455C252.504 410.703 252.065 411.146 251.714 411.785C251.046 412.983 250.764 414.653 250.866 416.793C250.976 418.994 251.448 420.982 252.283 422.757C253.086 424.462 254.031 425.754 255.118 426.632C256.321 427.602 257.453 427.838 258.513 427.339C259.224 426.994 259.778 426.159 260.176 424.835C260.658 423.198 260.777 421.316 260.534 419.189C258.32 420.231 257.163 420.76 257.065 420.774C256.259 421.007 255.693 420.799 255.367 420.153C255.324 420.015 255.304 419.883 255.307 419.755C255.314 419.278 255.584 418.914 256.119 418.663ZM267.047 412.635C267.353 412.502 267.651 412.398 267.943 412.324C269.403 411.984 270.704 412.635 271.845 414.276C271.964 414.105 272.152 413.8 272.41 413.363C272.76 412.767 273.069 412.406 273.336 412.28C273.466 412.219 273.609 412.199 273.766 412.22C274.114 412.267 274.357 412.436 274.495 412.729C274.624 413.026 274.587 413.438 274.383 413.966C274.084 414.696 273.596 415.425 272.918 416.155C273.542 417.503 273.875 418.735 273.917 419.852C273.984 421.673 273.281 422.93 271.808 423.623C271.282 423.871 270.678 423.95 269.994 423.861C268.402 423.632 267.116 422.474 266.134 420.389C265.542 419.132 265.214 417.886 265.15 416.654C265.047 414.713 265.679 413.374 267.047 412.635ZM271.241 417.354C270.901 417.504 270.566 417.62 270.236 417.701C268.986 417.995 267.969 417.737 267.188 416.926C267.305 417.755 267.564 418.596 267.965 419.449C268.16 419.863 268.387 420.245 268.647 420.596C269.444 421.663 270.247 422.006 271.057 421.625C271.324 421.499 271.527 421.304 271.665 421.038C272.067 420.26 271.926 419.032 271.241 417.354ZM270.22 415.688C270.22 415.688 270.281 415.66 270.401 415.603C269.717 414.483 269.127 414.035 268.631 414.257C268.588 414.278 268.547 414.302 268.508 414.331C268.351 414.489 268.323 414.676 268.425 414.892C268.514 415.081 268.631 415.252 268.777 415.405C269.214 415.841 269.695 415.935 270.22 415.688ZM274.965 417.149C274.827 416.856 274.698 416.538 274.579 416.194C274.066 414.636 273.915 413.107 274.125 411.609C274.378 409.775 275.146 408.555 276.43 407.951C276.878 407.74 277.351 407.617 277.85 407.582L275.394 399.646C275.057 398.573 275.18 397.894 275.762 397.61C275.856 397.565 275.955 397.529 276.058 397.502C276.499 397.41 276.874 397.692 277.182 398.347C277.307 398.614 277.836 400.217 278.767 403.157C280.895 409.849 282.108 413.509 282.404 414.138C282.59 414.534 282.846 414.866 283.172 415.133C283.657 415.537 284.101 415.643 284.506 415.453C284.584 415.416 284.662 415.369 284.74 415.311C284.974 415.138 285.255 414.763 285.584 414.188C285.905 413.616 286.207 413.263 286.491 413.129C286.612 413.073 286.744 413.063 286.888 413.1C287.176 413.175 287.383 413.347 287.508 413.614C287.685 414.078 287.57 414.706 287.163 415.497C286.647 416.413 285.954 417.076 285.084 417.485C284.003 417.984 282.934 417.824 281.875 417.007C281.819 417.223 281.744 417.442 281.649 417.666C281.179 418.813 280.517 419.588 279.664 419.989C279.121 420.245 278.587 420.328 278.061 420.238C276.873 420.04 275.841 419.01 274.965 417.149ZM279.979 415.863C280.014 415.646 279.951 415.155 279.791 414.389C279.434 412.736 278.961 411.048 278.371 409.326C278.128 409.325 277.893 409.362 277.666 409.437C277.511 409.51 277.361 409.607 277.218 409.727C276.522 410.328 276.195 411.387 276.235 412.905C276.275 414.265 276.563 415.513 277.098 416.65C277.143 416.745 277.192 416.838 277.245 416.929C277.738 417.865 278.23 418.217 278.721 417.986C278.967 417.86 279.217 417.574 279.47 417.128C279.737 416.645 279.907 416.223 279.979 415.863ZM280.505 402.087C280.513 402.083 280.557 402.062 280.634 402.026C281.125 401.816 281.564 401.62 281.952 401.437L280.641 397.176C280.549 396.893 280.487 396.649 280.454 396.444C280.341 395.802 280.522 395.37 280.996 395.147C281.09 395.102 281.189 395.066 281.292 395.039C281.733 394.947 282.108 395.228 282.416 395.883C282.513 396.09 283.026 397.627 283.955 400.495L285.312 399.856C285.544 399.747 285.769 399.699 285.986 399.712C286.373 399.751 286.649 399.947 286.815 400.301C286.888 400.456 286.918 400.621 286.906 400.795C286.862 401.216 286.616 401.531 286.168 401.742L284.565 402.496C286.326 407.982 287.354 411.039 287.65 411.668C287.837 412.065 288.093 412.396 288.419 412.664C288.904 413.067 289.344 413.176 289.74 412.989C289.835 412.945 289.928 412.885 290.019 412.811C290.224 412.641 290.462 412.287 290.735 411.748C290.999 411.213 291.273 410.879 291.557 410.745C291.678 410.688 291.806 410.659 291.943 410.658C292.326 410.668 292.592 410.832 292.742 411.15C292.927 411.61 292.815 412.232 292.404 413.014C291.892 413.939 291.201 414.607 290.331 415.016C289.474 415.409 288.608 415.38 287.733 414.929C286.829 414.439 286.109 413.625 285.574 412.488C285.456 412.238 284.452 409.222 282.562 403.439L281.399 403.986C281.347 404.011 281.296 404.035 281.244 404.059C280.625 404.288 280.182 404.117 279.914 403.549C279.841 403.394 279.8 403.239 279.791 403.086C279.776 402.651 280.014 402.318 280.505 402.087ZM301.777 407.908C301.777 407.908 300.842 404.97 298.971 399.095C298.919 398.94 298.876 398.792 298.841 398.651C298.647 397.837 298.809 397.308 299.326 397.065C299.421 397.02 299.52 396.984 299.623 396.957C300.063 396.865 300.438 397.147 300.746 397.801C300.791 397.896 300.859 398.064 300.951 398.305C301.016 398.464 301.068 398.586 301.109 398.673C301.11 398.63 301.115 398.585 301.125 398.539C301.231 397.11 301.875 396.118 303.055 395.562C303.477 395.364 303.924 395.306 304.394 395.39C305.102 395.53 305.606 395.919 305.906 396.557C305.955 396.66 306.066 396.908 306.24 397.299C306.645 398.182 306.969 398.882 307.213 399.399C308.04 401.157 308.578 402.166 308.827 402.428C308.886 402.484 308.946 402.546 309.008 402.611C309.558 403.152 310.052 403.319 310.492 403.113C310.569 403.076 310.651 403.027 310.738 402.965C310.972 402.792 311.247 402.415 311.563 401.835C311.879 401.276 312.179 400.929 312.464 400.795C312.576 400.743 312.697 400.722 312.829 400.734C313.169 400.763 313.422 400.954 313.589 401.308C313.736 401.754 313.593 402.39 313.16 403.214C312.619 404.122 311.947 404.764 311.146 405.141C310.5 405.445 309.87 405.526 309.256 405.383C307.985 405.076 306.76 403.669 305.58 401.162C305.495 400.981 305.361 400.686 305.179 400.277C304.998 399.847 304.84 399.49 304.706 399.205C304.272 398.283 303.946 397.858 303.727 397.93C303.693 397.946 303.654 397.975 303.61 398.016C303.204 398.428 303.035 399.702 303.104 401.838C303.166 403.714 303.345 405.213 303.642 406.336L303.793 406.723C303.913 407.045 303.96 407.37 303.936 407.698C303.88 408.229 303.668 408.582 303.297 408.756C303.194 408.805 303.08 408.832 302.957 408.837C302.462 408.838 302.069 408.529 301.777 407.908ZM309.333 392.466C309.888 392.215 310.331 392.417 310.66 393.072C310.721 393.202 310.818 393.498 310.952 393.961C311.563 396.02 312.072 397.481 312.477 398.342C313.353 400.203 314.269 400.919 315.225 400.49C315.423 400.376 315.589 400.214 315.722 400.004C316.28 399.11 316.104 397.172 315.195 394.19C314.958 393.417 314.652 392.577 314.278 391.67C314.246 391.579 314.226 391.526 314.218 391.509C314.198 391.444 314.18 391.384 314.164 391.328C313.996 390.702 314.183 390.262 314.726 390.006C314.83 389.958 314.941 389.926 315.061 389.912C315.513 389.867 315.882 390.147 316.165 390.75C316.198 390.819 316.238 390.915 316.286 391.04C316.323 391.118 316.347 391.169 316.359 391.195L319.537 401.334C320.879 398.797 321.66 397.283 321.881 396.789C322.087 396.356 322.354 396.062 322.681 395.908C322.793 395.855 322.926 395.835 323.079 395.847C323.406 395.893 323.634 396.054 323.764 396.329C323.946 396.738 323.898 397.251 323.619 397.866C323.097 399.016 322.04 401.13 320.446 404.205L321.865 408.731C322.197 409.816 322.095 410.807 321.558 411.701C321.177 412.322 320.698 412.769 320.121 413.041C319.328 413.414 318.486 413.447 317.595 413.14C316.72 412.826 316.109 412.298 315.76 411.557C315.391 410.773 315.285 410.044 315.442 409.371C315.522 409.027 315.759 408.49 316.151 407.758C316.188 407.635 316.855 406.369 318.152 403.959C317.899 403.131 317.66 402.322 317.436 401.533C317.046 402.001 316.523 402.389 315.869 402.697C315.558 402.843 315.247 402.942 314.935 402.995C313.212 403.248 311.678 401.944 310.332 399.083C309.671 397.658 309.171 396.204 308.832 394.722C308.582 393.566 308.749 392.814 309.333 392.466ZM319.55 408.574C319.55 408.574 319.374 408.009 319.021 406.881C318.45 407.97 318.144 408.562 318.104 408.654C317.711 409.429 317.603 410.016 317.781 410.416C317.85 410.563 317.943 410.693 318.059 410.806C318.384 411.117 318.749 411.176 319.154 410.986C319.309 410.913 319.435 410.822 319.531 410.714C319.885 410.347 319.891 409.634 319.55 408.574ZM316.949 384.935C316.958 384.931 317.001 384.911 317.078 384.874C317.569 384.664 318.008 384.468 318.396 384.286L317.085 380.025C316.994 379.741 316.931 379.497 316.898 379.292C316.785 378.65 316.966 378.218 317.44 377.995C317.535 377.95 317.633 377.914 317.736 377.887C318.177 377.795 318.552 378.077 318.86 378.731C318.957 378.938 319.47 380.475 320.399 383.343L321.756 382.704C321.988 382.595 322.213 382.547 322.43 382.56C322.817 382.599 323.093 382.796 323.259 383.149C323.332 383.304 323.363 383.469 323.35 383.643C323.306 384.064 323.06 384.379 322.612 384.59L321.009 385.344C322.77 390.83 323.799 393.887 324.095 394.516C324.281 394.913 324.537 395.245 324.863 395.512C325.348 395.916 325.788 396.024 326.184 395.837C326.279 395.793 326.372 395.733 326.463 395.659C326.668 395.489 326.906 395.135 327.179 394.596C327.443 394.061 327.717 393.727 328.001 393.593C328.122 393.536 328.25 393.508 328.387 393.507C328.77 393.516 329.036 393.68 329.186 393.998C329.371 394.459 329.259 395.08 328.848 395.862C328.336 396.787 327.645 397.455 326.775 397.864C325.918 398.257 325.052 398.228 324.177 397.777C323.273 397.287 322.553 396.473 322.018 395.336C321.9 395.086 320.896 392.07 319.006 386.287L317.843 386.835C317.791 386.859 317.74 386.883 317.688 386.908C317.069 387.136 316.626 386.965 316.358 386.397C316.285 386.242 316.244 386.087 316.235 385.934C316.22 385.499 316.458 385.166 316.949 384.935ZM324.473 380.462C324.25 379.988 324.198 379.497 324.317 378.989C324.479 378.26 324.896 377.738 325.568 377.421C326.033 377.202 326.522 377.146 327.035 377.252C327.764 377.414 328.289 377.835 328.609 378.516C328.832 378.99 328.882 379.487 328.759 380.008C328.592 380.728 328.178 381.245 327.514 381.557C327.04 381.78 326.543 381.83 326.022 381.707C325.302 381.54 324.786 381.126 324.473 380.462ZM325.727 379.872C325.788 380.001 325.877 380.112 325.994 380.204C326.287 380.424 326.597 380.457 326.924 380.303C327.054 380.242 327.164 380.153 327.256 380.036C327.476 379.743 327.509 379.433 327.355 379.106C327.294 378.977 327.206 378.866 327.088 378.774C326.795 378.554 326.485 378.521 326.158 378.675C326.029 378.736 325.918 378.825 325.826 378.942C325.606 379.235 325.573 379.545 325.727 379.872ZM326.696 392.866C326.558 392.573 326.429 392.255 326.31 391.911C325.793 390.344 325.64 388.811 325.85 387.312C326.107 385.487 326.877 384.272 328.161 383.668C328.712 383.408 329.245 383.289 329.76 383.31C329.835 383.022 330.021 382.803 330.319 382.652C330.491 382.571 330.605 382.533 330.66 382.539C331.087 382.485 331.445 382.764 331.733 383.376C331.85 383.626 332.061 384.184 332.364 385.052C333.248 387.625 333.83 389.208 334.11 389.803C334.297 390.199 334.553 390.531 334.879 390.798C335.363 391.202 335.804 391.31 336.2 391.124C336.278 391.087 336.355 391.04 336.433 390.982C336.668 390.809 336.945 390.436 337.265 389.865C337.577 389.297 337.875 388.946 338.159 388.813C338.271 388.76 338.406 388.744 338.563 388.765C338.894 388.819 339.126 388.989 339.26 389.273C339.445 389.733 339.324 390.359 338.896 391.15C338.371 392.07 337.67 392.737 336.791 393.15C335.701 393.653 334.643 393.483 333.615 392.64C333.563 392.844 333.494 393.055 333.408 393.275C332.932 394.477 332.255 395.285 331.376 395.699C330.825 395.958 330.279 396.041 329.741 395.948C328.571 395.72 327.556 394.692 326.696 392.866ZM330.381 385.938C330.381 385.938 330.274 385.631 330.058 385.016C329.824 385.011 329.603 385.057 329.397 385.154C329.242 385.227 329.092 385.324 328.949 385.444C328.253 386.045 327.926 387.104 327.966 388.621C328.006 389.981 328.294 391.23 328.829 392.367C328.849 392.41 328.87 392.453 328.89 392.496C329.41 393.535 329.925 393.935 330.433 393.696C330.696 393.561 330.955 393.261 331.209 392.794C331.471 392.323 331.634 391.92 331.697 391.585C331.732 391.369 331.658 390.82 331.475 389.938C331.126 388.303 330.761 386.969 330.381 385.938ZM345.246 385.256C345.251 385.265 345.259 385.271 345.272 385.276C345.924 385.947 346.479 386.176 346.936 385.961C347.195 385.818 347.536 385.426 347.96 384.784C348.328 384.179 348.646 383.814 348.913 383.688C349.042 383.628 349.192 383.61 349.361 383.635C349.667 383.702 349.872 383.847 349.977 384.071C350.166 384.562 350.057 385.213 349.65 386.025C349.138 386.95 348.451 387.615 347.59 388.021C347.021 388.288 346.461 388.373 345.909 388.275C344.62 388.04 343.479 386.867 342.485 384.756C342.291 384.342 342.103 383.899 341.923 383.426C341.578 382.515 341.394 381.944 341.369 381.714C340.938 382.274 340.417 382.698 339.805 382.986C339.737 383.019 339.629 383.059 339.483 383.106C339.41 383.13 339.356 383.15 339.322 383.166C339.304 383.196 339.232 383.298 339.104 383.474C338.685 384.082 338.299 384.469 337.945 384.635C337.842 384.684 337.722 384.709 337.586 384.71C337.254 384.698 337.027 384.562 336.905 384.304C336.885 384.261 336.869 384.216 336.857 384.169C336.802 383.984 336.851 383.74 337.003 383.437C337.065 383.324 337.108 383.235 337.13 383.172C336.365 382.932 335.777 382.388 335.367 381.539C335.193 381.169 335.121 380.781 335.152 380.377C335.219 379.536 335.666 378.92 336.493 378.531C336.915 378.332 337.369 378.256 337.853 378.301C338.656 378.397 339.217 378.785 339.538 379.466C339.728 379.871 339.84 380.265 339.874 380.649C339.975 380.528 340.132 380.281 340.345 379.907C340.789 379.15 341.145 378.709 341.412 378.584C341.769 378.426 342.117 378.394 342.455 378.487C342.637 378.538 342.765 378.631 342.839 378.765C342.863 378.816 342.886 378.9 342.909 379.016C342.92 379.105 342.933 379.167 342.95 379.202C343.215 380.929 343.604 382.335 344.114 383.421C344.337 383.895 344.645 384.403 345.037 384.944C345.135 385.087 345.205 385.191 345.246 385.256ZM337.988 380.4C337.96 380.34 337.921 380.279 337.871 380.218C337.692 380.04 337.482 380.007 337.241 380.12C337.189 380.145 337.138 380.18 337.085 380.225C336.881 380.416 336.837 380.637 336.955 380.887C337.154 381.288 337.515 381.496 338.039 381.513C338.163 381.128 338.146 380.757 337.988 380.4Z" fill="#2B714F"/>
<path d="M214.273 393.018C214.59 390.894 217.191 380.457 220.252 379.016C223.314 377.576 229.455 382.677 232.517 381.237C235.579 379.796 235.561 371.812 238.623 370.371C241.685 368.93 247.826 374.032 250.888 372.591C253.949 371.15 253.932 363.166 256.994 361.725C260.055 360.284 266.196 365.386 269.258 363.945C272.32 362.504 272.302 354.52 275.364 353.079C278.426 351.638 284.567 356.74 287.629 355.299C290.691 353.858 290.673 345.874 293.735 344.433C296.796 342.992 302.938 348.094 305.999 346.653C309.061 345.212 309.044 337.228 312.105 335.787C315.167 334.346 321.308 339.448 324.37 338.007C327.432 336.566 327.414 328.582 330.476 327.141C333.538 325.7 340.795 328.849 342.839 329.219" stroke="#2B714F" stroke-width="1.5" stroke-linecap="round" stroke-linejoin="round"/>
<path d="M275.282 526.845C277.327 527.215 284.485 530.506 287.547 529.065C290.609 527.624 290.591 519.64 293.653 518.199C296.715 516.758 302.856 521.86 305.918 520.419C308.979 518.978 308.962 510.994 312.024 509.553C315.085 508.112 321.226 513.214 324.288 511.773C327.35 510.332 327.332 502.348 330.394 500.907C333.456 499.466 339.597 504.568 342.659 503.127C345.721 501.686 345.703 493.702 348.765 492.261C351.827 490.82 357.968 495.922 361.029 494.481C364.091 493.04 364.074 485.056 367.135 483.615C370.197 482.174 376.338 487.276 379.4 485.835C382.462 484.394 382.444 476.411 385.506 474.97C388.568 473.529 394.709 478.631 397.771 477.19C400.832 475.749 401.06 468.307 402.454 465.677" stroke="#2B714F" stroke-width="1.5" stroke-linecap="round" stroke-linejoin="round"/>
<path d="M275.282 526.844C269.483 524.309 278.88 517.506 277.439 514.444C275.998 511.382 268.014 511.4 266.573 508.338C265.132 505.276 270.234 499.135 268.793 496.074C267.352 493.012 259.368 493.029 257.927 489.968C256.486 486.906 261.588 480.765 260.147 477.703C258.706 474.641 250.722 474.659 249.281 471.597C247.84 468.535 252.942 462.394 251.501 459.332C250.06 456.271 242.076 456.288 240.635 453.227C239.194 450.165 244.296 444.024 242.855 440.962C241.414 437.9 233.43 437.918 231.989 434.856C230.548 431.794 235.65 425.653 234.209 422.591C232.768 419.53 224.785 419.547 223.344 416.485C221.903 413.424 227.005 407.283 225.564 404.221C224.123 401.159 216.139 401.177 214.698 398.115C213.257 395.053 214.558 392.225 215.16 389.31" stroke="#2B714F" stroke-width="1.5" stroke-linecap="round" stroke-linejoin="round"/>
<path d="M401.219 470.042C401.589 467.998 404.88 460.839 403.439 457.777C401.998 454.715 394.014 454.733 392.573 451.671C391.132 448.609 396.234 442.468 394.793 439.407C393.352 436.345 385.368 436.362 383.927 433.301C382.486 430.239 387.588 424.098 386.147 421.036C384.706 417.974 376.722 417.992 375.281 414.93C373.84 411.868 378.942 405.727 377.501 402.665C376.06 399.604 368.076 399.621 366.635 396.559C365.194 393.498 370.296 387.357 368.855 384.295C367.414 381.233 359.43 381.251 357.99 378.189C356.549 375.127 361.651 368.986 360.21 365.924C358.769 362.863 350.785 362.88 349.344 359.818C347.903 356.757 353.005 350.615 351.564 347.554C350.123 344.492 342.139 344.51 340.698 341.448C339.257 338.386 349.717 331.248 342.84 329.22" stroke="#2B714F" stroke-width="1.5" stroke-linecap="round" stroke-linejoin="round"/>
<line x1="263.868" y1="455.053" x2="359.762" y2="409.922" stroke="#2B714F" stroke-width="1.5"/>
<line x1="269.445" y1="466.905" x2="365.339" y2="421.774" stroke="#2B714F" stroke-width="1.5"/>
<line x1="275.025" y1="478.757" x2="370.919" y2="433.626" stroke="#2B714F" stroke-width="1.5"/>
<path fill-rule="evenodd" clip-rule="evenodd" d="M241.49 -15.9806C241.595 -16.0481 241.702 -16.1131 241.81 -16.1758L241.818 -16.1813C242.405 -16.5587 244.147 -17.487 245.975 -18.2207C246.891 -18.5885 247.857 -18.9189 248.729 -19.1041C249.557 -19.2799 250.468 -19.3644 251.164 -19.0604C251.867 -18.754 252.323 -18.1149 252.647 -17.4973C252.973 -16.8764 253.235 -16.1375 253.475 -15.4623L253.475 -15.4622L253.485 -15.4326C253.737 -14.7224 253.966 -14.0804 254.238 -13.5642C254.515 -13.0357 254.769 -12.776 254.993 -12.6783C255.216 -12.5806 255.579 -12.5713 256.156 -12.7271C256.718 -12.8792 257.345 -13.1476 258.037 -13.4459L258.066 -13.4583C258.724 -13.7419 259.444 -14.0522 260.121 -14.2352C260.794 -14.4173 261.573 -14.5171 262.275 -14.2107C262.977 -13.9042 263.434 -13.2651 263.758 -12.6475C264.084 -12.0267 264.346 -11.2878 264.586 -10.6125L264.596 -10.5829C264.848 -9.87266 265.077 -9.23066 265.348 -8.71451C265.626 -8.18599 265.879 -7.9263 266.103 -7.82859C266.327 -7.73087 266.69 -7.72154 267.266 -7.87733C267.829 -8.02947 268.456 -8.2979 269.148 -8.59615L269.177 -8.60861C269.834 -8.89219 270.554 -9.20249 271.231 -9.3855C271.905 -9.56755 272.684 -9.66739 273.386 -9.36096C274.088 -9.05453 274.544 -8.41542 274.869 -7.79782C275.195 -7.17694 275.457 -6.43806 275.696 -5.7628L275.707 -5.73317C275.959 -5.02294 276.188 -4.38094 276.459 -3.86479C276.737 -3.33627 276.99 -3.07657 277.214 -2.97886C277.438 -2.88115 277.801 -2.87181 278.377 -3.0276C278.94 -3.17975 279.566 -3.44818 280.258 -3.74643L280.287 -3.75887C280.945 -4.04246 281.665 -4.35276 282.342 -4.53577C283.016 -4.71782 283.795 -4.81767 284.497 -4.51123C285.199 -4.2048 285.655 -3.5657 285.979 -2.94809C286.306 -2.32721 286.568 -1.58833 286.807 -0.913072L286.817 -0.883447C287.069 -0.173216 287.299 0.468786 287.57 0.984937C287.847 1.51346 288.101 1.77315 288.325 1.87086C288.548 1.96857 288.911 1.97791 289.488 1.82212C290.05 1.66998 290.677 1.40155 291.369 1.10329L291.398 1.09083C292.056 0.807252 292.776 0.496961 293.453 0.31395C294.126 0.131901 294.905 0.0320561 295.607 0.338488C296.309 0.644922 296.766 1.28402 297.09 1.90163C297.416 2.52251 297.678 3.26139 297.918 3.93665L297.928 3.96628C298.18 4.67651 298.409 5.31851 298.68 5.83466C298.958 6.36318 299.211 6.62288 299.435 6.72059C299.659 6.8183 300.022 6.82763 300.598 6.67184C301.161 6.5197 301.788 6.25127 302.48 5.95302L302.509 5.94058L302.509 5.94053C303.167 5.65696 303.887 5.34668 304.563 5.16368C305.237 4.98163 306.016 4.88178 306.718 5.18821C307.42 5.49465 307.876 6.13375 308.201 6.75136C308.527 7.37222 308.789 8.11107 309.028 8.78632L309.039 8.816C309.291 9.52623 309.52 10.1682 309.791 10.6844C310.069 11.2129 310.322 11.4726 310.546 11.5703C310.77 11.668 311.133 11.6774 311.709 11.5216C312.272 11.3694 312.898 11.101 313.59 10.8027L313.619 10.7903L313.619 10.7903C314.277 10.5067 314.997 10.1964 315.674 10.0134C316.348 9.83135 317.127 9.7315 317.829 10.0379C318.473 10.3194 319.007 10.8801 319.439 11.4682C319.881 12.0709 320.277 12.7863 320.621 13.4825C320.959 14.1649 321.258 14.8526 321.507 15.4259L321.524 15.4665C321.778 16.0505 321.96 16.463 322.087 16.6834C322.107 16.7141 322.125 16.7465 322.141 16.7807C322.397 17.335 322.529 17.8676 322.483 18.3696C322.434 18.8974 322.193 19.3204 321.84 19.6355C321.505 19.9338 321.088 20.1205 320.682 20.2482C320.27 20.3774 319.818 20.4614 319.375 20.5249C319.008 20.5776 318.626 20.619 318.262 20.6584L318.04 20.6826C317.603 20.7306 317.201 20.7788 316.846 20.8451C316.485 20.9123 316.216 20.9907 316.031 21.0808C315.847 21.1701 315.816 21.2358 315.812 21.2439C315.715 21.4677 315.705 21.8305 315.861 22.4069C316.013 22.9697 316.282 23.5963 316.58 24.2883L316.592 24.3171L316.592 24.3173C316.876 24.9752 317.186 25.6951 317.369 26.372C317.551 27.0455 317.651 27.8245 317.345 28.5265C317.038 29.2286 316.399 29.685 315.782 30.0094C315.161 30.3355 314.422 30.5975 313.747 30.8369L313.746 30.8369L313.717 30.8474C313.007 31.0992 312.365 31.3284 311.848 31.5996C311.32 31.8772 311.06 32.1307 310.963 32.3546C310.865 32.5784 310.856 32.9412 311.011 33.5176C311.163 34.0804 311.432 34.707 311.73 35.399L311.743 35.4278L311.743 35.428C312.026 36.0859 312.336 36.8058 312.519 37.4827C312.702 38.1562 312.801 38.9352 312.495 39.6372C312.189 40.3393 311.549 40.7957 310.932 41.1201C310.311 41.4462 309.572 41.7082 308.897 41.9476L308.867 41.9581C308.157 42.2099 307.515 42.4392 306.999 42.7103C306.47 42.9879 306.211 43.2414 306.113 43.4653C306.015 43.6891 306.006 44.0519 306.162 44.6283C306.314 45.1911 306.582 45.8177 306.88 46.5097L306.893 46.5386C307.176 47.1965 307.487 47.9164 307.67 48.5935C307.852 49.2669 307.952 50.0459 307.645 50.7479C307.339 51.45 306.7 51.9064 306.082 52.2308C305.461 52.5569 304.722 52.8189 304.047 53.0583L304.017 53.0688C303.307 53.3206 302.665 53.5499 302.149 53.821C301.621 54.0986 301.361 54.3521 301.263 54.576C301.165 54.7998 301.156 55.1626 301.312 55.739C301.464 56.3018 301.732 56.9284 302.031 57.6204L302.043 57.6493C302.327 58.3073 302.637 59.0271 302.82 59.7042C303.002 60.3776 303.102 61.1566 302.795 61.8586C302.489 62.5607 301.85 63.0171 301.232 63.3415C300.611 63.6676 299.873 63.9296 299.197 64.169L299.168 64.1795C298.457 64.4313 297.815 64.6606 297.299 64.9317C296.771 65.2093 296.511 65.4628 296.413 65.6867C296.316 65.9105 296.306 66.2734 296.462 66.8497C296.614 67.4125 296.883 68.0391 297.181 68.7311L297.193 68.76C297.477 69.4179 297.787 70.1378 297.97 70.8149C298.152 71.4883 298.252 72.2673 297.946 72.9693C297.639 73.6714 297 74.1278 296.383 74.4522C295.762 74.7783 295.023 75.0403 294.348 75.2797L294.318 75.2902C293.608 75.542 292.966 75.7713 292.45 76.0424C291.921 76.32 291.661 76.5735 291.564 76.7974C291.466 77.0212 291.457 77.3841 291.612 77.9604C291.765 78.5232 292.033 79.1498 292.331 79.8418L292.344 79.8707L292.344 79.8707C292.627 80.5286 292.938 81.2485 293.121 81.9256C293.303 82.599 293.402 83.378 293.096 84.08C292.79 84.7821 292.151 85.2385 291.533 85.5629C290.912 85.889 290.173 86.151 289.498 86.3904L289.468 86.4009C288.758 86.6527 288.116 86.882 287.6 87.1531C287.071 87.4307 286.812 87.6842 286.714 87.9081C286.616 88.1319 286.607 88.4948 286.763 89.0711C286.915 89.6339 287.183 90.2605 287.482 90.9525L287.494 90.9814L287.494 90.9814C287.778 91.6394 288.088 92.3593 288.271 93.0363C288.453 93.7097 288.553 94.4887 288.246 95.1907C287.963 95.8395 287.398 96.3673 286.807 96.7902C286.201 97.2236 285.483 97.6066 284.785 97.9375C284.125 98.2506 283.459 98.5282 282.899 98.762L282.899 98.7621L282.798 98.804C282.188 99.0586 281.77 99.2376 281.563 99.3619C281.498 99.4007 281.43 99.4286 281.36 99.4461C281.074 99.5995 280.782 99.7543 280.5 99.8961C279.834 100.231 279.12 100.55 278.432 100.728C277.754 100.903 276.997 100.97 276.31 100.67C275.608 100.363 275.152 99.7243 274.827 99.1067C274.501 98.4859 274.239 97.7471 274 97.0718L274 97.0718L274 97.0717L274 97.0717L273.989 97.0421C273.738 96.3319 273.508 95.6899 273.237 95.1737C272.96 94.6452 272.706 94.3855 272.482 94.2878C272.258 94.1901 271.896 94.1807 271.319 94.3365C270.756 94.4887 270.13 94.7571 269.438 95.0553L269.409 95.0678L269.409 95.0678L269.409 95.0678L269.409 95.0678C268.751 95.3514 268.031 95.6617 267.354 95.8447C266.681 96.0267 265.902 96.1266 265.2 95.8201C264.498 95.5137 264.041 94.8746 263.717 94.257C263.391 93.6361 263.129 92.8973 262.889 92.222L262.889 92.222L262.879 92.1924C262.627 91.4821 262.398 90.8401 262.127 90.324C261.849 89.7955 261.595 89.5358 261.372 89.438C261.148 89.3403 260.785 89.331 260.209 89.4868C259.646 89.6389 259.019 89.9074 258.327 90.2056L258.298 90.2181L258.298 90.2181L258.298 90.2182L258.298 90.2182C257.64 90.5017 256.92 90.812 256.243 90.995C255.57 91.177 254.791 91.2769 254.089 90.9704C253.387 90.664 252.93 90.0249 252.606 89.4073C252.28 88.7864 252.018 88.0476 251.779 87.3723L251.768 87.3426C251.516 86.6324 251.287 85.9904 251.016 85.4743C250.738 84.9457 250.485 84.686 250.261 84.5883C250.037 84.4906 249.674 84.4813 249.098 84.6371C248.535 84.7892 247.908 85.0576 247.216 85.3559L247.188 85.3684C246.53 85.6519 245.81 85.9622 245.133 86.1452C244.459 86.3273 243.68 86.4271 242.978 86.1207C242.276 85.8143 241.82 85.1752 241.495 84.5576C241.169 83.9368 240.907 83.1981 240.668 82.5229L240.668 82.5228L240.668 82.5226L240.668 82.5225L240.657 82.4929C240.406 81.7827 240.176 81.1407 239.905 80.6245C239.628 80.096 239.374 79.8363 239.15 79.7386C238.926 79.6409 238.564 79.6316 237.987 79.7873C237.424 79.9395 236.798 80.2079 236.106 80.5062L236.077 80.5186L236.077 80.5186L236.077 80.5187L236.077 80.5188C235.419 80.8023 234.699 81.1125 234.022 81.2955C233.349 81.4776 232.57 81.5774 231.868 81.271C231.165 80.9645 230.709 80.3254 230.385 79.7078C230.059 79.087 229.797 78.3481 229.557 77.6728L229.547 77.6432C229.295 76.933 229.066 76.291 228.794 75.7748C228.517 75.2463 228.263 74.9866 228.039 74.8889C227.816 74.7912 227.453 74.7818 226.876 74.9376C226.314 75.0898 225.687 75.3582 224.995 75.6564L224.966 75.6689C224.308 75.9525 223.588 76.2628 222.911 76.4458C222.238 76.6278 221.459 76.7277 220.757 76.4213C220.055 76.1148 219.598 75.4757 219.274 74.8581C218.948 74.2372 218.686 73.4984 218.446 72.8231L218.436 72.7935C218.184 72.0832 217.955 71.4412 217.684 70.9251C217.406 70.3966 217.153 70.1369 216.929 70.0392C216.705 69.9414 216.342 69.9321 215.766 70.0879C215.203 70.24 214.576 70.5085 213.884 70.8067L213.855 70.8192C213.198 71.1027 212.478 71.4131 211.801 71.5961C211.127 71.7781 210.348 71.878 209.646 71.5715C208.997 71.2883 208.47 70.723 208.047 70.132C207.613 69.5264 207.23 68.8081 206.899 68.1103C206.586 67.4505 206.309 66.7852 206.075 66.2245L206.075 66.2243L206.075 66.2238L206.075 66.2238L206.033 66.1232C205.778 65.513 205.599 65.0951 205.475 64.8878C205.44 64.8288 205.413 64.7669 205.396 64.7036C205.23 64.1716 205.187 63.6638 205.305 63.1932C205.428 62.7048 205.706 62.3288 206.055 62.0478C206.705 61.5237 207.646 61.2992 208.463 61.1525C208.831 61.0863 209.176 61.0351 209.502 60.9866C209.987 60.9147 210.432 60.8485 210.859 60.7477C211.196 60.6683 211.447 60.5812 211.622 60.486C211.792 60.3925 211.836 60.3208 211.849 60.2921C211.946 60.0682 211.956 59.7054 211.8 59.1291C211.648 58.5663 211.379 57.9396 211.081 57.2476L211.069 57.2188L211.069 57.2186C210.785 56.5608 210.475 55.8409 210.292 55.1639C210.11 54.4904 210.01 53.7115 210.316 53.0094C210.623 52.3074 211.262 51.8509 211.88 51.5265C212.5 51.2004 213.239 50.9385 213.915 50.6991L213.944 50.6885C214.654 50.4367 215.296 50.2075 215.813 49.9364C216.341 49.6588 216.601 49.4052 216.698 49.1814C216.796 48.9575 216.806 48.5947 216.65 48.0184C216.498 47.4556 216.229 46.8289 215.931 46.1369L215.918 46.108L215.918 46.108C215.635 45.4501 215.325 44.7302 215.142 44.0532C214.96 43.3797 214.86 42.6008 215.166 41.8987C215.473 41.1967 216.112 40.7402 216.729 40.4158C217.35 40.0897 218.089 39.8278 218.764 39.5884L218.794 39.5778C219.504 39.326 220.146 39.0968 220.662 38.8257C221.191 38.5481 221.45 38.2945 221.548 38.0707C221.646 37.8468 221.655 37.484 221.499 36.9077C221.347 36.3449 221.079 35.7182 220.781 35.0262L220.768 34.9974C220.485 34.3394 220.174 33.6195 219.991 32.9425C219.809 32.269 219.709 31.4901 220.016 30.788C220.322 30.086 220.961 29.6295 221.579 29.3051C222.2 28.979 222.939 28.7171 223.614 28.4777L223.644 28.4671C224.354 28.2153 224.996 27.9861 225.512 27.715C226.041 27.4374 226.3 27.1838 226.398 26.96C226.496 26.7361 226.505 26.3733 226.349 25.797C226.197 25.2342 225.929 24.6075 225.63 23.9155L225.618 23.8866C225.334 23.2287 225.024 22.5088 224.841 21.8318C224.659 21.1583 224.559 20.3794 224.866 19.6773C225.172 18.9753 225.811 18.5188 226.429 18.1944C227.05 17.8683 227.788 17.6063 228.464 17.3669L228.493 17.3564C229.204 17.1046 229.846 16.8754 230.362 16.6043C230.89 16.3267 231.15 16.0731 231.248 15.8493C231.345 15.6254 231.355 15.2626 231.199 14.6863C231.047 14.1235 230.778 13.4968 230.48 12.8048L230.468 12.7759C230.184 12.118 229.874 11.3981 229.691 10.7211C229.509 10.0476 229.409 9.26865 229.715 8.56662C230.022 7.86458 230.661 7.40813 231.278 7.08372C231.899 6.7576 232.638 6.49565 233.313 6.25626L233.343 6.24574C234.053 5.99391 234.695 5.76469 235.211 5.49357C235.74 5.21595 236 4.96242 236.097 4.73856C236.195 4.51471 236.204 4.15189 236.049 3.57558C235.896 3.01276 235.628 2.38613 235.33 1.69411L235.317 1.66509L235.317 1.66495L235.317 1.66492C235.034 1.00707 234.723 0.287298 234.54 -0.389613C234.358 -1.06306 234.259 -1.84205 234.565 -2.54409C234.871 -3.24613 235.511 -3.70257 236.128 -4.02698C236.749 -4.3531 237.488 -4.61505 238.163 -4.85444L238.193 -4.86497C238.903 -5.11679 239.545 -5.34602 240.061 -5.61714C240.59 -5.89475 240.849 -6.14829 240.947 -6.37215C241.045 -6.596 241.054 -6.95882 240.898 -7.53512C240.746 -8.09795 240.478 -8.72457 240.18 -9.41659L240.167 -9.44539L240.167 -9.4455C239.883 -10.1034 239.573 -10.8233 239.39 -11.5003C239.208 -12.1738 239.108 -12.9528 239.415 -13.6548C239.897 -14.76 240.671 -15.4571 241.49 -15.9806ZM283.654 96.8073C283.816 96.7344 283.98 96.6594 284.142 96.5823C284.806 96.2674 285.433 95.9287 285.934 95.5704C286.449 95.2017 286.751 94.8678 286.872 94.5907C286.969 94.3668 286.979 94.004 286.823 93.4277C286.671 92.8649 286.402 92.2382 286.104 91.5462L286.092 91.5174C285.808 90.8594 285.498 90.1395 285.315 89.4625C285.133 88.789 285.033 88.0101 285.339 87.308C285.646 86.606 286.285 86.1495 286.902 85.8251C287.523 85.499 288.262 85.2371 288.937 84.9977L288.967 84.9871C289.677 84.7353 290.319 84.5061 290.835 84.235C291.364 83.9574 291.624 83.7038 291.721 83.48C291.819 83.2561 291.828 82.8933 291.673 82.317C291.52 81.7542 291.252 81.1275 290.954 80.4355L290.941 80.4066C290.658 79.7487 290.347 79.0288 290.164 78.3518C289.982 77.6783 289.882 76.8994 290.189 76.1973C290.495 75.4953 291.134 75.0388 291.752 74.7144C292.373 74.3883 293.112 74.1263 293.787 73.8869L293.817 73.8764C294.527 73.6246 295.169 73.3954 295.685 73.1243C296.214 72.8467 296.473 72.5931 296.571 72.3693C296.669 72.1454 296.678 71.7826 296.522 71.2063C296.37 70.6435 296.102 70.0168 295.803 69.3248L295.791 69.296C295.507 68.638 295.197 67.9181 295.014 67.2411C294.832 66.5676 294.732 65.7887 295.039 65.0866C295.345 64.3846 295.984 63.9281 296.602 63.6037C297.223 63.2776 297.962 63.0157 298.637 62.7763L298.666 62.7657C299.377 62.5139 300.019 62.2847 300.535 62.0136C301.063 61.736 301.323 61.4824 301.421 61.2586C301.518 61.0347 301.528 60.6719 301.372 60.0956C301.22 59.5328 300.951 58.9061 300.653 58.2141L300.641 58.1853C300.357 57.5273 300.047 56.8074 299.864 56.1304C299.682 55.4569 299.582 54.678 299.888 53.9759C300.195 53.2739 300.834 52.8174 301.452 52.493C302.072 52.1669 302.811 51.9049 303.487 51.6655L303.516 51.655C304.226 51.4032 304.868 51.174 305.385 50.9029C305.913 50.6253 306.173 50.3717 306.27 50.1479C306.368 49.924 306.378 49.5612 306.222 48.9849C306.07 48.4221 305.801 47.7954 305.503 47.1034L305.49 47.0745C305.207 46.4166 304.897 45.6967 304.714 45.0197C304.532 44.3462 304.432 43.5673 304.738 42.8652C305.045 42.1632 305.684 41.7067 306.301 41.3823C306.922 41.0562 307.661 40.7942 308.336 40.5548L308.366 40.5443C309.076 40.2925 309.718 40.0633 310.234 39.7922C310.763 39.5145 311.022 39.261 311.12 39.0372C311.218 38.8133 311.227 38.4505 311.071 37.8742C310.919 37.3114 310.651 36.6847 310.353 35.9927L310.34 35.9639L310.34 35.9637C310.057 35.3058 309.746 34.586 309.563 33.909C309.381 33.2355 309.281 32.4565 309.588 31.7545C309.894 31.0525 310.533 30.596 311.151 30.2716C311.772 29.9455 312.511 29.6836 313.186 29.4442L313.186 29.4441L313.216 29.4336C313.926 29.1818 314.568 28.9526 315.084 28.6815C315.613 28.4038 315.872 28.1503 315.97 27.9265C316.068 27.7026 316.077 27.3398 315.921 26.7635C315.769 26.2007 315.501 25.574 315.202 24.882L315.19 24.8532L315.19 24.853C314.906 24.1951 314.596 23.4753 314.413 22.7983C314.231 22.1248 314.131 21.3458 314.438 20.6438C314.636 20.189 315.011 19.9086 315.375 19.7316C315.738 19.5554 316.159 19.4472 316.571 19.3705C316.987 19.2928 317.439 19.2396 317.876 19.1916L318.109 19.1662L318.109 19.1662C318.472 19.1268 318.823 19.0887 319.162 19.0401C319.572 18.9813 319.933 18.911 320.233 18.817C320.537 18.7215 320.729 18.616 320.842 18.516C320.935 18.4328 320.978 18.3512 320.989 18.2312C321.002 18.0901 320.973 17.8432 320.797 17.4489C320.613 17.1325 320.392 16.6244 320.162 16.0944L320.148 16.0643L320.135 16.0343L320.135 16.0337L320.135 16.0334L320.135 16.0329C319.883 15.4537 319.597 14.7954 319.277 14.1471C318.949 13.4847 318.598 12.8574 318.23 12.3561C317.851 11.8401 317.51 11.5354 317.229 11.4127C317.005 11.315 316.642 11.3056 316.066 11.4614C315.503 11.6136 314.876 11.882 314.184 12.1803L314.155 12.1927L314.155 12.1928C313.497 12.4763 312.777 12.7866 312.1 12.9696C311.427 13.1516 310.648 13.2515 309.946 12.9451C309.244 12.6386 308.787 11.9995 308.463 11.3819C308.137 10.7611 307.875 10.0223 307.636 9.34706L307.625 9.31727C307.373 8.60704 307.144 7.96504 306.873 7.44888C306.595 6.92037 306.342 6.66067 306.118 6.56296C305.894 6.46525 305.531 6.45591 304.955 6.6117C304.392 6.76385 303.765 7.03227 303.073 7.33053L303.044 7.34301C302.387 7.62659 301.667 7.93687 300.99 8.11987C300.316 8.30192 299.537 8.40177 298.835 8.09533C298.133 7.7889 297.677 7.1498 297.352 6.53219C297.026 5.91131 296.764 5.17243 296.525 4.49717L296.514 4.46755C296.263 3.75731 296.033 3.11531 295.762 2.59916C295.485 2.07064 295.231 1.81094 295.007 1.71323C294.783 1.61552 294.421 1.60619 293.844 1.76198C293.281 1.91412 292.655 2.18255 291.963 2.4808L291.934 2.49324C291.276 2.77683 290.556 3.08713 289.879 3.27015C289.206 3.45219 288.427 3.55204 287.725 3.24561C287.023 2.93917 286.566 2.30007 286.242 1.68247C285.916 1.06159 285.654 0.322708 285.414 -0.352555L285.404 -0.38218C285.152 -1.09241 284.923 -1.73441 284.652 -2.25056C284.374 -2.77908 284.12 -3.03878 283.897 -3.13649C283.673 -3.2342 283.31 -3.24353 282.734 -3.08775C282.171 -2.9356 281.544 -2.66718 280.852 -2.36892L280.823 -2.35648C280.165 -2.0729 279.445 -1.76259 278.768 -1.57958C278.095 -1.39753 277.316 -1.29768 276.614 -1.60412C275.912 -1.91055 275.455 -2.54965 275.131 -3.16726C274.805 -3.78812 274.543 -4.52698 274.304 -5.20223L274.293 -5.2319C274.041 -5.94214 273.812 -6.58414 273.541 -7.10029C273.263 -7.62881 273.01 -7.8885 272.786 -7.98621C272.562 -8.08392 272.199 -8.09326 271.623 -7.93747C271.06 -7.78533 270.433 -7.5169 269.741 -7.21865L269.713 -7.20621L269.712 -7.2062C269.055 -6.92261 268.335 -6.61231 267.658 -6.4293C266.984 -6.24725 266.205 -6.14741 265.503 -6.45384C264.801 -6.76027 264.345 -7.39938 264.02 -8.01698C263.694 -8.63785 263.432 -9.37672 263.193 -10.052L263.182 -10.0816C262.93 -10.7919 262.701 -11.4339 262.43 -11.95C262.152 -12.4785 261.899 -12.7382 261.675 -12.8359C261.451 -12.9336 261.088 -12.943 260.512 -12.7872C259.949 -12.6351 259.323 -12.3666 258.631 -12.0684L258.602 -12.0559C257.944 -11.7723 257.224 -11.462 256.547 -11.279C255.873 -11.097 255.094 -10.9971 254.392 -11.3036C253.69 -11.61 253.234 -12.2491 252.91 -12.8667C252.583 -13.4876 252.321 -14.2264 252.082 -14.9017L252.072 -14.9314C251.82 -15.6416 251.591 -16.2836 251.319 -16.7997C251.042 -17.3283 250.788 -17.588 250.564 -17.6857C250.335 -17.7858 249.838 -17.8061 249.041 -17.6368C248.287 -17.4768 247.411 -17.1809 246.533 -16.8287C245.891 -16.5707 245.262 -16.2886 244.699 -16.0191C244.671 -15.9971 244.641 -15.977 244.609 -15.9588C244.275 -15.7695 243.928 -15.5946 243.602 -15.4297L243.601 -15.4295L243.601 -15.4293C243.531 -15.3939 243.461 -15.3589 243.393 -15.3243C242.999 -15.1239 242.634 -14.9319 242.298 -14.7168C241.637 -14.2941 241.115 -13.8013 240.789 -13.0547C240.692 -12.8309 240.682 -12.4681 240.838 -11.8917C240.99 -11.3289 241.259 -10.7023 241.557 -10.0103L241.57 -9.98136C241.853 -9.32345 242.163 -8.60355 242.346 -7.92655C242.528 -7.2531 242.628 -6.47412 242.322 -5.77208C242.015 -5.07004 241.376 -4.6136 240.759 -4.28919C240.138 -3.96306 239.399 -3.70112 238.724 -3.46172L238.724 -3.46168L238.694 -3.4512C237.984 -3.19938 237.342 -2.97015 236.826 -2.69903C236.297 -2.42142 236.037 -2.16788 235.94 -1.94403C235.842 -1.72017 235.833 -1.35736 235.988 -0.781046C236.141 -0.218227 236.409 0.408399 236.707 1.10042L236.72 1.12934C237.003 1.78725 237.314 2.50715 237.497 3.18415C237.679 3.8576 237.779 4.63659 237.472 5.33862C237.166 6.04066 236.527 6.49711 235.909 6.82151C235.288 7.14764 234.549 7.40958 233.874 7.64897L233.874 7.64898L233.844 7.6595C233.134 7.91132 232.492 8.14056 231.976 8.41168C231.447 8.68929 231.188 8.94282 231.09 9.16668C230.992 9.39053 230.983 9.75335 231.139 10.3297C231.291 10.8925 231.559 11.5191 231.858 12.2111L231.87 12.24C232.154 12.8979 232.464 13.6178 232.647 14.2949C232.829 14.9683 232.929 15.7473 232.622 16.4493C232.316 17.1514 231.677 17.6078 231.059 17.9322C230.438 18.2583 229.7 18.5203 229.024 18.7597L228.995 18.7702C228.284 19.022 227.642 19.2513 227.126 19.5224C226.598 19.8 226.338 20.0535 226.24 20.2774C226.143 20.5012 226.133 20.8641 226.289 21.4404C226.441 22.0032 226.71 22.6298 227.008 23.3218L227.02 23.3507C227.304 24.0086 227.614 24.7285 227.797 25.4056C227.979 26.079 228.079 26.858 227.773 27.56C227.466 28.2621 226.827 28.7185 226.21 29.0429C225.589 29.369 224.85 29.631 224.175 29.8704L224.145 29.8809C223.435 30.1327 222.793 30.362 222.276 30.6331C221.748 30.9107 221.488 31.1642 221.391 31.3881C221.293 31.6119 221.284 31.9748 221.439 32.5511C221.591 33.1139 221.86 33.7405 222.158 34.4325L222.171 34.4614C222.454 35.1194 222.764 35.8393 222.947 36.5163C223.13 37.1897 223.229 37.9687 222.923 38.6707C222.617 39.3728 221.977 39.8292 221.36 40.1536C220.739 40.4797 220 40.7417 219.325 40.9811L219.325 40.9811L219.295 40.9916C218.585 41.2434 217.943 41.4727 217.427 41.7438C216.898 42.0214 216.639 42.2749 216.541 42.4988C216.443 42.7226 216.434 43.0855 216.59 43.6618C216.742 44.2246 217.01 44.8512 217.308 45.5432L217.321 45.5721L217.321 45.5722C217.604 46.2301 217.915 46.95 218.098 47.627C218.28 48.3004 218.38 49.0794 218.073 49.7814C217.767 50.4835 217.128 50.9399 216.51 51.2643C215.889 51.5905 215.15 51.8524 214.475 52.0918L214.445 52.1023C213.735 52.3541 213.093 52.5834 212.577 52.8545C212.049 53.1321 211.789 53.3856 211.691 53.6095C211.593 53.8333 211.584 54.1962 211.74 54.7725C211.892 55.3353 212.16 55.9619 212.459 56.6539L212.471 56.6828C212.755 57.3407 213.065 58.0606 213.248 58.7377C213.43 59.4111 213.53 60.1901 213.223 60.8921C213.034 61.3263 212.69 61.6115 212.341 61.8021C211.996 61.9909 211.596 62.1152 211.204 62.2077C210.733 62.3187 210.158 62.4054 209.614 62.4874C209.3 62.5348 208.996 62.5807 208.728 62.6288C207.898 62.7779 207.315 62.9585 206.996 63.2158C206.859 63.3256 206.791 63.4344 206.76 63.5583C206.729 63.6833 206.72 63.8857 206.811 64.2034C206.995 64.5333 207.203 65.0331 207.417 65.5455L207.456 65.6397C207.692 66.2057 207.957 66.8409 208.255 67.4675C208.569 68.1312 208.908 68.7584 209.266 69.2591C209.635 69.7743 209.969 70.0758 210.246 70.1968C210.47 70.2945 210.833 70.3038 211.409 70.148C211.972 69.9959 212.599 69.7275 213.291 69.4292L213.319 69.4168L213.32 69.4167L213.32 69.4167C213.978 69.1331 214.697 68.8229 215.374 68.6399C216.048 68.4578 216.827 68.358 217.529 68.6644C218.231 68.9708 218.687 69.6099 219.012 70.2275C219.338 70.8483 219.6 71.5871 219.839 72.2623L219.839 72.2623L219.839 72.2624L219.839 72.2625L219.85 72.2922C220.102 73.0024 220.331 73.6444 220.602 74.1606C220.879 74.6891 221.133 74.9488 221.357 75.0465C221.581 75.1442 221.944 75.1536 222.52 74.9978C223.083 74.8456 223.709 74.5772 224.401 74.2789L224.43 74.2665C225.088 73.9829 225.808 73.6726 226.485 73.4896C227.159 73.3075 227.938 73.2077 228.64 73.5141C229.342 73.8206 229.798 74.4597 230.122 75.0773C230.449 75.6981 230.71 76.4369 230.95 77.1121L230.95 77.1122L230.95 77.1123L230.96 77.1419C231.212 77.8522 231.441 78.4942 231.713 79.0103C231.99 79.5388 232.244 79.7985 232.468 79.8962C232.691 79.9939 233.054 80.0033 233.631 79.8475C234.193 79.6953 234.82 79.4269 235.512 79.1287L235.541 79.1162C236.199 78.8326 236.919 78.5223 237.596 78.3393C238.269 78.1573 239.048 78.0574 239.75 78.3639C240.452 78.6703 240.909 79.3094 241.233 79.927C241.559 80.5479 241.821 81.2867 242.061 81.962L242.071 81.9916C242.323 82.7019 242.552 83.3439 242.823 83.86C243.101 84.3886 243.354 84.6482 243.578 84.746C243.802 84.8437 244.165 84.853 244.741 84.6972C245.304 84.5451 245.931 84.2766 246.623 83.9784L246.652 83.9659C247.31 83.6824 248.029 83.3721 248.706 83.189C249.38 83.007 250.159 82.9071 250.861 83.2136C251.563 83.52 252.019 84.1591 252.344 84.7767C252.67 85.3976 252.932 86.1365 253.171 86.8117L253.182 86.8414C253.434 87.5516 253.663 88.1936 253.934 88.7098C254.212 89.2383 254.465 89.498 254.689 89.5957C254.913 89.6934 255.276 89.7027 255.852 89.5469C256.415 89.3948 257.041 89.1264 257.733 88.8281L257.762 88.8157C258.42 88.5321 259.14 88.2218 259.817 88.0388C260.491 87.8567 261.27 87.7569 261.972 88.0633C262.674 88.3697 263.13 89.0088 263.455 89.6264C263.781 90.2473 264.043 90.9861 264.282 91.6614L264.282 91.6615L264.293 91.6911C264.544 92.4013 264.774 93.0433 265.045 93.5595C265.322 94.088 265.576 94.3477 265.8 94.4454C266.024 94.5431 266.386 94.5525 266.963 94.3967C267.526 94.2445 268.152 93.9761 268.844 93.6778L268.873 93.6654L268.873 93.6653L268.874 93.6652C269.531 93.3816 270.251 93.0715 270.928 92.8885C271.601 92.7064 272.38 92.6066 273.082 92.913C273.784 93.2195 274.241 93.8586 274.565 94.4762C274.891 95.0969 275.153 95.8355 275.393 96.5107L275.393 96.5111L275.393 96.5113L275.403 96.5408C275.655 97.2511 275.884 97.8931 276.155 98.4092C276.433 98.9377 276.687 99.1974 276.91 99.2951C277.15 99.3996 277.516 99.4156 278.056 99.2759C278.587 99.1386 279.186 98.8774 279.826 98.5559C280.214 98.3609 280.58 98.1632 280.946 97.9659L280.946 97.9658L280.946 97.9658L280.946 97.9658L280.946 97.9655L280.947 97.9653C281.2 97.8287 281.452 97.6922 281.712 97.5569C282.301 97.2498 282.916 96.9534 283.452 96.827C283.519 96.8109 283.587 96.8047 283.654 96.8073Z" fill="#2B714F"/>
</g>
<defs>
<clipPath id="clip0_449_14656">
<rect width="375" height="664" fill="white"/>
</clipPath>
</defs>
</svg>
