<svg width="137" height="215" viewBox="0 0 137 215" fill="none" xmlns="http://www.w3.org/2000/svg">
<rect width="137" height="215" rx="13.5309" fill="#378861"/>
<path d="M19.6386 11.9465V39.9465H18.3186V13.1865H11.2786V11.9465H19.6386ZM35.2658 11.7865C38.8658 11.7865 41.5991 13.0265 43.4658 15.5065C45.3591 17.9865 46.3058 21.4399 46.3058 25.8665C46.3058 28.9599 45.7991 31.5732 44.7858 33.7065C43.7991 35.8132 42.3991 37.4132 40.5858 38.5065C38.7724 39.5732 36.6391 40.1065 34.1858 40.1065C31.5991 40.1065 29.5458 39.6399 28.0258 38.7065L28.6258 37.6265C29.9324 38.4532 31.7724 38.8665 34.1458 38.8665C37.5058 38.8665 40.1458 37.7732 42.0658 35.5865C43.9858 33.3999 44.9458 30.2265 44.9458 26.0665C44.9458 24.4132 44.8124 22.9732 44.5458 21.7465C44.0924 23.7999 43.0258 25.4132 41.3458 26.5865C39.6924 27.7332 37.7191 28.3065 35.4258 28.3065C33.5858 28.3065 31.9591 27.9732 30.5458 27.3065C29.1324 26.6399 28.0391 25.6932 27.2658 24.4665C26.5191 23.2132 26.1458 21.7599 26.1458 20.1065C26.1458 18.4532 26.5324 16.9999 27.3058 15.7465C28.1058 14.4932 29.1858 13.5199 30.5458 12.8265C31.9324 12.1332 33.5058 11.7865 35.2658 11.7865ZM35.5458 27.1465C37.1458 27.1465 38.5724 26.8399 39.8258 26.2265C41.0791 25.5865 42.0524 24.7199 42.7458 23.6265C43.4391 22.5332 43.7858 21.3199 43.7858 19.9865C43.7858 18.8132 43.4524 17.6932 42.7858 16.6265C42.1458 15.5332 41.1724 14.6532 39.8658 13.9865C38.5858 13.3199 37.0524 12.9865 35.2658 12.9865C32.9458 12.9865 31.0658 13.6399 29.6258 14.9465C28.2124 16.2265 27.5058 17.9332 27.5058 20.0665C27.5058 22.2265 28.2258 23.9465 29.6658 25.2265C31.1058 26.5065 33.0658 27.1465 35.5458 27.1465Z" fill="white"/>
<path d="M31.676 201.987L11.3124 201.971L11.3341 174.98L27.5231 174.993L27.5182 181.129L32.7856 181.133C37.0076 181.136 40.4383 177.704 40.4417 173.473C40.4451 169.242 37.02 165.804 32.7979 165.801L20.2064 165.791L20.185 192.367L29.9935 192.375C39.8495 192.383 47.852 184.383 47.8599 174.499C47.8679 164.623 39.8851 156.604 30.0223 156.596L11.3125 156.596" stroke="white" stroke-miterlimit="10"/>
<path d="M105.277 201.987L125.64 201.971L125.618 174.98L109.429 174.993L109.434 181.129L104.167 181.133C99.9449 181.136 96.5142 177.704 96.5108 173.473C96.5074 169.242 99.9325 165.804 104.155 165.801L116.746 165.791L116.767 192.367L106.959 192.375C97.103 192.382 89.1005 184.383 89.0926 174.499C89.0846 164.623 97.0674 156.604 106.93 156.596L125.604 156.581" stroke="white" stroke-miterlimit="10"/>
<path d="M105.276 11.2889L125.64 11.3053L125.618 38.2394L109.429 38.2264L109.434 32.1037L104.167 32.0995C99.9448 32.0961 96.5142 35.5212 96.5108 39.7433C96.5074 43.9653 99.9325 47.3959 104.155 47.3993L116.746 47.4095L116.767 20.8893L106.959 20.8814C97.1029 20.8735 89.1005 28.8564 89.0925 38.7191C89.0846 48.5751 97.0674 56.5776 106.93 56.5855L125.604 56.6006" stroke="white" stroke-miterlimit="10"/>
<line x1="125.5" y1="56" x2="125.5" y2="157" stroke="white"/>
<line x1="111" y1="202" x2="30" y2="202" stroke="white"/>
<line x1="11.5" y1="51" x2="11.5" y2="157" stroke="white"/>
<line x1="124.597" y1="11.4941" x2="55.8148" y2="11.4941" stroke="white"/>
<circle cx="55.5332" cy="11.2759" r="1.5" fill="white"/>
<circle cx="11.5" cy="51.7717" r="1.5" fill="white"/>
<path d="M67.6582 84.572V129.637" stroke="white" stroke-miterlimit="10"/>
<path d="M90.2364 107.15H45.1904" stroke="white" stroke-miterlimit="10"/>
<path d="M81.1143 93.6938L54.2755 120.551" stroke="white" stroke-miterlimit="10"/>
<path d="M81.1143 120.605L54.2755 93.7664" stroke="white" stroke-miterlimit="10"/>
<path d="M36.4518 108.815C35.362 108.815 34.4785 107.931 34.4785 106.841C34.4785 105.752 35.362 104.868 36.4518 104.868C37.5416 104.868 38.425 105.752 38.425 106.841C38.425 107.931 37.5416 108.815 36.4518 108.815Z" stroke="white" stroke-miterlimit="10"/>
<path d="M67.4603 140.387C66.3705 140.387 65.4871 139.503 65.4871 138.414C65.4871 137.324 66.3705 136.44 67.4603 136.44C68.5501 136.44 69.4336 137.324 69.4336 138.414C69.4336 139.503 68.5501 140.387 67.4603 140.387Z" stroke="white" stroke-miterlimit="10"/>
<path d="M68.0238 78.3704C66.934 78.3704 66.0505 77.4869 66.0505 76.3971C66.0505 75.3073 66.934 74.4238 68.0238 74.4238C69.1136 74.4238 69.997 75.3073 69.997 76.3971C69.997 77.4869 69.1136 78.3704 68.0238 78.3704Z" stroke="white" stroke-miterlimit="10"/>
<path d="M97.9047 108.815C96.8149 108.815 95.9314 107.931 95.9314 106.841C95.9314 105.752 96.8149 104.868 97.9047 104.868C98.9945 104.868 99.8779 105.752 99.8779 106.841C99.8779 107.931 98.9945 108.815 97.9047 108.815Z" stroke="white" stroke-miterlimit="10"/>
<path d="M67.4592 148.28L68.2701 150.764C68.5024 151.476 69.059 152.029 69.7668 152.261L72.2514 153.072L69.7668 153.883C69.0553 154.115 68.5024 154.672 68.2701 155.38L67.4592 157.864L66.6482 155.38C66.416 154.668 65.8593 154.115 65.1516 153.883L62.667 153.072L65.1516 152.261C65.863 152.029 66.416 151.472 66.6482 150.764L67.4592 148.28Z" stroke="white" stroke-miterlimit="10"/>
<path d="M113.69 102.049L114.501 104.534C114.733 105.245 115.289 105.798 115.997 106.031L118.482 106.841L115.997 107.653C115.286 107.885 114.733 108.441 114.501 109.149L113.69 111.634L112.879 109.149C112.646 108.438 112.09 107.885 111.382 107.653L108.897 106.841L111.382 106.031C112.093 105.798 112.646 105.242 112.879 104.534L113.69 102.049Z" stroke="white" stroke-miterlimit="10"/>
<path d="M21.7922 102.613L22.6031 105.098C22.8354 105.809 23.392 106.362 24.0998 106.594L26.5844 107.405L24.0998 108.216C23.3883 108.449 22.8354 109.005 22.6031 109.713L21.7922 112.198L20.9812 109.713C20.749 109.002 20.1923 108.449 19.4846 108.216L17 107.405L19.4846 106.594C20.196 106.362 20.749 105.806 20.9812 105.098L21.7922 102.613Z" stroke="white" stroke-miterlimit="10"/>
<path d="M67.4592 53L68.2701 55.4846C68.5024 56.196 69.059 56.749 69.7668 56.9812L72.2514 57.7922L69.7668 58.6032C69.0553 58.8354 68.5024 59.392 68.2701 60.0998L67.4592 62.5844L66.6482 60.0998C66.416 59.3883 65.8593 58.8354 65.1516 58.6032L62.667 57.7922L65.1516 56.9812C65.863 56.749 66.416 56.1923 66.6482 55.4846L67.4592 53Z" stroke="white" stroke-miterlimit="10"/>
</svg>
