<svg width="1085" height="600" viewBox="0 0 1085 600" fill="none" xmlns="http://www.w3.org/2000/svg">
<g clip-path="url(#clip0_821_3934)">
<path d="M115.432 188.955L215.5 223.212L182.144 311.561C160.639 361.437 165.015 359.341 219.106 395.402C273.197 431.462 236.235 490.061 183.045 466.621C129.856 443.182 80.2725 418.841 80.2725 418.841C53.0871 401.18 46.9538 387.551 58.6362 353.932L115.432 188.955Z" stroke="#2B714F" stroke-width="2"/>
<path d="M120.486 169.009C123.733 180.139 113.993 188.951 113.993 188.951C113.993 188.951 103.79 181.067 103.79 171.327C103.79 161.588 117.24 157.878 120.486 169.009Z" stroke="#2B714F" stroke-width="2"/>
<path d="M220.007 397.201C187.27 412.669 179.822 428.554 178.538 464.815" stroke="#2B714F" stroke-width="2" stroke-linecap="round"/>
<path d="M112 0L112 162" stroke="#2B714F" stroke-width="2" stroke-linecap="round"/>
<path d="M201.788 259.036L102.128 226.751" stroke="#2B714F" stroke-width="2" stroke-linecap="round"/>
<path d="M193.861 275.447L98.8618 242.689" stroke="#2B714F" stroke-width="2" stroke-linecap="round" stroke-dasharray="19.66 19.66"/>
<path d="M840.205 147.418C830.581 157.263 826.677 158.304 825.794 144.83C825.733 143.903 824.6 143.447 823.922 144.081C815.775 151.691 812.542 151.108 811.342 139.661C811.248 138.76 810.141 138.342 809.476 138.958C800.87 146.924 798.038 145.64 797.276 134.936C797.211 134.014 796.084 133.571 795.407 134.2C786.534 142.447 783.318 141.321 781.536 127.677" stroke="#2B714F" stroke-width="2" stroke-linecap="round"/>
<path d="M787.936 109.543L847.139 129.811L827.405 182.08C814.682 211.588 817.271 210.348 849.272 231.682C881.274 253.017 859.406 287.685 827.938 273.818C796.47 259.95 767.135 245.55 767.135 245.55C751.052 235.101 747.423 227.037 754.334 207.148L787.936 109.543Z" stroke="#2B714F" stroke-width="2"/>
<path d="M790.774 97.7435C792.695 104.329 786.932 109.542 786.932 109.542C786.932 109.542 780.896 104.877 780.896 99.1155C780.896 93.3536 788.853 91.1583 790.774 97.7435Z" stroke="#2B714F" stroke-width="2"/>
<path d="M849.806 232.748C830.438 241.899 826.032 251.297 825.271 272.75" stroke="#2B714F" stroke-width="2" stroke-linecap="round"/>
<path d="M785.439 -0.00195312V93.7069" stroke="#2B714F" stroke-width="2" stroke-linecap="round"/>
<path d="M915.86 275.749L1005.4 306.401L975.55 385.45C956.309 430.076 960.224 428.201 1008.62 460.465C1057.02 492.73 1023.95 545.161 976.357 524.189C928.766 503.216 884.402 481.438 884.402 481.438C860.078 465.636 854.59 453.441 865.043 423.361L915.86 275.749Z" stroke="#2B714F" stroke-width="2"/>
<path d="M920.383 257.902C923.287 267.861 914.573 275.746 914.573 275.746C914.573 275.746 905.444 268.691 905.444 259.977C905.444 251.263 917.478 247.943 920.383 257.902Z" stroke="#2B714F" stroke-width="2"/>
<path d="M1009.43 462.076C980.137 475.915 973.474 490.128 972.324 522.572" stroke="#2B714F" stroke-width="2" stroke-linecap="round"/>
<path d="M913 0L913 252" stroke="#2B714F" stroke-width="2" stroke-linecap="round"/>
<path d="M993.126 338.453L903.957 309.567" stroke="#2B714F" stroke-width="2" stroke-linecap="round"/>
<path d="M265.843 61.0312L321.692 80.1505L303.076 129.458C291.074 157.294 293.516 156.125 323.704 176.25C353.893 196.376 333.264 229.08 303.579 215.998C273.894 202.916 246.221 189.332 246.221 189.332C231.049 179.475 227.626 171.868 234.146 153.106L265.843 61.0312Z" stroke="#2B714F" stroke-width="2"/>
<path d="M268.664 49.899C270.476 56.1111 265.041 61.0291 265.041 61.0291C265.041 61.0291 259.346 56.6286 259.346 51.1932C259.346 45.7577 266.853 43.6869 268.664 49.899Z" stroke="#2B714F" stroke-width="2"/>
<path d="M324.207 177.254C305.936 185.887 301.78 194.753 301.063 214.99" stroke="#2B714F" stroke-width="2" stroke-linecap="round"/>
<path d="M264.06 -96L264.06 46.2175" stroke="#2B714F" stroke-width="2" stroke-linecap="round"/>
<path d="M314.039 100.144L258.418 82.126" stroke="#2B714F" stroke-width="2" stroke-linecap="round"/>
</g>
<defs>
<clipPath id="clip0_821_3934">
<rect width="1085" height="600" rx="21.188" fill="white"/>
</clipPath>
</defs>
</svg>
