<svg width="184" height="92" viewBox="0 0 184 92" fill="none" xmlns="http://www.w3.org/2000/svg">
<g clip-path="url(#clip0_339_13638)">
<rect x="0.625" y="0.3125" width="182.75" height="91.375" rx="13.372" fill="#F4F4F4"/>
<path d="M141.108 14.5122V42.5122H139.788V15.7522H132.748V14.5122H141.108ZM171.496 34.4322H165.416V42.5122H164.096V34.4322H148.016V33.4722L163.496 14.5122H165.056L149.776 33.2322H164.096V26.1122H165.416V33.2322H171.496V34.4322Z" fill="#2B714F"/>
<path d="M17.1934 44.9803L25.9136 37.0352" stroke="#2B714F" stroke-linecap="round"/>
<path d="M103.621 44.9803L94.9004 37.229" stroke="#2B714F" stroke-linecap="round"/>
<path d="M83.0847 27.8922L61.2141 11.6233C61.0797 11.5234 60.8963 11.5211 60.7594 11.6176L37.6758 27.8922" stroke="#2B714F" stroke-linecap="round"/>
<path d="M17.768 101.356L60.7922 70.21L103.068 101.356H17.768ZM60.8583 70.1621L60.8587 70.1618L60.7928 70.0707L60.8587 70.1618C60.8586 70.1619 60.8584 70.162 60.8583 70.1621Z" stroke="#2B714F"/>
<path d="M17.1934 44.9803V101.565" stroke="#2B714F" stroke-linecap="round"/>
<path d="M103.621 44.9803V101.565" stroke="#2B714F" stroke-linecap="round"/>
<path d="M55.9496 73.2727L17.3867 44.9803" stroke="#2B714F" stroke-linecap="round"/>
<path d="M65.4453 73.2727L103.427 44.9803" stroke="#2B714F" stroke-linecap="round"/>
<path d="M26.1074 51.1814V28.315C26.1074 28.1009 26.2809 27.9274 26.495 27.9274H94.513C94.727 27.9274 94.9005 28.1009 94.9005 28.315V51.1814" stroke="#2B714F" stroke-linecap="round"/>
<path d="M40.2051 46.1432V61.6008" stroke="#2B714F" stroke-linecap="round"/>
<path d="M40.1836 46.0001H78.7976C79.0116 46.0001 79.1851 46.1736 79.1851 46.3876V63.2722" stroke="#2B714F" stroke-linecap="round"/>
<path d="M60.6044 45.8958C60.4613 45.9633 60.3237 45.7939 60.4189 45.6676L65.4259 39.0311C66.4024 37.737 68.3934 37.9041 69.1401 39.3403C69.7185 40.4525 69.2567 41.8182 68.1236 42.3522L60.6044 45.8958Z" stroke="#2B714F" stroke-miterlimit="10"/>
<path d="M60.1105 45.8958C60.2535 45.9633 60.3912 45.7939 60.2959 45.6676L55.2889 39.0311C54.3124 37.737 52.3215 37.9041 51.5748 39.3403C50.9964 40.4525 51.4582 41.8182 52.5912 42.3522L60.1105 45.8958Z" stroke="#2B714F" stroke-miterlimit="10"/>
<line x1="60.3399" y1="46.2572" x2="51.8589" y2="54.7382" stroke="#2B714F"/>
<line y1="-0.5" x2="11.9939" y2="-0.5" transform="matrix(0.707107 0.707107 0.707107 -0.707107 60.5938 45.9036)" stroke="#2B714F"/>
</g>
<defs>
<clipPath id="clip0_339_13638">
<rect x="0.625" y="0.3125" width="182.75" height="91.375" rx="13.372" fill="white"/>
</clipPath>
</defs>
</svg>
