<svg width="163" height="118" viewBox="0 0 163 118" fill="none" xmlns="http://www.w3.org/2000/svg">
<g clip-path="url(#clip0_439_14376)">
<rect width="162.35" height="117.908" rx="10.8838" fill="#378861"/>
<path d="M137.756 9.91846V37.9185H136.436V11.1585H129.396V9.91846H137.756ZM151.623 9.91846V37.9185H150.303V11.1585H143.263V9.91846H151.623Z" fill="white"/>
<path d="M81.1886 39.1431V78.8567" stroke="white" stroke-miterlimit="10"/>
<path d="M101.085 59.0398H61.388" stroke="white" stroke-miterlimit="10"/>
<path d="M93.0466 47.1816L69.3946 70.85" stroke="white" stroke-miterlimit="10"/>
<path d="M93.0466 70.8978L69.3946 47.2456" stroke="white" stroke-miterlimit="10"/>
<path d="M81.0135 88.0906L81.7282 90.2801C81.9329 90.9071 82.4234 91.3944 83.0471 91.5991L85.2367 92.3137L83.0471 93.0284C82.4202 93.2331 81.9329 93.7236 81.7282 94.3474L81.0135 96.5369L80.2989 94.3474C80.0942 93.7204 79.6036 93.2331 78.9799 93.0284L76.7904 92.3137L78.9799 91.5991C79.6069 91.3944 80.0942 90.9038 80.2989 90.2801L81.0135 88.0906Z" stroke="white" stroke-miterlimit="10"/>
<path d="M81.0135 21L81.7282 23.1895C81.9329 23.8165 82.4234 24.3038 83.0471 24.5085L85.2367 25.2232L83.0471 25.9379C82.4202 26.1425 81.9329 26.633 81.7282 27.2568L81.0135 29.4463L80.2989 27.2568C80.0942 26.6298 79.6036 26.1425 78.9799 25.9379L76.7904 25.2232L78.9799 24.5085C79.6069 24.3038 80.0942 23.8133 80.2989 23.1895L81.0135 21Z" stroke="white" stroke-miterlimit="10"/>
<path d="M46.2232 54.5454L46.9378 56.735C47.1425 57.3619 47.633 57.8492 48.2568 58.0539L50.4463 58.7686L48.2568 59.4833C47.6298 59.6879 47.1425 60.1785 46.9378 60.8022L46.2232 62.9917L45.5085 60.8022C45.3038 60.1752 44.8133 59.6879 44.1895 59.4833L42 58.7686L44.1895 58.0539C44.8165 57.8492 45.3038 57.3587 45.5085 56.735L46.2232 54.5454Z" stroke="white" stroke-miterlimit="10"/>
<path d="M116.001 54.9834L116.715 57.1729C116.92 57.7999 117.41 58.2872 118.034 58.4919L120.224 59.2066L118.034 59.9213C117.407 60.1259 116.92 60.6164 116.715 61.2402L116.001 63.4297L115.286 61.2402C115.081 60.6132 114.591 60.1259 113.967 59.9213L111.777 59.2066L113.967 58.4919C114.594 58.2872 115.081 57.7967 115.286 57.1729L116.001 54.9834Z" stroke="white" stroke-miterlimit="10"/>
<path d="M59.8891 60.5075C58.9287 60.5075 58.1502 59.7289 58.1502 58.7685C58.1502 57.8081 58.9287 57.0295 59.8891 57.0295C60.8495 57.0295 61.6281 57.8081 61.6281 58.7685C61.6281 59.7289 60.8495 60.5075 59.8891 60.5075Z" stroke="white" stroke-miterlimit="10"/>
<path d="M81.0134 82.268C80.053 82.268 79.2745 81.4894 79.2745 80.529C79.2745 79.5686 80.053 78.79 81.0134 78.79C81.9738 78.79 82.7523 79.5686 82.7523 80.529C82.7523 81.4894 81.9738 82.268 81.0134 82.268Z" stroke="white" stroke-miterlimit="10"/>
<path d="M81.1194 38.9477C80.159 38.9477 79.3804 38.1691 79.3804 37.2087C79.3804 36.2483 80.159 35.4697 81.1194 35.4697C82.0798 35.4697 82.8583 36.2483 82.8583 37.2087C82.8583 38.1691 82.0798 38.9477 81.1194 38.9477Z" stroke="white" stroke-miterlimit="10"/>
<path d="M102.824 60.6525C101.864 60.6525 101.085 59.8739 101.085 58.9135C101.085 57.9531 101.864 57.1746 102.824 57.1746C103.785 57.1746 104.563 57.9531 104.563 58.9135C104.563 59.8739 103.785 60.6525 102.824 60.6525Z" stroke="white" stroke-miterlimit="10"/>
<path d="M134.908 107.555L151.805 107.542L151.787 85.193L138.354 85.2038L138.358 90.2841L133.987 90.2876C130.484 90.2905 127.637 87.4485 127.635 83.9452C127.632 80.4419 130.474 77.5954 133.977 77.5925L144.425 77.5841L144.443 99.5893L136.304 99.5959C128.126 99.6025 121.486 92.9786 121.479 84.795C121.473 76.617 128.096 69.9768 136.28 69.9702L151.774 69.9578" stroke="white" stroke-miterlimit="10"/>
<path d="M26.9544 107.55L10.0576 107.536L10.0756 85.1874L23.5085 85.1982L23.5044 90.2785L27.875 90.282C31.3783 90.2848 34.2249 87.4428 34.2277 83.9396C34.2305 80.4363 31.3885 77.5897 27.8853 77.5869L17.4374 77.5785L17.4197 99.5837L25.5583 99.5903C33.7364 99.5969 40.3764 92.973 40.383 84.7894C40.3896 76.6114 33.7659 69.9712 25.5822 69.9646L10.0879 69.9521" stroke="white" stroke-miterlimit="10"/>
<path d="M26.9544 10.4024L10.0576 10.4161L10.0756 32.7648L23.5085 32.7539L23.5044 27.6736L27.875 27.6701C31.3783 27.6673 34.2249 30.5093 34.2277 34.0126C34.2305 37.5158 31.3885 40.3624 27.8853 40.3652L17.4374 40.3736L17.4197 18.3684L25.5583 18.3619C33.7364 18.3553 40.3764 24.9791 40.383 33.1628C40.3896 41.3408 33.7659 47.9809 25.5822 47.9875L10.0879 48" stroke="white" stroke-miterlimit="10"/>
<line x1="10.5" y1="48" x2="10.5" y2="70" stroke="white"/>
<line x1="151.5" y1="51.5" x2="151.5" y2="70.5" stroke="white"/>
<ellipse cx="151.5" cy="50.1808" rx="1.5" ry="1.5001" fill="white"/>
<ellipse cx="119.055" cy="10.5001" rx="1.5" ry="1.5001" fill="white"/>
<path d="M27 107.5H136" stroke="white"/>
<path d="M26 10.5L120 10.5" stroke="white"/>
</g>
<defs>
<clipPath id="clip0_439_14376">
<rect width="162.35" height="117.908" rx="10.8838" fill="white"/>
</clipPath>
</defs>
</svg>
