<svg width="1085" height="600" viewBox="0 0 1085 600" fill="none" xmlns="http://www.w3.org/2000/svg">
<g class="46">
<g clip-path="url(#clip0_436_10468)">
<g class="anim-rotate popup-december-22__decor--12">
<path class="Vector" d="M669.556 267.729C661.104 270.382 652.101 265.68 649.449 257.227C646.796 248.775 651.498 239.773 659.95 237.12C668.403 234.468 677.405 239.169 680.058 247.622C682.71 256.074 678.008 265.077 669.556 267.729Z" fill="#2B714F"/>
<path class="Vector_2" d="M649.942 361.823C641.49 364.475 632.488 359.774 629.835 351.321C627.183 342.869 631.884 333.866 640.337 331.214C648.789 328.561 657.791 333.263 660.444 341.716C663.096 350.168 658.395 359.17 649.942 361.823Z" fill="#2B714F"/>
<path class="Vector_3" d="M690.206 424.192C681.754 426.844 672.752 422.143 670.099 413.69C667.447 405.238 672.148 396.236 680.601 393.583C689.053 390.931 698.056 395.632 700.708 404.085C703.361 412.537 698.659 421.539 690.206 424.192Z" fill="#2B714F"/>
<path class="Vector_4" d="M726.776 474.79C718.324 477.442 709.322 472.74 706.669 464.288C704.017 455.835 708.718 446.833 717.171 444.181C725.623 441.528 734.625 446.23 737.278 454.682C739.93 463.135 735.229 472.137 726.776 474.79Z" fill="#2B714F"/>
<path class="Vector_5" d="M812.653 517.674C804.201 520.327 795.198 515.625 792.546 507.173C789.893 498.72 794.595 489.718 803.048 487.065C811.5 484.413 820.502 489.115 823.155 497.567C825.807 506.02 821.106 515.022 812.653 517.674Z" fill="#2B714F"/>
<path class="Vector_6" d="M750.762 221.554C742.31 224.207 733.307 219.505 730.655 211.053C728.002 202.6 732.704 193.598 741.157 190.945C749.609 188.293 758.611 192.995 761.264 201.447C763.916 209.899 759.214 218.902 750.762 221.554Z" fill="#2B714F"/>
<path class="Vector_7" d="M824.679 234.568C816.227 237.22 807.224 232.519 804.572 224.066C801.919 215.614 806.621 206.612 815.073 203.959C823.526 201.307 832.528 206.008 835.181 214.461C837.833 222.913 833.131 231.915 824.679 234.568Z" fill="#2B714F"/>
<path class="Vector 45" d="M1049.52 471.455C959.815 441.124 894.672 411.847 827.187 370.586M675.246 263.726C732.907 307.914 780.605 342.105 827.187 370.586M827.187 370.586L750.875 217.455" stroke="#2B714F" stroke-width="2"/>
<path class="Vector 46" d="M790.278 295.467L816.681 232.221" stroke="#2B714F" stroke-width="2"/>
<path class="Vector 47" d="M772.806 334.573L656.286 346.945" stroke="#2B714F" stroke-width="2"/>
<path class="Vector 48" d="M911.065 416.627L733.022 458.087" stroke="#2B714F" stroke-width="2"/>
<path class="Vector 49" d="M827.986 436.231C779.243 417.124 746.248 410.173 698.878 410.847" stroke="#2B714F" stroke-width="2"/>
<path class="Vector 50" d="M848 429.951L809.117 495.381" stroke="#2B714F" stroke-width="2"/>
</g>
<g class="anim-rotate popup-december-22__decor--11">
<path class="Vector_8" d="M935.61 186.971C930.278 184.89 927.642 178.879 929.723 173.547C931.805 168.214 937.815 165.578 943.148 167.66C948.481 169.741 951.116 175.752 949.035 181.084C946.953 186.417 940.943 189.053 935.61 186.971Z" fill="#2B714F"/>
<path class="Vector_9" d="M894.347 221.648C889.014 219.567 886.378 213.556 888.46 208.223C890.541 202.891 896.552 200.255 901.884 202.337C907.217 204.418 909.853 210.428 907.771 215.761C905.69 221.094 899.679 223.73 894.347 221.648Z" fill="#2B714F"/>
<path class="Vector_10" d="M890.317 264.195C884.984 262.113 882.348 256.103 884.43 250.77C886.511 245.438 892.522 242.802 897.855 244.883C903.187 246.965 905.823 252.975 903.741 258.308C901.66 263.641 895.649 266.276 890.317 264.195Z" fill="#2B714F"/>
<path class="Vector_11" d="M888.381 299.566C883.048 297.485 880.412 291.474 882.494 286.141C884.575 280.809 890.586 278.173 895.918 280.255C901.251 282.336 903.887 288.346 901.805 293.679C899.724 299.012 893.713 301.648 888.381 299.566Z" fill="#2B714F"/>
<path class="Vector_12" d="M905.876 348.393C900.544 346.312 897.908 340.301 899.989 334.969C902.071 329.636 908.081 327 913.414 329.082C918.747 331.163 921.382 337.174 919.301 342.506C917.219 347.839 911.209 350.475 905.876 348.393Z" fill="#2B714F"/>
<path class="Vector_13" d="M989.909 193.829C984.576 191.747 981.94 185.737 984.022 180.404C986.103 175.071 992.114 172.436 997.446 174.517C1002.78 176.599 1005.41 182.609 1003.33 187.942C1001.25 193.275 995.241 195.91 989.909 193.829Z" fill="#2B714F"/>
<path class="Vector_14" d="M1015.55 229.572C1009.04 227.03 1005.82 219.693 1008.36 213.182C1010.9 206.672 1018.24 203.454 1024.75 205.996C1031.26 208.537 1034.48 215.874 1031.94 222.385C1029.4 228.895 1022.06 232.113 1015.55 229.572Z" fill="#2B714F"/>
<path class="Vector 45_2" d="M1033.03 411.925C1004.01 366.509 985.525 330.31 970.266 287.957M940.883 186.402C950.739 226.556 959.733 258.722 970.266 287.957M970.266 287.957L990.936 192.801" stroke="#2B714F" stroke-width="2"/>
<path class="Vector 46_2" d="M981.569 242.131L1014.89 222.793" stroke="#2B714F" stroke-width="2"/>
<path class="Vector 47_2" d="M958.765 252.547L902.826 216.587" stroke="#2B714F" stroke-width="2"/>
<path class="Vector 48_2" d="M989.217 336.642L897.298 293.256" stroke="#2B714F" stroke-width="2"/>
<path class="Vector 49_2" d="M946.165 316.25C931.335 290.407 920.237 276.7 898.97 260.126" stroke="#2B714F" stroke-width="2"/>
<path class="Vector 50_2" d="M959.544 321.305L917.792 336.914" stroke="#2B714F" stroke-width="2"/>
</g>
<g class="anim-translate-opacity popup-december-22__decor--11">
<path class="Vector_15" d="M441.537 528V559.013" stroke="#2B714F" stroke-width="1.5" stroke-miterlimit="10"/>
<path class="Vector_16" d="M426 543.536H457" stroke="#2B714F" stroke-width="1.5" stroke-miterlimit="10"/>
<path class="Vector_17" d="M432.277 534.278L450.747 552.761" stroke="#2B714F" stroke-width="1.5" stroke-miterlimit="10"/>
<path class="Vector_18" d="M432.277 552.798L450.747 534.328" stroke="#2B714F" stroke-width="1.5" stroke-miterlimit="10"/>
</g>
<g class="anim-translate-opacity popup-december-22__decor--10">
<path class="Vector_19" d="M273.537 476V507.013" stroke="#2B714F" stroke-width="1.5" stroke-miterlimit="10"/>
<path class="Vector_20" d="M258 491.536H289" stroke="#2B714F" stroke-width="1.5" stroke-miterlimit="10"/>
<path class="Vector_21" d="M264.277 482.278L282.747 500.761" stroke="#2B714F" stroke-width="1.5" stroke-miterlimit="10"/>
<path class="Vector_22" d="M264.277 500.798L282.747 482.328" stroke="#2B714F" stroke-width="1.5" stroke-miterlimit="10"/>
</g>
<g class="anim-translate-opacity popup-december-22__decor--9">
<path class="Vector_23" d="M35.5371 83V114.013" stroke="#2B714F" stroke-width="1.5" stroke-miterlimit="10"/>
<path class="Vector_24" d="M20 98.5361H51" stroke="#2B714F" stroke-width="1.5" stroke-miterlimit="10"/>
<path class="Vector_25" d="M26.2773 89.2783L44.7474 107.761" stroke="#2B714F" stroke-width="1.5" stroke-miterlimit="10"/>
<path class="Vector_26" d="M26.2773 107.798L44.7474 89.3281" stroke="#2B714F" stroke-width="1.5" stroke-miterlimit="10"/>
</g>
<g class="anim-translate-opacity popup-december-22__decor--8">
<path class="Vector_27" d="M467.537 60V91.0128" stroke="#2B714F" stroke-width="1.5" stroke-miterlimit="10"/>
<path class="Vector_28" d="M452 75.5361H483" stroke="#2B714F" stroke-width="1.5" stroke-miterlimit="10"/>
<path class="Vector_29" d="M458.277 66.2783L476.747 84.7612" stroke="#2B714F" stroke-width="1.5" stroke-miterlimit="10"/>
<path class="Vector_30" d="M458.277 84.7984L476.747 66.3281" stroke="#2B714F" stroke-width="1.5" stroke-miterlimit="10"/>
</g>
<g class="anim-translate-opacity popup-december-22__decor--7">
<path class="Vector_31" d="M654.069 101V159.024" stroke="#2B714F" stroke-width="1.5" stroke-miterlimit="10"/>
<path class="Vector_32" d="M625 130.067H683" stroke="#2B714F" stroke-width="1.5" stroke-miterlimit="10"/>
<path class="Vector_33" d="M636.745 112.746L671.302 147.327" stroke="#2B714F" stroke-width="1.5" stroke-miterlimit="10"/>
<path class="Vector_34" d="M636.745 147.397L671.302 112.84" stroke="#2B714F" stroke-width="1.5" stroke-miterlimit="10"/>
</g>
<g class="anim-translate-opacity popup-december-22__decor--6">
<path class="Vector_35" d="M218.069 27V85.0239" stroke="#2B714F" stroke-width="1.5" stroke-miterlimit="10"/>
<path class="Vector_36" d="M189 56.0674H247" stroke="#2B714F" stroke-width="1.5" stroke-miterlimit="10"/>
<path class="Vector_37" d="M200.745 38.7461L235.302 73.327" stroke="#2B714F" stroke-width="1.5" stroke-miterlimit="10"/>
<path class="Vector_38" d="M200.745 73.3971L235.302 38.8398" stroke="#2B714F" stroke-width="1.5" stroke-miterlimit="10"/>
</g>
<g class="anim-translate-opacity popup-december-22__decor--5">
<path class="Vector_39" d="M528.537 383V414.013" stroke="#2B714F" stroke-width="1.5" stroke-miterlimit="10"/>
<path class="Vector_40" d="M513 398.536H544" stroke="#2B714F" stroke-width="1.5" stroke-miterlimit="10"/>
<path class="Vector_41" d="M519.277 389.278L537.747 407.761" stroke="#2B714F" stroke-width="1.5" stroke-miterlimit="10"/>
<path class="Vector_42" d="M519.277 407.798L537.747 389.328" stroke="#2B714F" stroke-width="1.5" stroke-miterlimit="10"/>
</g>
<g class="anim-translate-opacity popup-december-22__decor--4">
<path class="Vector_43" d="M902.537 83V114.013" stroke="#2B714F" stroke-width="1.5" stroke-miterlimit="10"/>
<path class="Vector_44" d="M887 98.5361H918" stroke="#2B714F" stroke-width="1.5" stroke-miterlimit="10"/>
<path class="Vector_45" d="M893.277 89.2783L911.747 107.761" stroke="#2B714F" stroke-width="1.5" stroke-miterlimit="10"/>
<path class="Vector_46" d="M893.277 107.798L911.747 89.3281" stroke="#2B714F" stroke-width="1.5" stroke-miterlimit="10"/>
</g>
<g class="anim-translate-opacity popup-december-22__decor--3">
<path class="Vector_47" d="M576.069 480V538.024" stroke="#2B714F" stroke-width="1.5" stroke-miterlimit="10"/>
<path class="Vector_48" d="M547 509.067H605" stroke="#2B714F" stroke-width="1.5" stroke-miterlimit="10"/>
<path class="Vector_49" d="M558.745 491.746L593.302 526.327" stroke="#2B714F" stroke-width="1.5" stroke-miterlimit="10"/>
<path class="Vector_50" d="M558.745 526.397L593.302 491.84" stroke="#2B714F" stroke-width="1.5" stroke-miterlimit="10"/>
</g>
<g class="anim-translate-opacity popup-december-22__decor--2">
<path class="Vector_51" d="M104.069 501V559.024" stroke="#2B714F" stroke-width="1.5" stroke-miterlimit="10"/>
<path class="Vector_52" d="M75 530.067H133" stroke="#2B714F" stroke-width="1.5" stroke-miterlimit="10"/>
<path class="Vector_53" d="M86.7446 512.746L121.302 547.327" stroke="#2B714F" stroke-width="1.5" stroke-miterlimit="10"/>
<path class="Vector_54" d="M86.7446 547.397L121.302 512.84" stroke="#2B714F" stroke-width="1.5" stroke-miterlimit="10"/>
</g>
<g class="anim-translate-opacity popup-december-22__decor--1">
<path class="Vector_55" d="M751.537 28V59.0128" stroke="#2B714F" stroke-width="1.5" stroke-miterlimit="10"/>
<path class="Vector_56" d="M736 43.5361H767" stroke="#2B714F" stroke-width="1.5" stroke-miterlimit="10"/>
<path class="Vector_57" d="M742.277 34.2783L760.747 52.7612" stroke="#2B714F" stroke-width="1.5" stroke-miterlimit="10"/>
<path class="Vector_58" d="M742.277 52.7984L760.747 34.3281" stroke="#2B714F" stroke-width="1.5" stroke-miterlimit="10"/>
</g>
</g>
</g>
<defs>
<clipPath id="clip0_436_10468">
<rect width="1085" height="600" rx="21.188" fill="white"/>
</clipPath>
</defs>
</svg>
