<svg width="311" height="136" viewBox="0 0 311 136" fill="none" xmlns="http://www.w3.org/2000/svg">
<g clip-path="url(#clip0_436_13141)">
<rect width="311" height="136" rx="18.6736" fill="#378861"/>
<path d="M19.6516 12.7729V40.7729H18.3316V14.0129H11.2916V12.7729H19.6516ZM37.9188 24.4129C39.7588 24.4129 41.3855 24.7463 42.7988 25.4129C44.2121 26.0796 45.2921 27.0396 46.0388 28.2929C46.8121 29.5196 47.1988 30.9596 47.1988 32.6129C47.1988 34.2663 46.8121 35.7196 46.0388 36.9729C45.2655 38.2263 44.1855 39.1996 42.7988 39.8929C41.4121 40.5863 39.8521 40.9329 38.1188 40.9329C34.5188 40.9329 31.7721 39.6929 29.8788 37.2129C27.9855 34.7329 27.0388 31.2796 27.0388 26.8529C27.0388 23.7596 27.5455 21.1596 28.5588 19.0529C29.5721 16.9196 30.9855 15.3196 32.7988 14.2529C34.6121 13.1596 36.7455 12.6129 39.1988 12.6129C41.7588 12.6129 43.7988 13.0796 45.3188 14.0129L44.7188 15.0929C43.4121 14.2663 41.5721 13.8529 39.1988 13.8529C35.8655 13.8529 33.2255 14.9463 31.2788 17.1329C29.3588 19.3196 28.3988 22.4929 28.3988 26.6529C28.3988 28.1463 28.5321 29.5596 28.7988 30.8929C29.2788 28.8663 30.3455 27.2796 31.9988 26.1329C33.6521 24.9863 35.6255 24.4129 37.9188 24.4129ZM38.0788 39.7329C40.3988 39.7329 42.2788 39.0929 43.7188 37.8129C45.1588 36.5063 45.8788 34.7863 45.8788 32.6529C45.8788 30.4929 45.1455 28.7729 43.6788 27.4929C42.2388 26.2129 40.2788 25.5729 37.7988 25.5729C36.1988 25.5729 34.7721 25.8929 33.5188 26.5329C32.2921 27.1463 31.3321 27.9996 30.6388 29.0929C29.9455 30.1863 29.5988 31.3996 29.5988 32.7329C29.5988 33.9063 29.9188 35.0396 30.5588 36.1329C31.2255 37.1996 32.1988 38.0663 33.4788 38.7329C34.7588 39.3996 36.2921 39.7329 38.0788 39.7329Z" fill="white"/>
<path d="M279.152 124.501L299.534 124.485L299.512 97.6253L283.309 97.6383L283.314 103.744L278.042 103.748C273.816 103.752 270.382 100.336 270.379 96.1256C270.375 91.9152 273.804 88.494 278.029 88.4906L290.632 88.4805L290.654 114.928L280.836 114.935C270.971 114.943 262.962 106.982 262.954 97.1469C262.946 87.3181 270.936 79.3376 280.808 79.3297L299.534 79.3297" stroke="white" stroke-width="0.949033" stroke-miterlimit="10"/>
<path d="M279.152 11.3276L299.534 11.344L299.512 38.2039L283.309 38.1909L283.314 32.0851L278.042 32.0809C273.816 32.0775 270.382 35.4931 270.379 39.7035C270.375 43.9139 273.804 47.3351 278.029 47.3385L290.632 47.3486L290.654 20.9016L280.836 20.8937C270.971 20.8858 262.962 28.8467 262.954 38.6822C262.946 48.511 270.936 56.4915 280.808 56.4994L299.534 56.4994" stroke="white" stroke-width="0.949033" stroke-miterlimit="10"/>
<path d="M31.3574 124.501L10.9756 124.485L10.9973 97.6253L27.2008 97.6383L27.1959 103.744L32.468 103.748C36.6939 103.752 40.1276 100.336 40.131 96.1256C40.1344 91.9152 36.7062 88.494 32.4804 88.4906L19.8775 88.4805L19.8562 114.928L29.6735 114.935C39.5383 114.943 47.548 106.982 47.5559 97.1469C47.5639 87.3181 39.5739 79.3376 29.7023 79.3297L10.9756 79.3297" stroke="white" stroke-width="0.949033" stroke-miterlimit="10"/>
<line x1="284" y1="124.5" x2="31" y2="124.5" stroke="white"/>
<line x1="280" y1="11.3" x2="59" y2="11.3" stroke="white"/>
<circle cx="59.3096" cy="11.5" r="1.5" fill="white"/>
<line x1="299.5" y1="56" x2="299.5" y2="79.8" stroke="white"/>
<line x1="11.5" y1="55.5" x2="11.5" y2="79.3" stroke="white"/>
<path d="M156.633 48.5134V87.1971" stroke="white" stroke-miterlimit="10"/>
<path d="M137.182 67.8943H175.992" stroke="white" stroke-miterlimit="10"/>
<path d="M145.041 56.3435L168.164 79.398" stroke="white" stroke-miterlimit="10"/>
<path d="M145.041 79.4448L168.164 56.406" stroke="white" stroke-miterlimit="10"/>
<path d="M177.691 69.5655C178.63 69.5655 179.391 68.8071 179.391 67.8716C179.391 66.9361 178.63 66.1777 177.691 66.1777C176.752 66.1777 175.991 66.9361 175.991 67.8716C175.991 68.8071 176.752 69.5655 177.691 69.5655Z" stroke="white" stroke-miterlimit="10"/>
<path d="M156.804 90.6177C157.743 90.6177 158.504 89.8593 158.504 88.9238C158.504 87.9883 157.743 87.23 156.804 87.23C155.865 87.23 155.104 87.9883 155.104 88.9238C155.104 89.8593 155.865 90.6177 156.804 90.6177Z" stroke="white" stroke-miterlimit="10"/>
<path d="M156.804 48.5135C157.743 48.5135 158.504 47.7551 158.504 46.8196C158.504 45.8841 157.743 45.1257 156.804 45.1257C155.865 45.1257 155.104 45.8841 155.104 46.8196C155.104 47.7551 155.865 48.5135 156.804 48.5135Z" stroke="white" stroke-miterlimit="10"/>
<path d="M135.432 69.5655C136.371 69.5655 137.132 68.8071 137.132 67.8716C137.132 66.9361 136.371 66.1777 135.432 66.1777C134.493 66.1777 133.732 66.9361 133.732 67.8716C133.732 68.8071 134.493 69.5655 135.432 69.5655Z" stroke="white" stroke-miterlimit="10"/>
<path d="M191.876 63.2515L191.031 65.8312C190.789 66.5699 190.209 67.144 189.472 67.3851L186.883 68.2271L189.472 69.0692C190.213 69.3103 190.789 69.8883 191.031 70.6231L191.876 73.2028L192.722 70.6231C192.964 69.8844 193.544 69.3103 194.281 69.0692L196.87 68.2271L194.281 67.3851C193.54 67.144 192.964 66.566 192.722 65.8312L191.876 63.2515Z" stroke="white" stroke-miterlimit="10"/>
<path d="M156.919 98.792L156.073 101.372C155.831 102.11 155.251 102.685 154.514 102.926L151.925 103.768L154.514 104.61C155.255 104.851 155.831 105.429 156.073 106.164L156.919 108.743L157.764 106.164C158.006 105.425 158.586 104.851 159.323 104.61L161.913 103.768L159.323 102.926C158.582 102.685 158.006 102.107 157.764 101.372L156.919 98.792Z" stroke="white" stroke-miterlimit="10"/>
<path d="M156.919 27L156.073 29.5797C155.831 30.3184 155.251 30.8925 154.514 31.1337L151.925 31.9757L154.514 32.8177C155.255 33.0589 155.831 33.6368 156.073 34.3717L156.919 36.9514L157.764 34.3717C158.006 33.633 158.586 33.0589 159.323 32.8177L161.913 31.9757L159.323 31.1337C158.582 30.8925 158.006 30.3146 157.764 29.5797L156.919 27Z" stroke="white" stroke-miterlimit="10"/>
<path d="M118.994 63.6069L119.839 66.1866C120.081 66.9253 120.661 67.4995 121.399 67.7406L123.988 68.5826L121.399 69.4247C120.657 69.6658 120.081 70.2437 119.839 70.9786L118.994 73.5583L118.149 70.9786C117.907 70.2399 117.327 69.6658 116.589 69.4247L114 68.5826L116.589 67.7406C117.331 67.4995 117.907 66.9215 118.149 66.1866L118.994 63.6069Z" stroke="white" stroke-miterlimit="10"/>
<circle cx="11.5" cy="55.5" r="1.5" fill="white"/>
</g>
<defs>
<clipPath id="clip0_436_13141">
<rect width="311" height="136" rx="18.6736" fill="white"/>
</clipPath>
</defs>
</svg>
