<svg width="149" height="90" viewBox="0 0 149 90" fill="none" xmlns="http://www.w3.org/2000/svg">
<rect x="0.75" y="0.108643" width="147.5" height="89.7826" rx="11.8395" fill="#378861"/>
<path d="M117.973 36.3887V37.6287H99.0131V36.6687L111.013 24.5887C112.64 22.962 113.733 21.5753 114.293 20.4287C114.88 19.2553 115.173 18.0553 115.173 16.8287C115.173 14.9353 114.52 13.442 113.213 12.3487C111.933 11.2553 110.093 10.7087 107.693 10.7087C105.826 10.7087 104.2 10.9887 102.813 11.5487C101.453 12.082 100.28 12.922 99.2931 14.0687L98.3731 13.1887C100.533 10.7087 103.653 9.46866 107.733 9.46866C110.426 9.46866 112.56 10.122 114.133 11.4287C115.706 12.7353 116.493 14.5087 116.493 16.7487C116.493 18.162 116.173 19.522 115.533 20.8287C114.893 22.1353 113.706 23.6553 111.973 25.3887L101.053 36.3887H117.973ZM140.278 36.3887V37.6287H121.318V36.6687L133.318 24.5887C134.944 22.962 136.038 21.5753 136.598 20.4287C137.184 19.2553 137.478 18.0553 137.478 16.8287C137.478 14.9353 136.824 13.442 135.518 12.3487C134.238 11.2553 132.398 10.7087 129.998 10.7087C128.131 10.7087 126.504 10.9887 125.118 11.5487C123.758 12.082 122.584 12.922 121.598 14.0687L120.678 13.1887C122.838 10.7087 125.958 9.46866 130.038 9.46866C132.731 9.46866 134.864 10.122 136.438 11.4287C138.011 12.7353 138.798 14.5087 138.798 16.7487C138.798 18.162 138.478 19.522 137.838 20.8287C137.198 22.1353 136.011 23.6553 134.278 25.3887L123.358 36.3887H140.278Z" fill="white"/>
<path d="M74.6967 31.5652V58.4121" stroke="white" stroke-miterlimit="10"/>
<path d="M88.147 45.0156H61.3112" stroke="white" stroke-miterlimit="10"/>
<path d="M82.7129 36.9993L66.7239 52.9994" stroke="white" stroke-miterlimit="10"/>
<path d="M82.7129 53.0319L66.7239 37.0427" stroke="white" stroke-miterlimit="10"/>
<path d="M60.1357 46.1756C59.4865 46.1756 58.9601 45.6493 58.9601 45C58.9601 44.3508 59.4865 43.8245 60.1357 43.8245C60.7849 43.8245 61.3112 44.3508 61.3112 45C61.3112 45.6493 60.7849 46.1756 60.1357 46.1756Z" fill="#378861" stroke="white" stroke-miterlimit="10"/>
<path d="M74.5785 60.7862C73.9293 60.7862 73.403 60.2598 73.403 59.6106C73.403 58.9614 73.9293 58.4351 74.5785 58.4351C75.2278 58.4351 75.7541 58.9614 75.7541 59.6106C75.7541 60.2598 75.2278 60.7862 74.5785 60.7862Z" fill="#378861" stroke="white" stroke-miterlimit="10"/>
<path d="M74.5785 31.5652C73.9293 31.5652 73.403 31.0389 73.403 30.3897C73.403 29.7404 73.9293 29.2141 74.5785 29.2141C75.2278 29.2141 75.7541 29.7404 75.7541 30.3897C75.7541 31.0389 75.2278 31.5652 74.5785 31.5652Z" fill="#378861" stroke="white" stroke-miterlimit="10"/>
<path d="M89.3567 46.1756C88.7074 46.1756 88.1811 45.6493 88.1811 45C88.1811 44.3508 88.7074 43.8245 89.3567 43.8245C90.0059 43.8245 90.5322 44.3508 90.5322 45C90.5322 45.6493 90.0059 46.1756 89.3567 46.1756Z" fill="#378861" stroke="white" stroke-miterlimit="10"/>
<path d="M24.2712 79.7693L10.6408 79.7583L10.6553 61.7298L21.4915 61.7386L21.4882 65.8368L25.0139 65.8396C27.84 65.8419 30.1363 63.5493 30.1386 60.7233C30.1408 57.8972 27.8482 55.6009 25.0222 55.5986L16.594 55.5918L16.5797 73.3432L23.1451 73.3485C29.7422 73.3538 35.0987 68.0104 35.104 61.4088C35.1093 54.8116 29.766 49.4551 23.1643 49.4498L10.6408 49.4498" fill="#378861"/>
<path d="M24.2712 79.7693L10.6408 79.7583L10.6553 61.7298L21.4915 61.7386L21.4882 65.8368L25.0139 65.8396C27.84 65.8419 30.1363 63.5493 30.1386 60.7233C30.1408 57.8972 27.8482 55.6009 25.0222 55.5986L16.594 55.5918L16.5797 73.3432L23.1451 73.3485C29.7422 73.3538 35.0987 68.0104 35.104 61.4088C35.1093 54.8116 29.766 49.4551 23.1643 49.4498L10.6408 49.4498" stroke="white" stroke-miterlimit="10"/>
<path d="M24.2712 9.98362L10.6408 9.9946L10.6553 28.0231L21.4915 28.0144L21.4882 23.9161L25.0139 23.9133C27.84 23.911 30.1363 26.2036 30.1386 29.0297C30.1408 31.8557 27.8482 34.152 25.0222 34.1543L16.594 34.1611L16.5797 16.4097L23.1451 16.4044C29.7422 16.3991 35.0987 21.7425 35.104 28.3442C35.1093 34.9413 29.766 40.2978 23.1643 40.3031L10.6408 40.3032" fill="#378861"/>
<path d="M24.2712 9.98362L10.6408 9.9946L10.6553 28.0231L21.4915 28.0144L21.4882 23.9161L25.0139 23.9133C27.84 23.911 30.1363 26.2036 30.1386 29.0297C30.1408 31.8557 27.8482 34.152 25.0222 34.1543L16.594 34.1611L16.5797 16.4097L23.1451 16.4044C29.7422 16.3991 35.0987 21.7425 35.104 28.3442C35.1093 34.9413 29.766 40.2978 23.1643 40.3031L10.6408 40.3032" stroke="white" stroke-miterlimit="10"/>
<path d="M124.561 79.7693L138.191 79.7583L138.177 61.7298L127.34 61.7386L127.344 65.8368L123.818 65.8396C120.992 65.8419 118.696 63.5493 118.693 60.7233C118.691 57.8972 120.984 55.6009 123.81 55.5986L132.238 55.5918L132.252 73.3432L125.687 73.3485C119.09 73.3538 113.733 68.0104 113.728 61.4088C113.723 54.8116 119.066 49.4551 125.668 49.4498L138.191 49.4498" fill="#378861"/>
<path d="M124.561 79.7693L138.191 79.7583L138.177 61.7298L127.34 61.7386L127.344 65.8368L123.818 65.8396C120.992 65.8419 118.696 63.5493 118.693 60.7233C118.691 57.8972 120.984 55.6009 123.81 55.5986L132.238 55.5918L132.252 73.3432L125.687 73.3485C119.09 73.3538 113.733 68.0104 113.728 61.4088C113.723 54.8116 119.066 49.4551 125.668 49.4498L138.191 49.4498" stroke="white" stroke-miterlimit="10"/>
<line x1="124.571" y1="79.7087" x2="23.9358" y2="79.7087" stroke="white"/>
<line x1="89.971" y1="10.1086" x2="14.0015" y2="9.86199" stroke="white"/>
<circle cx="90.25" cy="10.1138" r="1.5" fill="white"/>
<circle cx="137.5" cy="49.5" r="1.5" fill="white"/>
<line x1="11.1162" y1="40.0669" x2="11.1162" y2="49.4398" stroke="white"/>
<path d="M50.3278 41.7935L50.9121 43.5838C51.0795 44.0965 51.4806 44.4949 51.9906 44.6623L53.7809 45.2466L51.9906 45.831C51.4779 45.9984 51.0795 46.3995 50.9121 46.9095L50.3278 48.6998L49.7434 46.9095C49.576 46.3968 49.1749 45.9984 48.6649 45.831L46.8746 45.2466L48.6649 44.6623C49.1776 44.4949 49.576 44.0938 49.7434 43.5838L50.3278 41.7935Z" fill="#378861" stroke="white" stroke-miterlimit="10"/>
<path d="M74.5 66.459L75.0844 68.2493C75.2517 68.762 75.6528 69.1604 76.1628 69.3278L77.9532 69.9122L76.1628 70.4966C75.6502 70.6639 75.2517 71.065 75.0844 71.575L74.5 73.3653L73.9156 71.575C73.7483 71.0623 73.3472 70.6639 72.8372 70.4966L71.0468 69.9122L72.8372 69.3278C73.3498 69.1604 73.7483 68.7593 73.9156 68.2493L74.5 66.459Z" fill="#378861" stroke="white" stroke-miterlimit="10"/>
<path d="M74.5 16.6345L75.0844 18.4249C75.2517 18.9375 75.6528 19.336 76.1628 19.5033L77.9532 20.0877L76.1628 20.6721C75.6502 20.8394 75.2517 21.2405 75.0844 21.7505L74.5 23.5409L73.9156 21.7505C73.7483 21.2379 73.3472 20.8394 72.8372 20.6721L71.0468 20.0877L72.8372 19.5033C73.3498 19.336 73.7483 18.9349 73.9156 18.4249L74.5 16.6345Z" fill="#378861" stroke="white" stroke-miterlimit="10"/>
</svg>
