<svg width="134" height="134" viewBox="0 0 134 134" fill="none" xmlns="http://www.w3.org/2000/svg">
<g clip-path="url(#clip0_436_11907)">
<rect x="0.669922" y="0.669922" width="132.66" height="132.66" rx="11.1323" fill="#378861"/>
<path d="M97.3473 9.85693V37.8569H96.0273V11.0969H88.9873V9.85693H97.3473ZM123.095 36.6169V37.8569H104.135V36.8969L116.135 24.8169C117.761 23.1903 118.855 21.8036 119.415 20.6569C120.001 19.4836 120.295 18.2836 120.295 17.0569C120.295 15.1636 119.641 13.6703 118.335 12.5769C117.055 11.4836 115.215 10.9369 112.815 10.9369C110.948 10.9369 109.321 11.2169 107.935 11.7769C106.575 12.3103 105.401 13.1503 104.415 14.2969L103.495 13.4169C105.655 10.9369 108.775 9.69693 112.855 9.69693C115.548 9.69693 117.681 10.3503 119.255 11.6569C120.828 12.9636 121.615 14.7369 121.615 16.9769C121.615 18.3903 121.295 19.7503 120.655 21.0569C120.015 22.3636 118.828 23.8836 117.095 25.6169L106.175 36.6169H123.095Z" fill="white"/>
<path d="M27.2836 123.819L9.94746 123.805L9.96593 100.875L23.7481 100.886L23.7439 106.099L28.2282 106.102C31.8226 106.105 34.7432 103.189 34.7461 99.5951C34.749 96.0007 31.8331 93.0801 28.2387 93.0772L17.5192 93.0686L17.501 115.646L25.8513 115.653C34.242 115.66 41.0547 108.863 41.0615 100.467C41.0682 92.0763 34.2722 85.2635 25.8758 85.2567L9.97852 85.2439" stroke="white" stroke-miterlimit="10"/>
<path d="M27.2836 10.4955L9.94746 10.5095L9.96593 33.4394L23.7481 33.4283L23.7439 28.2159L28.2282 28.2122C31.8226 28.2093 34.7432 31.1253 34.7461 34.7196C34.749 38.314 31.8331 41.2346 28.2387 41.2375L17.5192 41.2461L17.501 18.6687L25.8513 18.6619C34.242 18.6552 41.0547 25.4513 41.0615 33.8477C41.0682 42.2384 34.2722 49.0512 25.8758 49.058L9.97852 49.0708" stroke="white" stroke-miterlimit="10"/>
<path d="M106.221 123.819L123.557 123.805L123.538 100.875L109.756 100.886L109.76 106.099L105.276 106.102C101.682 106.105 98.7609 103.189 98.758 99.5951C98.7551 96.0007 101.671 93.0801 105.265 93.0772L115.985 93.0686L116.003 115.646L107.653 115.653C99.2622 115.66 92.4494 108.863 92.4426 100.467C92.4359 92.0763 99.2319 85.2635 107.628 85.2567L123.557 85.2567" stroke="white" stroke-miterlimit="10"/>
<line y1="-0.5" x2="87.8343" y2="-0.5" transform="matrix(1 0 0 -1 27.257 123.27)" stroke="white"/>
<line y1="-0.5" x2="62.8759" y2="-0.5" transform="matrix(1 0 0 -1 17.5373 10.0698)" stroke="white"/>
<circle cx="1.5" cy="1.5" r="1.5" transform="matrix(-1 0 0 1 81.3732 9.16992)" fill="white"/>
<line x1="10.4785" y1="48.8312" x2="10.4475" y2="85.5541" stroke="white"/>
<line x1="123.5" y1="44" x2="123.5" y2="86" stroke="white"/>
<circle cx="1.5" cy="1.5" r="1.5" transform="matrix(-1 0 0 1 125.07 43.2061)" fill="white"/>
<path d="M66.9656 50.3015V82.9318" stroke="white" stroke-miterlimit="10"/>
<path d="M50.6177 66.6497H83.2345" stroke="white" stroke-miterlimit="10"/>
<path d="M57.2225 56.9065L76.6559 76.3534" stroke="white" stroke-miterlimit="10"/>
<path d="M57.2225 76.3925L76.6559 56.959" stroke="white" stroke-miterlimit="10"/>
<path d="M27.7498 63.2188L27.1626 65.0178C26.9945 65.5329 26.5914 65.9333 26.0789 66.1015L24.2799 66.6887L26.0789 67.2759C26.5941 67.4441 26.9945 67.8471 27.1626 68.3596L27.7498 70.1586L28.337 68.3596C28.5052 67.8444 28.9082 67.4441 29.4207 67.2759L31.2197 66.6887L29.4207 66.1015C28.9056 65.9333 28.5052 65.5302 28.337 65.0178L27.7498 63.2188Z" stroke="white" stroke-miterlimit="10"/>
<path d="M66.9949 101.647L66.4077 103.446C66.2396 103.962 65.8365 104.362 65.324 104.53L63.525 105.117L65.324 105.705C65.8392 105.873 66.2396 106.276 66.4077 106.788L66.9949 108.587L67.5821 106.788C67.7503 106.273 68.1533 105.873 68.6658 105.705L70.4648 105.117L68.6658 104.53C68.1507 104.362 67.7503 103.959 67.5821 103.446L66.9949 101.647Z" stroke="white" stroke-miterlimit="10"/>
<path d="M66.9949 25.2539L66.4077 27.0529C66.2396 27.5681 65.8365 27.9685 65.324 28.1366L63.525 28.7238L65.324 29.3111C65.8392 29.4792 66.2396 29.8822 66.4077 30.3947L66.9949 32.1937L67.5821 30.3947C67.7503 29.8796 68.1533 29.4792 68.6658 29.3111L70.4648 28.7238L68.6658 28.1366C68.1507 27.9685 67.7503 27.5654 67.5821 27.0529L66.9949 25.2539Z" stroke="white" stroke-miterlimit="10"/>
<path d="M107.596 63.2188L107.008 65.0178C106.84 65.5329 106.437 65.9333 105.925 66.1015L104.126 66.6887L105.925 67.2759C106.44 67.4441 106.84 67.8471 107.008 68.3596L107.596 70.1586L108.183 68.3596C108.351 67.8444 108.754 67.4441 109.266 67.2759L111.065 66.6887L109.266 66.1015C108.751 65.9333 108.351 65.5302 108.183 65.0178L107.596 63.2188Z" stroke="white" stroke-miterlimit="10"/>
<path d="M92.8995 68.1176C93.6886 68.1176 94.3283 67.4779 94.3283 66.6888C94.3283 65.8997 93.6886 65.26 92.8995 65.26C92.1104 65.26 91.4707 65.8997 91.4707 66.6888C91.4707 67.4779 92.1104 68.1176 92.8995 68.1176Z" stroke="white" stroke-miterlimit="10"/>
<path d="M66.9952 93.8913C67.7843 93.8913 68.424 93.2516 68.424 92.4625C68.424 91.6734 67.7843 91.0337 66.9952 91.0337C66.2061 91.0337 65.5664 91.6734 65.5664 92.4625C65.5664 93.2516 66.2061 93.8913 66.9952 93.8913Z" stroke="white" stroke-miterlimit="10"/>
<path d="M66.9952 42.8076C67.7843 42.8076 68.424 42.1678 68.424 41.3787C68.424 40.5896 67.7843 39.95 66.9952 39.95C66.2061 39.95 65.5664 40.5896 65.5664 41.3787C65.5664 42.1678 66.2061 42.8076 66.9952 42.8076Z" stroke="white" stroke-miterlimit="10"/>
<path d="M40.8136 68.1174C41.6027 68.1174 42.2423 67.4777 42.2423 66.6886C42.2423 65.8994 41.6027 65.2598 40.8136 65.2598C40.0244 65.2598 39.3848 65.8994 39.3848 66.6886C39.3848 67.4777 40.0244 68.1174 40.8136 68.1174Z" stroke="white" stroke-miterlimit="10"/>
</g>
<defs>
<clipPath id="clip0_436_11907">
<rect x="0.669922" y="0.669922" width="132.66" height="132.66" rx="11.1323" fill="white"/>
</clipPath>
</defs>
</svg>
