<svg width="1085" height="600" viewBox="0 0 1085 600" fill="none" xmlns="http://www.w3.org/2000/svg">
<path d="M150.873 334.594L154.521 345.767C155.565 348.967 158.068 351.454 161.251 352.498L172.425 356.145L161.251 359.792C158.052 360.837 155.565 363.34 154.521 366.523L150.873 377.697L147.226 366.523C146.182 363.324 143.678 360.837 140.495 359.792L129.322 356.145L140.495 352.498C143.695 351.454 146.182 348.95 147.226 345.767L150.873 334.594Z" stroke="white" stroke-width="2" stroke-miterlimit="10"/>
<path d="M60.474 230.419L63.0884 238.429C63.8372 240.723 65.6318 242.506 67.9135 243.254L75.9235 245.869L67.9135 248.483C65.6199 249.232 63.8372 251.027 63.0884 253.308L60.474 261.318L57.8595 253.308C57.1108 251.015 55.3162 249.232 53.0344 248.483L45.0244 245.869L53.0344 243.254C55.3281 242.506 57.1108 240.711 57.8595 238.429L60.474 230.419Z" stroke="white" stroke-width="2" stroke-miterlimit="10"/>
<path d="M156.703 125.362L159.317 133.372C160.066 135.666 161.861 137.449 164.143 138.197L172.153 140.812L164.143 143.427C161.849 144.175 160.066 145.97 159.317 148.252L156.703 156.262L154.088 148.252C153.34 145.958 151.545 144.175 149.263 143.427L141.253 140.812L149.263 138.197C151.557 137.449 153.34 135.654 154.088 133.372L156.703 125.362Z" stroke="white" stroke-width="2" stroke-miterlimit="10"/>
<path d="M49.8801 49.4391L51.7476 55.1605C52.2824 56.7988 53.5643 58.0722 55.1941 58.607L60.9155 60.4745L55.1941 62.3421C53.5558 62.8769 52.2824 64.1586 51.7476 65.7885L49.8801 71.5099L48.0126 65.7885C47.4778 64.1501 46.196 62.8769 44.5661 62.3421L38.8447 60.4745L44.5661 58.607C46.2045 58.0722 47.4778 56.7903 48.0126 55.1605L49.8801 49.4391Z" stroke="white" stroke-width="2" stroke-miterlimit="10"/>
<path d="M788.732 489.089L792.379 500.263C793.424 503.462 795.927 505.949 799.11 506.994L810.284 510.641L799.11 514.288C795.911 515.333 793.424 517.836 792.379 521.019L788.732 532.192L785.085 521.019C784.041 517.819 781.537 515.333 778.354 514.288L767.181 510.641L778.354 506.994C781.554 505.949 784.041 503.446 785.085 500.263L788.732 489.089Z" stroke="white" stroke-width="2" stroke-miterlimit="10"/>
<path d="M844.351 28.251L847.998 39.4247C849.043 42.6243 851.546 45.1111 854.729 46.1555L865.903 49.8026L854.729 53.4499C851.529 54.4944 849.043 56.9976 847.998 60.1806L844.351 71.3543L840.704 60.1806C839.659 56.981 837.156 54.4944 833.973 53.4499L822.799 49.8026L833.973 46.1555C837.173 45.1111 839.659 42.6077 840.704 39.4247L844.351 28.251Z" stroke="white" stroke-width="2" stroke-miterlimit="10"/>
<path d="M954.783 49.4391L957.397 57.4491C958.146 59.7427 959.94 61.5254 962.222 62.2742L970.232 64.8886L962.222 67.5033C959.928 68.252 958.146 70.0464 957.397 72.3282L954.783 80.3382L952.168 72.3282C951.419 70.0345 949.625 68.252 947.343 67.5033L939.333 64.8886L947.343 62.2742C949.637 61.5254 951.419 59.7309 952.168 57.4491L954.783 49.4391Z" stroke="white" stroke-width="2" stroke-miterlimit="10"/>
<path d="M723.481 532.348L726.095 540.358C726.844 542.652 728.639 544.434 730.92 545.183L738.93 547.797L730.92 550.412C728.627 551.161 726.844 552.955 726.095 555.237L723.481 563.247L720.866 555.237C720.118 552.943 718.323 551.161 716.041 550.412L708.031 547.797L716.041 545.183C718.335 544.434 720.118 542.64 720.866 540.358L723.481 532.348Z" stroke="white" stroke-width="2" stroke-miterlimit="10"/>
<path d="M893.867 119.182L895.734 124.904C896.269 126.542 897.551 127.815 899.181 128.35L904.902 130.218L899.181 132.085C897.543 132.62 896.269 133.902 895.734 135.532L893.867 141.253L891.999 135.532C891.465 133.893 890.183 132.62 888.553 132.085L882.832 130.218L888.553 128.35C890.191 127.815 891.465 126.534 891.999 124.904L893.867 119.182Z" stroke="white" stroke-width="2" stroke-miterlimit="10"/>
</svg>
