<svg width="328" height="164" viewBox="0 0 328 164" fill="none" xmlns="http://www.w3.org/2000/svg">
<g clip-path="url(#clip0_303_12843)">
<rect width="328" height="164" rx="24" fill="#F4F4F4"/>
<path d="M244.067 25.5V78H241.592V27.825H228.392V25.5H244.067ZM301.043 62.85H289.643V78H287.168V62.85H257.018V61.05L286.043 25.5H288.968L260.318 60.6H287.168V47.25H289.643V60.6H301.043V62.85Z" fill="#2B714F"/>
<path d="M29.739 80.1699L45.3901 65.91" stroke="#2B714F" stroke-linecap="round"/>
<path d="M184.859 80.1699L169.208 66.2578" stroke="#2B714F" stroke-linecap="round"/>
<path d="M148 49.5L108.747 20.3007C108.506 20.1213 108.176 20.1171 107.931 20.2903L66.5001 49.5" stroke="#2B714F" stroke-linecap="round"/>
<path d="M107.876 125.044C107.945 124.994 108.039 124.994 108.107 125.045L184.597 181.397C184.749 181.509 184.67 181.75 184.481 181.75H30.1471C29.9575 181.75 29.8788 181.507 30.0324 181.396L107.876 125.044Z" stroke="#2B714F"/>
<path d="M29.739 80.1699V181.728" stroke="#2B714F" stroke-linecap="round"/>
<path d="M184.859 80.1699V181.728" stroke="#2B714F" stroke-linecap="round"/>
<path d="M99.2995 130.949L30.0868 80.1699" stroke="#2B714F" stroke-linecap="round"/>
<path d="M116.342 130.949L184.511 80.1699" stroke="#2B714F" stroke-linecap="round"/>
<path d="M45.7379 91.2996V50.2588C45.7379 49.8747 46.0493 49.5632 46.4335 49.5632H168.512C168.896 49.5632 169.208 49.8747 169.208 50.2588V91.2996" stroke="#2B714F" stroke-linecap="round"/>
<path d="M71.0397 82.2569V110" stroke="#2B714F" stroke-linecap="round"/>
<path d="M71.0001 82H140.305C140.689 82 141 82.3114 141 82.6956V113" stroke="#2B714F" stroke-linecap="round"/>
<path d="M107.652 81.813C107.395 81.934 107.148 81.63 107.319 81.4034L116.306 69.4922C118.058 67.1695 121.632 67.4694 122.972 70.0472C124.01 72.0432 123.181 74.4944 121.147 75.4528L107.652 81.813Z" stroke="#2B714F" stroke-miterlimit="10"/>
<path d="M106.766 81.813C107.023 81.934 107.27 81.63 107.099 81.4034L98.1127 69.4922C96.36 67.1695 92.7867 67.4694 91.4465 70.0472C90.4084 72.0432 91.2372 74.4944 93.2709 75.4528L106.766 81.813Z" stroke="#2B714F" stroke-miterlimit="10"/>
<line x1="106.897" y1="82.1806" x2="91.6753" y2="97.4023" stroke="#2B714F"/>
<line y1="-0.5" x2="21.5267" y2="-0.5" transform="matrix(0.707107 0.707107 0.707107 -0.707107 107.631 81.827)" stroke="#2B714F"/>
<path d="M243.242 103.956H244.478V106.836H243.362V105H236.45L236.438 106.836H235.322L235.334 103.956H235.742C236.894 103.884 237.17 101.856 237.254 99.3L237.338 96.6H243.242V103.956ZM238.31 99.408C238.238 101.46 238.034 103.308 237.314 103.956H242.054V97.644H238.37L238.31 99.408ZM247.319 103.956H252.215V105H246.119V96.6H252.047V97.644H247.319V100.224H251.531V101.244H247.319V103.956ZM259.751 105L257.027 101.304H255.275V105H254.099V96.6H255.275V100.248H257.051L259.691 96.6H260.975L257.975 100.668L261.119 105H259.751ZM268.616 105L267.692 102.9H263.228L262.304 105H261.068L264.872 96.6H266.06L269.876 105H268.616ZM263.648 101.94H267.272L265.46 97.824L263.648 101.94ZM271.326 105V96.6H277.662V97.62H272.514V100.02H275.13C277.134 100.02 278.19 100.872 278.19 102.444C278.19 104.088 277.026 105 274.926 105H271.326ZM272.514 104.052H274.878C276.258 104.052 276.99 103.512 276.99 102.492C276.99 101.46 276.282 100.968 274.878 100.968H272.514V104.052ZM283.379 96.6C285.563 96.6 286.883 97.704 286.883 99.528C286.883 101.352 285.563 102.456 283.379 102.456H281.303V105H280.103V96.6H283.379ZM283.343 101.412C284.879 101.412 285.683 100.728 285.683 99.528C285.683 98.328 284.879 97.644 283.343 97.644H281.303V101.412H283.343ZM291.149 96.6H294.521V105H293.345V102.552H291.029C290.921 102.552 290.813 102.552 290.705 102.54L289.025 105H287.753L289.613 102.336C288.425 101.94 287.753 100.98 287.753 99.624C287.753 97.704 289.085 96.6 291.149 96.6ZM288.965 99.612C288.965 100.848 289.697 101.544 291.125 101.544H293.345V97.644H291.197C289.769 97.644 288.965 98.316 288.965 99.612Z" fill="#2B714F"/>
</g>
<defs>
<clipPath id="clip0_303_12843">
<rect width="328" height="164" rx="24" fill="white"/>
</clipPath>
</defs>
</svg>
