<svg width="1085" height="600" viewBox="0 0 1085 600" fill="none" xmlns="http://www.w3.org/2000/svg">
<mask id="mask0_817_2277" style="mask-type:alpha" maskUnits="userSpaceOnUse" x="0" y="0" width="1085" height="600">
<rect width="1085" height="600" fill="#D9D9D9"/>
</mask>
<g mask="url(#mask0_817_2277)">
<path d="M53.7271 240.882V279.824" stroke="#2B714F" stroke-width="2" stroke-miterlimit="10"/>
<path d="M34.2065 260.393H73.153" stroke="#2B714F" stroke-width="2" stroke-miterlimit="10"/>
<path d="M42.0933 248.765L65.2979 271.973" stroke="#2B714F" stroke-width="2" stroke-miterlimit="10"/>
<path d="M42.0933 272.02L65.2979 248.828" stroke="#2B714F" stroke-width="2" stroke-miterlimit="10"/>
<path d="M246.199 75.8824V94.2078" stroke="#2B714F" stroke-width="2" stroke-miterlimit="10"/>
<path d="M237.013 85.0636H255.34" stroke="#2B714F" stroke-width="2" stroke-miterlimit="10"/>
<path d="M240.724 79.5918L251.644 90.5133" stroke="#2B714F" stroke-width="2" stroke-miterlimit="10"/>
<path d="M240.724 90.5354L251.644 79.6213" stroke="#2B714F" stroke-width="2" stroke-miterlimit="10"/>
<path d="M73.2812 30.8824V45.0083" stroke="#2B714F" stroke-width="2" stroke-miterlimit="10"/>
<path d="M66.2002 37.9596H80.3278" stroke="#2B714F" stroke-width="2" stroke-miterlimit="10"/>
<path d="M69.061 33.7417L77.4784 42.1603" stroke="#2B714F" stroke-width="2" stroke-miterlimit="10"/>
<path d="M69.061 42.1775L77.4784 33.7646" stroke="#2B714F" stroke-width="2" stroke-miterlimit="10"/>
<path d="M215.509 321.177V362.256" stroke="#2B714F" stroke-width="2" stroke-miterlimit="10"/>
<path d="M194.917 341.758H236.002" stroke="#2B714F" stroke-width="2" stroke-miterlimit="10"/>
<path d="M203.237 329.492L227.716 353.974" stroke="#2B714F" stroke-width="2" stroke-miterlimit="10"/>
<path d="M203.237 354.024L227.716 329.558" stroke="#2B714F" stroke-width="2" stroke-miterlimit="10"/>
<path d="M1032.88 180V216.927" stroke="#2B714F" stroke-width="2" stroke-miterlimit="10"/>
<path d="M1014.37 198.501H1051.31" stroke="#2B714F" stroke-width="2" stroke-miterlimit="10"/>
<path d="M1021.85 187.474L1043.86 209.482" stroke="#2B714F" stroke-width="2" stroke-miterlimit="10"/>
<path d="M1021.85 209.527L1043.86 187.534" stroke="#2B714F" stroke-width="2" stroke-miterlimit="10"/>
<path d="M843.943 136.765V159.574" stroke="#2B714F" stroke-width="2" stroke-miterlimit="10"/>
<path d="M832.509 148.192H855.321" stroke="#2B714F" stroke-width="2" stroke-miterlimit="10"/>
<path d="M837.128 141.382L850.72 154.975" stroke="#2B714F" stroke-width="2" stroke-miterlimit="10"/>
<path d="M837.128 155.003L850.72 141.418" stroke="#2B714F" stroke-width="2" stroke-miterlimit="10"/>
<path d="M148.569 302.282V155.294" stroke="#2B714F" stroke-width="2" stroke-miterlimit="10"/>
<path d="M163.356 176.662L148.569 180.459" stroke="#2B714F" stroke-width="2" stroke-miterlimit="10"/>
<path d="M170.893 192.057L147.46 198.974" stroke="#2B714F" stroke-width="2" stroke-miterlimit="10"/>
<path d="M170.893 213.178L147.46 220.095" stroke="#2B714F" stroke-width="2" stroke-miterlimit="10"/>
<path d="M170.893 234.3L147.46 241.217" stroke="#2B714F" stroke-width="2" stroke-miterlimit="10"/>
<path d="M170.893 255.421L147.46 262.339" stroke="#2B714F" stroke-width="2" stroke-miterlimit="10"/>
<path d="M170.893 276.542L147.46 283.46" stroke="#2B714F" stroke-width="2" stroke-miterlimit="10"/>
<path d="M133.782 176.662L148.569 180.459" stroke="#2B714F" stroke-width="2" stroke-miterlimit="10"/>
<path d="M126.245 192.057L149.699 198.974" stroke="#2B714F" stroke-width="2" stroke-miterlimit="10"/>
<path d="M126.245 213.178L149.699 220.095" stroke="#2B714F" stroke-width="2" stroke-miterlimit="10"/>
<path d="M126.245 234.3L149.699 241.217" stroke="#2B714F" stroke-width="2" stroke-miterlimit="10"/>
<path d="M126.245 255.421L149.699 262.339" stroke="#2B714F" stroke-width="2" stroke-miterlimit="10"/>
<path d="M126.245 276.542L149.699 283.46" stroke="#2B714F" stroke-width="2" stroke-miterlimit="10"/>
<path d="M955.225 166.765V67.9413" stroke="#2B714F" stroke-width="2" stroke-miterlimit="10"/>
<path d="M965.166 82.3073L955.225 84.8603" stroke="#2B714F" stroke-width="2" stroke-miterlimit="10"/>
<path d="M970.234 92.6576L954.479 97.3083" stroke="#2B714F" stroke-width="2" stroke-miterlimit="10"/>
<path d="M970.234 106.858L954.479 111.509" stroke="#2B714F" stroke-width="2" stroke-miterlimit="10"/>
<path d="M970.234 121.058L954.479 125.709" stroke="#2B714F" stroke-width="2" stroke-miterlimit="10"/>
<path d="M970.234 135.259L954.479 139.91" stroke="#2B714F" stroke-width="2" stroke-miterlimit="10"/>
<path d="M970.234 149.459L954.479 154.11" stroke="#2B714F" stroke-width="2" stroke-miterlimit="10"/>
<path d="M945.283 82.3073L955.225 84.8603" stroke="#2B714F" stroke-width="2" stroke-miterlimit="10"/>
<path d="M940.216 92.6576L955.984 97.3083" stroke="#2B714F" stroke-width="2" stroke-miterlimit="10"/>
<path d="M940.216 106.858L955.984 111.509" stroke="#2B714F" stroke-width="2" stroke-miterlimit="10"/>
<path d="M940.216 121.058L955.984 125.709" stroke="#2B714F" stroke-width="2" stroke-miterlimit="10"/>
<path d="M940.216 135.259L955.984 139.91" stroke="#2B714F" stroke-width="2" stroke-miterlimit="10"/>
<path d="M940.216 149.459L955.984 154.11" stroke="#2B714F" stroke-width="2" stroke-miterlimit="10"/>
<path d="M779.454 95.2942V20.2942" stroke="#2B714F" stroke-width="2" stroke-miterlimit="10"/>
<path d="M786.999 31.197L779.454 33.1346" stroke="#2B714F" stroke-width="2" stroke-miterlimit="10"/>
<path d="M790.845 39.0522L778.888 42.5818" stroke="#2B714F" stroke-width="2" stroke-miterlimit="10"/>
<path d="M790.845 49.8291L778.888 53.3586" stroke="#2B714F" stroke-width="2" stroke-miterlimit="10"/>
<path d="M790.845 60.6063L778.888 64.1359" stroke="#2B714F" stroke-width="2" stroke-miterlimit="10"/>
<path d="M790.845 71.3834L778.888 74.913" stroke="#2B714F" stroke-width="2" stroke-miterlimit="10"/>
<path d="M790.845 82.1605L778.888 85.6901" stroke="#2B714F" stroke-width="2" stroke-miterlimit="10"/>
<path d="M771.909 31.197L779.454 33.1346" stroke="#2B714F" stroke-width="2" stroke-miterlimit="10"/>
<path d="M768.063 39.0522L780.031 42.5818" stroke="#2B714F" stroke-width="2" stroke-miterlimit="10"/>
<path d="M768.063 49.8291L780.031 53.3586" stroke="#2B714F" stroke-width="2" stroke-miterlimit="10"/>
<path d="M768.063 60.6063L780.031 64.1359" stroke="#2B714F" stroke-width="2" stroke-miterlimit="10"/>
<path d="M768.063 71.3834L780.031 74.913" stroke="#2B714F" stroke-width="2" stroke-miterlimit="10"/>
<path d="M768.063 82.1605L780.031 85.6901" stroke="#2B714F" stroke-width="2" stroke-miterlimit="10"/>
<path d="M215.633 607.059V384.706" stroke="#2B714F" stroke-width="2" stroke-miterlimit="10"/>
<path d="M238.002 417.03L215.633 422.774" stroke="#2B714F" stroke-width="2" stroke-miterlimit="10"/>
<path d="M249.404 440.318L213.956 450.782" stroke="#2B714F" stroke-width="2" stroke-miterlimit="10"/>
<path d="M249.404 472.269L213.956 482.733" stroke="#2B714F" stroke-width="2" stroke-miterlimit="10"/>
<path d="M249.404 504.22L213.956 514.684" stroke="#2B714F" stroke-width="2" stroke-miterlimit="10"/>
<path d="M249.404 536.171L213.956 546.635" stroke="#2B714F" stroke-width="2" stroke-miterlimit="10"/>
<path d="M249.404 568.121L213.956 578.585" stroke="#2B714F" stroke-width="2" stroke-miterlimit="10"/>
<path d="M193.265 417.03L215.633 422.774" stroke="#2B714F" stroke-width="2" stroke-miterlimit="10"/>
<path d="M181.863 440.318L217.342 450.782" stroke="#2B714F" stroke-width="2" stroke-miterlimit="10"/>
<path d="M181.863 472.269L217.342 482.733" stroke="#2B714F" stroke-width="2" stroke-miterlimit="10"/>
<path d="M181.863 504.22L217.342 514.684" stroke="#2B714F" stroke-width="2" stroke-miterlimit="10"/>
<path d="M181.863 536.171L217.342 546.635" stroke="#2B714F" stroke-width="2" stroke-miterlimit="10"/>
<path d="M181.863 568.121L217.342 578.585" stroke="#2B714F" stroke-width="2" stroke-miterlimit="10"/>
<path d="M54.083 510.882V300.103" stroke="#2B714F" stroke-width="2" stroke-miterlimit="10"/>
<path d="M75.2871 330.744L54.083 336.189" stroke="#2B714F" stroke-width="2" stroke-miterlimit="10"/>
<path d="M86.096 352.82L52.4927 362.739" stroke="#2B714F" stroke-width="2" stroke-miterlimit="10"/>
<path d="M86.096 383.108L52.4927 393.027" stroke="#2B714F" stroke-width="2" stroke-miterlimit="10"/>
<path d="M86.096 413.396L52.4927 423.315" stroke="#2B714F" stroke-width="2" stroke-miterlimit="10"/>
<path d="M86.096 443.684L52.4927 453.603" stroke="#2B714F" stroke-width="2" stroke-miterlimit="10"/>
<path d="M86.096 473.971L52.4927 483.891" stroke="#2B714F" stroke-width="2" stroke-miterlimit="10"/>
<path d="M32.8789 330.744L54.083 336.189" stroke="#2B714F" stroke-width="2" stroke-miterlimit="10"/>
<path d="M22.0708 352.82L55.7029 362.739" stroke="#2B714F" stroke-width="2" stroke-miterlimit="10"/>
<path d="M22.0708 383.108L55.7029 393.027" stroke="#2B714F" stroke-width="2" stroke-miterlimit="10"/>
<path d="M22.0708 413.396L55.7029 423.315" stroke="#2B714F" stroke-width="2" stroke-miterlimit="10"/>
<path d="M22.0708 443.684L55.7029 453.603" stroke="#2B714F" stroke-width="2" stroke-miterlimit="10"/>
<path d="M22.0708 473.971L55.7029 483.891" stroke="#2B714F" stroke-width="2" stroke-miterlimit="10"/>
<path d="M246.366 202.941V103.751" stroke="#2B714F" stroke-width="2" stroke-miterlimit="10"/>
<path d="M256.345 118.17L246.366 120.733" stroke="#2B714F" stroke-width="2" stroke-miterlimit="10"/>
<path d="M261.431 128.559L245.618 133.227" stroke="#2B714F" stroke-width="2" stroke-miterlimit="10"/>
<path d="M261.431 142.812L245.618 147.48" stroke="#2B714F" stroke-width="2" stroke-miterlimit="10"/>
<path d="M261.431 157.065L245.618 161.733" stroke="#2B714F" stroke-width="2" stroke-miterlimit="10"/>
<path d="M261.431 171.318L245.618 175.986" stroke="#2B714F" stroke-width="2" stroke-miterlimit="10"/>
<path d="M261.431 185.571L245.618 190.239" stroke="#2B714F" stroke-width="2" stroke-miterlimit="10"/>
<path d="M236.388 118.17L246.366 120.733" stroke="#2B714F" stroke-width="2" stroke-miterlimit="10"/>
<path d="M231.302 128.559L247.129 133.227" stroke="#2B714F" stroke-width="2" stroke-miterlimit="10"/>
<path d="M231.302 142.812L247.129 147.48" stroke="#2B714F" stroke-width="2" stroke-miterlimit="10"/>
<path d="M231.302 157.065L247.129 161.733" stroke="#2B714F" stroke-width="2" stroke-miterlimit="10"/>
<path d="M231.302 171.318L247.129 175.986" stroke="#2B714F" stroke-width="2" stroke-miterlimit="10"/>
<path d="M231.302 185.571L247.129 190.239" stroke="#2B714F" stroke-width="2" stroke-miterlimit="10"/>
<path d="M73.4106 128.824V52.3643" stroke="#2B714F" stroke-width="2" stroke-miterlimit="10"/>
<path d="M81.1023 63.4792L73.4106 65.4545" stroke="#2B714F" stroke-width="2" stroke-miterlimit="10"/>
<path d="M85.0229 71.4873L72.8335 75.0855" stroke="#2B714F" stroke-width="2" stroke-miterlimit="10"/>
<path d="M85.0229 82.474L72.8335 86.0722" stroke="#2B714F" stroke-width="2" stroke-miterlimit="10"/>
<path d="M85.0229 93.4608L72.8335 97.059" stroke="#2B714F" stroke-width="2" stroke-miterlimit="10"/>
<path d="M85.0229 104.448L72.8335 108.046" stroke="#2B714F" stroke-width="2" stroke-miterlimit="10"/>
<path d="M85.0229 115.434L72.8335 119.033" stroke="#2B714F" stroke-width="2" stroke-miterlimit="10"/>
<path d="M65.7188 63.4792L73.4104 65.4545" stroke="#2B714F" stroke-width="2" stroke-miterlimit="10"/>
<path d="M61.7983 71.4873L73.9982 75.0855" stroke="#2B714F" stroke-width="2" stroke-miterlimit="10"/>
<path d="M61.7983 82.474L73.9982 86.0722" stroke="#2B714F" stroke-width="2" stroke-miterlimit="10"/>
<path d="M61.7983 93.4608L73.9982 97.059" stroke="#2B714F" stroke-width="2" stroke-miterlimit="10"/>
<path d="M61.7983 104.448L73.9982 108.046" stroke="#2B714F" stroke-width="2" stroke-miterlimit="10"/>
<path d="M61.7983 115.434L73.9982 119.033" stroke="#2B714F" stroke-width="2" stroke-miterlimit="10"/>
<path d="M1033.02 417.871V231.177" stroke="#2B714F" stroke-width="2" stroke-miterlimit="10"/>
<path d="M1051.8 258.317L1033.02 263.14" stroke="#2B714F" stroke-width="2" stroke-miterlimit="10"/>
<path d="M1061.37 277.87L1031.61 286.656" stroke="#2B714F" stroke-width="2" stroke-miterlimit="10"/>
<path d="M1061.37 304.697L1031.61 313.483" stroke="#2B714F" stroke-width="2" stroke-miterlimit="10"/>
<path d="M1061.37 331.524L1031.61 340.31" stroke="#2B714F" stroke-width="2" stroke-miterlimit="10"/>
<path d="M1061.37 358.351L1031.61 367.137" stroke="#2B714F" stroke-width="2" stroke-miterlimit="10"/>
<path d="M1061.37 385.178L1031.61 393.964" stroke="#2B714F" stroke-width="2" stroke-miterlimit="10"/>
<path d="M1014.24 258.317L1033.02 263.14" stroke="#2B714F" stroke-width="2" stroke-miterlimit="10"/>
<path d="M1004.66 277.87L1034.45 286.656" stroke="#2B714F" stroke-width="2" stroke-miterlimit="10"/>
<path d="M1004.66 304.697L1034.45 313.483" stroke="#2B714F" stroke-width="2" stroke-miterlimit="10"/>
<path d="M1004.66 331.524L1034.45 340.31" stroke="#2B714F" stroke-width="2" stroke-miterlimit="10"/>
<path d="M1004.66 358.351L1034.45 367.137" stroke="#2B714F" stroke-width="2" stroke-miterlimit="10"/>
<path d="M1004.66 385.178L1034.45 393.964" stroke="#2B714F" stroke-width="2" stroke-miterlimit="10"/>
<path d="M844.366 290.812V172.059" stroke="#2B714F" stroke-width="2" stroke-miterlimit="10"/>
<path d="M856.312 189.322L844.366 192.39" stroke="#2B714F" stroke-width="2" stroke-miterlimit="10"/>
<path d="M862.402 201.76L843.47 207.349" stroke="#2B714F" stroke-width="2" stroke-miterlimit="10"/>
<path d="M862.402 218.824L843.47 224.412" stroke="#2B714F" stroke-width="2" stroke-miterlimit="10"/>
<path d="M862.402 235.888L843.47 241.477" stroke="#2B714F" stroke-width="2" stroke-miterlimit="10"/>
<path d="M862.402 252.952L843.47 258.541" stroke="#2B714F" stroke-width="2" stroke-miterlimit="10"/>
<path d="M862.402 270.016L843.47 275.605" stroke="#2B714F" stroke-width="2" stroke-miterlimit="10"/>
<path d="M832.419 189.322L844.366 192.39" stroke="#2B714F" stroke-width="2" stroke-miterlimit="10"/>
<path d="M826.33 201.76L845.278 207.349" stroke="#2B714F" stroke-width="2" stroke-miterlimit="10"/>
<path d="M826.33 218.824L845.278 224.412" stroke="#2B714F" stroke-width="2" stroke-miterlimit="10"/>
<path d="M826.33 235.888L845.278 241.477" stroke="#2B714F" stroke-width="2" stroke-miterlimit="10"/>
<path d="M826.33 252.952L845.278 258.541" stroke="#2B714F" stroke-width="2" stroke-miterlimit="10"/>
<path d="M826.33 270.016L845.278 275.605" stroke="#2B714F" stroke-width="2" stroke-miterlimit="10"/>
<path d="M898.787 569.635V330.882" stroke="#2B714F" stroke-width="2" stroke-miterlimit="10"/>
<path d="M922.805 365.59L898.787 371.758" stroke="#2B714F" stroke-width="2" stroke-miterlimit="10"/>
<path d="M935.048 390.596L896.985 401.832" stroke="#2B714F" stroke-width="2" stroke-miterlimit="10"/>
<path d="M935.048 424.903L896.985 436.139" stroke="#2B714F" stroke-width="2" stroke-miterlimit="10"/>
<path d="M935.048 459.211L896.985 470.447" stroke="#2B714F" stroke-width="2" stroke-miterlimit="10"/>
<path d="M935.048 493.519L896.985 504.754" stroke="#2B714F" stroke-width="2" stroke-miterlimit="10"/>
<path d="M935.048 527.826L896.985 539.062" stroke="#2B714F" stroke-width="2" stroke-miterlimit="10"/>
<path d="M874.769 365.59L898.787 371.758" stroke="#2B714F" stroke-width="2" stroke-miterlimit="10"/>
<path d="M862.526 390.596L900.622 401.832" stroke="#2B714F" stroke-width="2" stroke-miterlimit="10"/>
<path d="M862.526 424.903L900.622 436.139" stroke="#2B714F" stroke-width="2" stroke-miterlimit="10"/>
<path d="M862.526 459.211L900.622 470.447" stroke="#2B714F" stroke-width="2" stroke-miterlimit="10"/>
<path d="M862.526 493.519L900.622 504.754" stroke="#2B714F" stroke-width="2" stroke-miterlimit="10"/>
<path d="M862.526 527.826L900.622 539.062" stroke="#2B714F" stroke-width="2" stroke-miterlimit="10"/>
</g>
</svg>
