<svg width="607" height="192" viewBox="0 0 607 192" fill="none" xmlns="http://www.w3.org/2000/svg">
<g clip-path="url(#clip0_436_13858)">
<rect width="607" height="192" rx="24" fill="#378861"/>
<path d="M59.748 71.675V74H24.198V72.2L46.698 49.55C49.748 46.5 51.798 43.9 52.848 41.75C53.948 39.55 54.498 37.3 54.498 35C54.498 31.45 53.273 28.65 50.823 26.6C48.423 24.55 44.973 23.525 40.473 23.525C36.973 23.525 33.923 24.05 31.323 25.1C28.773 26.1 26.573 27.675 24.723 29.825L22.998 28.175C27.048 23.525 32.898 21.2 40.548 21.2C45.598 21.2 49.598 22.425 52.548 24.875C55.498 27.325 56.973 30.65 56.973 34.85C56.973 37.5 56.373 40.05 55.173 42.5C53.973 44.95 51.748 47.8 48.498 51.05L28.023 71.675H59.748ZM79.2942 21.5V74H76.8192V23.825H63.6192V21.5H79.2942Z" fill="white"/>
<path d="M32.242 94.956H33.478V97.836H32.362V96H25.45L25.438 97.836H24.322L24.334 94.956H24.742C25.894 94.884 26.17 92.856 26.254 90.3L26.338 87.6H32.242V94.956ZM27.31 90.408C27.238 92.46 27.034 94.308 26.314 94.956H31.054V88.644H27.37L27.31 90.408ZM36.3185 94.956H41.2145V96H35.1185V87.6H41.0465V88.644H36.3185V91.224H40.5305V92.244H36.3185V94.956ZM48.751 96L46.027 92.304H44.275V96H43.099V87.6H44.275V91.248H46.051L48.691 87.6H49.975L46.975 91.668L50.119 96H48.751ZM57.6158 96L56.6918 93.9H52.2278L51.3038 96H50.0678L53.8718 87.6H55.0598L58.8758 96H57.6158ZM52.6478 92.94H56.2718L54.4598 88.824L52.6478 92.94ZM60.3256 96V87.6H66.6616V88.62H61.5136V91.02H64.1296C66.1336 91.02 67.1896 91.872 67.1896 93.444C67.1896 95.088 66.0256 96 63.9256 96H60.3256ZM61.5136 95.052H63.8776C65.2576 95.052 65.9896 94.512 65.9896 93.492C65.9896 92.46 65.2816 91.968 63.8776 91.968H61.5136V95.052ZM72.3789 87.6C74.5629 87.6 75.8829 88.704 75.8829 90.528C75.8829 92.352 74.5629 93.456 72.3789 93.456H70.3029V96H69.1029V87.6H72.3789ZM72.3429 92.412C73.8789 92.412 74.6829 91.728 74.6829 90.528C74.6829 89.328 73.8789 88.644 72.3429 88.644H70.3029V92.412H72.3429ZM80.1486 87.6H83.5206V96H82.3446V93.552H80.0286C79.9206 93.552 79.8126 93.552 79.7046 93.54L78.0246 96H76.7526L78.6126 93.336C77.4246 92.94 76.7526 91.98 76.7526 90.624C76.7526 88.704 78.0846 87.6 80.1486 87.6ZM77.9646 90.612C77.9646 91.848 78.6966 92.544 80.1246 92.544H82.3446V88.644H80.1966C78.7686 88.644 77.9646 89.316 77.9646 90.612Z" fill="white"/>
<path d="M304.853 56V135.932" stroke="white" stroke-miterlimit="10"/>
<path d="M344.899 96.0464H265" stroke="white" stroke-miterlimit="10"/>
<path d="M328.719 72.1794L281.115 119.817" stroke="white" stroke-miterlimit="10"/>
<path d="M328.719 119.913L281.115 72.3082" stroke="white" stroke-miterlimit="10"/>
<path d="M249.5 99.0001C247.567 99.0001 246 97.433 246 95.5C246 93.567 247.567 92 249.5 92C251.433 92 253 93.567 253 95.5C253 97.433 251.433 99.0001 249.5 99.0001Z" stroke="white" stroke-miterlimit="10"/>
<path d="M304.5 155C302.567 155 301 153.433 301 151.5C301 149.567 302.567 148 304.5 148C306.433 148 308 149.567 308 151.5C308 153.433 306.433 155 304.5 155Z" stroke="white" stroke-miterlimit="10"/>
<path d="M305.5 45.0001C303.567 45.0001 302 43.433 302 41.5C302 39.567 303.567 38 305.5 38C307.433 38 309 39.567 309 41.5C309 43.433 307.433 45.0001 305.5 45.0001Z" stroke="white" stroke-miterlimit="10"/>
<path d="M358.5 99.0001C356.567 99.0001 355 97.433 355 95.5C355 93.567 356.567 92 358.5 92C360.433 92 362 93.567 362 95.5C362 97.433 360.433 99.0001 358.5 99.0001Z" stroke="white" stroke-miterlimit="10"/>
<path d="M561.667 19.4866L587.649 19.5075L587.622 53.8729L566.966 53.8563L566.972 46.0444L560.252 46.0389C554.865 46.0346 550.488 50.4047 550.483 55.7917C550.479 61.1786 554.849 65.5558 560.236 65.5601L576.302 65.573L576.329 31.7358L563.814 31.7257C551.239 31.7156 541.028 41.901 541.018 54.4849C541.008 67.0602 551.193 77.2707 563.777 77.2809L587.603 77.3" stroke="white" stroke-miterlimit="10"/>
<path d="M561.667 171.813L587.649 171.793L587.622 137.427L566.966 137.444L566.972 145.256L560.252 145.261C554.865 145.265 550.488 140.895 550.483 135.508C550.479 130.121 554.849 125.744 560.236 125.74L576.302 125.727L576.329 159.564L563.814 159.574C551.239 159.584 541.028 149.399 541.018 136.815C541.008 124.24 551.193 114.029 563.777 114.019L587.603 114" stroke="white" stroke-miterlimit="10"/>
<path d="M46.9819 171.413L21 171.393L21.0276 137.027L41.6833 137.044L41.677 144.856L48.3977 144.861C53.7846 144.865 58.1618 140.495 58.1661 135.108C58.1705 129.721 53.8003 125.344 48.4134 125.34L32.3478 125.327L32.3206 159.164L44.8353 159.174C57.4106 159.184 67.621 148.999 67.6311 136.415C67.6412 123.84 57.4559 113.629 44.872 113.619L21.0465 113.6" stroke="white" stroke-miterlimit="10"/>
<line x1="587.25" y1="76.9983" x2="587.25" y2="114.498" stroke="white"/>
<line x1="564" y1="19.5" x2="107" y2="19.5" stroke="white"/>
<line x1="564" y1="171.5" x2="36" y2="171.5" stroke="white"/>
<path d="M399.5 87L400.938 91.4069C401.35 92.6688 402.338 93.6496 403.593 94.0616L408 95.5L403.593 96.9385C402.331 97.3504 401.35 98.3377 400.938 99.5931L399.5 104L398.062 99.5931C397.65 98.3312 396.662 97.3504 395.407 96.9385L391 95.5L395.407 94.0616C396.669 93.6496 397.65 92.6623 398.062 91.4069L399.5 87Z" stroke="white" stroke-miterlimit="10"/>
<path d="M208.5 87L209.938 91.4069C210.35 92.6688 211.338 93.6496 212.593 94.0616L217 95.5L212.593 96.9385C211.331 97.3504 210.35 98.3377 209.938 99.5931L208.5 104L207.062 99.5931C206.65 98.3312 205.662 97.3504 204.407 96.9385L200 95.5L204.407 94.0616C205.669 93.6496 206.65 92.6623 207.062 91.4069L208.5 87Z" stroke="white" stroke-miterlimit="10"/>
<circle cx="106.5" cy="19.5" r="1.5" fill="white"/>
<circle cx="20.5" cy="113.5" r="1.5" fill="white"/>
</g>
<defs>
<clipPath id="clip0_436_13858">
<rect width="607" height="192" rx="24" fill="white"/>
</clipPath>
</defs>
</svg>
