<svg width="375" height="664" viewBox="0 0 375 664" fill="none" xmlns="http://www.w3.org/2000/svg">
<path d="M220.98 26.3633L224.023 35.6853C224.894 38.3547 226.983 40.4294 229.638 41.3008L238.96 44.3435L229.638 47.3864C226.969 48.2578 224.894 50.3461 224.023 53.0017L220.98 62.3237L217.937 53.0017C217.066 50.3323 214.978 48.2578 212.322 47.3864L203 44.3435L212.322 41.3008C214.991 40.4294 217.066 38.3409 217.937 35.6853L220.98 26.3633Z" stroke="#2B714F" stroke-width="1.5" stroke-miterlimit="10"/>
<path d="M330.889 57L333.071 63.6826C333.695 65.5962 335.192 67.0835 337.096 67.7081L343.779 69.8893L337.096 72.0707C335.182 72.6953 333.695 74.1924 333.071 76.096L330.889 82.7787L328.708 76.096C328.083 74.1825 326.586 72.6953 324.683 72.0707L318 69.8893L324.683 67.7081C326.596 67.0835 328.083 65.5863 328.708 63.6826L330.889 57Z" stroke="#2B714F" stroke-width="1.5" stroke-miterlimit="10"/>
<path d="M283.207 17L284.765 21.7733C285.211 23.1401 286.28 24.2025 287.64 24.6486L292.413 26.2067L287.64 27.7648C286.273 28.2109 285.211 29.2803 284.765 30.64L283.207 35.4133L281.649 30.64C281.202 29.2732 280.133 28.2109 278.773 27.7648L274 26.2067L278.773 24.6486C280.14 24.2025 281.202 23.133 281.649 21.7733L283.207 17Z" stroke="#2B714F" stroke-width="1.5" stroke-miterlimit="10"/>
<path d="M319.384 360L323.341 372.124C324.474 375.595 327.191 378.294 330.644 379.427L342.768 383.384L330.644 387.341C327.173 388.475 324.474 391.191 323.341 394.644L319.384 406.768L315.427 394.644C314.294 391.173 311.577 388.475 308.124 387.341L296 383.384L308.124 379.427C311.595 378.294 314.294 375.577 315.427 372.124L319.384 360Z" stroke="#2B714F" stroke-width="1.5" stroke-miterlimit="10"/>
<path d="M66 451L68.3692 458.258C69.0476 460.337 70.6739 461.952 72.7416 462.631L80 465L72.7416 467.369C70.6631 468.048 69.0476 469.674 68.3692 471.742L66 479L63.6308 471.742C62.9524 469.663 61.3261 468.048 59.2585 467.369L52 465L59.2585 462.631C61.3369 461.952 62.9524 460.326 63.6308 458.258L66 451Z" stroke="#2B714F" stroke-width="1.5" stroke-miterlimit="10"/>
<path d="M44.884 599L46.7259 604.643C47.2534 606.259 48.5176 607.515 50.1251 608.042L55.7681 609.884L50.1251 611.726C48.5093 612.253 47.2534 613.518 46.7259 615.125L44.884 620.768L43.0422 615.125C42.5147 613.509 41.2504 612.253 39.6429 611.726L34 609.884L39.6429 608.042C41.2588 607.515 42.5147 606.25 43.0422 604.643L44.884 599Z" stroke="#2B714F" stroke-width="1.5" stroke-miterlimit="10"/>
<path d="M93.384 563L97.3412 575.124C98.4745 578.595 101.191 581.294 104.644 582.427L116.768 586.384L104.644 590.341C101.173 591.475 98.4745 594.191 97.3412 597.644L93.384 609.768L89.4268 597.644C88.2936 594.173 85.5773 591.475 82.1237 590.341L70 586.384L82.1237 582.427C85.5953 581.294 88.2936 578.577 89.4268 575.124L93.384 563Z" stroke="#2B714F" stroke-width="1.5" stroke-miterlimit="10"/>
</svg>
