<svg width="148" height="101" viewBox="0 0 148 101" fill="none" xmlns="http://www.w3.org/2000/svg">
<g clip-path="url(#clip0_343_14196)">
<rect width="147.5" height="100.388" rx="10.5672" fill="#F4F4F4"/>
<path d="M30.6869 37.3943V38.6343H11.7269V37.6743L23.7269 25.5943C25.3536 23.9676 26.4469 22.5809 27.0069 21.4343C27.5936 20.2609 27.8869 19.0609 27.8869 17.8343C27.8869 15.9409 27.2336 14.4476 25.9269 13.3543C24.6469 12.2609 22.8069 11.7143 20.4069 11.7143C18.5402 11.7143 16.9136 11.9943 15.5269 12.5543C14.1669 13.0876 12.9936 13.9276 12.0069 15.0743L11.0869 14.1943C13.2469 11.7143 16.3669 10.4743 20.4469 10.4743C23.1402 10.4743 25.2736 11.1276 26.8469 12.4343C28.4202 13.7409 29.2069 15.5143 29.2069 17.7543C29.2069 19.1676 28.8869 20.5276 28.2469 21.8343C27.6069 23.1409 26.4202 24.6609 24.6869 26.3943L13.7669 37.3943H30.6869ZM56.4988 30.5543H50.4188V38.6343H49.0988V30.5543H33.0188V29.5943L48.4988 10.6343H50.0588L34.7788 29.3543H49.0988V22.2343H50.4188V29.3543H56.4988V30.5543Z" fill="#2B714F"/>
<line x1="68.501" y1="55.4976" x2="103.509" y2="55.4976" stroke="#2B714F"/>
<line x1="85.5049" y1="73.502" x2="85.5049" y2="38.4936" stroke="#2B714F"/>
<line x1="86.3446" y1="55.8181" x2="88.9" y2="62.462" stroke="#2B714F"/>
<line y1="-0.5" x2="7.11839" y2="-0.5" transform="matrix(-0.358979 0.933346 0.933346 0.358979 85.5186 55.6886)" stroke="#2B714F"/>
<line x1="85.8478" y1="55.0649" x2="77.8478" y2="62.0649" stroke="#2B714F"/>
<line x1="85.8831" y1="55.3463" x2="92.6513" y2="62.5544" stroke="#2B714F"/>
<path d="M103.475 38.4H68.501V73.3742H103.475V38.4Z" stroke="#2B714F" stroke-miterlimit="10"/>
<path d="M85.1427 55.7359C85.022 55.7928 84.9059 55.6499 84.9862 55.5434L89.2104 49.9445C90.0342 48.8527 91.7139 48.9937 92.3438 50.2054C92.8318 51.1436 92.4422 52.2958 91.4863 52.7463L85.1427 55.7359Z" stroke="#2B714F" stroke-miterlimit="10"/>
<path d="M85.7265 55.7359C85.8472 55.7928 85.9633 55.6499 85.8829 55.5434L81.6588 49.9445C80.8349 48.8527 79.1553 48.9937 78.5253 50.2054C78.0374 51.1436 78.427 52.2958 79.3829 52.7463L85.7265 55.7359Z" stroke="#2B714F" stroke-miterlimit="10"/>
<line x1="54.4111" y1="73.4186" x2="139.815" y2="73.4186" stroke="#2B714F"/>
<line x1="54.4102" y1="94.2234" x2="139.814" y2="94.2234" stroke="#2B714F"/>
<line x1="75.8047" y1="72.9186" x2="75.8047" y2="94.7239" stroke="#2B714F"/>
<line x1="118.508" y1="72.9186" x2="118.508" y2="94.7239" stroke="#2B714F"/>
<path d="M54.6377 51.1C23.9739 51.1 23.9739 94.2564 54.6377 94.2564" stroke="#2B714F"/>
<rect x="103.323" y="27.1511" width="28.5281" height="46.2449" stroke="#2B714F"/>
<path d="M117.953 26.588C117.786 26.667 117.624 26.4685 117.736 26.3205L123.605 18.5417C124.75 17.0248 127.083 17.2207 127.958 18.9041C128.636 20.2077 128.095 21.8085 126.767 22.4344L117.953 26.588Z" stroke="#2B714F" stroke-miterlimit="10"/>
<path d="M117.375 26.588C117.542 26.667 117.704 26.4685 117.592 26.3205L111.723 18.5417C110.579 17.0248 108.245 17.2207 107.37 18.9041C106.692 20.2077 107.233 21.8085 108.561 22.4344L117.375 26.588Z" stroke="#2B714F" stroke-miterlimit="10"/>
<line x1="117.583" y1="26.9505" x2="107.642" y2="36.8913" stroke="#2B714F"/>
<line y1="-0.5" x2="14.0584" y2="-0.5" transform="matrix(0.707107 0.707107 0.707107 -0.707107 117.938 26.5969)" stroke="#2B714F"/>
</g>
<defs>
<clipPath id="clip0_343_14196">
<rect width="147.5" height="100.388" rx="10.5672" fill="white"/>
</clipPath>
</defs>
</svg>
