<svg width="1085" height="600" viewBox="0 0 1085 600" fill="none" xmlns="http://www.w3.org/2000/svg">
<mask id="path-2-inside-1_820_3328" fill="white">
<path fill-rule="evenodd" clip-rule="evenodd" d="M932.384 325.82C928.544 317.609 924.817 310.4 919.608 301.039C919.216 300.335 918.21 300.317 917.799 301.01C912.607 309.752 909.226 317.088 905.569 325.87C904.403 328.025 903.741 330.493 903.741 333.115C903.741 341.537 910.568 348.364 918.99 348.364C927.412 348.364 934.239 341.537 934.239 333.115C934.239 331.374 933.947 329.701 933.41 328.142C933.406 328.131 933.414 328.12 933.426 328.12V328.12C933.438 328.12 933.445 328.108 933.44 328.097C933.364 327.93 933.288 327.765 933.211 327.599C932.973 326.986 932.697 326.392 932.384 325.82Z"/>
</mask>
<path d="M932.384 325.82L930.573 326.667L930.599 326.724L930.629 326.778L932.384 325.82ZM905.569 325.87L907.328 326.822L907.376 326.732L907.415 326.639L905.569 325.87ZM933.211 327.599L931.347 328.323L931.369 328.381L931.395 328.438L933.211 327.599ZM933.44 328.097L931.624 328.933L933.44 328.097ZM933.41 328.142L931.519 328.794L933.41 328.142ZM917.86 302.011C923.052 311.34 926.756 318.507 930.573 326.667L934.196 324.973C930.332 316.711 926.583 309.459 921.356 300.066L917.86 302.011ZM907.415 326.639C911.051 317.906 914.392 310.663 919.519 302.031L916.079 299.989C910.823 308.84 907.4 316.269 903.723 325.101L907.415 326.639ZM905.741 333.115C905.741 330.833 906.316 328.692 907.328 326.822L903.81 324.918C902.49 327.358 901.741 330.152 901.741 333.115H905.741ZM918.99 346.364C911.673 346.364 905.741 340.432 905.741 333.115H901.741C901.741 342.641 909.464 350.364 918.99 350.364V346.364ZM932.239 333.115C932.239 340.432 926.308 346.364 918.99 346.364V350.364C928.517 350.364 936.239 342.641 936.239 333.115H932.239ZM931.519 328.794C931.985 330.146 932.239 331.599 932.239 333.115H936.239C936.239 331.149 935.91 329.256 935.301 327.49L931.519 328.794ZM931.395 328.438C931.471 328.602 931.547 328.767 931.624 328.933L935.257 327.261C935.18 327.094 935.104 326.927 935.027 326.761L931.395 328.438ZM930.629 326.778C930.9 327.275 931.14 327.791 931.347 328.323L935.076 326.876C934.806 326.181 934.493 325.509 934.14 324.862L930.629 326.778ZM933.444 330.12C934.906 330.107 935.869 328.59 935.257 327.261L931.624 328.933C931.022 327.626 931.969 326.133 933.407 326.12L933.444 330.12ZM935.301 327.49C935.742 328.771 934.799 330.108 933.444 330.12L933.407 326.12C932.03 326.133 931.07 327.492 931.519 328.794L935.301 327.49ZM921.356 300.066C920.221 298.027 917.286 297.957 916.079 299.989L919.519 302.031C919.135 302.677 918.212 302.643 917.86 302.011L921.356 300.066Z" fill="white" mask="url(#path-2-inside-1_820_3328)"/>
<circle cx="918.47" cy="309.16" r="45.613" fill="url(#paint0_linear_820_3328)" fill-opacity="0.1"/>
<defs>
<linearGradient id="paint0_linear_820_3328" x1="918.47" y1="348.257" x2="918.47" y2="263.547" gradientUnits="userSpaceOnUse">
<stop stop-color="white"/>
<stop offset="1" stop-color="white" stop-opacity="0"/>
</linearGradient>
</defs>
</svg>
