<svg width="375" height="664" viewBox="0 0 375 664" fill="none" xmlns="http://www.w3.org/2000/svg">
<g clip-path="url(#clip0_449_15105)">
<line x1="-53.001" y1="522.948" x2="530.939" y2="522.948" stroke="#2B714F" stroke-width="1.8"/>
<line x1="238.216" y1="522.852" x2="212.579" y2="600.657" stroke="#2B714F" stroke-width="1.8"/>
<line x1="239.927" y1="523.955" x2="272.436" y2="600.022" stroke="#2B714F" stroke-width="1.8"/>
<line x1="238.831" y1="521.9" x2="329.096" y2="602.701" stroke="#2B714F" stroke-width="1.8"/>
<line x1="237.991" y1="523.213" x2="155.463" y2="604.015" stroke="#2B714F" stroke-width="1.8"/>
<path d="M236.672 523.76C238.086 524.426 239.447 522.752 238.506 521.504L189.009 455.899C179.356 443.106 159.675 444.758 152.294 458.956C146.576 469.95 151.141 483.451 162.341 488.729L236.672 523.76Z" stroke="#2B714F" stroke-width="1.8" stroke-miterlimit="10"/>
<path d="M240.572 523.76C239.158 524.426 237.797 522.752 238.738 521.504L288.235 455.899C297.888 443.106 317.569 444.758 324.951 458.956C330.669 469.95 326.103 483.451 314.903 488.729L240.572 523.76Z" stroke="#2B714F" stroke-width="1.8" stroke-miterlimit="10"/>
</g>
<defs>
<clipPath id="clip0_449_15105">
<rect width="375" height="664" fill="white"/>
</clipPath>
</defs>
</svg>
