<svg width="375" height="664" viewBox="0 0 375 664" fill="none" xmlns="http://www.w3.org/2000/svg">
<g clip-path="url(#clip0_449_14467)">
<path d="M315.356 235V101.575" stroke="#2B714F" stroke-width="1.5" stroke-miterlimit="10"/>
<path d="M328.779 120.971L315.356 124.418" stroke="#2B714F" stroke-width="1.5" stroke-miterlimit="10"/>
<path d="M335.623 134.945L314.352 141.224" stroke="#2B714F" stroke-width="1.5" stroke-miterlimit="10"/>
<path d="M335.623 154.118L314.352 160.397" stroke="#2B714F" stroke-width="1.5" stroke-miterlimit="10"/>
<path d="M335.623 173.29L314.352 179.569" stroke="#2B714F" stroke-width="1.5" stroke-miterlimit="10"/>
<path d="M335.623 192.463L314.352 198.742" stroke="#2B714F" stroke-width="1.5" stroke-miterlimit="10"/>
<path d="M335.623 211.635L314.352 217.914" stroke="#2B714F" stroke-width="1.5" stroke-miterlimit="10"/>
<path d="M301.935 120.971L315.357 124.418" stroke="#2B714F" stroke-width="1.5" stroke-miterlimit="10"/>
<path d="M295.094 134.945L316.383 141.224" stroke="#2B714F" stroke-width="1.5" stroke-miterlimit="10"/>
<path d="M295.094 154.118L316.383 160.397" stroke="#2B714F" stroke-width="1.5" stroke-miterlimit="10"/>
<path d="M295.094 173.29L316.383 179.569" stroke="#2B714F" stroke-width="1.5" stroke-miterlimit="10"/>
<path d="M295.094 192.463L316.383 198.742" stroke="#2B714F" stroke-width="1.5" stroke-miterlimit="10"/>
<path d="M295.094 211.635L316.383 217.914" stroke="#2B714F" stroke-width="1.5" stroke-miterlimit="10"/>
<path d="M229.012 82V-38" stroke="#2B714F" stroke-width="1.5" stroke-miterlimit="10"/>
<path d="M247.236 9.25595L228.105 14.9032" stroke="#2B714F" stroke-width="1.5" stroke-miterlimit="10"/>
<path d="M247.236 26.4994L228.105 32.1467" stroke="#2B714F" stroke-width="1.5" stroke-miterlimit="10"/>
<path d="M247.236 43.7429L228.105 49.3901" stroke="#2B714F" stroke-width="1.5" stroke-miterlimit="10"/>
<path d="M247.236 60.9859L228.105 66.6332" stroke="#2B714F" stroke-width="1.5" stroke-miterlimit="10"/>
<path d="M210.785 9.25595L229.932 14.9032" stroke="#2B714F" stroke-width="1.5" stroke-miterlimit="10"/>
<path d="M210.785 26.4994L229.932 32.1467" stroke="#2B714F" stroke-width="1.5" stroke-miterlimit="10"/>
<path d="M210.785 43.7429L229.932 49.3901" stroke="#2B714F" stroke-width="1.5" stroke-miterlimit="10"/>
<path d="M210.785 60.9859L229.932 66.6332" stroke="#2B714F" stroke-width="1.5" stroke-miterlimit="10"/>
<path d="M67.3545 727.871V541.177" stroke="#2B714F" stroke-width="1.5" stroke-miterlimit="10"/>
<path d="M86.1356 568.317L67.3545 573.14" stroke="#2B714F" stroke-width="1.5" stroke-miterlimit="10"/>
<path d="M95.7088 587.87L65.9453 596.656" stroke="#2B714F" stroke-width="1.5" stroke-miterlimit="10"/>
<path d="M95.7088 614.697L65.9453 623.483" stroke="#2B714F" stroke-width="1.5" stroke-miterlimit="10"/>
<path d="M95.7088 641.524L65.9453 650.31" stroke="#2B714F" stroke-width="1.5" stroke-miterlimit="10"/>
<path d="M48.5732 568.317L67.3544 573.14" stroke="#2B714F" stroke-width="1.5" stroke-miterlimit="10"/>
<path d="M39 587.87L68.789 596.656" stroke="#2B714F" stroke-width="1.5" stroke-miterlimit="10"/>
<path d="M39 614.697L68.789 623.483" stroke="#2B714F" stroke-width="1.5" stroke-miterlimit="10"/>
<path d="M39 641.524L68.789 650.31" stroke="#2B714F" stroke-width="1.5" stroke-miterlimit="10"/>
<path d="M43.2373 244V91" stroke="#2B714F" stroke-width="1.5" stroke-miterlimit="10"/>
<path d="M58.6289 113.242L43.2373 117.194" stroke="#2B714F" stroke-width="1.5" stroke-miterlimit="10"/>
<path d="M66.4749 129.266L42.083 136.467" stroke="#2B714F" stroke-width="1.5" stroke-miterlimit="10"/>
<path d="M66.4749 151.251L42.083 158.452" stroke="#2B714F" stroke-width="1.5" stroke-miterlimit="10"/>
<path d="M66.4749 173.237L42.083 180.437" stroke="#2B714F" stroke-width="1.5" stroke-miterlimit="10"/>
<path d="M66.4749 195.222L42.083 202.422" stroke="#2B714F" stroke-width="1.5" stroke-miterlimit="10"/>
<path d="M66.4749 217.207L42.083 224.407" stroke="#2B714F" stroke-width="1.5" stroke-miterlimit="10"/>
<path d="M27.8447 113.242L43.2363 117.194" stroke="#2B714F" stroke-width="1.5" stroke-miterlimit="10"/>
<path d="M20 129.266L44.4127 136.467" stroke="#2B714F" stroke-width="1.5" stroke-miterlimit="10"/>
<path d="M20 151.251L44.4127 158.452" stroke="#2B714F" stroke-width="1.5" stroke-miterlimit="10"/>
<path d="M20 173.237L44.4127 180.437" stroke="#2B714F" stroke-width="1.5" stroke-miterlimit="10"/>
<path d="M20 195.222L44.4127 202.422" stroke="#2B714F" stroke-width="1.5" stroke-miterlimit="10"/>
<path d="M20 217.207L44.4127 224.407" stroke="#2B714F" stroke-width="1.5" stroke-miterlimit="10"/>
<path d="M132.744 139.824V23" stroke="#2B714F" stroke-width="1.5" stroke-miterlimit="10"/>
<path d="M144.496 39.9827L132.744 43.0007" stroke="#2B714F" stroke-width="1.5" stroke-miterlimit="10"/>
<path d="M150.486 52.2182L131.861 57.716" stroke="#2B714F" stroke-width="1.5" stroke-miterlimit="10"/>
<path d="M150.486 69.0051L131.861 74.5028" stroke="#2B714F" stroke-width="1.5" stroke-miterlimit="10"/>
<path d="M150.486 85.7921L131.861 91.2898" stroke="#2B714F" stroke-width="1.5" stroke-miterlimit="10"/>
<path d="M150.486 102.579L131.861 108.077" stroke="#2B714F" stroke-width="1.5" stroke-miterlimit="10"/>
<path d="M150.486 119.366L131.861 124.863" stroke="#2B714F" stroke-width="1.5" stroke-miterlimit="10"/>
<path d="M120.989 39.9827L132.742 43.0007" stroke="#2B714F" stroke-width="1.5" stroke-miterlimit="10"/>
<path d="M115 52.2182L133.64 57.716" stroke="#2B714F" stroke-width="1.5" stroke-miterlimit="10"/>
<path d="M115 69.0051L133.64 74.5028" stroke="#2B714F" stroke-width="1.5" stroke-miterlimit="10"/>
<path d="M115 85.7921L133.64 91.2898" stroke="#2B714F" stroke-width="1.5" stroke-miterlimit="10"/>
<path d="M115 102.579L133.64 108.077" stroke="#2B714F" stroke-width="1.5" stroke-miterlimit="10"/>
<path d="M115 119.366L133.64 124.863" stroke="#2B714F" stroke-width="1.5" stroke-miterlimit="10"/>
<path d="M326.955 624V505.778" stroke="#2B714F" stroke-width="1.5" stroke-miterlimit="10"/>
<path d="M338.848 522.964L326.955 526.018" stroke="#2B714F" stroke-width="1.5" stroke-miterlimit="10"/>
<path d="M344.91 535.346L326.062 540.91" stroke="#2B714F" stroke-width="1.5" stroke-miterlimit="10"/>
<path d="M344.91 552.334L326.062 557.897" stroke="#2B714F" stroke-width="1.5" stroke-miterlimit="10"/>
<path d="M344.91 569.322L326.062 574.885" stroke="#2B714F" stroke-width="1.5" stroke-miterlimit="10"/>
<path d="M344.91 586.31L326.062 591.873" stroke="#2B714F" stroke-width="1.5" stroke-miterlimit="10"/>
<path d="M344.91 603.297L326.062 608.861" stroke="#2B714F" stroke-width="1.5" stroke-miterlimit="10"/>
<path d="M315.062 522.964L326.955 526.018" stroke="#2B714F" stroke-width="1.5" stroke-miterlimit="10"/>
<path d="M309 535.346L327.864 540.91" stroke="#2B714F" stroke-width="1.5" stroke-miterlimit="10"/>
<path d="M309 552.334L327.864 557.897" stroke="#2B714F" stroke-width="1.5" stroke-miterlimit="10"/>
<path d="M309 569.322L327.864 574.885" stroke="#2B714F" stroke-width="1.5" stroke-miterlimit="10"/>
<path d="M309 586.31L327.864 591.873" stroke="#2B714F" stroke-width="1.5" stroke-miterlimit="10"/>
<path d="M309 603.297L327.864 608.861" stroke="#2B714F" stroke-width="1.5" stroke-miterlimit="10"/>
<path d="M209.473 768.235V561" stroke="#2B714F" stroke-width="1.5" stroke-miterlimit="10"/>
<path d="M230.322 591.126L209.475 596.48" stroke="#2B714F" stroke-width="1.5" stroke-miterlimit="10"/>
<path d="M240.948 612.831L207.91 622.583" stroke="#2B714F" stroke-width="1.5" stroke-miterlimit="10"/>
<path d="M240.948 642.609L207.91 652.361" stroke="#2B714F" stroke-width="1.5" stroke-miterlimit="10"/>
<path d="M188.628 591.126L209.475 596.48" stroke="#2B714F" stroke-width="1.5" stroke-miterlimit="10"/>
<path d="M178 612.831L211.066 622.583" stroke="#2B714F" stroke-width="1.5" stroke-miterlimit="10"/>
<path d="M178 642.609L211.066 652.361" stroke="#2B714F" stroke-width="1.5" stroke-miterlimit="10"/>
</g>
<defs>
<clipPath id="clip0_449_14467">
<rect width="375" height="664" fill="white"/>
</clipPath>
</defs>
</svg>
