<svg width="276" height="338" viewBox="0 0 276 338" fill="none" xmlns="http://www.w3.org/2000/svg">
<g clip-path="url(#clip0_303_12867)">
<rect width="276" height="338" rx="24" fill="#F4F4F4"/>
<path style="mix-blend-mode:screen" d="M69 24.9999C69 32.7289 62.7296 38.9999 55.0006 38.9999C47.2716 38.9999 41 32.7289 41 24.9999C41 17.2709 47.2716 11 55.0006 11C62.7296 11 69 17.2709 69 24.9999Z" fill="url(#paint0_radial_303_12867)"/>
<path d="M35.5416 23V79H32.9016V25.48H18.8216V23H35.5416ZM63.196 46.92C71.4093 46.92 77.3293 48.3333 80.956 51.16C84.636 53.9333 86.476 57.9333 86.476 63.16C86.476 66.2533 85.756 69.0267 84.316 71.48C82.876 73.9333 80.716 75.8533 77.836 77.24C75.0093 78.6267 71.5426 79.32 67.436 79.32C63.3826 79.32 59.596 78.6 56.076 77.16C52.556 75.72 49.8893 73.8533 48.076 71.56L49.596 69.64C51.2493 71.7733 53.676 73.5067 56.876 74.84C60.076 76.1733 63.596 76.84 67.436 76.84C72.716 76.84 76.7426 75.5867 79.516 73.08C82.3426 70.5733 83.756 67.2667 83.756 63.16C83.756 58.6267 82.156 55.2133 78.956 52.92C75.756 50.5733 70.316 49.4 62.636 49.4H51.756L54.716 23H83.596V25.48H56.956L54.556 46.92H63.196Z" fill="#2B714F"/>
<path d="M186.801 78.4906C186.111 78.816 185.447 77.9985 185.906 77.3892L210.072 45.3593C214.785 39.1134 224.394 39.92 227.997 46.8516C230.789 52.219 228.56 58.8106 223.092 61.3878L186.801 78.4906Z" stroke="#2B714F" stroke-miterlimit="10"/>
<path d="M184.42 78.4906C185.111 78.816 185.775 77.9985 185.315 77.3892L161.15 45.3593C156.437 39.1134 146.828 39.92 143.224 46.8516C140.433 52.219 142.661 58.8106 148.13 61.3878L184.42 78.4906Z" stroke="#2B714F" stroke-miterlimit="10"/>
<line x1="184.174" y1="78.8829" x2="143.242" y2="119.815" stroke="#2B714F"/>
<line y1="-0.5" x2="57.8867" y2="-0.5" transform="matrix(0.707107 0.707107 0.707107 -0.707107 186.744 78.5294)" stroke="#2B714F"/>
<path d="M186.142 80.9752V-0.00909424" stroke="#2B714F"/>
<circle cx="183.747" cy="196.223" r="116.218" stroke="#2B714F"/>
<path d="M58.3637 236.532C100.16 278.449 129.108 290.869 190.602 293.19" stroke="#2B714F" stroke-miterlimit="10"/>
<path d="M172.975 278.328L163.842 290.154" stroke="#2B714F" stroke-miterlimit="10"/>
<path d="M161.128 270.64L145.871 289.053" stroke="#2B714F" stroke-miterlimit="10"/>
<path d="M141.053 265.016L125.796 283.429" stroke="#2B714F" stroke-miterlimit="10"/>
<path d="M121.696 257.714L106.44 276.127" stroke="#2B714F" stroke-miterlimit="10"/>
<path d="M104.113 246.213L88.8567 264.626" stroke="#2B714F" stroke-miterlimit="10"/>
<path d="M87.2707 233.044L72.0145 251.456" stroke="#2B714F" stroke-miterlimit="10"/>
<path d="M162.472 305.75L164.734 290.979" stroke="#2B714F" stroke-miterlimit="10"/>
<path d="M143.836 310.998L146.643 287.251" stroke="#2B714F" stroke-miterlimit="10"/>
<path d="M123.856 305.154L126.663 281.407" stroke="#2B714F" stroke-miterlimit="10"/>
<path d="M104.499 297.853L107.306 274.106" stroke="#2B714F" stroke-miterlimit="10"/>
<path d="M87.2759 285.513L90.0828 261.766" stroke="#2B714F" stroke-miterlimit="10"/>
<path d="M70.4321 272.345L73.239 248.598" stroke="#2B714F" stroke-miterlimit="10"/>
<path d="M147.598 314.082C206.521 308.425 234.501 293.956 275.353 247.934" stroke="#2B714F" stroke-miterlimit="10"/>
<path d="M253.881 251.942L257.214 266.508" stroke="#2B714F" stroke-miterlimit="10"/>
<path d="M239.215 256.377L243.746 279.856" stroke="#2B714F" stroke-miterlimit="10"/>
<path d="M222.12 268.308L226.65 291.787" stroke="#2B714F" stroke-miterlimit="10"/>
<path d="M204.186 278.62L208.716 302.099" stroke="#2B714F" stroke-miterlimit="10"/>
<path d="M184.135 284.896L188.665 308.374" stroke="#2B714F" stroke-miterlimit="10"/>
<path d="M163.265 289.54L167.795 313.019" stroke="#2B714F" stroke-miterlimit="10"/>
<path d="M267.186 277.639L257.214 266.509" stroke="#2B714F" stroke-miterlimit="10"/>
<path d="M259.404 295.367L242.845 278.116" stroke="#2B714F" stroke-miterlimit="10"/>
<path d="M242.198 307.085L225.64 289.833" stroke="#2B714F" stroke-miterlimit="10"/>
<path d="M224.264 317.398L207.705 300.147" stroke="#2B714F" stroke-miterlimit="10"/>
<path d="M203.792 322.863L187.234 305.612" stroke="#2B714F" stroke-miterlimit="10"/>
<path d="M182.924 327.508L166.365 310.256" stroke="#2B714F" stroke-miterlimit="10"/>
<path d="M57.3358 171.252C62.0617 210.266 72.1256 228.598 103.344 254.954" stroke="#2B714F" stroke-miterlimit="10"/>
<path d="M100.33 240.77L90.7177 243.222" stroke="#2B714F" stroke-miterlimit="10"/>
<path d="M97.1458 231.109L81.6375 234.503" stroke="#2B714F" stroke-miterlimit="10"/>
<path d="M88.9441 219.959L73.4358 223.353" stroke="#2B714F" stroke-miterlimit="10"/>
<path d="M81.8045 208.226L66.2962 211.619" stroke="#2B714F" stroke-miterlimit="10"/>
<path d="M77.3099 195.021L61.8016 198.415" stroke="#2B714F" stroke-miterlimit="10"/>
<path d="M73.8826 181.245L58.3743 184.639" stroke="#2B714F" stroke-miterlimit="10"/>
<path d="M83.4951 250.023L90.7173 243.222" stroke="#2B714F" stroke-miterlimit="10"/>
<path d="M71.6001 245.149L82.7773 233.875" stroke="#2B714F" stroke-miterlimit="10"/>
<path d="M63.5386 233.924L74.7157 222.649" stroke="#2B714F" stroke-miterlimit="10"/>
<path d="M56.3989 222.191L67.5761 210.917" stroke="#2B714F" stroke-miterlimit="10"/>
<path d="M52.4341 208.694L63.6113 197.42" stroke="#2B714F" stroke-miterlimit="10"/>
<path d="M49.0073 194.919L60.1845 183.645" stroke="#2B714F" stroke-miterlimit="10"/>
<path d="M293.868 216.846C289.142 255.86 279.078 274.192 247.86 300.547" stroke="#2B714F" stroke-miterlimit="10"/>
<path d="M250.874 286.363L260.486 288.815" stroke="#2B714F" stroke-miterlimit="10"/>
<path d="M254.058 276.703L269.567 280.097" stroke="#2B714F" stroke-miterlimit="10"/>
<path d="M262.259 265.553L277.767 268.946" stroke="#2B714F" stroke-miterlimit="10"/>
<path d="M269.399 253.819L284.907 257.213" stroke="#2B714F" stroke-miterlimit="10"/>
<path d="M273.894 240.615L289.403 244.009" stroke="#2B714F" stroke-miterlimit="10"/>
<path d="M267.708 295.617L260.486 288.815" stroke="#2B714F" stroke-miterlimit="10"/>
<path d="M279.604 290.743L268.426 279.469" stroke="#2B714F" stroke-miterlimit="10"/>
<path d="M287.666 279.517L276.488 268.243" stroke="#2B714F" stroke-miterlimit="10"/>
<path d="M173.101 291.962V214.971H203.312V303.17" stroke="#2B714F"/>
<mask id="path-59-inside-1_303_12867" fill="white">
<path fill-rule="evenodd" clip-rule="evenodd" d="M195.65 191.495C193.461 186.814 191.336 182.704 188.367 177.368C188.144 176.967 187.57 176.957 187.336 177.352C184.377 182.335 182.449 186.516 180.365 191.523C179.703 192.75 179.327 194.154 179.327 195.645C179.327 200.444 183.217 204.334 188.015 204.334C192.813 204.334 196.703 200.444 196.703 195.645C196.703 194.653 196.537 193.699 196.231 192.811C196.228 192.805 196.233 192.798 196.239 192.798C196.246 192.798 196.251 192.791 196.248 192.785C196.204 192.688 196.159 192.592 196.115 192.496C195.981 192.151 195.825 191.817 195.65 191.495Z"/>
</mask>
<path d="M195.65 191.495L194.744 191.919L194.757 191.947L194.772 191.974L195.65 191.495ZM180.365 191.523L181.245 191.999L181.269 191.954L181.288 191.908L180.365 191.523ZM196.115 192.496L195.183 192.859L195.194 192.888L195.207 192.916L196.115 192.496ZM196.248 192.785L197.156 192.367L196.248 192.785ZM196.231 192.811L197.176 192.485L196.231 192.811ZM188.367 177.368L189.241 176.882L188.367 177.368ZM187.336 177.352L186.476 176.841L187.336 177.352ZM187.493 177.855C190.454 183.175 192.567 187.263 194.744 191.919L196.556 191.072C194.355 186.365 192.219 182.234 189.241 176.882L187.493 177.855ZM181.288 191.908C183.362 186.926 185.269 182.791 188.196 177.862L186.476 176.841C183.484 181.879 181.537 186.107 179.442 191.139L181.288 191.908ZM180.327 195.645C180.327 194.324 180.659 193.083 181.245 191.999L179.485 191.048C178.746 192.417 178.327 193.984 178.327 195.645H180.327ZM188.015 203.334C183.769 203.334 180.327 199.892 180.327 195.645H178.327C178.327 200.996 182.664 205.334 188.015 205.334V203.334ZM195.703 195.645C195.703 199.892 192.261 203.334 188.015 203.334V205.334C193.366 205.334 197.703 200.996 197.703 195.645H195.703ZM195.285 193.137C195.556 193.922 195.703 194.765 195.703 195.645H197.703C197.703 194.54 197.518 193.477 197.176 192.485L195.285 193.137ZM195.207 192.916C195.251 193.011 195.295 193.107 195.34 193.203L197.156 192.367C197.112 192.27 197.067 192.173 197.023 192.077L195.207 192.916ZM194.772 191.974C194.927 192.258 195.065 192.554 195.183 192.859L197.047 192.134C196.897 191.749 196.724 191.376 196.528 191.017L194.772 191.974ZM196.249 193.798C196.981 193.792 197.463 193.032 197.156 192.367L195.34 193.203C195.039 192.55 195.512 191.805 196.23 191.798L196.249 193.798ZM197.176 192.485C197.396 193.124 196.925 193.792 196.249 193.798L196.23 191.798C195.541 191.805 195.06 192.485 195.285 193.137L197.176 192.485ZM189.241 176.882C188.646 175.813 187.108 175.777 186.476 176.841L188.196 177.862C188.033 178.137 187.642 178.121 187.493 177.855L189.241 176.882Z" fill="#2B714F" mask="url(#path-59-inside-1_303_12867)"/>
<circle cx="187.719" cy="181.997" r="25.9887" fill="url(#paint1_linear_303_12867)" fill-opacity="0.1"/>
<path d="M31.242 102.956H32.478V105.836H31.362V104H24.45L24.438 105.836H23.322L23.334 102.956H23.742C24.894 102.884 25.17 100.856 25.254 98.3L25.338 95.6H31.242V102.956ZM26.31 98.408C26.238 100.46 26.034 102.308 25.314 102.956H30.054V96.644H26.37L26.31 98.408ZM35.3185 102.956H40.2145V104H34.1185V95.6H40.0465V96.644H35.3185V99.224H39.5305V100.244H35.3185V102.956ZM47.751 104L45.027 100.304H43.275V104H42.099V95.6H43.275V99.248H45.051L47.691 95.6H48.975L45.975 99.668L49.119 104H47.751ZM56.6158 104L55.6918 101.9H51.2278L50.3038 104H49.0678L52.8718 95.6H54.0598L57.8758 104H56.6158ZM51.6478 100.94H55.2718L53.4598 96.824L51.6478 100.94ZM59.3256 104V95.6H65.6616V96.62H60.5136V99.02H63.1296C65.1336 99.02 66.1896 99.872 66.1896 101.444C66.1896 103.088 65.0256 104 62.9256 104H59.3256ZM60.5136 103.052H62.8776C64.2576 103.052 64.9896 102.512 64.9896 101.492C64.9896 100.46 64.2816 99.968 62.8776 99.968H60.5136V103.052ZM71.3789 95.6C73.5629 95.6 74.8829 96.704 74.8829 98.528C74.8829 100.352 73.5629 101.456 71.3789 101.456H69.3029V104H68.1029V95.6H71.3789ZM71.3429 100.412C72.8789 100.412 73.6829 99.728 73.6829 98.528C73.6829 97.328 72.8789 96.644 71.3429 96.644H69.3029V100.412H71.3429ZM79.1486 95.6H82.5206V104H81.3446V101.552H79.0286C78.9206 101.552 78.8126 101.552 78.7046 101.54L77.0246 104H75.7526L77.6126 101.336C76.4246 100.94 75.7526 99.98 75.7526 98.624C75.7526 96.704 77.0846 95.6 79.1486 95.6ZM76.9646 98.612C76.9646 99.848 77.6966 100.544 79.1246 100.544H81.3446V96.644H79.1966C77.7686 96.644 76.9646 97.316 76.9646 98.612Z" fill="#2B714F"/>
</g>
<defs>
<radialGradient id="paint0_radial_303_12867" cx="0" cy="0" r="1" gradientUnits="userSpaceOnUse" gradientTransform="translate(55 24.9999) scale(14 13.9999)">
<stop stop-color="#ADADAD"/>
<stop offset="0.06" stop-color="#8F8F8F"/>
<stop offset="0.15" stop-color="#696969"/>
<stop offset="0.25" stop-color="#484848"/>
<stop offset="0.35" stop-color="#2D2D2D"/>
<stop offset="0.47" stop-color="#191919"/>
<stop offset="0.59" stop-color="#0B0B0B"/>
<stop offset="0.75" stop-color="#020202"/>
<stop offset="1"/>
</radialGradient>
<linearGradient id="paint1_linear_303_12867" x1="187.719" y1="204.274" x2="187.719" y2="156.009" gradientUnits="userSpaceOnUse">
<stop stop-color="white"/>
<stop offset="1" stop-color="white" stop-opacity="0"/>
</linearGradient>
<clipPath id="clip0_303_12867">
<rect width="276" height="338" rx="24" fill="white"/>
</clipPath>
</defs>
</svg>
