<svg width="149" height="102" viewBox="0 0 149 102" fill="none" xmlns="http://www.w3.org/2000/svg">
<rect x="0.75" y="0.805908" width="147.5" height="100.388" rx="10.5672" fill="#378861"/>
<path d="M29.3358 37.0808V38.3208H10.3758V37.3608L22.3758 25.2808C24.0024 23.6541 25.0958 22.2675 25.6558 21.1208C26.2424 19.9475 26.5358 18.7475 26.5358 17.5208C26.5358 15.6275 25.8824 14.1341 24.5758 13.0408C23.2958 11.9475 21.4558 11.4008 19.0558 11.4008C17.1891 11.4008 15.5624 11.6808 14.1758 12.2408C12.8158 12.7741 11.6424 13.6141 10.6558 14.7608L9.73578 13.8808C11.8958 11.4008 15.0158 10.1608 19.0958 10.1608C21.7891 10.1608 23.9224 10.8141 25.4958 12.1208C27.0691 13.4275 27.8558 15.2008 27.8558 17.4408C27.8558 18.8541 27.5358 20.2141 26.8958 21.5208C26.2558 22.8275 25.0691 24.3475 23.3358 26.0808L12.4158 37.0808H29.3358ZM55.1477 30.2408H49.0677V38.3208H47.7477V30.2408H31.6677V29.2808L47.1477 10.3208H48.7077L33.4277 29.0408H47.7477V21.9208H49.0677V29.0408H55.1477V30.2408Z" fill="white"/>
<path d="M123.475 92.1108L139.378 92.098L139.361 71.0633L126.718 71.0735L126.722 75.8551L122.609 75.8584C119.311 75.8611 116.632 73.1862 116.629 69.8889C116.627 66.5916 119.302 63.9124 122.599 63.9098L132.432 63.9018L132.449 84.6132L124.789 84.6194C117.092 84.6256 110.842 78.3912 110.836 70.6887C110.83 62.9916 117.064 56.7418 124.767 56.7356L139.35 56.7239" fill="#378861"/>
<path d="M123.475 92.1108L139.378 92.098L139.361 71.0633L126.718 71.0735L126.722 75.8551L122.609 75.8584C119.311 75.8611 116.632 73.1862 116.629 69.8889C116.627 66.5916 119.302 63.9124 122.599 63.9098L132.432 63.9018L132.449 84.6132L124.789 84.6194C117.092 84.6256 110.842 78.3912 110.836 70.6887C110.83 62.9916 117.064 56.7418 124.767 56.7356L139.35 56.7239" stroke="white" stroke-miterlimit="10"/>
<path d="M123.475 10.0623L139.378 10.0751L139.361 31.1098L126.718 31.0996L126.722 26.318L122.609 26.3147C119.311 26.312 116.632 28.9869 116.629 32.2842C116.627 35.5815 119.302 38.2607 122.599 38.2633L132.432 38.2713L132.449 17.5599L124.789 17.5537C117.092 17.5475 110.842 23.7819 110.836 31.4844C110.83 39.1815 117.064 45.4313 124.767 45.4375L139.35 45.4492" fill="#378861"/>
<path d="M123.475 10.0623L139.378 10.0751L139.361 31.1098L126.718 31.0996L126.722 26.318L122.609 26.3147C119.311 26.312 116.632 28.9869 116.629 32.2842C116.627 35.5815 119.302 38.2607 122.599 38.2633L132.432 38.2713L132.449 17.5599L124.789 17.5537C117.092 17.5475 110.842 23.7819 110.836 31.4844C110.83 39.1815 117.064 45.4313 124.767 45.4375L139.35 45.4492" stroke="white" stroke-miterlimit="10"/>
<path d="M25.4876 92.1109L9.58434 92.098L9.60128 71.0634L22.2444 71.0735L22.2405 75.8551L26.3542 75.8585C29.6514 75.8611 32.3307 73.1862 32.3333 69.8889C32.336 66.5917 29.6611 63.9124 26.3638 63.9098L16.5302 63.9019L16.5136 84.6132L24.1737 84.6194C31.8708 84.6256 38.1205 78.3912 38.1267 70.6888C38.1329 62.9916 31.8986 56.7418 24.1961 56.7356L9.58435 56.7356" fill="#378861"/>
<path d="M25.4876 92.1109L9.58434 92.098L9.60128 71.0634L22.2444 71.0735L22.2405 75.8551L26.3542 75.8585C29.6514 75.8611 32.3307 73.1862 32.3333 69.8889C32.336 66.5917 29.6611 63.9124 26.3638 63.9098L16.5302 63.9019L16.5136 84.6132L24.1737 84.6194C31.8708 84.6256 38.1205 78.3912 38.1267 70.6888C38.1329 62.9916 31.8986 56.7418 24.1961 56.7356L9.58435 56.7356" stroke="white" stroke-miterlimit="10"/>
<line x1="123.594" y1="92.106" x2="25.4072" y2="92.1059" stroke="white"/>
<line x1="132.594" y1="10.332" x2="63.9072" y2="10.332" stroke="white"/>
<ellipse cx="63.6869" cy="10.0522" rx="1.50042" ry="1.5" fill="white"/>
<line x1="139.275" y1="44.8059" x2="139.275" y2="57.3059" stroke="white"/>
<line x1="10.25" y1="47" x2="10.25" y2="57" stroke="white"/>
<circle cx="9.95" cy="47.4551" r="1.5" fill="white"/>
<path d="M76.4168 33.8284V69.0223" stroke="white" stroke-miterlimit="10"/>
<path d="M94.0494 51.4607H58.87" stroke="white" stroke-miterlimit="10"/>
<path d="M86.9254 40.9521L65.9652 61.9269" stroke="white" stroke-miterlimit="10"/>
<path d="M86.9254 61.9692L65.9652 41.0088" stroke="white" stroke-miterlimit="10"/>
<rect x="66.3549" y="43.4927" width="3.08209" height="3.08209" transform="rotate(-45 66.3549 43.4927)" fill="#378861"/>
<rect x="82.2056" y="43.4927" width="3.08209" height="3.08209" transform="rotate(-45 82.2056 43.4927)" fill="#378861"/>
<rect x="82.2056" y="59.3435" width="3.08209" height="3.08209" transform="rotate(-45 82.2056 59.3435)" fill="#378861"/>
<rect x="65.9146" y="58.9033" width="3.08209" height="3.08209" transform="rotate(-45 65.9146 58.9033)" fill="#378861"/>
<path d="M106.925 47.4775L107.558 49.4179C107.74 49.9735 108.175 50.4054 108.727 50.5867L110.668 51.2201L108.727 51.8534C108.172 52.0348 107.74 52.4695 107.558 53.0223L106.925 54.9626L106.292 53.0223C106.11 52.4666 105.676 52.0348 105.123 51.8534L103.183 51.2201L105.123 50.5867C105.679 50.4054 106.11 49.9706 106.292 49.4179L106.925 47.4775Z" fill="#378861" stroke="white" stroke-miterlimit="10"/>
<path d="M76.2612 78.2983L76.8945 80.2387C77.0759 80.7943 77.5106 81.2262 78.0634 81.4075L80.0037 82.0409L78.0634 82.6743C77.5077 82.8556 77.0759 83.2903 76.8945 83.8431L76.2612 85.7834L75.6279 83.8431C75.4465 83.2874 75.0118 82.8556 74.459 82.6743L72.5187 82.0409L74.459 81.4075C75.0146 81.2262 75.4465 80.7914 75.6279 80.2387L76.2612 78.2983Z" fill="#378861" stroke="white" stroke-miterlimit="10"/>
<path d="M76.2612 16.2163L76.8945 18.1567C77.0759 18.7123 77.5106 19.1441 78.0634 19.3255L80.0037 19.9588L78.0634 20.5922C77.5077 20.7736 77.0759 21.2083 76.8945 21.761L76.2612 23.7014L75.6279 21.761C75.4465 21.2054 75.0118 20.7736 74.459 20.5922L72.5187 19.9588L74.459 19.3255C75.0146 19.1441 75.4465 18.7094 75.6279 18.1567L76.2612 16.2163Z" fill="#378861" stroke="white" stroke-miterlimit="10"/>
<path d="M57.3284 52.9813C56.4773 52.9813 55.7873 52.2913 55.7873 51.4402C55.7873 50.5891 56.4773 49.8992 57.3284 49.8992C58.1795 49.8992 58.8694 50.5891 58.8694 51.4402C58.8694 52.2913 58.1795 52.9813 57.3284 52.9813Z" fill="#378861" stroke="white" stroke-miterlimit="10"/>
<path d="M76.2612 72.1344C75.4101 72.1344 74.7202 71.4444 74.7202 70.5933C74.7202 69.7422 75.4101 69.0522 76.2612 69.0522C77.1123 69.0522 77.8022 69.7422 77.8022 70.5933C77.8022 71.4444 77.1123 72.1344 76.2612 72.1344Z" fill="#378861" stroke="white" stroke-miterlimit="10"/>
<path d="M76.2612 33.8282C75.4101 33.8282 74.7202 33.1382 74.7202 32.2871C74.7202 31.436 75.4101 30.7461 76.2612 30.7461C77.1123 30.7461 77.8022 31.436 77.8022 32.2871C77.8022 33.1382 77.1123 33.8282 76.2612 33.8282Z" fill="#378861" stroke="white" stroke-miterlimit="10"/>
<path d="M95.6343 52.9813C94.7832 52.9813 94.0933 52.2913 94.0933 51.4402C94.0933 50.5891 94.7832 49.8992 95.6343 49.8992C96.4854 49.8992 97.1754 50.5891 97.1754 51.4402C97.1754 52.2913 96.4854 52.9813 95.6343 52.9813Z" fill="#378861" stroke="white" stroke-miterlimit="10"/>
</svg>
