<svg width="170" height="171" viewBox="0 0 170 171" fill="none" xmlns="http://www.w3.org/2000/svg">
<g clip-path="url(#clip0_339_13662)">
<rect width="170" height="171" rx="14.733" fill="#F4F4F4"/>
<path style="mix-blend-mode:screen" d="M42.6417 15.6016C42.6417 20.3463 38.7924 24.1959 34.0478 24.1959C29.3031 24.1959 25.4531 20.3463 25.4531 15.6016C25.4531 10.857 29.3031 7.00745 34.0478 7.00745C38.7924 7.00745 42.6417 10.857 42.6417 15.6016Z" fill="url(#paint0_radial_339_13662)"/>
<path d="M21.1999 18.6605V46.6605H19.8799V19.9005H12.8399V18.6605H21.1999ZM35.0271 30.6205C39.1337 30.6205 42.0937 31.3272 43.9071 32.7405C45.7471 34.1272 46.6671 36.1272 46.6671 38.7405C46.6671 40.2872 46.3071 41.6739 45.5871 42.9005C44.8671 44.1272 43.7871 45.0872 42.3471 45.7805C40.9337 46.4739 39.2004 46.8205 37.1471 46.8205C35.1204 46.8205 33.2271 46.4605 31.4671 45.7405C29.7071 45.0205 28.3737 44.0872 27.4671 42.9405L28.2271 41.9805C29.0537 43.0472 30.2671 43.9139 31.8671 44.5805C33.4671 45.2472 35.2271 45.5805 37.1471 45.5805C39.7871 45.5805 41.8004 44.9539 43.1871 43.7005C44.6004 42.4472 45.3071 40.7939 45.3071 38.7405C45.3071 36.4739 44.5071 34.7672 42.9071 33.6205C41.3071 32.4472 38.5871 31.8605 34.7471 31.8605H29.3071L30.7871 18.6605H45.2271V19.9005H31.9071L30.7071 30.6205H35.0271Z" fill="#2B714F"/>
<path d="M120.587 32.3508C120.216 32.5255 119.86 32.0866 120.106 31.7595L133.08 14.5636C135.61 11.2104 140.769 11.6434 142.704 15.3648C144.203 18.2464 143.006 21.7852 140.07 23.1688L120.587 32.3508Z" stroke="#2B714F" stroke-miterlimit="10"/>
<path d="M119.308 32.3508C119.678 32.5255 120.035 32.0866 119.788 31.7595L106.814 14.5636C104.284 11.2104 99.1254 11.6434 97.1907 15.3648C95.692 18.2464 96.8886 21.7852 99.8244 23.1688L119.308 32.3508Z" stroke="#2B714F" stroke-miterlimit="10"/>
<line x1="119.342" y1="32.7251" x2="97.3666" y2="54.7004" stroke="#2B714F"/>
<line y1="-0.5" x2="31.0777" y2="-0.5" transform="matrix(0.707107 0.707107 0.707107 -0.707107 120.557 32.3716)" stroke="#2B714F"/>
<path d="M120.234 33.6847V-9.7934" stroke="#2B714F"/>
<circle cx="118.952" cy="95.5579" r="62.1626" stroke="#2B714F"/>
<path d="M51.6349 117.199C74.0743 139.703 89.6153 146.371 122.63 147.616" stroke="#2B714F" stroke-miterlimit="10"/>
<path d="M113.168 139.637L108.265 145.987" stroke="#2B714F" stroke-miterlimit="10"/>
<path d="M106.806 135.51L98.6151 145.395" stroke="#2B714F" stroke-miterlimit="10"/>
<path d="M96.0265 132.491L87.8357 142.376" stroke="#2B714F" stroke-miterlimit="10"/>
<path d="M85.6359 128.571L77.4452 138.456" stroke="#2B714F" stroke-miterlimit="10"/>
<path d="M76.1964 122.396L68.0058 132.281" stroke="#2B714F" stroke-miterlimit="10"/>
<path d="M67.1554 115.326L58.9647 125.211" stroke="#2B714F" stroke-miterlimit="10"/>
<path d="M107.527 154.36L108.742 146.43" stroke="#2B714F" stroke-miterlimit="10"/>
<path d="M97.5234 157.177L99.0304 144.428" stroke="#2B714F" stroke-miterlimit="10"/>
<path d="M86.7949 154.04L88.3017 141.291" stroke="#2B714F" stroke-miterlimit="10"/>
<path d="M76.4043 150.12L77.9112 137.371" stroke="#2B714F" stroke-miterlimit="10"/>
<path d="M67.1562 143.495L68.6632 130.746" stroke="#2B714F" stroke-miterlimit="10"/>
<path d="M58.1152 136.425L59.6222 123.676" stroke="#2B714F" stroke-miterlimit="10"/>
<path d="M99.5395 158.833C131.174 155.796 146.195 148.028 168.128 123.32" stroke="#2B714F" stroke-miterlimit="10"/>
<path d="M156.599 125.472L158.388 133.292" stroke="#2B714F" stroke-miterlimit="10"/>
<path d="M148.73 127.853L151.162 140.458" stroke="#2B714F" stroke-miterlimit="10"/>
<path d="M139.548 134.258L141.98 146.863" stroke="#2B714F" stroke-miterlimit="10"/>
<path d="M129.919 139.795L132.351 152.4" stroke="#2B714F" stroke-miterlimit="10"/>
<path d="M119.155 143.164L121.588 155.769" stroke="#2B714F" stroke-miterlimit="10"/>
<path d="M107.952 145.657L110.385 158.262" stroke="#2B714F" stroke-miterlimit="10"/>
<path d="M163.744 139.268L158.391 133.293" stroke="#2B714F" stroke-miterlimit="10"/>
<path d="M159.564 148.786L150.675 139.524" stroke="#2B714F" stroke-miterlimit="10"/>
<path d="M150.33 155.076L141.44 145.815" stroke="#2B714F" stroke-miterlimit="10"/>
<path d="M140.699 160.614L131.81 151.352" stroke="#2B714F" stroke-miterlimit="10"/>
<path d="M129.709 163.547L120.819 154.286" stroke="#2B714F" stroke-miterlimit="10"/>
<path d="M118.506 166.041L109.616 156.779" stroke="#2B714F" stroke-miterlimit="10"/>
<path d="M51.0848 82.1516C53.622 103.097 59.025 112.939 75.7852 127.089" stroke="#2B714F" stroke-miterlimit="10"/>
<path d="M74.1694 119.474L69.0086 120.79" stroke="#2B714F" stroke-miterlimit="10"/>
<path d="M72.4601 114.287L64.1342 116.109" stroke="#2B714F" stroke-miterlimit="10"/>
<path d="M68.0558 108.301L59.7298 110.123" stroke="#2B714F" stroke-miterlimit="10"/>
<path d="M64.2218 102.002L55.8959 103.824" stroke="#2B714F" stroke-miterlimit="10"/>
<path d="M61.8078 94.9129L53.4818 96.735" stroke="#2B714F" stroke-miterlimit="10"/>
<path d="M59.9679 87.5167L51.642 89.3388" stroke="#2B714F" stroke-miterlimit="10"/>
<path d="M65.1309 124.442L69.0082 120.79" stroke="#2B714F" stroke-miterlimit="10"/>
<path d="M58.7441 121.825L64.7448 115.772" stroke="#2B714F" stroke-miterlimit="10"/>
<path d="M54.416 115.798L60.4167 109.746" stroke="#2B714F" stroke-miterlimit="10"/>
<path d="M50.582 109.5L56.5827 103.447" stroke="#2B714F" stroke-miterlimit="10"/>
<path d="M48.4551 102.253L54.4558 96.2006" stroke="#2B714F" stroke-miterlimit="10"/>
<path d="M46.6172 94.8578L52.6179 88.805" stroke="#2B714F" stroke-miterlimit="10"/>
<path d="M178.073 106.629C175.536 127.575 170.133 137.417 153.373 151.567" stroke="#2B714F" stroke-miterlimit="10"/>
<path d="M154.989 143.952L160.15 145.268" stroke="#2B714F" stroke-miterlimit="10"/>
<path d="M156.7 138.765L165.026 140.587" stroke="#2B714F" stroke-miterlimit="10"/>
<path d="M161.102 132.779L169.428 134.601" stroke="#2B714F" stroke-miterlimit="10"/>
<path d="M164.936 126.48L173.262 128.302" stroke="#2B714F" stroke-miterlimit="10"/>
<path d="M167.35 119.391L175.676 121.213" stroke="#2B714F" stroke-miterlimit="10"/>
<path d="M169.188 111.995L177.514 113.817" stroke="#2B714F" stroke-miterlimit="10"/>
<path d="M164.027 148.92L160.15 145.268" stroke="#2B714F" stroke-miterlimit="10"/>
<path d="M170.414 146.303L164.413 140.25" stroke="#2B714F" stroke-miterlimit="10"/>
<path d="M174.742 140.276L168.742 134.223" stroke="#2B714F" stroke-miterlimit="10"/>
<path d="M113.234 146.958V105.623H129.454V152.975" stroke="#2B714F"/>
<mask id="path-60-inside-1_339_13662" fill="white">
<path fill-rule="evenodd" clip-rule="evenodd" d="M125.346 93.0304C124.168 90.5126 123.027 88.3042 121.43 85.4352C121.311 85.2199 121.003 85.2144 120.877 85.4263C119.29 88.0995 118.255 90.3429 117.137 93.028C116.779 93.6881 116.576 94.4441 116.576 95.2477C116.576 97.8238 118.665 99.9122 121.241 99.9122C123.817 99.9122 125.905 97.8238 125.905 95.2477C125.905 94.715 125.816 94.2031 125.651 93.7262C125.65 93.7227 125.653 93.7191 125.657 93.7191C125.66 93.719 125.663 93.715 125.661 93.7114C125.636 93.6559 125.61 93.6006 125.585 93.5454C125.515 93.3682 125.435 93.1963 125.346 93.0304Z"/>
</mask>
<path d="M125.346 93.0304L124.44 93.454L124.452 93.4806L124.466 93.5065L125.346 93.0304ZM117.137 93.028L118.016 93.5046L118.041 93.4596L118.06 93.4124L117.137 93.028ZM125.585 93.5454L124.654 93.9105L124.665 93.938L124.677 93.9647L125.585 93.5454ZM125.661 93.7114L124.753 94.1294L125.661 93.7114ZM125.651 93.7262L124.706 94.0523L125.651 93.7262ZM121.43 85.4352L120.557 85.9215L121.43 85.4352ZM120.557 85.9215C122.144 88.7744 123.274 90.9616 124.44 93.454L126.251 92.6069C125.062 90.0636 123.91 87.834 122.304 84.9489L120.557 85.9215ZM118.06 93.4124C119.168 90.7522 120.182 88.5553 121.737 85.9369L120.017 84.9157C118.397 87.6436 117.342 89.9335 116.214 92.6436L118.06 93.4124ZM117.576 95.2477C117.576 94.6147 117.736 94.022 118.016 93.5046L116.258 92.5515C115.823 93.3542 115.576 94.2736 115.576 95.2477H117.576ZM121.241 98.9122C119.217 98.9122 117.576 97.2715 117.576 95.2477H115.576C115.576 98.3761 118.112 100.912 121.241 100.912V98.9122ZM124.905 95.2477C124.905 97.2715 123.265 98.9122 121.241 98.9122V100.912C124.369 100.912 126.905 98.3761 126.905 95.2477H124.905ZM124.706 94.0523C124.835 94.4256 124.905 94.8274 124.905 95.2477H126.905C126.905 94.6025 126.797 93.9805 126.597 93.4002L124.706 94.0523ZM124.677 93.9647C124.702 94.0194 124.728 94.0743 124.753 94.1294L126.57 93.2934C126.544 93.2375 126.518 93.1817 126.493 93.1261L124.677 93.9647ZM124.466 93.5065C124.537 93.6367 124.599 93.7716 124.654 93.9105L126.516 93.1804C126.431 92.9649 126.334 92.7559 126.225 92.5544L124.466 93.5065ZM125.666 94.719C126.395 94.7124 126.875 93.9559 126.57 93.2934L124.753 94.1294C124.451 93.474 124.926 92.7257 125.647 92.7191L125.666 94.719ZM126.597 93.4002C126.818 94.0422 126.345 94.7129 125.666 94.719L125.647 92.7191C124.96 92.7253 124.482 93.4033 124.706 94.0523L126.597 93.4002ZM122.304 84.9489C121.813 84.0658 120.541 84.0345 120.017 84.9157L121.737 85.9369C121.465 86.3943 120.808 86.3739 120.557 85.9215L122.304 84.9489Z" fill="#2B714F" mask="url(#path-60-inside-1_339_13662)"/>
<circle cx="121.083" cy="87.9206" r="13.9526" fill="url(#paint1_linear_339_13662)" fill-opacity="0.1"/>
</g>
<defs>
<radialGradient id="paint0_radial_339_13662" cx="0" cy="0" r="1" gradientUnits="userSpaceOnUse" gradientTransform="translate(34.0474 15.6017) scale(8.59428 8.59423)">
<stop stop-color="#ADADAD"/>
<stop offset="0.06" stop-color="#8F8F8F"/>
<stop offset="0.15" stop-color="#696969"/>
<stop offset="0.25" stop-color="#484848"/>
<stop offset="0.35" stop-color="#2D2D2D"/>
<stop offset="0.47" stop-color="#191919"/>
<stop offset="0.59" stop-color="#0B0B0B"/>
<stop offset="0.75" stop-color="#020202"/>
<stop offset="1"/>
</radialGradient>
<linearGradient id="paint1_linear_339_13662" x1="121.083" y1="99.88" x2="121.083" y2="73.968" gradientUnits="userSpaceOnUse">
<stop stop-color="white"/>
<stop offset="1" stop-color="white" stop-opacity="0"/>
</linearGradient>
<clipPath id="clip0_339_13662">
<rect width="170" height="171" rx="14.733" fill="white"/>
</clipPath>
</defs>
</svg>
