<svg width="337" height="106" viewBox="0 0 337 106" fill="none" xmlns="http://www.w3.org/2000/svg">
<g clip-path="url(#clip0_436_14015)">
<rect x="0.974609" y="0.0102539" width="335.05" height="105.98" rx="13.2474" fill="#378861"/>
<path d="M31.9543 37.7914V39.0747H12.3315V38.0811L24.751 25.5789C26.4346 23.8953 27.5661 22.4602 28.1457 21.2735C28.7529 20.0591 29.0564 18.8172 29.0564 17.5476C29.0564 15.5881 28.3803 14.0426 27.0279 12.911C25.7032 11.7794 23.7989 11.2137 21.315 11.2137C19.3831 11.2137 17.6995 11.5035 16.2644 12.083C14.8568 12.635 13.6425 13.5044 12.6213 14.6911L11.6692 13.7804C13.9047 11.2137 17.1337 9.93032 21.3564 9.93032C24.1439 9.93032 26.3518 10.6065 27.9801 11.9588C29.6084 13.3112 30.4226 15.1465 30.4226 17.4648C30.4226 18.9275 30.0914 20.3351 29.429 21.6874C28.7667 23.0398 27.5385 24.6129 25.7446 26.4068L14.4429 37.7914H31.9543ZM42.7434 10.0959V39.0747H41.3773V11.3793H34.0912V10.0959H42.7434Z" fill="white"/>
<path d="M169.876 30.9209V75.0415" stroke="white" stroke-miterlimit="10"/>
<path d="M191.981 53.0256H147.878" stroke="white" stroke-miterlimit="10"/>
<path d="M183.05 39.8516L156.773 66.1464" stroke="white" stroke-miterlimit="10"/>
<path d="M183.05 66.1995L156.773 39.9226" stroke="white" stroke-miterlimit="10"/>
<path d="M139.323 54.6559C138.256 54.6559 137.391 53.7909 137.391 52.7239C137.391 51.6569 138.256 50.792 139.323 50.792C140.39 50.792 141.254 51.6569 141.254 52.7239C141.254 53.7909 140.39 54.6559 139.323 54.6559Z" stroke="white" stroke-miterlimit="10"/>
<path d="M169.681 85.5668C168.614 85.5668 167.749 84.7018 167.749 83.6348C167.749 82.5678 168.614 81.7029 169.681 81.7029C170.748 81.7029 171.613 82.5678 171.613 83.6348C171.613 84.7018 170.748 85.5668 169.681 85.5668Z" stroke="white" stroke-miterlimit="10"/>
<path d="M170.233 24.8492C169.166 24.8492 168.301 23.9842 168.301 22.9173C168.301 21.8503 169.166 20.9854 170.233 20.9854C171.3 20.9854 172.165 21.8503 172.165 22.9173C172.165 23.9842 171.3 24.8492 170.233 24.8492Z" stroke="white" stroke-miterlimit="10"/>
<path d="M199.488 54.6559C198.421 54.6559 197.556 53.7909 197.556 52.7239C197.556 51.6569 198.421 50.792 199.488 50.792C200.555 50.792 201.42 51.6569 201.42 52.7239C201.42 53.7909 200.555 54.6559 199.488 54.6559Z" stroke="white" stroke-miterlimit="10"/>
<path d="M309.797 10.1868L326.346 10.2002L326.328 32.0887L313.172 32.0781L313.176 27.1024L308.895 27.099C305.464 27.0962 302.676 29.8797 302.674 33.3108C302.671 36.7419 305.454 39.5299 308.885 39.5327L319.118 39.5409L319.136 17.9888L311.164 17.9824C303.155 17.9759 296.652 24.4634 296.645 32.4785C296.639 40.4882 303.126 46.9916 311.141 46.998L326.316 47.0103" stroke="white" stroke-miterlimit="10"/>
<path d="M309.797 94.8337L326.346 94.8203L326.328 72.9318L313.172 72.9424L313.176 77.9181L308.895 77.9215C305.464 77.9243 302.676 75.1408 302.674 71.7097C302.671 68.2786 305.454 65.4906 308.885 65.4878L319.118 65.4796L319.136 87.0317L311.164 87.0381C303.155 87.0446 296.652 80.5571 296.645 72.542C296.639 64.5324 303.126 58.0289 311.141 58.0225L326.316 58.0103" stroke="white" stroke-miterlimit="10"/>
<path d="M27.1823 94.8337L10.6334 94.8203L10.6511 72.9318L23.8074 72.9424L23.8034 77.9181L28.084 77.9215C31.5151 77.9243 34.3031 75.1408 34.3059 71.7097C34.3086 68.2786 31.5251 65.4906 28.094 65.4878L17.8613 65.4796L17.8439 87.0317L25.815 87.0381C33.8246 87.0446 40.328 80.5571 40.3344 72.542C40.3409 64.5324 33.8535 58.0289 25.8384 58.0225L10.6631 58.0103" stroke="white" stroke-miterlimit="10"/>
<line x1="326.5" y1="46.5103" x2="326.5" y2="58.5103" stroke="white"/>
<line x1="312.29" y1="10.2102" x2="60.0366" y2="10.2102" stroke="white"/>
<line x1="312.29" y1="94.8982" x2="20.8462" y2="94.8982" stroke="white"/>
<path d="M222.12 48.0322L222.914 50.4647C223.141 51.1613 223.686 51.7027 224.379 51.9301L226.811 52.724L224.379 53.5181C223.682 53.7454 223.141 54.2904 222.914 54.9833L222.12 57.4158L221.326 54.9833C221.098 54.2868 220.553 53.7454 219.86 53.5181L217.428 52.724L219.86 51.9301C220.557 51.7027 221.098 51.1577 221.326 50.4647L222.12 48.0322Z" stroke="white" stroke-miterlimit="10"/>
<path d="M116.692 48.0322L117.486 50.4647C117.713 51.1613 118.258 51.7027 118.951 51.9301L121.384 52.724L118.951 53.5181C118.255 53.7454 117.713 54.2904 117.486 54.9833L116.692 57.4158L115.898 54.9833C115.67 54.2868 115.125 53.7454 114.433 53.5181L112 52.724L114.433 51.9301C115.129 51.7027 115.67 51.1577 115.898 50.4647L116.692 48.0322Z" stroke="white" stroke-miterlimit="10"/>
<circle cx="59.4326" cy="10.0103" r="1.5" fill="white"/>
<ellipse cx="11.2913" cy="58.0103" rx="1.50033" ry="1.5" fill="white"/>
</g>
<defs>
<clipPath id="clip0_436_14015">
<rect x="0.974609" y="0.0102539" width="335.05" height="105.98" rx="13.2474" fill="white"/>
</clipPath>
</defs>
</svg>
