<svg width="401" height="176" viewBox="0 0 401 176" fill="none" xmlns="http://www.w3.org/2000/svg">
<g clip-path="url(#clip0_436_13689)">
<rect width="401" height="176" rx="24" fill="#378861"/>
<path d="M37.3247 20V76H34.6847V22.48H20.6047V20H37.3247ZM73.8591 43.28C77.5391 43.28 80.7924 43.9467 83.6191 45.28C86.4457 46.6133 88.6057 48.5333 90.0991 51.04C91.6457 53.4933 92.4191 56.3733 92.4191 59.68C92.4191 62.9867 91.6457 65.8933 90.0991 68.4C88.5524 70.9067 86.3924 72.8533 83.6191 74.24C80.8457 75.6267 77.7257 76.32 74.2591 76.32C67.0591 76.32 61.5657 73.84 57.7791 68.88C53.9924 63.92 52.0991 57.0133 52.0991 48.16C52.0991 41.9733 53.1124 36.7733 55.1391 32.56C57.1657 28.2933 59.9924 25.0933 63.6191 22.96C67.2457 20.7733 71.5124 19.68 76.4191 19.68C81.5391 19.68 85.6191 20.6133 88.6591 22.48L87.4591 24.64C84.8457 22.9867 81.1657 22.16 76.4191 22.16C69.7524 22.16 64.4724 24.3467 60.5791 28.72C56.7391 33.0933 54.8191 39.44 54.8191 47.76C54.8191 50.7467 55.0857 53.5733 55.6191 56.24C56.5791 52.1867 58.7124 49.0133 62.0191 46.72C65.3257 44.4267 69.2724 43.28 73.8591 43.28ZM74.1791 73.92C78.8191 73.92 82.5791 72.64 85.4591 70.08C88.3391 67.4667 89.7791 64.0267 89.7791 59.76C89.7791 55.44 88.3124 52 85.3791 49.44C82.4991 46.88 78.5791 45.6 73.6191 45.6C70.4191 45.6 67.5657 46.24 65.0591 47.52C62.6057 48.7467 60.6857 50.4533 59.2991 52.64C57.9124 54.8267 57.2191 57.2533 57.2191 59.92C57.2191 62.2667 57.8591 64.5333 59.1391 66.72C60.4724 68.8533 62.4191 70.5867 64.9791 71.92C67.5391 73.2533 70.6057 73.92 74.1791 73.92Z" fill="white"/>
<path d="M36.242 92.956H37.478V95.836H36.362V94H29.45L29.438 95.836H28.322L28.334 92.956H28.742C29.894 92.884 30.17 90.856 30.254 88.3L30.338 85.6H36.242V92.956ZM31.31 88.408C31.238 90.46 31.034 92.308 30.314 92.956H35.054V86.644H31.37L31.31 88.408ZM40.3185 92.956H45.2145V94H39.1185V85.6H45.0465V86.644H40.3185V89.224H44.5305V90.244H40.3185V92.956ZM52.751 94L50.027 90.304H48.275V94H47.099V85.6H48.275V89.248H50.051L52.691 85.6H53.975L50.975 89.668L54.119 94H52.751ZM61.6158 94L60.6918 91.9H56.2278L55.3038 94H54.0678L57.8718 85.6H59.0598L62.8758 94H61.6158ZM56.6478 90.94H60.2718L58.4598 86.824L56.6478 90.94ZM64.3256 94V85.6H70.6616V86.62H65.5136V89.02H68.1296C70.1336 89.02 71.1896 89.872 71.1896 91.444C71.1896 93.088 70.0256 94 67.9256 94H64.3256ZM65.5136 93.052H67.8776C69.2576 93.052 69.9896 92.512 69.9896 91.492C69.9896 90.46 69.2816 89.968 67.8776 89.968H65.5136V93.052ZM76.3789 85.6C78.5629 85.6 79.8829 86.704 79.8829 88.528C79.8829 90.352 78.5629 91.456 76.3789 91.456H74.3029V94H73.1029V85.6H76.3789ZM76.3429 90.412C77.8789 90.412 78.6829 89.728 78.6829 88.528C78.6829 87.328 77.8789 86.644 76.3429 86.644H74.3029V90.412H76.3429ZM84.1486 85.6H87.5206V94H86.3446V91.552H84.0286C83.9206 91.552 83.8126 91.552 83.7046 91.54L82.0246 94H80.7526L82.6126 91.336C81.4246 90.94 80.7526 89.98 80.7526 88.624C80.7526 86.704 82.0846 85.6 84.1486 85.6ZM81.9646 88.612C81.9646 89.848 82.6966 90.544 84.1246 90.544H86.3446V86.644H84.1966C82.7686 86.644 81.9646 87.316 81.9646 88.612Z" fill="white"/>
<path d="M359.139 155.942L380.684 155.925L380.661 127.427L363.532 127.441L363.538 133.919L357.965 133.923C353.497 133.927 349.868 130.303 349.864 125.836C349.86 121.369 353.484 117.739 357.952 117.735L371.274 117.725L371.297 145.784L360.919 145.793C350.491 145.801 342.024 137.355 342.015 126.92C342.007 116.491 350.453 108.024 360.888 108.016L380.684 108.016" stroke="white" stroke-miterlimit="10"/>
<path d="M359.139 21.014L380.684 21.0313L380.661 49.529L363.532 49.5152L363.538 43.0371L357.965 43.0326C353.497 43.029 349.868 46.653 349.864 51.1201C349.86 55.5872 353.484 59.217 357.952 59.2206L371.274 59.2314L371.297 31.1717L360.919 31.1633C350.491 31.1549 342.024 39.6012 342.015 50.0365C342.007 60.4646 350.453 68.9317 360.888 68.9401L380.684 68.9401" stroke="white" stroke-miterlimit="10"/>
<path d="M42.5842 155.942L21.0386 155.925L21.0615 127.427L38.1903 127.441L38.1851 133.919L43.7582 133.923C48.2253 133.927 51.8551 130.303 51.8587 125.836C51.8623 121.369 48.2384 117.739 43.7712 117.735L30.4488 117.725L30.4262 145.784L40.8041 145.793C51.2322 145.801 59.6992 137.355 59.7076 126.92C59.716 116.491 51.2698 108.024 40.8345 108.016L21.0386 108.016" stroke="white" stroke-miterlimit="10"/>
<line x1="360" y1="156" x2="40" y2="156" stroke="white"/>
<line x1="360.998" y1="21" x2="110.999" y2="20.1883" stroke="white"/>
<circle cx="110.5" cy="20" r="1.5" fill="white"/>
<line x1="380.5" y1="68.5" x2="380.5" y2="108.5" stroke="white"/>
<path d="M201.759 61.2659V115.688" stroke="white" stroke-miterlimit="10"/>
<path d="M174.493 88.5315H228.893" stroke="white" stroke-miterlimit="10"/>
<path d="M185.509 72.2817L217.921 104.716" stroke="white" stroke-miterlimit="10"/>
<path d="M185.509 104.781L217.921 72.3694" stroke="white" stroke-miterlimit="10"/>
<path d="M231.276 90.883C232.592 90.883 233.659 89.8161 233.659 88.5C233.659 87.1839 232.592 86.117 231.276 86.117C229.96 86.117 228.893 87.1839 228.893 88.5C228.893 89.8161 229.96 90.883 231.276 90.883Z" stroke="white" stroke-miterlimit="10"/>
<path d="M201.999 120.5C203.315 120.5 204.382 119.433 204.382 118.117C204.382 116.801 203.315 115.734 201.999 115.734C200.683 115.734 199.616 116.801 199.616 118.117C199.616 119.433 200.683 120.5 201.999 120.5Z" stroke="white" stroke-miterlimit="10"/>
<path d="M201.999 61.266C203.315 61.266 204.382 60.1991 204.382 58.883C204.382 57.5669 203.315 56.5 201.999 56.5C200.683 56.5 199.616 57.5669 199.616 58.883C199.616 60.1991 200.683 61.266 201.999 61.266Z" stroke="white" stroke-miterlimit="10"/>
<path d="M172.042 90.883C173.358 90.883 174.425 89.8161 174.425 88.5C174.425 87.1839 173.358 86.117 172.042 86.117C170.726 86.117 169.659 87.1839 169.659 88.5C169.659 89.8161 170.726 90.883 172.042 90.883Z" stroke="white" stroke-miterlimit="10"/>
<path d="M251.159 82L249.974 85.6292C249.635 86.6685 248.822 87.4762 247.788 87.8154L244.159 89L247.788 90.1847C248.827 90.5239 249.635 91.3369 249.974 92.3708L251.159 96L252.343 92.3708C252.683 91.3315 253.496 90.5239 254.53 90.1847L258.159 89L254.53 87.8154C253.49 87.4762 252.683 86.6631 252.343 85.6292L251.159 82Z" stroke="white" stroke-miterlimit="10"/>
<path d="M202.159 132L200.974 135.629C200.635 136.668 199.822 137.476 198.788 137.815L195.159 139L198.788 140.185C199.827 140.524 200.635 141.337 200.974 142.371L202.159 146L203.343 142.371C203.683 141.332 204.496 140.524 205.53 140.185L209.159 139L205.53 137.815C204.49 137.476 203.683 136.663 203.343 135.629L202.159 132Z" stroke="white" stroke-miterlimit="10"/>
<path d="M202.159 31L200.974 34.6292C200.635 35.6685 199.822 36.4762 198.788 36.8154L195.159 38L198.788 39.1847C199.827 39.5239 200.635 40.3369 200.974 41.3708L202.159 45L203.343 41.3708C203.683 40.3315 204.496 39.5239 205.53 39.1847L209.159 38L205.53 36.8154C204.49 36.4762 203.683 35.6631 203.343 34.6292L202.159 31Z" stroke="white" stroke-miterlimit="10"/>
<path d="M149 82.5L150.185 86.1292C150.524 87.1685 151.337 87.9762 152.371 88.3154L156 89.5L152.371 90.6847C151.332 91.0239 150.524 91.8369 150.185 92.8708L149 96.5L147.815 92.8708C147.476 91.8315 146.663 91.0239 145.629 90.6847L142 89.5L145.629 88.3154C146.668 87.9762 147.476 87.1631 147.815 86.1292L149 82.5Z" stroke="white" stroke-miterlimit="10"/>
</g>
<defs>
<clipPath id="clip0_436_13689">
<rect width="401" height="176" rx="24" fill="white"/>
</clipPath>
</defs>
</svg>
