<svg width="401" height="354" viewBox="0 0 401 354" fill="none" xmlns="http://www.w3.org/2000/svg">
<g clip-path="url(#clip0_303_13047)">
<rect width="401" height="354" rx="24" fill="#F4F4F4"/>
<path d="M67.3997 80.675V83H31.8497V81.2L54.3497 58.55C57.3997 55.5 59.4497 52.9 60.4997 50.75C61.5997 48.55 62.1497 46.3 62.1497 44C62.1497 40.45 60.9247 37.65 58.4747 35.6C56.0747 33.55 52.6247 32.525 48.1247 32.525C44.6247 32.525 41.5747 33.05 38.9747 34.1C36.4247 35.1 34.2247 36.675 32.3747 38.825L30.6497 37.175C34.6997 32.525 40.5497 30.2 48.1997 30.2C53.2497 30.2 57.2497 31.425 60.1997 33.875C63.1497 36.325 64.6247 39.65 64.6247 43.85C64.6247 46.5 64.0247 49.05 62.8247 51.5C61.6247 53.95 59.3997 56.8 56.1497 60.05L35.6747 80.675H67.3997ZM94.6798 83.3C90.7298 83.3 87.2048 82.225 84.1048 80.075C81.0548 77.875 78.6798 74.775 76.9798 70.775C75.2798 66.725 74.4298 62.05 74.4298 56.75C74.4298 51.45 75.2798 46.8 76.9798 42.8C78.6798 38.75 81.0548 35.65 84.1048 33.5C87.2048 31.3 90.7298 30.2 94.6798 30.2C98.6798 30.2 102.205 31.3 105.255 33.5C108.305 35.65 110.68 38.75 112.38 42.8C114.08 46.8 114.93 51.45 114.93 56.75C114.93 62.05 114.08 66.725 112.38 70.775C110.68 74.775 108.305 77.875 105.255 80.075C102.205 82.225 98.6798 83.3 94.6798 83.3ZM94.6798 80.975C98.1798 80.975 101.28 80 103.98 78.05C106.68 76.1 108.755 73.3 110.205 69.65C111.705 66 112.455 61.7 112.455 56.75C112.455 51.8 111.705 47.5 110.205 43.85C108.755 40.2 106.68 37.4 103.98 35.45C101.28 33.5 98.1798 32.525 94.6798 32.525C91.1798 32.525 88.0798 33.5 85.3798 35.45C82.7298 37.4 80.6548 40.2 79.1548 43.85C77.7048 47.5 76.9798 51.8 76.9798 56.75C76.9798 61.7 77.7048 66 79.1548 69.65C80.6548 73.3 82.7298 76.1 85.3798 78.05C88.0798 80 91.1798 80.975 94.6798 80.975Z" fill="#2B714F"/>
<path d="M79 168L82.5538 178.888C83.5715 182.005 86.0108 184.429 89.1123 185.446L100 189L89.1123 192.554C85.9946 193.572 83.5715 196.011 82.5538 199.112L79 210L75.4462 199.112C74.4285 195.995 71.9892 193.572 68.8877 192.554L58 189L68.8877 185.446C72.0054 184.429 74.4285 181.989 75.4462 178.888L79 168Z" stroke="#2B714F" stroke-miterlimit="10"/>
<path d="M46 264L48.0307 270.222C48.6123 272.003 50.0062 273.388 51.7785 273.969L58 276L51.7785 278.031C49.9969 278.612 48.6123 280.006 48.0307 281.778L46 288L43.9693 281.778C43.3877 279.997 41.9938 278.612 40.2215 278.031L34 276L40.2215 273.969C42.0031 273.388 43.3877 271.994 43.9693 270.222L46 264Z" stroke="#2B714F" stroke-miterlimit="10"/>
<path d="M299 292L301.031 298.222C301.612 300.003 303.006 301.388 304.778 301.969L311 304L304.778 306.031C302.997 306.612 301.612 308.006 301.031 309.778L299 316L296.969 309.778C296.388 307.997 294.994 306.612 293.222 306.031L287 304L293.222 301.969C295.003 301.388 296.388 299.994 296.969 298.222L299 292Z" stroke="#2B714F" stroke-miterlimit="10"/>
<circle cx="361.5" cy="194.5" r="56" stroke="#2B714F"/>
<path d="M362 128L362 -23" stroke="#2B714F" stroke-miterlimit="10"/>
<path d="M358.056 128H365.902C369.252 128 371.958 130.581 371.958 133.773L372 138.963C364.045 138.157 359.596 137.928 352 139V133.773C352 130.581 354.707 128 358.056 128Z" stroke="#2B714F" stroke-miterlimit="10"/>
<path d="M318 159.77C322 156.27 323.809 165.842 326.651 165.842C329.492 165.842 332.334 159.77 335.176 159.77C338.017 159.77 340.859 165.842 343.7 165.842C346.542 165.842 349.384 159.77 352.225 159.77C355.067 159.77 357.909 165.842 360.75 165.842C363.592 165.842 366.434 159.77 369.275 159.77C372.117 159.77 374.959 165.842 377.8 165.842C380.642 165.842 383.484 159.77 386.325 159.77C389.167 159.77 392.009 165.842 394.85 165.842C397.692 165.842 400.534 159.77 403.375 159.77C406.217 159.77 409.058 165.842 411.9 165.842C414.742 165.842 417.583 159.77 420.425 159.77C423.267 159.77 426.108 165.842 428.95 165.842C431.792 165.842 434.633 159.77 437.475 159.77C440.317 159.77 442 161.77 444 163.27" stroke="#2B714F" stroke-linecap="round" stroke-linejoin="round"/>
<path d="M314 222.77C318 219.27 319.809 228.842 322.651 228.842C325.492 228.842 328.334 222.77 331.176 222.77C334.017 222.77 336.859 228.842 339.7 228.842C342.542 228.842 345.384 222.77 348.225 222.77C351.067 222.77 353.909 228.842 356.75 228.842C359.592 228.842 362.434 222.77 365.275 222.77C368.117 222.77 370.959 228.842 373.8 228.842C376.642 228.842 379.484 222.77 382.325 222.77C385.167 222.77 388.009 228.842 390.85 228.842C393.692 228.842 396.534 222.77 399.375 222.77C402.217 222.77 405.058 228.842 407.9 228.842C410.742 228.842 413.583 222.77 416.425 222.77C419.267 222.77 422.108 228.842 424.95 228.842C427.792 228.842 430.633 222.77 433.475 222.77C436.317 222.77 438 224.77 440 226.27" stroke="#2B714F" stroke-linecap="round" stroke-linejoin="round"/>
<g clip-path="url(#clip1_303_13047)">
<path d="M144.709 181.672C145.573 181.672 146.274 180.972 146.274 180.108C146.274 179.244 145.573 178.543 144.709 178.543C143.845 178.543 143.144 179.244 143.144 180.108C143.144 180.972 143.845 181.672 144.709 181.672Z" fill="#2B714F"/>
<path d="M151.834 181.84C152.698 181.84 153.399 181.14 153.399 180.276C153.399 179.412 152.698 178.711 151.834 178.711C150.97 178.711 150.269 179.412 150.269 180.276C150.269 181.14 150.97 181.84 151.834 181.84Z" fill="#2B714F"/>
<path d="M129.695 190.334C130.909 190.334 131.893 189.35 131.893 188.136C131.893 186.922 130.909 185.938 129.695 185.938C128.481 185.938 127.497 186.922 127.497 188.136C127.497 189.35 128.481 190.334 129.695 190.334Z" fill="#2B714F"/>
<path d="M185.16 196.677C186.039 196.677 186.752 195.964 186.752 195.084C186.752 194.204 186.039 193.491 185.16 193.491C184.28 193.491 183.567 194.204 183.567 195.084C183.567 195.964 184.28 196.677 185.16 196.677Z" fill="#2B714F"/>
<path d="M159.62 203.494C160.901 203.494 161.939 202.456 161.939 201.175C161.939 199.894 160.901 198.855 159.62 198.855C158.339 198.855 157.301 199.894 157.301 201.175C157.301 202.456 158.339 203.494 159.62 203.494Z" fill="#2B714F"/>
<path d="M166.96 206.699C167.839 206.699 168.553 205.986 168.553 205.106C168.553 204.227 167.839 203.514 166.96 203.514C166.08 203.514 165.367 204.227 165.367 205.106C165.367 205.986 166.08 206.699 166.96 206.699Z" fill="#2B714F"/>
<path d="M188.121 210.19C188.995 210.19 189.704 209.481 189.704 208.607C189.704 207.732 188.995 207.023 188.121 207.023C187.246 207.023 186.538 207.732 186.538 208.607C186.538 209.481 187.246 210.19 188.121 210.19Z" fill="#2B714F"/>
<path d="M149.85 211.924C151.131 211.924 152.17 210.886 152.17 209.605C152.17 208.324 151.131 207.286 149.85 207.286C148.57 207.286 147.531 208.324 147.531 209.605C147.531 210.886 148.57 211.924 149.85 211.924Z" fill="#2B714F"/>
<path d="M196.737 217.419C197.616 217.419 198.329 216.706 198.329 215.826C198.329 214.946 197.616 214.233 196.737 214.233C195.857 214.233 195.144 214.946 195.144 215.826C195.144 216.706 195.857 217.419 196.737 217.419Z" fill="#2B714F"/>
<path d="M180.838 218.053C181.717 218.053 182.43 217.34 182.43 216.46C182.43 215.58 181.717 214.867 180.838 214.867C179.958 214.867 179.245 215.58 179.245 216.46C179.245 217.34 179.958 218.053 180.838 218.053Z" fill="#2B714F"/>
<path d="M186.687 220.109C187.968 220.109 189.006 219.071 189.006 217.79C189.006 216.509 187.968 215.471 186.687 215.471C185.406 215.471 184.368 216.509 184.368 217.79C184.368 219.071 185.406 220.109 186.687 220.109Z" fill="#2B714F"/>
<path d="M151.293 222.048C152.173 222.048 152.886 221.335 152.886 220.455C152.886 219.575 152.173 218.862 151.293 218.862C150.414 218.862 149.701 219.575 149.701 220.455C149.701 221.335 150.414 222.048 151.293 222.048Z" fill="#2B714F"/>
<path d="M201.384 222.514C202.268 222.514 202.986 221.796 202.986 220.912C202.986 220.027 202.268 219.31 201.384 219.31C200.499 219.31 199.782 220.027 199.782 220.912C199.782 221.796 200.499 222.514 201.384 222.514Z" fill="#2B714F"/>
<path d="M134.482 222.775C135.372 222.775 136.093 222.054 136.093 221.164C136.093 220.274 135.372 219.553 134.482 219.553C133.592 219.553 132.871 220.274 132.871 221.164C132.871 222.054 133.592 222.775 134.482 222.775Z" fill="#2B714F"/>
<path d="M162.927 224.656C164.208 224.656 165.246 223.618 165.246 222.337C165.246 221.056 164.208 220.018 162.927 220.018C161.646 220.018 160.608 221.056 160.608 222.337C160.608 223.618 161.646 224.656 162.927 224.656Z" fill="#2B714F"/>
<path d="M240.987 224.208C241.861 224.208 242.57 223.499 242.57 222.624C242.57 221.75 241.861 221.041 240.987 221.041C240.112 221.041 239.403 221.75 239.403 222.624C239.403 223.499 240.112 224.208 240.987 224.208Z" fill="#2B714F"/>
<path d="M223.989 227.505C224.864 227.505 225.573 226.796 225.573 225.921C225.573 225.047 224.864 224.338 223.989 224.338C223.115 224.338 222.406 225.047 222.406 225.921C222.406 226.796 223.115 227.505 223.989 227.505Z" fill="#2B714F"/>
<path d="M183.278 227.934C184.168 227.934 184.889 227.212 184.889 226.322C184.889 225.432 184.168 224.711 183.278 224.711C182.388 224.711 181.667 225.432 181.667 226.322C181.667 227.212 182.388 227.934 183.278 227.934Z" fill="#2B714F"/>
<path d="M201.431 233.82C202.717 233.82 203.759 232.778 203.759 231.492C203.759 230.206 202.717 229.163 201.431 229.163C200.145 229.163 199.102 230.206 199.102 231.492C199.102 232.778 200.145 233.82 201.431 233.82Z" fill="#2B714F"/>
<path d="M239.655 234.827C240.545 234.827 241.267 234.106 241.267 233.216C241.267 232.326 240.545 231.604 239.655 231.604C238.765 231.604 238.044 232.326 238.044 233.216C238.044 234.106 238.765 234.827 239.655 234.827Z" fill="#2B714F"/>
<path d="M212.636 240.311C213.515 240.311 214.228 239.598 214.228 238.719C214.228 237.839 213.515 237.126 212.636 237.126C211.756 237.126 211.043 237.839 211.043 238.719C211.043 239.598 211.756 240.311 212.636 240.311Z" fill="#2B714F"/>
<path d="M184.34 240.62C185.225 240.62 185.942 239.903 185.942 239.018C185.942 238.133 185.225 237.416 184.34 237.416C183.455 237.416 182.738 238.133 182.738 239.018C182.738 239.903 183.455 240.62 184.34 240.62Z" fill="#2B714F"/>
<path d="M136.094 244.755C136.978 244.755 137.696 244.038 137.696 243.153C137.696 242.268 136.978 241.551 136.094 241.551C135.209 241.551 134.492 242.268 134.492 243.153C134.492 244.038 135.209 244.755 136.094 244.755Z" fill="#2B714F"/>
<path d="M213.557 256.602C214.833 256.602 215.867 255.568 215.867 254.292C215.867 253.017 214.833 251.982 213.557 251.982C212.282 251.982 211.248 253.017 211.248 254.292C211.248 255.568 212.282 256.602 213.557 256.602Z" fill="#2B714F"/>
<path d="M226.038 264.091C227.88 264.091 229.372 262.598 229.372 260.756C229.372 258.915 227.88 257.422 226.038 257.422C224.196 257.422 222.704 258.915 222.704 260.756C222.704 262.598 224.196 264.091 226.038 264.091Z" fill="#2B714F"/>
<path d="M232.539 266.27C233.413 266.27 234.122 265.561 234.122 264.687C234.122 263.812 233.413 263.104 232.539 263.104C231.664 263.104 230.956 263.812 230.956 264.687C230.956 265.561 231.664 266.27 232.539 266.27Z" fill="#2B714F"/>
<path d="M157.385 267.928C158.665 267.928 159.704 266.89 159.704 265.609C159.704 264.328 158.665 263.29 157.385 263.29C156.104 263.29 155.065 264.328 155.065 265.609C155.065 266.89 156.104 267.928 157.385 267.928Z" fill="#2B714F"/>
<path d="M180.819 275.1C182.665 275.1 184.162 273.603 184.162 271.757C184.162 269.91 182.665 268.413 180.819 268.413C178.972 268.413 177.475 269.91 177.475 271.757C177.475 273.603 178.972 275.1 180.819 275.1Z" fill="#2B714F"/>
<path d="M194.585 285.774C195.86 285.774 196.895 284.74 196.895 283.464C196.895 282.188 195.86 281.154 194.585 281.154C193.309 281.154 192.275 282.188 192.275 283.464C192.275 284.74 193.309 285.774 194.585 285.774Z" fill="#2B714F"/>
<path d="M161.288 294.445C162.172 294.445 162.89 293.728 162.89 292.843C162.89 291.958 162.172 291.241 161.288 291.241C160.403 291.241 159.686 291.958 159.686 292.843C159.686 293.728 160.403 294.445 161.288 294.445Z" fill="#2B714F"/>
</g>
<rect x="129.5" y="181.5" width="112" height="112" rx="56" stroke="#2B714F"/>
<path d="M186 171L186 -23" stroke="#2B714F" stroke-miterlimit="10"/>
<path d="M182.056 171H189.902C193.252 171 195.958 173.581 195.958 176.773L196 181.963C188.045 181.157 183.596 180.928 176 182V176.773C176 173.581 178.707 171 182.056 171Z" stroke="#2B714F" stroke-miterlimit="10"/>
<path d="M261.5 65L261.5 -28" stroke="#2B714F" stroke-miterlimit="10"/>
<path d="M252.189 76.7819C239.299 85.7772 217 104.456 217 126.034C217 156.385 261.115 181.001 261.115 181.001C261.115 181.001 305.23 156.385 305.23 126.034C305.23 104.629 283.288 86.0767 270.353 77" stroke="#2B714F" stroke-miterlimit="10"/>
<path d="M257.765 65H265.235C268.423 65 271 67.8152 271 71.2984V77H252V71.2984C252 67.8152 254.577 65 257.765 65Z" stroke="#2B714F" stroke-miterlimit="10"/>
<path d="M262.466 106V146.85" stroke="#2B714F" stroke-miterlimit="10"/>
<path d="M242 126.466H282.833" stroke="#2B714F" stroke-miterlimit="10"/>
<path d="M250.269 114.269L274.597 138.614" stroke="#2B714F" stroke-miterlimit="10"/>
<path d="M250.269 138.664L274.597 114.335" stroke="#2B714F" stroke-miterlimit="10"/>
<path d="M48.242 108.956H49.478V111.836H48.362V110H41.45L41.438 111.836H40.322L40.334 108.956H40.742C41.894 108.884 42.17 106.856 42.254 104.3L42.338 101.6H48.242V108.956ZM43.31 104.408C43.238 106.46 43.034 108.308 42.314 108.956H47.054V102.644H43.37L43.31 104.408ZM52.3185 108.956H57.2145V110H51.1185V101.6H57.0465V102.644H52.3185V105.224H56.5305V106.244H52.3185V108.956ZM64.751 110L62.027 106.304H60.275V110H59.099V101.6H60.275V105.248H62.051L64.691 101.6H65.975L62.975 105.668L66.119 110H64.751ZM73.6158 110L72.6918 107.9H68.2278L67.3038 110H66.0678L69.8718 101.6H71.0598L74.8758 110H73.6158ZM68.6478 106.94H72.2718L70.4598 102.824L68.6478 106.94ZM76.3256 110V101.6H82.6616V102.62H77.5136V105.02H80.1296C82.1336 105.02 83.1896 105.872 83.1896 107.444C83.1896 109.088 82.0256 110 79.9256 110H76.3256ZM77.5136 109.052H79.8776C81.2576 109.052 81.9896 108.512 81.9896 107.492C81.9896 106.46 81.2816 105.968 79.8776 105.968H77.5136V109.052ZM88.3789 101.6C90.5629 101.6 91.8829 102.704 91.8829 104.528C91.8829 106.352 90.5629 107.456 88.3789 107.456H86.3029V110H85.1029V101.6H88.3789ZM88.3429 106.412C89.8789 106.412 90.6829 105.728 90.6829 104.528C90.6829 103.328 89.8789 102.644 88.3429 102.644H86.3029V106.412H88.3429ZM96.1486 101.6H99.5206V110H98.3446V107.552H96.0286C95.9206 107.552 95.8126 107.552 95.7046 107.54L94.0246 110H92.7526L94.6126 107.336C93.4246 106.94 92.7526 105.98 92.7526 104.624C92.7526 102.704 94.0846 101.6 96.1486 101.6ZM93.9646 104.612C93.9646 105.848 94.6966 106.544 96.1246 106.544H98.3446V102.644H96.1966C94.7686 102.644 93.9646 103.316 93.9646 104.612Z" fill="#2B714F"/>
</g>
<defs>
<clipPath id="clip0_303_13047">
<rect width="401" height="354" rx="24" fill="white"/>
</clipPath>
<clipPath id="clip1_303_13047">
<rect x="129" y="181" width="113" height="113" rx="56.5" fill="white"/>
</clipPath>
</defs>
</svg>
