<svg width="299" height="182" viewBox="0 0 299 182" fill="none" xmlns="http://www.w3.org/2000/svg">
<rect width="299" height="182" rx="24" fill="#378861"/>
<path d="M238.295 61.985V64H207.485V62.44L226.985 42.81C229.628 40.1667 231.405 37.9133 232.315 36.05C233.268 34.1433 233.745 32.1933 233.745 30.2C233.745 27.1233 232.683 24.6967 230.56 22.92C228.48 21.1433 225.49 20.255 221.59 20.255C218.557 20.255 215.913 20.71 213.66 21.62C211.45 22.4867 209.543 23.8517 207.94 25.715L206.445 24.285C209.955 20.255 215.025 18.24 221.655 18.24C226.032 18.24 229.498 19.3017 232.055 21.425C234.612 23.5483 235.89 26.43 235.89 30.07C235.89 32.3667 235.37 34.5767 234.33 36.7C233.29 38.8233 231.362 41.2933 228.545 44.11L210.8 61.985H238.295ZM274.54 61.985V64H243.73V62.44L263.23 42.81C265.873 40.1667 267.65 37.9133 268.56 36.05C269.513 34.1433 269.99 32.1933 269.99 30.2C269.99 27.1233 268.928 24.6967 266.805 22.92C264.725 21.1433 261.735 20.255 257.835 20.255C254.802 20.255 252.158 20.71 249.905 21.62C247.695 22.4867 245.788 23.8517 244.185 25.715L242.69 24.285C246.2 20.255 251.27 18.24 257.9 18.24C262.277 18.24 265.743 19.3017 268.3 21.425C270.857 23.5483 272.135 26.43 272.135 30.07C272.135 32.3667 271.615 34.5767 270.575 36.7C269.535 38.8233 267.607 41.2933 264.79 44.11L247.045 61.985H274.54Z" fill="white"/>
<path d="M219.242 82.956H220.478V85.836H219.362V84H212.45L212.438 85.836H211.322L211.334 82.956H211.742C212.894 82.884 213.17 80.856 213.254 78.3L213.338 75.6H219.242V82.956ZM214.31 78.408C214.238 80.46 214.034 82.308 213.314 82.956H218.054V76.644H214.37L214.31 78.408ZM223.319 82.956H228.215V84H222.119V75.6H228.047V76.644H223.319V79.224H227.531V80.244H223.319V82.956ZM235.751 84L233.027 80.304H231.275V84H230.099V75.6H231.275V79.248H233.051L235.691 75.6H236.975L233.975 79.668L237.119 84H235.751ZM244.616 84L243.692 81.9H239.228L238.304 84H237.068L240.872 75.6H242.06L245.876 84H244.616ZM239.648 80.94H243.272L241.46 76.824L239.648 80.94ZM247.326 84V75.6H253.662V76.62H248.514V79.02H251.13C253.134 79.02 254.19 79.872 254.19 81.444C254.19 83.088 253.026 84 250.926 84H247.326ZM248.514 83.052H250.878C252.258 83.052 252.99 82.512 252.99 81.492C252.99 80.46 252.282 79.968 250.878 79.968H248.514V83.052ZM259.379 75.6C261.563 75.6 262.883 76.704 262.883 78.528C262.883 80.352 261.563 81.456 259.379 81.456H257.303V84H256.103V75.6H259.379ZM259.343 80.412C260.879 80.412 261.683 79.728 261.683 78.528C261.683 77.328 260.879 76.644 259.343 76.644H257.303V80.412H259.343ZM267.149 75.6H270.521V84H269.345V81.552H267.029C266.921 81.552 266.813 81.552 266.705 81.54L265.025 84H263.753L265.613 81.336C264.425 80.94 263.753 79.98 263.753 78.624C263.753 76.704 265.085 75.6 267.149 75.6ZM264.965 78.612C264.965 79.848 265.697 80.544 267.125 80.544H269.345V76.644H267.197C265.769 76.644 264.965 77.316 264.965 78.612Z" fill="white"/>
<line x1="278.5" y1="75.5" x2="278.5" y2="100.5" stroke="white"/>
<circle cx="278.5" cy="75.5" r="1.5" fill="white"/>
<path d="M149.9 63.766V118.188" stroke="white" stroke-miterlimit="10"/>
<path d="M177.165 91.0316H122.766" stroke="white" stroke-miterlimit="10"/>
<path d="M166.149 74.7817L133.738 107.216" stroke="white" stroke-miterlimit="10"/>
<path d="M166.149 107.281L133.738 74.8695" stroke="white" stroke-miterlimit="10"/>
<rect x="134.34" y="78.7104" width="4.76596" height="4.76596" transform="rotate(-45 134.34 78.7104)" fill="#378861"/>
<rect x="158.851" y="78.7104" width="4.76596" height="4.76596" transform="rotate(-45 158.851 78.7104)" fill="#378861"/>
<rect x="158.851" y="103.221" width="4.76596" height="4.76596" transform="rotate(-45 158.851 103.221)" fill="#378861"/>
<rect x="133.66" y="102.54" width="4.76596" height="4.76596" transform="rotate(-45 133.66 102.54)" fill="#378861"/>
<path d="M120.383 93.3829C119.067 93.3829 118 92.316 118 90.9999C118 89.6838 119.067 88.6169 120.383 88.6169C121.699 88.6169 122.766 89.6838 122.766 90.9999C122.766 92.316 121.699 93.3829 120.383 93.3829Z" fill="#378861" stroke="white" stroke-miterlimit="10"/>
<path d="M149.66 123C148.344 123 147.277 121.933 147.277 120.617C147.277 119.301 148.344 118.234 149.66 118.234C150.976 118.234 152.043 119.301 152.043 120.617C152.043 121.933 150.976 123 149.66 123Z" fill="#378861" stroke="white" stroke-miterlimit="10"/>
<path d="M149.66 63.766C148.344 63.766 147.277 62.6991 147.277 61.383C147.277 60.0669 148.344 59 149.66 59C150.976 59 152.043 60.0669 152.043 61.383C152.043 62.6991 150.976 63.766 149.66 63.766Z" fill="#378861" stroke="white" stroke-miterlimit="10"/>
<path d="M179.617 93.3829C178.301 93.3829 177.234 92.316 177.234 90.9999C177.234 89.6838 178.301 88.6169 179.617 88.6169C180.933 88.6169 182 89.6838 182 90.9999C182 92.316 180.933 93.3829 179.617 93.3829Z" fill="#378861" stroke="white" stroke-miterlimit="10"/>
<path d="M47.68 161.482L20.0495 161.459L20.079 124.914L42.0452 124.931L42.0385 133.239L49.1856 133.245C54.9143 133.249 59.5692 128.602 59.5738 122.873C59.5785 117.144 54.931 112.489 49.2023 112.485L32.1174 112.471L32.0884 148.455L45.3972 148.466C58.7704 148.477 69.6286 137.645 69.6394 124.263C69.6502 110.89 58.8186 100.031 45.4362 100.02L20.0496 100.02" fill="#378861"/>
<path d="M47.68 161.482L20.0495 161.459L20.079 124.914L42.0452 124.931L42.0385 133.239L49.1856 133.245C54.9143 133.249 59.5692 128.602 59.5738 122.873C59.5785 117.144 54.931 112.489 49.2023 112.485L32.1174 112.471L32.0884 148.455L45.3972 148.466C58.7704 148.477 69.6286 137.645 69.6394 124.263C69.6502 110.89 58.8186 100.031 45.4362 100.02L20.0496 100.02" stroke="white" stroke-miterlimit="10"/>
<path d="M47.68 20.0178L20.0495 20.0401L20.079 56.5859L42.0452 56.5682L42.0385 48.2607L49.1856 48.2549C54.9143 48.2503 59.5692 52.8977 59.5738 58.6264C59.5785 64.3551 54.931 69.01 49.2023 69.0146L32.1174 69.0284L32.0884 33.0442L45.3972 33.0335C58.7704 33.0227 69.6286 43.8544 69.6394 57.2368C69.6502 70.6099 58.8186 81.4683 45.4362 81.4791L20.0496 81.4791" fill="#378861"/>
<path d="M47.68 20.0178L20.0495 20.0401L20.079 56.5859L42.0452 56.5682L42.0385 48.2607L49.1856 48.2549C54.9143 48.2503 59.5692 52.8977 59.5738 58.6264C59.5785 64.3551 54.931 69.01 49.2023 69.0146L32.1174 69.0284L32.0884 33.0442L45.3972 33.0335C58.7704 33.0227 69.6286 43.8544 69.6394 57.2368C69.6502 70.6099 58.8186 81.4683 45.4362 81.4791L20.0496 81.4791" stroke="white" stroke-miterlimit="10"/>
<path d="M250.979 161.482L278.609 161.459L278.58 124.914L256.614 124.931L256.62 133.239L249.473 133.245C243.745 133.249 239.09 128.602 239.085 122.873C239.08 117.144 243.728 112.489 249.457 112.485L266.542 112.471L266.57 148.455L253.262 148.466C239.889 148.477 229.03 137.645 229.02 124.263C229.009 110.89 239.84 100.031 253.223 100.02L278.609 100.02" fill="#378861"/>
<path d="M250.979 161.482L278.609 161.459L278.58 124.914L256.614 124.931L256.62 133.239L249.473 133.245C243.745 133.249 239.09 128.602 239.085 122.873C239.08 117.144 243.728 112.489 249.457 112.485L266.542 112.471L266.57 148.455L253.262 148.466C239.889 148.477 229.03 137.645 229.02 124.263C229.009 110.89 239.84 100.031 253.223 100.02L278.609 100.02" stroke="white" stroke-miterlimit="10"/>
<line x1="251" y1="161.5" x2="47" y2="161.5" stroke="white"/>
<line x1="190.998" y1="20.5" x2="36.9992" y2="20" stroke="white"/>
<circle cx="190.5" cy="20.5" r="1.5" fill="white"/>
<line x1="20.5" y1="81" x2="20.5" y2="100" stroke="white"/>
<path d="M100.5 84.5L101.685 88.1292C102.024 89.1685 102.837 89.9762 103.871 90.3154L107.5 91.5L103.871 92.6847C102.832 93.0239 102.024 93.8369 101.685 94.8708L100.5 98.5L99.3154 94.8708C98.9762 93.8315 98.1631 93.0239 97.1292 92.6847L93.5 91.5L97.1292 90.3154C98.1685 89.9762 98.9762 89.1631 99.3154 88.1292L100.5 84.5Z" fill="#378861" stroke="white" stroke-miterlimit="10"/>
<path d="M149.5 134.5L150.685 138.129C151.024 139.168 151.837 139.976 152.871 140.315L156.5 141.5L152.871 142.685C151.832 143.024 151.024 143.837 150.685 144.871L149.5 148.5L148.315 144.871C147.976 143.832 147.163 143.024 146.129 142.685L142.5 141.5L146.129 140.315C147.168 139.976 147.976 139.163 148.315 138.129L149.5 134.5Z" fill="#378861" stroke="white" stroke-miterlimit="10"/>
<path d="M149.5 33.5L150.685 37.1292C151.024 38.1685 151.837 38.9762 152.871 39.3154L156.5 40.5L152.871 41.6847C151.832 42.0239 151.024 42.8369 150.685 43.8708L149.5 47.5L148.315 43.8708C147.976 42.8315 147.163 42.0239 146.129 41.6847L142.5 40.5L146.129 39.3154C147.168 38.9762 147.976 38.1631 148.315 37.1292L149.5 33.5Z" fill="#378861" stroke="white" stroke-miterlimit="10"/>
</svg>
