<svg width="401" height="354" viewBox="0 0 401 354" fill="none" xmlns="http://www.w3.org/2000/svg">
<g clip-path="url(#clip0_436_13825)">
<rect width="401" height="354" rx="24" fill="#378861"/>
<path d="M63.3997 70.675V73H27.8497V71.2L50.3497 48.55C53.3997 45.5 55.4497 42.9 56.4997 40.75C57.5997 38.55 58.1497 36.3 58.1497 34C58.1497 30.45 56.9247 27.65 54.4747 25.6C52.0747 23.55 48.6247 22.525 44.1247 22.525C40.6247 22.525 37.5747 23.05 34.9747 24.1C32.4247 25.1 30.2247 26.675 28.3747 28.825L26.6497 27.175C30.6997 22.525 36.5497 20.2 44.1997 20.2C49.2497 20.2 53.2497 21.425 56.1997 23.875C59.1497 26.325 60.6247 29.65 60.6247 33.85C60.6247 36.5 60.0247 39.05 58.8247 41.5C57.6247 43.95 55.3997 46.8 52.1497 50.05L31.6747 70.675H63.3997ZM90.6798 73.3C86.7298 73.3 83.2048 72.225 80.1048 70.075C77.0548 67.875 74.6798 64.775 72.9798 60.775C71.2798 56.725 70.4298 52.05 70.4298 46.75C70.4298 41.45 71.2798 36.8 72.9798 32.8C74.6798 28.75 77.0548 25.65 80.1048 23.5C83.2048 21.3 86.7298 20.2 90.6798 20.2C94.6798 20.2 98.2048 21.3 101.255 23.5C104.305 25.65 106.68 28.75 108.38 32.8C110.08 36.8 110.93 41.45 110.93 46.75C110.93 52.05 110.08 56.725 108.38 60.775C106.68 64.775 104.305 67.875 101.255 70.075C98.2048 72.225 94.6798 73.3 90.6798 73.3ZM90.6798 70.975C94.1798 70.975 97.2798 70 99.9798 68.05C102.68 66.1 104.755 63.3 106.205 59.65C107.705 56 108.455 51.7 108.455 46.75C108.455 41.8 107.705 37.5 106.205 33.85C104.755 30.2 102.68 27.4 99.9798 25.45C97.2798 23.5 94.1798 22.525 90.6798 22.525C87.1798 22.525 84.0798 23.5 81.3798 25.45C78.7298 27.4 76.6548 30.2 75.1548 33.85C73.7048 37.5 72.9798 41.8 72.9798 46.75C72.9798 51.7 73.7048 56 75.1548 59.65C76.6548 63.3 78.7298 66.1 81.3798 68.05C84.0798 70 87.1798 70.975 90.6798 70.975Z" fill="white"/>
<path d="M44.242 98.956H45.478V101.836H44.362V100H37.45L37.438 101.836H36.322L36.334 98.956H36.742C37.894 98.884 38.17 96.856 38.254 94.3L38.338 91.6H44.242V98.956ZM39.31 94.408C39.238 96.46 39.034 98.308 38.314 98.956H43.054V92.644H39.37L39.31 94.408ZM48.3185 98.956H53.2145V100H47.1185V91.6H53.0465V92.644H48.3185V95.224H52.5305V96.244H48.3185V98.956ZM60.751 100L58.027 96.304H56.275V100H55.099V91.6H56.275V95.248H58.051L60.691 91.6H61.975L58.975 95.668L62.119 100H60.751ZM69.6158 100L68.6918 97.9H64.2278L63.3038 100H62.0678L65.8718 91.6H67.0598L70.8758 100H69.6158ZM64.6478 96.94H68.2718L66.4598 92.824L64.6478 96.94ZM72.3256 100V91.6H78.6616V92.62H73.5136V95.02H76.1296C78.1336 95.02 79.1896 95.872 79.1896 97.444C79.1896 99.088 78.0256 100 75.9256 100H72.3256ZM73.5136 99.052H75.8776C77.2576 99.052 77.9896 98.512 77.9896 97.492C77.9896 96.46 77.2816 95.968 75.8776 95.968H73.5136V99.052ZM84.3789 91.6C86.5629 91.6 87.8829 92.704 87.8829 94.528C87.8829 96.352 86.5629 97.456 84.3789 97.456H82.3029V100H81.1029V91.6H84.3789ZM84.3429 96.412C85.8789 96.412 86.6829 95.728 86.6829 94.528C86.6829 93.328 85.8789 92.644 84.3429 92.644H82.3029V96.412H84.3429ZM92.1486 91.6H95.5206V100H94.3446V97.552H92.0286C91.9206 97.552 91.8126 97.552 91.7046 97.54L90.0246 100H88.7526L90.6126 97.336C89.4246 96.94 88.7526 95.98 88.7526 94.624C88.7526 92.704 90.0846 91.6 92.1486 91.6ZM89.9646 94.612C89.9646 95.848 90.6966 96.544 92.1246 96.544H94.3446V92.644H92.1966C90.7686 92.644 89.9646 93.316 89.9646 94.612Z" fill="white"/>
<path d="M205.853 138V217.932" stroke="white" stroke-miterlimit="10"/>
<path d="M245.899 178.046H166" stroke="white" stroke-miterlimit="10"/>
<path d="M229.719 154.179L182.115 201.817" stroke="white" stroke-miterlimit="10"/>
<path d="M229.719 201.913L182.115 154.308" stroke="white" stroke-miterlimit="10"/>
<rect x="183" y="159.95" width="7" height="7" transform="rotate(-45 183 159.95)" fill="#378861"/>
<rect x="219" y="159.95" width="7" height="7" transform="rotate(-45 219 159.95)" fill="#378861"/>
<rect x="219" y="195.95" width="7" height="7" transform="rotate(-45 219 195.95)" fill="#378861"/>
<rect x="182" y="194.95" width="7" height="7" transform="rotate(-45 182 194.95)" fill="#378861"/>
<path d="M306.5 169L307.938 173.407C308.35 174.669 309.338 175.65 310.593 176.062L315 177.5L310.593 178.939C309.331 179.35 308.35 180.338 307.938 181.593L306.5 186L305.062 181.593C304.65 180.331 303.662 179.35 302.407 178.939L298 177.5L302.407 176.062C303.669 175.65 304.65 174.662 305.062 173.407L306.5 169Z" stroke="white" stroke-miterlimit="10"/>
<path d="M205.5 267L206.938 271.407C207.35 272.669 208.338 273.65 209.593 274.062L214 275.5L209.593 276.939C208.331 277.35 207.35 278.338 206.938 279.593L205.5 284L204.062 279.593C203.65 278.331 202.662 277.35 201.407 276.939L197 275.5L201.407 274.062C202.669 273.65 203.65 272.662 204.062 271.407L205.5 267Z" stroke="white" stroke-miterlimit="10"/>
<path d="M205.5 71L206.938 75.4069C207.35 76.6688 208.338 77.6496 209.593 78.0616L214 79.5L209.593 80.9385C208.331 81.3504 207.35 82.3377 206.938 83.5931L205.5 88L204.062 83.5931C203.65 82.3312 202.662 81.3504 201.407 80.9385L197 79.5L201.407 78.0616C202.669 77.6496 203.65 76.6623 204.062 75.4069L205.5 71Z" stroke="white" stroke-miterlimit="10"/>
<path d="M101.5 169L102.938 173.407C103.35 174.669 104.338 175.65 105.593 176.062L110 177.5L105.593 178.939C104.331 179.35 103.35 180.338 102.938 181.593L101.5 186L100.062 181.593C99.6496 180.331 98.6623 179.35 97.4069 178.939L93 177.5L97.4069 176.062C98.6688 175.65 99.6496 174.662 100.062 173.407L101.5 169Z" stroke="white" stroke-miterlimit="10"/>
<path d="M137.5 181C135.567 181 134 179.433 134 177.5C134 175.567 135.567 174 137.5 174C139.433 174 141 175.567 141 177.5C141 179.433 139.433 181 137.5 181Z" stroke="white" stroke-miterlimit="10"/>
<path d="M205.5 243C203.567 243 202 241.433 202 239.5C202 237.567 203.567 236 205.5 236C207.433 236 209 237.567 209 239.5C209 241.433 207.433 243 205.5 243Z" stroke="white" stroke-miterlimit="10"/>
<path d="M205.5 119C203.567 119 202 117.433 202 115.5C202 113.567 203.567 112 205.5 112C207.433 112 209 113.567 209 115.5C209 117.433 207.433 119 205.5 119Z" stroke="white" stroke-miterlimit="10"/>
<path d="M268.5 181C266.567 181 265 179.433 265 177.5C265 175.567 266.567 174 268.5 174C270.433 174 272 175.567 272 177.5C272 179.433 270.433 181 268.5 181Z" stroke="white" stroke-miterlimit="10"/>
<path d="M344.731 21.0232L380.851 21.0523L380.812 68.826L352.097 68.8028L352.106 57.9429L342.763 57.9354C335.274 57.9294 329.189 64.0046 329.183 71.4933C329.177 78.982 335.253 85.067 342.741 85.0731L365.075 85.0911L365.113 38.0516L347.716 38.0376C330.234 38.0236 316.04 52.183 316.026 69.6768C316.011 87.1585 330.171 101.353 347.664 101.367L380.786 101.394" stroke="white" stroke-miterlimit="10"/>
<path d="M344.731 333.37L380.851 333.341L380.812 285.568L352.097 285.591L352.106 296.451L342.763 296.458C335.274 296.464 329.189 290.389 329.183 282.9C329.177 275.412 335.253 269.327 342.741 269.32L365.075 269.302L365.113 316.342L347.716 316.356C330.234 316.37 316.04 302.211 316.026 284.717C316.011 267.235 330.171 253.041 347.664 253.027L380.786 253" stroke="white" stroke-miterlimit="10"/>
<path d="M57.1193 333.37L21 333.341L21.0385 285.568L49.7533 285.591L49.7445 296.451L59.0874 296.458C66.5761 296.464 72.6611 290.389 72.6671 282.9C72.6732 275.412 66.598 269.327 59.1092 269.32L36.7754 269.302L36.7375 316.342L54.1351 316.356C71.6168 316.37 85.811 302.211 85.8251 284.717C85.8391 267.235 71.6799 253.041 54.1861 253.027L21.0647 253" stroke="white" stroke-miterlimit="10"/>
<line x1="348" y1="333.3" x2="53" y2="333.3" stroke="white"/>
<line x1="376" y1="21" x2="141" y2="21" stroke="white"/>
<line x1="21.5" y1="114" x2="21.5" y2="253" stroke="white"/>
<line x1="381.5" y1="101" x2="381.5" y2="253" stroke="white"/>
<circle cx="21.5" cy="113.5" r="1.5" fill="white"/>
<circle cx="140.5" cy="21" r="1.5" fill="white"/>
</g>
<defs>
<clipPath id="clip0_436_13825">
<rect width="401" height="354" rx="24" fill="white"/>
</clipPath>
</defs>
</svg>
