<svg width="375" height="664" viewBox="0 0 375 664" fill="none" xmlns="http://www.w3.org/2000/svg">
<g id="2030">
<path id="popup-december-19__decor--1 anim-scale-2" d="M292.433 277.017L296.869 290.668C297.096 291.369 297.75 291.843 298.487 291.843H312.84C312.904 291.843 312.939 291.861 312.963 291.879C312.99 291.901 313.017 291.936 313.032 291.983C313.047 292.029 313.046 292.073 313.036 292.107C313.028 292.135 313.01 292.17 312.959 292.208L301.347 300.645C300.75 301.078 300.501 301.846 300.728 302.547L305.164 316.198C305.184 316.258 305.177 316.297 305.167 316.325C305.156 316.358 305.13 316.394 305.091 316.423C305.051 316.452 305.009 316.465 304.974 316.466C304.945 316.467 304.905 316.46 304.854 316.423L293.242 307.986C292.645 307.553 291.838 307.553 291.242 307.986L279.629 316.423C279.578 316.46 279.539 316.467 279.509 316.466C279.474 316.465 279.432 316.452 279.393 316.423C279.353 316.394 279.328 316.358 279.316 316.325C279.306 316.297 279.3 316.258 279.319 316.198L283.755 302.547C283.983 301.846 283.733 301.078 283.137 300.645L271.525 292.208C271.473 292.17 271.455 292.135 271.447 292.107C271.437 292.073 271.436 292.029 271.451 291.983C271.466 291.936 271.493 291.901 271.521 291.879C271.544 291.861 271.579 291.843 271.643 291.843H285.996C286.734 291.843 287.387 291.369 287.615 290.668L292.05 277.017C292.07 276.956 292.098 276.928 292.122 276.912C292.151 276.892 292.193 276.878 292.242 276.878C292.291 276.878 292.332 276.892 292.361 276.912C292.385 276.928 292.414 276.956 292.433 277.017Z" stroke="#2B714F" stroke-width="1.5"/>
<path id="popup-december-19__decor--2 anim-scale-2" d="M246.02 329.325L249.297 319.238L252.575 329.325C252.77 329.927 253.331 330.334 253.964 330.334H264.571L255.99 336.569C255.478 336.941 255.263 337.6 255.459 338.202L258.737 348.289L250.156 342.055C249.644 341.683 248.95 341.683 248.438 342.055L239.858 348.289L243.135 338.202C243.331 337.6 243.116 336.941 242.604 336.569L234.024 330.334H244.63C245.263 330.334 245.824 329.927 246.02 329.325Z" stroke="#2B714F" stroke-width="1.5"/>
<path id="popup-december-19__decor--3 anim-scale-2" d="M332.615 329.325L335.893 319.238L339.17 329.325C339.366 329.927 339.927 330.334 340.56 330.334H351.166L342.586 336.569C342.073 336.941 341.859 337.6 342.055 338.202L345.332 348.289L336.752 342.055C336.239 341.683 335.546 341.683 335.034 342.055L326.453 348.289L329.731 338.202C329.926 337.6 329.712 336.941 329.2 336.569L320.619 330.334H331.226C331.859 330.334 332.42 329.927 332.615 329.325Z" stroke="#2B714F" stroke-width="1.5"/>
<path id="popup-december-19__decor--4 anim-scale-2" d="M127.172 328.143L129.03 322.427L130.887 328.143C131.048 328.64 131.512 328.977 132.035 328.977H138.045L133.183 332.51C132.76 332.817 132.583 333.362 132.744 333.86L134.601 339.576L129.74 336.043C129.316 335.736 128.743 335.736 128.32 336.043L123.458 339.576L125.315 333.86C125.476 333.362 125.299 332.817 124.876 332.51L120.014 328.977H126.024C126.547 328.977 127.011 328.64 127.172 328.143Z" stroke="#2B714F" stroke-width="1.5"/>
<path id="popup-december-19__decor--5 anim-scale-2" d="M18.2329 404.749L20.612 397.427L22.9912 404.749C23.1653 405.285 23.6649 405.648 24.2285 405.648H31.9276L25.6989 410.174C25.2429 410.505 25.0521 411.092 25.2263 411.628L27.6054 418.95L21.3767 414.425C20.9207 414.094 20.3033 414.094 19.8473 414.425L13.6186 418.95L15.9978 411.628C16.172 411.092 15.9812 410.505 15.5252 410.174L9.29648 405.648H16.9956C17.5592 405.648 18.0587 405.285 18.2329 404.749Z" stroke="#2B714F" stroke-width="1.5"/>
</g>
</svg>
