<svg width="375" height="664" viewBox="0 0 375 664" fill="none" xmlns="http://www.w3.org/2000/svg">
<g class="2032" clip-path="url(#clip0_825_4518)">
<g class="anim-translate-opacity popup-december-21__decor--8am ">
<path class="Vector" d="M307.373 262.193L283.034 310.162" stroke="#2B714F" stroke-width="1.5" stroke-miterlimit="10"/>
<path class="Vector_2" d="M271.146 274.032L319.095 298.361" stroke="#2B714F" stroke-width="1.5" stroke-miterlimit="10"/>
<path class="Vector_3" d="M288.123 264.636L302.186 307.719" stroke="#2B714F" stroke-width="1.5" stroke-miterlimit="10"/>
<path class="Vector_4" d="M273.588 293.283L316.652 279.209" stroke="#2B714F" stroke-width="1.5" stroke-miterlimit="10"/>
</g>
<g class="anim-translate-opacity popup-december-21__decor--7">
<path class="Vector_5" d="M27.3721 330.193L3.03297 378.162" stroke="#2B714F" stroke-width="1.5" stroke-miterlimit="10"/>
<path class="Vector_6" d="M-8.85352 342.032L39.0955 366.361" stroke="#2B714F" stroke-width="1.5" stroke-miterlimit="10"/>
<path class="Vector_7" d="M8.12305 332.636L22.186 375.719" stroke="#2B714F" stroke-width="1.5" stroke-miterlimit="10"/>
<path class="Vector_8" d="M-6.41259 361.283L36.6514 347.209" stroke="#2B714F" stroke-width="1.5" stroke-miterlimit="10"/>
</g>
<g class="anim-translate-opacity popup-december-21__decor--6">
<path class="Vector_9" d="M271.373 -6.80664L247.034 41.1621" stroke="#2B714F" stroke-width="1.5" stroke-miterlimit="10"/>
<path class="Vector_10" d="M235.146 5.03174L283.095 29.3608" stroke="#2B714F" stroke-width="1.5" stroke-miterlimit="10"/>
<path class="Vector_11" d="M252.123 -4.36426L266.186 38.7194" stroke="#2B714F" stroke-width="1.5" stroke-miterlimit="10"/>
<path class="Vector_12" d="M237.588 24.2825L280.652 10.2093" stroke="#2B714F" stroke-width="1.5" stroke-miterlimit="10"/>
</g>
<g class="anim-translate-opacity popup-december-21__decor--5">
<path class="Vector_13" d="M228.426 353.418L213.62 382.599" stroke="#2B714F" stroke-width="1.5" stroke-miterlimit="10"/>
<path class="Vector_14" d="M206.389 360.62L235.557 375.42" stroke="#2B714F" stroke-width="1.5" stroke-miterlimit="10"/>
<path class="Vector_15" d="M216.717 354.904L225.272 381.113" stroke="#2B714F" stroke-width="1.5" stroke-miterlimit="10"/>
<path class="Vector_16" d="M207.875 372.33L234.072 363.769" stroke="#2B714F" stroke-width="1.5" stroke-miterlimit="10"/>
</g>
<g class="anim-translate-opacity popup-december-21__decor--4">
<path class="Vector_17" d="M110.427 -6.58203L95.6207 22.5985" stroke="#2B714F" stroke-width="1.5" stroke-miterlimit="10"/>
<path class="Vector_18" d="M88.3887 0.619629L117.557 15.4196" stroke="#2B714F" stroke-width="1.5" stroke-miterlimit="10"/>
<path class="Vector_19" d="M98.7168 -5.0957L107.272 21.1131" stroke="#2B714F" stroke-width="1.5" stroke-miterlimit="10"/>
<path class="Vector_20" d="M89.8753 12.3302L116.072 3.76912" stroke="#2B714F" stroke-width="1.5" stroke-miterlimit="10"/>
</g>
<g class="anim-translate-opacity popup-december-21__decor--3">
<path class="Vector_21" d="M202.775 22.2368L192.321 42.8416" stroke="#2B714F" stroke-width="1.5" stroke-miterlimit="10"/>
<path class="Vector_22" d="M187.218 27.3232L207.814 37.7737" stroke="#2B714F" stroke-width="1.5" stroke-miterlimit="10"/>
<path class="Vector_23" d="M194.508 23.2861L200.548 41.7926" stroke="#2B714F" stroke-width="1.5" stroke-miterlimit="10"/>
<path class="Vector_24" d="M188.265 35.5909L206.763 29.5458" stroke="#2B714F" stroke-width="1.5" stroke-miterlimit="10"/>
</g>
<g class="anim-translate-opacity popup-december-21__decor--2">
<path class="Vector_25" d="M352.762 318.229L342.307 338.834" stroke="#2B714F" stroke-width="1.5" stroke-miterlimit="10"/>
<path class="Vector_26" d="M337.217 323.323L357.813 333.774" stroke="#2B714F" stroke-width="1.5" stroke-miterlimit="10"/>
<path class="Vector_27" d="M344.494 319.279L350.535 337.785" stroke="#2B714F" stroke-width="1.5" stroke-miterlimit="10"/>
<path class="Vector_28" d="M338.25 331.584L356.748 325.538" stroke="#2B714F" stroke-width="1.5" stroke-miterlimit="10"/>
</g>
<g class="anim-translate-opacity popup-december-21__decor--1">
<path class="Vector_29" d="M125.427 301.418L110.621 330.599" stroke="#2B714F" stroke-width="1.5" stroke-miterlimit="10"/>
<path class="Vector_30" d="M103.389 308.62L132.557 323.42" stroke="#2B714F" stroke-width="1.5" stroke-miterlimit="10"/>
<path class="Vector_31" d="M113.717 302.904L122.272 329.113" stroke="#2B714F" stroke-width="1.5" stroke-miterlimit="10"/>
<path class="Vector_32" d="M104.875 320.33L131.072 311.769" stroke="#2B714F" stroke-width="1.5" stroke-miterlimit="10"/>
</g>
</g>
<defs>
<clipPath class="clip0_825_4518">
<rect width="375" height="664" fill="white"/>
</clipPath>
</defs>
</svg>
