<svg width="136" height="277" viewBox="0 0 136 277" fill="none" xmlns="http://www.w3.org/2000/svg">
<g clip-path="url(#clip0_436_12874)">
<rect width="136" height="277" rx="13.377" fill="#378861"/>
<path d="M18.9816 12.2061V40.2061H17.6616V13.4461H10.6216V12.2061H18.9816ZM34.1288 24.5661C37.3288 24.5661 39.7554 25.2727 41.4088 26.6861C43.0888 28.0994 43.9288 30.0194 43.9288 32.4461C43.9288 34.8194 43.1021 36.7394 41.4488 38.2061C39.8221 39.6461 37.5021 40.3661 34.4888 40.3661C32.4354 40.3661 30.5288 40.0194 28.7688 39.3261C27.0088 38.6061 25.6754 37.6594 24.7688 36.4861L25.4888 35.5261C26.3421 36.5927 27.5554 37.4594 29.1288 38.1261C30.7288 38.7927 32.5021 39.1261 34.4488 39.1261C37.0888 39.1261 39.1021 38.5261 40.4888 37.3261C41.9021 36.1261 42.6088 34.4994 42.6088 32.4461C42.6088 30.3394 41.8888 28.6994 40.4488 27.5261C39.0088 26.3527 36.8488 25.7661 33.9688 25.7661H32.4088V24.8061L41.1288 13.4461H25.6888V12.2061H42.8888V13.1661L34.1288 24.5661Z" fill="white"/>
<path d="M31.8733 265.797L11.7412 265.78L11.7626 239.152L27.7676 239.165L27.7627 245.218L32.9702 245.223C37.1443 245.226 40.5359 241.84 40.5393 237.666C40.5426 233.492 37.1565 230.1 32.9824 230.097L20.5341 230.087L20.5129 256.305L30.2099 256.313C39.9539 256.321 47.8654 248.429 47.8732 238.678C47.8811 228.934 39.989 221.023 30.2384 221.015L11.7412 221.015" stroke="white" stroke-miterlimit="10"/>
<path d="M104.637 265.797L124.769 265.78L124.748 239.152L108.743 239.165L108.748 245.218L103.54 245.223C99.3664 245.226 95.9747 241.84 95.9714 237.666C95.968 233.492 99.3542 230.1 103.528 230.097L115.977 230.087L115.998 256.305L106.301 256.313C96.5568 256.321 88.6453 248.429 88.6375 238.678C88.6296 228.934 96.5217 221.023 106.272 221.015L124.733 221" stroke="white" stroke-miterlimit="10"/>
<path d="M104.637 11.3572L124.769 11.3734L124.748 38.0014L108.743 37.9885L108.748 31.9354L103.54 31.9312C99.3664 31.9279 95.9747 35.3141 95.9714 39.4881C95.968 43.6621 99.3542 47.0538 103.528 47.0571L115.977 47.0672L115.998 20.8485L106.301 20.8407C96.5568 20.8328 88.6453 28.725 88.6375 38.4756C88.6296 48.2195 96.5217 56.1311 106.272 56.1389L124.733 56.1538" stroke="white" stroke-miterlimit="10"/>
<line x1="124.5" y1="56" x2="124.5" y2="221" stroke="white"/>
<line x1="109.804" y1="265.7" x2="30.6562" y2="265.7" stroke="white"/>
<line x1="12.5" y1="52" x2="12.5" y2="221" stroke="white"/>
<line x1="123.737" y1="11.5654" x2="55.7373" y2="11.5654" stroke="white"/>
<circle cx="56.5" cy="11.5083" r="2" fill="white"/>
<circle cx="12.5" cy="52.5083" r="2" fill="white"/>
<path d="M69.8161 116.711V159.345" stroke="white" stroke-miterlimit="10"/>
<path d="M48.456 138.071H91.073" stroke="white" stroke-miterlimit="10"/>
<path d="M57.0857 125.341L82.4773 150.75" stroke="white" stroke-miterlimit="10"/>
<path d="M57.0857 150.801L82.4773 125.409" stroke="white" stroke-miterlimit="10"/>
<path d="M92.9397 139.913C93.9707 139.913 94.8065 139.077 94.8065 138.046C94.8065 137.015 93.9707 136.179 92.9397 136.179C91.9086 136.179 91.0728 137.015 91.0728 138.046C91.0728 139.077 91.9086 139.913 92.9397 139.913Z" stroke="white" stroke-miterlimit="10"/>
<path d="M70.0035 163.115C71.0346 163.115 71.8704 162.279 71.8704 161.248C71.8704 160.217 71.0346 159.382 70.0035 159.382C68.9725 159.382 68.1367 160.217 68.1367 161.248C68.1367 162.279 68.9725 163.115 70.0035 163.115Z" stroke="white" stroke-miterlimit="10"/>
<path d="M70.0035 116.711C71.0346 116.711 71.8704 115.875 71.8704 114.844C71.8704 113.813 71.0346 112.977 70.0035 112.977C68.9725 112.977 68.1367 113.813 68.1367 114.844C68.1367 115.875 68.9725 116.711 70.0035 116.711Z" stroke="white" stroke-miterlimit="10"/>
<path d="M46.5349 139.913C47.5659 139.913 48.4017 139.077 48.4017 138.046C48.4017 137.015 47.5659 136.179 46.5349 136.179C45.5038 136.179 44.668 137.015 44.668 138.046C44.668 139.077 45.5038 139.913 46.5349 139.913Z" stroke="white" stroke-miterlimit="10"/>
<path d="M108.516 132.954L107.588 135.797C107.323 136.611 106.686 137.244 105.876 137.51L103.033 138.438L105.876 139.366C106.69 139.632 107.323 140.269 107.588 141.078L108.516 143.922L109.444 141.078C109.71 140.264 110.347 139.632 111.157 139.366L114 138.438L111.157 137.51C110.343 137.244 109.71 136.607 109.444 135.797L108.516 132.954Z" stroke="white" stroke-miterlimit="10"/>
<path d="M70.1293 172.125L69.2013 174.968C68.9355 175.782 68.2985 176.415 67.4886 176.68L64.6454 177.608L67.4886 178.536C68.3028 178.802 68.9355 179.439 69.2013 180.249L70.1293 183.092L71.0573 180.249C71.3231 179.435 71.9601 178.802 72.77 178.536L75.6132 177.608L72.77 176.68C71.9559 176.415 71.3231 175.778 71.0573 174.968L70.1293 172.125Z" stroke="white" stroke-miterlimit="10"/>
<path d="M70.1293 93L69.2013 95.8432C68.9355 96.6573 68.2985 97.2901 67.4886 97.5559L64.6454 98.4839L67.4886 99.4119C68.3028 99.6777 68.9355 100.315 69.2013 101.125L70.1293 103.968L71.0573 101.125C71.3231 100.31 71.9601 99.6777 72.77 99.4119L75.6132 98.4839L72.77 97.5559C71.9559 97.2901 71.3231 96.6531 71.0573 95.8432L70.1293 93Z" stroke="white" stroke-miterlimit="10"/>
<path d="M28.4839 133.346L29.4119 136.189C29.6776 137.003 30.3146 137.636 31.1246 137.902L33.9677 138.83L31.1246 139.758C30.3104 140.023 29.6776 140.66 29.4119 141.47L28.4839 144.313L27.5559 141.47C27.2901 140.656 26.6531 140.023 25.8432 139.758L23 138.83L25.8432 137.902C26.6573 137.636 27.2901 136.999 27.5559 136.189L28.4839 133.346Z" stroke="white" stroke-miterlimit="10"/>
</g>
<defs>
<clipPath id="clip0_436_12874">
<rect width="136" height="277" rx="13.377" fill="white"/>
</clipPath>
</defs>
</svg>
