<svg width="375" height="664" viewBox="0 0 375 664" fill="none" xmlns="http://www.w3.org/2000/svg">
<path d="M251.124 483L253.515 490.323C254.199 492.42 255.84 494.05 257.926 494.734L265.249 497.124L257.926 499.515C255.829 500.199 254.199 501.84 253.515 503.926L251.124 511.249L248.734 503.926C248.05 501.829 246.409 500.199 244.323 499.515L237 497.124L244.323 494.734C246.42 494.05 248.05 492.409 248.734 490.323L251.124 483Z" stroke="white" stroke-width="1.5" stroke-miterlimit="10"/>
<path d="M75.822 419L77.382 423.779C77.8287 425.148 78.8995 426.212 80.261 426.658L85.0404 428.218L80.261 429.779C78.8924 430.225 77.8287 431.296 77.382 432.657L75.822 437.437L74.2619 432.657C73.8152 431.289 72.7444 430.225 71.3829 429.779L66.6035 428.218L71.3829 426.658C72.7515 426.212 73.8152 425.141 74.2619 423.779L75.822 419Z" stroke="white" stroke-width="1.5" stroke-miterlimit="10"/>
<path d="M215.98 24.3631L219.023 33.6851C219.894 36.3545 221.983 38.4292 224.638 39.3006L233.96 42.3433L224.638 45.3862C221.969 46.2576 219.894 48.346 219.023 51.0015L215.98 60.3235L212.937 51.0015C212.066 48.3321 209.978 46.2576 207.322 45.3862L198 42.3433L207.322 39.3006C209.991 38.4292 212.066 36.3407 212.937 33.6851L215.98 24.3631Z" stroke="white" stroke-width="1.5" stroke-miterlimit="10"/>
<path d="M321.889 55L324.071 61.6826C324.695 63.5962 326.192 65.0835 328.096 65.7081L334.779 67.8893L328.096 70.0707C326.182 70.6953 324.695 72.1924 324.071 74.096L321.889 80.7787L319.708 74.096C319.083 72.1825 317.586 70.6953 315.683 70.0707L309 67.8893L315.683 65.7081C317.596 65.0835 319.083 63.5863 319.708 61.6826L321.889 55Z" stroke="white" stroke-width="1.5" stroke-miterlimit="10"/>
<path d="M281.207 13L282.765 17.7733C283.211 19.1401 284.28 20.2025 285.64 20.6486L290.413 22.2067L285.64 23.7648C284.273 24.2109 283.211 25.2803 282.765 26.64L281.207 31.4133L279.649 26.64C279.202 25.2732 278.133 24.2109 276.773 23.7648L272 22.2067L276.773 20.6486C278.14 20.2025 279.202 19.133 279.649 17.7733L281.207 13Z" stroke="white" stroke-width="1.5" stroke-miterlimit="10"/>
</svg>
