<svg width="430" height="400" viewBox="0 0 430 400" fill="none" xmlns="http://www.w3.org/2000/svg">
<mask id="mask0_814_2248" style="mask-type:alpha" maskUnits="userSpaceOnUse" x="0" y="0" width="430" height="400">
<rect width="430" height="400" fill="#D9D9D9"/>
</mask>
<g mask="url(#mask0_814_2248)">
<path d="M93.6899 15.177V-5" stroke="white" stroke-width="0.5" stroke-miterlimit="10"/>
<path d="M99.1386 20.6812H88.2381C84.9308 22.576 82.6992 26.1366 82.6992 30.2213C82.6992 36.2911 87.6203 41.2122 93.6901 41.2122C99.7599 41.2122 104.681 36.2911 104.681 30.2213C104.681 26.1366 102.449 22.5725 99.1421 20.6812H99.1386Z" fill="#2B714F" stroke="white" stroke-width="0.5" stroke-miterlimit="10"/>
<path d="M89.5917 16.7664H97.7854C98.6079 16.7664 99.2741 17.4326 99.2741 18.2551V20.681H88.1063V18.2551C88.1063 17.4326 88.7727 16.7664 89.5951 16.7664H89.5917Z" fill="#2B714F" stroke="white" stroke-width="0.5" stroke-miterlimit="10"/>
<path d="M93.5097 25.6262L94.2731 27.9653C94.4918 28.6351 95.0158 29.1557 95.6821 29.3743L98.0212 30.1378L95.6821 30.9013C95.0123 31.1199 94.4918 31.6439 94.2731 32.3103L93.5097 34.6493L92.7462 32.3103C92.5275 31.6405 92.0035 31.1199 91.3372 30.9013L88.9981 30.1378L91.3372 29.3743C92.007 29.1557 92.5275 28.6316 92.7462 27.9653L93.5097 25.6262Z" fill="#2B714F" stroke="white" stroke-width="0.5" stroke-miterlimit="10"/>
<path d="M94.9082 16.7663V16.336C94.9082 15.6523 94.3529 15.097 93.6693 15.097C92.9856 15.097 92.4303 15.6523 92.4303 16.336V16.7663" fill="#2B714F"/>
<path d="M94.9082 16.7663V16.336C94.9082 15.6523 94.3529 15.097 93.6693 15.097C92.9856 15.097 92.4303 15.6523 92.4303 16.336V16.7663" stroke="white" stroke-width="0.5" stroke-miterlimit="10"/>
<path d="M88.894 8.25694L94.2384 11.6579L88.894 15.059C86.2113 16.7664 82.6992 14.8403 82.6992 11.6579C82.6992 8.47556 86.2113 6.5495 88.894 8.25694Z" fill="#2B714F" stroke="white" stroke-width="0.5" stroke-miterlimit="10"/>
<path d="M98.3823 8.25694L93.0378 11.6579L98.3823 15.059C101.065 16.7664 104.577 14.8403 104.577 11.6579C104.577 8.47556 101.065 6.5495 98.3823 8.25694Z" fill="#2B714F" stroke="white" stroke-width="0.5" stroke-miterlimit="10"/>
<path d="M95.4707 11.658C95.4707 12.6783 94.6447 13.5043 93.6244 13.5043C92.6041 13.5043 91.7782 12.6783 91.7782 11.658C91.7782 10.6377 92.6041 9.81177 93.6244 9.81177C94.6447 9.81177 95.4707 10.6377 95.4707 11.658Z" fill="#2B714F" stroke="white" stroke-width="0.5" stroke-miterlimit="10"/>
<path d="M115.404 6.08802V-5" stroke="white" stroke-width="0.5" stroke-miterlimit="10"/>
<path d="M122.14 15.1249C122.14 19.7163 115.467 23.4401 115.467 23.4401C115.467 23.4401 108.793 19.7163 108.793 15.1249C108.793 10.5336 115.467 6.80981 115.467 6.80981C115.467 6.80981 122.14 10.5336 122.14 15.1249Z" fill="#2B714F" stroke="white" stroke-width="0.5" stroke-miterlimit="10"/>
<path d="M114.811 6.08801H115.998C116.505 6.08801 116.914 6.49753 116.914 7.00421V7.8336H113.895V7.00421C113.895 6.49753 114.304 6.08801 114.811 6.08801Z" fill="#2B714F" stroke="white" stroke-width="0.5" stroke-miterlimit="10"/>
<path d="M115.623 12.0988V18.8938" stroke="white" stroke-width="0.5" stroke-miterlimit="10"/>
<path d="M119.027 15.5035H112.232" stroke="white" stroke-width="0.5" stroke-miterlimit="10"/>
<path d="M117.65 13.4767L113.603 17.5232" stroke="white" stroke-width="0.5" stroke-miterlimit="10"/>
<path d="M117.65 17.5333L113.603 13.4833" stroke="white" stroke-width="0.5" stroke-miterlimit="10"/>
<path d="M115.46 27.8335L117.553 30.7626L115.408 33.7679L113.312 30.8389L115.46 27.8335Z" fill="#2B714F" stroke="white" stroke-width="0.5" stroke-miterlimit="10"/>
<path d="M115.338 24.2729L116.539 25.9527L115.307 27.6775L114.106 25.9978L115.338 24.2729Z" fill="#2B714F" stroke="white" stroke-width="0.5" stroke-miterlimit="10"/>
<path d="M115.339 39.314L116.286 40.6396L115.314 42.0001L114.363 40.6743L115.339 39.314Z" fill="#2B714F" stroke="white" stroke-width="0.5" stroke-miterlimit="10"/>
<path d="M115.346 39.0258C116.704 39.0258 117.806 37.9242 117.806 36.5653C117.806 35.2063 116.704 34.1047 115.346 34.1047C113.987 34.1047 112.885 35.2063 112.885 36.5653C112.885 37.9242 113.987 39.0258 115.346 39.0258Z" fill="#2B714F" stroke="white" stroke-width="0.5" stroke-miterlimit="10"/>
<path style="mix-blend-mode:screen" d="M119.003 15.7085C119.003 17.6845 117.4 19.2877 115.424 19.2877C113.448 19.2877 111.845 17.6845 111.845 15.7085C111.845 13.7325 113.448 12.1293 115.424 12.1293C117.4 12.1293 119.003 13.7325 119.003 15.7085Z" fill="url(#paint0_radial_814_2248)"/>
</g>
<defs>
<radialGradient id="paint0_radial_814_2248" cx="0" cy="0" r="1" gradientUnits="userSpaceOnUse" gradientTransform="translate(115.424 15.7085) scale(3.57923 3.57921)">
<stop stop-color="#ADADAD"/>
<stop offset="0.06" stop-color="#8F8F8F"/>
<stop offset="0.15" stop-color="#696969"/>
<stop offset="0.25" stop-color="#484848"/>
<stop offset="0.35" stop-color="#2D2D2D"/>
<stop offset="0.47" stop-color="#191919"/>
<stop offset="0.59" stop-color="#0B0B0B"/>
<stop offset="0.75" stop-color="#020202"/>
<stop offset="1"/>
</radialGradient>
</defs>
</svg>
