<svg width="430" height="400" viewBox="0 0 430 400" fill="none" xmlns="http://www.w3.org/2000/svg">
<mask id="mask0_814_2270" style="mask-type:alpha" maskUnits="userSpaceOnUse" x="0" y="0" width="430" height="400">
<rect width="430" height="400" fill="#D9D9D9"/>
</mask>
<g mask="url(#mask0_814_2270)">
<path d="M395 193L397.2 199.74C397.83 201.67 399.34 203.17 401.26 203.8L408 206L401.26 208.2C399.33 208.83 397.83 210.34 397.2 212.26L395 219L392.8 212.26C392.17 210.33 390.66 208.83 388.74 208.2L382 206L388.74 203.8C390.67 203.17 392.17 201.66 392.8 199.74L395 193Z" stroke="#F2F2F2" stroke-width="0.5" stroke-miterlimit="10"/>
<path d="M47.5 273L49.1077 277.925C49.568 279.336 50.6715 280.432 52.0746 280.892L57 282.5L52.0746 284.108C50.6642 284.568 49.568 285.672 49.1077 287.075L47.5 292L45.8923 287.075C45.432 285.664 44.3285 284.568 42.9254 284.108L38 282.5L42.9254 280.892C44.3358 280.432 45.432 279.328 45.8923 277.925L47.5 273Z" stroke="#F2F2F2" stroke-width="0.5" stroke-miterlimit="10"/>
</g>
</svg>
